<svg width="503" height="416" viewBox="0 0 503 416" fill="none" xmlns="http://www.w3.org/2000/svg">
<g opacity="0.7">
<path d="M96.2266 348.947C93.6366 327.463 80.7294 306.295 60.8672 299.304C68.7003 321.417 68.6986 345.675 60.8624 367.787C57.8103 376.304 53.5561 385.448 56.4269 394.031C58.2132 399.372 62.5829 403.458 67.4674 406.013C72.3522 408.568 77.7733 409.786 83.1266 410.979L84.1801 411.878C92.6783 392.083 98.8166 370.432 96.2266 348.947Z" fill="#E2F0FE"/>
<path d="M60.6698 299.71C72.2366 313.079 79.4257 329.868 81.216 347.693C81.6675 351.523 81.5308 355.402 80.8112 359.188C79.9946 362.853 78.2415 366.226 75.7342 368.955C73.4458 371.549 70.814 373.928 69.1767 377.051C68.3616 378.662 67.8858 380.432 67.7806 382.246C67.6754 384.06 67.943 385.877 68.566 387.577C70.0116 391.854 72.8608 395.34 75.7619 398.649C78.9829 402.323 82.3851 406.087 83.7543 410.959C83.9202 411.549 84.7983 411.249 84.6326 410.659C82.2504 402.184 74.2752 397.37 70.4718 389.737C68.6971 386.175 67.9522 382.04 69.6159 378.28C71.0708 374.992 73.7828 372.536 76.1218 369.93C78.6056 367.305 80.4284 364.091 81.4309 360.571C82.3351 356.835 82.6164 352.967 82.2627 349.134C81.5999 340.49 79.6237 332.008 76.4066 323.997C72.784 314.834 67.6687 306.378 61.2818 298.994C60.8863 298.537 60.2769 299.256 60.6698 299.71Z" fill="#8DC5E0"/>
<path d="M80.967 341.918C83.8252 341.202 86.3437 339.461 88.0727 337.007C89.8017 334.552 90.6286 331.544 90.4057 328.518C90.3586 327.906 89.4345 327.953 89.4817 328.566C89.6942 331.383 88.9237 334.185 87.3091 336.467C85.6946 338.75 83.3423 340.361 80.677 341.012C80.0979 341.154 80.3913 342.059 80.967 341.918Z" fill="#8DC5E0"/>
<path d="M77.0619 367.798C71.8996 364.618 68.0887 359.548 66.3892 353.599C66.2213 353.009 65.3431 353.309 65.5108 353.898C67.2906 360.086 71.2668 365.354 76.6458 368.65C77.1587 368.964 77.572 368.11 77.0619 367.798Z" fill="#8DC5E0"/>
<path d="M71.9261 315.739C70.8761 316.254 69.7187 316.492 68.5577 316.431C67.3967 316.37 66.2685 316.013 65.2745 315.391C64.7657 315.071 64.353 315.925 64.8585 316.243C65.9598 316.925 67.2063 317.318 68.4888 317.388C69.7714 317.458 71.0511 317.203 72.2161 316.645C72.3302 316.602 72.4241 316.516 72.4787 316.404C72.5334 316.292 72.5446 316.163 72.5102 316.043C72.4713 315.923 72.388 315.824 72.2787 315.767C72.1693 315.71 72.0426 315.7 71.9261 315.739Z" fill="#8DC5E0"/>
<path d="M0.324463 337.677C0.63665 337.886 0.948837 338.096 1.26141 338.313C5.44443 341.151 9.39706 344.334 13.0803 347.832C13.3693 348.098 13.6582 348.371 13.9391 348.645C22.7258 357.17 29.902 367.303 35.1027 378.53C37.1682 383 38.9011 387.625 40.2864 392.365C42.1992 398.912 43.7681 406.168 47.5544 411.524C47.9433 412.087 48.3657 412.625 48.8192 413.134H83.0356C83.1133 413.094 83.1914 413.062 83.2696 413.021L84.6357 413.086C84.5809 412.836 84.5187 412.579 84.4638 412.329C84.4326 412.184 84.3937 412.039 84.3624 411.894C84.3392 411.797 84.3156 411.701 84.2999 411.612C84.2923 411.58 84.2843 411.548 84.2767 411.524C84.2611 411.435 84.2374 411.354 84.2218 411.274C83.8783 409.832 83.5245 408.391 83.1602 406.949C83.1602 406.941 83.1602 406.941 83.1526 406.933C80.3497 395.957 76.634 385.126 71.4427 375.22C71.2864 374.922 71.1305 374.616 70.9586 374.318C68.5945 369.867 65.8818 365.622 62.8474 361.627C61.179 359.444 59.4047 357.351 57.5311 355.353C52.6803 350.202 47.0744 345.871 40.9188 342.517C28.6466 335.833 14.4389 333.272 1.32354 337.355C0.988098 337.46 0.659904 337.564 0.324463 337.677Z" fill="#E2F0FE"/>
<path d="M0.401215 338.125C17.4397 341.616 32.9787 350.556 44.8111 363.676C47.407 366.453 49.5622 369.636 51.1974 373.106C52.6843 376.539 53.2529 380.321 52.8441 384.058C52.5307 387.55 51.8181 391.084 52.3331 394.594C52.6225 396.387 53.276 398.096 54.2507 399.609C55.2254 401.123 56.4993 402.407 57.9888 403.378C61.6393 405.895 65.9489 406.909 70.1967 407.749C74.913 408.682 79.8262 409.575 83.7625 412.614C84.2394 412.982 84.7654 412.197 84.2892 411.829C77.4407 406.542 68.2633 407.651 60.7713 403.919C57.2754 402.177 54.2672 399.338 53.4012 395.303C52.6439 391.774 53.3757 388.128 53.7226 384.595C54.1733 380.956 53.7533 377.258 52.4992 373.825C51.0406 370.28 49.0079 367.018 46.488 364.176C40.914 357.687 34.3855 352.141 27.1416 347.744C18.9011 342.677 9.88129 339.102 0.472252 337.173C-0.110115 337.054 -0.177361 338.007 0.401215 338.125Z" fill="#8DC5E0"/>
</g>
<g opacity="0.4">
<path d="M77.4059 379.495C78.6203 368.164 84.6719 356.998 93.9846 353.311C90.3119 364.974 90.3127 377.77 93.9868 389.433C95.4178 393.925 97.4125 398.748 96.0664 403.275C95.2289 406.092 93.1801 408.248 90.89 409.595C88.5997 410.943 86.0579 411.585 83.548 412.215L83.054 412.689C79.0695 402.248 76.1915 390.827 77.4059 379.495Z" fill="#E2F0FE"/>
<path d="M94.0765 353.524C88.6533 360.576 85.2826 369.431 84.4432 378.833C84.2315 380.853 84.2956 382.899 84.633 384.896C85.0158 386.83 85.8378 388.608 87.0134 390.048C88.0863 391.416 89.3203 392.671 90.0879 394.318C90.4701 395.168 90.6932 396.102 90.7425 397.059C90.7919 398.015 90.6664 398.973 90.3742 399.87C89.6965 402.126 88.3606 403.965 87.0004 405.71C85.4902 407.648 83.895 409.634 83.2531 412.203C83.1753 412.514 82.7636 412.356 82.8412 412.045C83.9582 407.575 87.6974 405.036 89.4807 401.009C90.3128 399.131 90.6621 396.95 89.882 394.966C89.1998 393.232 87.9283 391.937 86.8317 390.562C85.6671 389.177 84.8124 387.483 84.3424 385.626C83.9185 383.655 83.7866 381.615 83.9524 379.593C84.2632 375.034 85.1897 370.56 86.6981 366.335C88.3966 361.502 90.795 357.041 93.7895 353.146C93.975 352.906 94.2607 353.285 94.0765 353.524Z" fill="#C4C4C4"/>
<path d="M84.5599 375.787C83.2198 375.409 82.0389 374.491 81.2283 373.197C80.4176 371.902 80.0299 370.315 80.1344 368.719C80.1565 368.397 80.5898 368.421 80.5676 368.744C80.468 370.23 80.8293 371.708 81.5863 372.912C82.3433 374.116 83.4462 374.966 84.6958 375.309C84.9673 375.384 84.8298 375.861 84.5599 375.787Z" fill="#C4C4C4"/>
<path d="M86.39 389.437C88.8104 387.76 90.5972 385.086 91.394 381.948C91.4728 381.637 91.8845 381.795 91.8059 382.106C90.9714 385.369 89.1071 388.148 86.5851 389.887C86.3446 390.052 86.1509 389.602 86.39 389.437Z" fill="#C4C4C4"/>
<path d="M88.7992 361.979C89.2915 362.25 89.8341 362.376 90.3785 362.344C90.9228 362.311 91.4518 362.123 91.9178 361.795C92.1564 361.626 92.3499 362.077 92.1129 362.245C91.5965 362.604 91.0121 362.811 90.4108 362.848C89.8094 362.885 89.2094 362.751 88.6632 362.457C88.6097 362.434 88.5657 362.388 88.5401 362.329C88.5144 362.27 88.5092 362.202 88.5253 362.139C88.5436 362.076 88.5826 362.023 88.6339 361.993C88.6851 361.964 88.7446 361.958 88.7992 361.979Z" fill="#C4C4C4"/>
<path d="M122.371 373.55C122.224 373.66 122.078 373.771 121.931 373.885C119.97 375.382 118.117 377.061 116.39 378.906C116.254 379.046 116.119 379.191 115.987 379.335C111.868 383.831 108.503 389.176 106.064 395.098C105.096 397.455 104.284 399.895 103.634 402.395C102.737 405.849 102.002 409.676 100.226 412.501C100.044 412.798 99.8459 413.081 99.6334 413.35H83.5906C83.5541 413.329 83.5175 413.312 83.4809 413.291L82.8403 413.325C82.8661 413.193 82.8952 413.057 82.9209 412.925C82.9356 412.849 82.9538 412.772 82.9685 412.696C82.9794 412.645 82.9904 412.594 82.9978 412.547C83.0014 412.53 83.0051 412.513 83.0087 412.501C83.016 412.454 83.0271 412.411 83.0344 412.369C83.1955 411.609 83.3614 410.848 83.5322 410.088C83.5322 410.084 83.5322 410.084 83.5357 410.079C84.8499 404.29 86.5921 398.577 89.0261 393.352C89.0993 393.195 89.1724 393.034 89.253 392.876C90.3614 390.528 91.6333 388.29 93.056 386.182C93.8383 385.031 94.6702 383.927 95.5487 382.873C97.823 380.156 100.451 377.871 103.338 376.102C109.091 372.577 115.753 371.226 121.902 373.38C122.059 373.435 122.213 373.49 122.371 373.55Z" fill="#E2F0FE"/>
<path d="M122.334 373.787C114.346 375.628 107.06 380.343 101.512 387.264C100.295 388.729 99.2846 390.407 98.5179 392.238C97.8207 394.049 97.5541 396.043 97.7458 398.014C97.8928 399.856 98.2268 401.72 97.9854 403.572C97.8497 404.517 97.5433 405.419 97.0863 406.217C96.6293 407.015 96.032 407.693 95.3336 408.205C93.6221 409.532 91.6015 410.067 89.6098 410.51C87.3985 411.003 85.0949 411.473 83.2494 413.076C83.0257 413.27 82.7791 412.856 83.0024 412.662C86.2134 409.874 90.5163 410.459 94.029 408.49C95.6681 407.571 97.0786 406.074 97.4846 403.945C97.8397 402.084 97.4966 400.161 97.3339 398.298C97.1226 396.378 97.3195 394.428 97.9075 392.617C98.5914 390.747 99.5445 389.026 100.726 387.528C103.339 384.105 106.4 381.18 109.797 378.86C113.66 376.188 117.889 374.302 122.301 373.285C122.574 373.222 122.606 373.724 122.334 373.787Z" fill="#C4C4C4"/>
</g>
<path d="M60.8708 205.274L77.8515 259.991C81.3815 271.369 91.2122 279.032 102.277 279.032H198.349C209.414 279.032 219.245 271.369 222.777 259.991L236.741 214.986C239.176 207.143 233.798 199.02 226.171 199.02H215.414C210.347 199.02 206.053 194.981 205.346 189.526L199.067 141.253C197.571 129.726 188.48 121.156 177.754 121.156H91.2423C78.1682 121.156 68.1108 133.7 69.9263 147.752L75.3072 189.4C75.9624 194.483 72.326 199.02 67.5948 199.02H64.9986C62.0256 199.02 59.918 202.202 60.8708 205.274Z" fill="#1B3C87"/>
<path d="M143.655 277.562H157.737V380.799H143.655V277.562Z" fill="white" stroke="#0047AB" stroke-width="3" stroke-miterlimit="10"/>
<path d="M112.301 394.542V389.755C112.301 384.809 118.067 380.797 125.179 380.797H175.365C182.463 380.797 188.242 384.809 188.242 389.755V394.542" stroke="#0047AB" stroke-width="5" stroke-miterlimit="10"/>
<path d="M187.975 414.026C182.52 414.026 178.098 409.664 178.098 404.284C178.098 398.904 182.52 394.543 187.975 394.543C193.43 394.543 197.853 398.904 197.853 404.284C197.853 409.664 193.43 414.026 187.975 414.026Z" fill="white" stroke="#0047AB" stroke-width="3" stroke-miterlimit="10"/>
<path d="M112.479 414.026C107.024 414.026 102.602 409.664 102.602 404.284C102.602 398.904 107.024 394.543 112.479 394.543C117.934 394.543 122.356 398.904 122.356 404.284C122.356 409.664 117.934 414.026 112.479 414.026Z" fill="white" stroke="#0047AB" stroke-width="3" stroke-miterlimit="10"/>
<path d="M274.463 365.735C275.727 370.415 280.316 386.416 278.67 392.157C277.024 397.897 272.41 402.119 273.682 407.972C275.047 414.205 312.112 410.263 313.251 410.013C314.389 409.763 293.565 398.36 293.322 389.876C293.079 381.392 295.822 365.735 295.822 365.735H274.463Z" fill="#F77F89"/>
<path d="M319.181 414.479H273.36C272.27 414.479 271.386 413.608 271.386 412.533V412.53C271.386 411.455 272.27 410.583 273.36 410.583H319.181C320.271 410.583 321.154 411.455 321.154 412.53V412.533C321.154 413.608 320.271 414.479 319.181 414.479Z" fill="#1B3C87"/>
<path d="M286.366 410.835C286.366 410.835 291.181 405.046 297.965 403.344C305.402 401.478 309.008 402.472 313.019 404.472C316.904 406.408 319.077 410.587 319.077 410.587L286.366 410.835Z" fill="#0047AB"/>
<path d="M286.202 410.746C286.202 410.746 286.612 397.179 277.515 395.415C277.515 395.415 268.779 403.105 273.611 410.746H286.202Z" fill="#0047AB"/>
<path d="M274.463 365.735H295.82C295.82 365.735 295.293 368.746 294.728 372.838C286.958 373.56 278.973 371.018 275.569 369.747C275.118 368.072 274.736 366.675 274.463 365.735Z" fill="#F77F89"/>
<path d="M224.19 273.594C235.989 273.575 248.086 273.478 264.048 273.241C262.091 286.795 260.054 303.636 260.365 317.449C260.66 330.464 263.368 332.22 263.259 337.702C263.074 346.514 269.028 349.435 267.103 355.741C263.865 366.296 274.474 365.744 274.474 365.744C274.474 365.744 288.362 368.267 298.891 365.744L309.648 256.698C312.741 246.564 299.17 234.351 285.768 228.428C262.697 218.237 175.156 179.274 163.687 214.89C160.646 224.365 170.436 273.685 224.19 273.594Z" fill="#1B3C87"/>
<path d="M209.398 365.735C210.662 370.415 215.249 386.416 213.605 392.157C211.962 397.897 207.345 402.119 208.615 407.972C209.98 414.205 247.045 410.263 248.183 410.013C249.322 409.763 228.5 398.36 228.254 389.876C228.009 381.392 230.752 365.735 230.752 365.735H209.398Z" fill="#F77F89"/>
<path d="M254.103 414.48H208.282C207.192 414.48 206.309 413.609 206.309 412.534V412.531C206.309 411.456 207.192 410.584 208.282 410.584H254.103C255.193 410.584 256.077 411.456 256.077 412.531V412.534C256.077 413.609 255.193 414.48 254.103 414.48Z" fill="#1B3C87"/>
<path d="M221.288 410.836C221.288 410.836 226.106 405.047 232.89 403.345C240.324 401.479 243.933 402.473 247.944 404.473C251.828 406.409 254.001 410.588 254.001 410.588L221.288 410.836Z" fill="#0047AB"/>
<path d="M221.124 410.747C221.124 410.747 221.536 397.18 212.44 395.416C212.44 395.416 203.704 403.106 208.536 410.747H221.124Z" fill="#0047AB"/>
<path d="M209.398 365.735H230.744C230.744 365.735 230.215 368.746 229.652 372.838C221.88 373.56 213.894 371.018 210.49 369.747C210.034 368.072 209.652 366.675 209.398 365.735Z" fill="#F77F89"/>
<path d="M167.198 273.593C178.997 273.575 191.093 273.478 207.056 273.241C205.098 286.795 203.062 303.636 203.373 317.448C203.668 330.464 202.341 332.219 202.224 337.701C202.038 346.514 203.952 349.435 202.027 355.741C198.789 366.295 209.398 365.743 209.398 365.743C209.398 365.743 223.286 368.266 233.815 365.743L252.652 256.698C255.743 246.564 250.258 234.351 236.857 228.427C213.783 218.236 129.125 170.49 115.18 224.057C112.687 233.675 113.441 273.685 167.198 273.593Z" fill="#0047AB"/>
<path d="M235.026 358.273C225.025 361.725 209.525 362.465 202.274 356.547" stroke="#8D8D8D" stroke-width="2" stroke-linecap="round"/>
<path d="M299.279 358.519C289.278 361.972 274.528 362.465 267.277 356.547" stroke="#8D8D8D" stroke-width="2" stroke-linecap="round"/>
<path d="M201.042 84.4363L201.042 84.4364C200.856 85.5848 200.587 86.653 200.308 87.7643C199.46 91.1338 198.513 94.8982 199.47 102.489C200.746 112.608 205.417 129.453 218.319 160.799L217.857 160.99L218.319 160.799C220.74 166.682 223.76 170.34 226.866 172.36C229.965 174.376 233.179 174.782 236.048 174.117C241.829 172.778 246.228 167.102 245.531 161.278C245.171 158.27 243.894 153.03 242.079 146.658C240.267 140.298 237.929 132.842 235.462 125.416C230.523 110.552 225.081 95.8623 222.313 90.3369L222.313 90.3368C219.362 84.446 214.248 81.2185 209.753 80.3736C207.502 79.9506 205.44 80.1304 203.89 80.8337C202.356 81.5298 201.317 82.7368 201.042 84.4363Z" fill="white" stroke="#C9C9C9"/>
<path d="M227.049 171.178C245.733 180.367 318.543 175.047 318.753 170.432C318.996 165.047 254.472 152.958 240.734 151.477C224.346 149.711 215.91 165.702 227.049 171.178Z" fill="#F77F89"/>
<path d="M305.894 167.454C306.361 165.801 319.348 166.025 323.609 167.185C327.871 168.346 333.71 173.222 334.529 174.296C335.348 175.37 337.259 180.976 337.259 180.976C337.259 180.976 335.588 183.06 333.189 179.859C330.789 176.657 324.685 173.267 323.213 174.239C319.907 176.423 327.521 178.055 328.441 179.355C329.361 180.656 328.963 181.509 328.963 181.509C328.963 181.509 321.068 179.956 319.842 179.872C318.616 179.789 314.466 178.106 312.034 176.165C309.601 174.223 305.206 169.891 305.894 167.454Z" fill="#F77F89"/>
<path d="M115.693 232.583L115.693 232.583C132.518 213.091 156.214 205.332 175.653 202.437C185.377 200.989 194.052 200.755 200.296 200.884C203.418 200.948 205.934 201.103 207.671 201.241C208.308 201.292 208.84 201.341 209.259 201.383C203.76 193.432 201.764 185.578 201.679 171.546C201.635 164.252 202.55 159.035 203.714 155.479C204.296 153.701 204.942 152.334 205.564 151.328C206.181 150.332 206.794 149.662 207.325 149.315L207.325 149.315C210.4 147.31 213.208 144.854 215.119 141.713C217.024 138.581 218.053 134.742 217.532 129.931C217.204 126.896 216.994 121.248 216.756 114.842C216.607 110.827 216.447 106.514 216.239 102.361C215.969 96.9549 215.619 91.8106 215.112 87.9021C214.857 85.9457 214.566 84.3169 214.231 83.1257C214.063 82.5293 213.889 82.0603 213.712 81.7207C213.528 81.3677 213.375 81.2189 213.283 81.1703C209.623 79.2317 206.864 77.8186 203.046 76.6261C199.22 75.4317 194.314 74.454 186.37 73.416L186.37 73.416C181.374 72.761 160.142 71.7 143.751 75.7348L143.75 75.7348C136.419 77.5378 130.734 80.5051 127.523 85.8317C124.309 91.1632 123.5 98.9801 126.217 110.655C128.918 122.23 131.535 135.128 133.199 146.054C134.032 151.516 134.627 156.493 134.875 160.569C135.122 164.622 135.031 167.854 134.448 169.781C133.162 174.034 130.346 181.753 127.185 190.421C124.582 197.556 121.745 205.333 119.333 212.35C116.654 220.147 114.502 226.995 113.748 231.036C113.56 232.045 113.463 232.857 113.462 233.453C113.462 233.752 113.486 233.978 113.525 234.14C113.56 234.286 113.6 234.346 113.615 234.364C113.62 234.364 113.626 234.364 113.634 234.363C113.695 234.356 113.818 234.318 114.018 234.191C114.415 233.937 114.967 233.425 115.693 232.583Z" fill="white" stroke="#C9C9C9"/>
<path d="M148.054 74.5596L185.665 118.431L202.267 75.3296" stroke="white" stroke-width="8.88" stroke-miterlimit="10"/>
<path d="M130.217 82.1471L130.216 82.1475C123.512 88.2676 114.836 100.821 95.9147 165.901C94.1331 172.032 93.8322 176.528 94.4388 179.658C95.0425 182.774 96.5327 184.502 98.3408 185.221C100.173 185.949 102.451 185.69 104.703 184.573C106.949 183.459 109.12 181.512 110.696 178.961C113.933 173.721 122.397 159.155 130.386 144.383C134.38 136.997 138.252 129.565 141.291 123.225C144.339 116.866 146.525 111.656 147.177 108.69C149.464 98.2839 146.476 90.3968 142.273 85.7568C140.166 83.431 137.763 81.9302 135.573 81.3201C133.379 80.7085 131.467 81.0035 130.217 82.1471Z" fill="white" stroke="#C9C9C9"/>
<path d="M98.6999 185.929C118.083 195.547 197.294 185.253 197.527 180.461C197.8 174.858 129.953 169.774 115.686 168.18C98.6726 166.282 87.1492 180.208 98.6999 185.929Z" fill="#F77F89"/>
<path d="M186.735 181.415C186.637 183.13 199.006 187.04 203.423 187.282C207.841 187.525 214.958 184.77 216.088 184.016C217.218 183.262 220.863 178.559 220.863 178.559C220.863 178.559 219.959 176.057 216.645 178.327C213.331 180.597 206.443 181.87 205.367 180.481C202.951 177.363 210.688 178.236 211.988 177.293C213.287 176.351 213.181 175.408 213.181 175.408C213.181 175.408 205.201 174.374 204.013 174.062C202.826 173.75 198.348 174.033 195.411 175.096C192.473 176.16 186.877 178.89 186.735 181.415Z" fill="#F77F89"/>
<path d="M164.225 41.4428C157.755 40.1855 149.09 28.414 152.06 18.3226C155.031 8.23119 169.554 -3.6534 184.411 1.06651C199.268 5.78642 208.383 12.8272 206.617 27.2777C205.214 38.7665 168.755 76.2808 143.63 74.8564C133.529 74.2856 123.341 53.3382 136.532 45.5246C149.724 37.7111 164.225 41.4428 164.225 41.4428Z" fill="black"/>
<path d="M130.576 45.5244C143.92 33.454 163.854 41.0764 163.854 41.0764" stroke="black" stroke-width="5.92" stroke-miterlimit="10"/>
<path d="M166.263 40.1992C166.263 40.1992 168.384 63.9953 155.689 73.2951L182.812 104.447L194.633 74.4825C194.633 74.4825 181.392 72.0593 186.855 40.1992H166.263Z" fill="#F77F89"/>
<path d="M166.393 44.8022C166.437 45.2329 166.467 45.4914 166.467 45.4914C166.467 49.8694 175.512 66.6462 188.053 68.0409C185.779 63.1945 184.354 54.7885 186.857 40.1846H166.262C166.262 40.1846 166.423 41.9912 166.393 44.8022Z" fill="#F77F89"/>
<path d="M166.356 40.6999C166.381 40.93 166.397 41.0605 166.397 41.0605C166.011 44.1601 179.294 56.5457 189.781 57.6837C194.49 58.1952 201.495 45.5257 202.648 41.2344C204.327 34.9789 204.42 28.8079 204.505 26.5625C204.642 22.9232 204.395 13.8086 193.145 13.8086C181.824 13.8086 175.458 37.0428 167.111 32.3473C166.957 32.0251 165.528 29.2938 161.897 31.4548C159.219 33.0557 163.267 38.9608 166.356 40.6999Z" fill="#F77F89"/>
<path d="M230.563 147.033H350.485C352.445 147.033 354.357 146.433 355.958 145.317C357.558 144.201 358.769 142.623 359.423 140.8L383.925 72.5489C384.277 71.57 384.385 70.522 384.241 69.4932C384.097 68.4644 383.704 67.4848 383.096 66.6366C382.489 65.7884 381.683 65.0965 380.748 64.619C379.813 64.1415 378.775 63.8924 377.722 63.8926H256.818C255.144 63.8923 253.512 64.4038 252.145 65.3566C250.779 66.3094 249.745 67.6567 249.188 69.2129L224.344 138.374C223.992 139.355 223.884 140.404 224.029 141.435C224.174 142.465 224.568 143.445 225.178 144.294C225.787 145.143 226.595 145.835 227.532 146.311C228.469 146.788 229.509 147.036 230.563 147.033Z" fill="white"/>
<path d="M234.292 150.711H354.216C356.177 150.711 358.088 150.112 359.689 148.996C361.29 147.881 362.5 146.303 363.155 144.481L387.656 76.2293C388.008 75.25 388.116 74.2017 387.972 73.1726C387.828 72.1435 387.435 71.1635 386.827 70.3151C386.219 69.4667 385.414 68.7746 384.478 68.297C383.543 67.8193 382.505 67.5702 381.451 67.5703H260.541C258.866 67.5688 257.231 68.0796 255.862 69.0324C254.493 69.9853 253.457 71.3332 252.897 72.8906L228.071 142.055C227.718 143.035 227.61 144.085 227.755 145.115C227.9 146.146 228.295 147.126 228.904 147.975C229.514 148.824 230.322 149.515 231.26 149.991C232.198 150.468 233.238 150.714 234.292 150.711Z" fill="#AADAF1"/>
<path d="M230.563 146.664H350.485C352.445 146.664 354.357 146.065 355.957 144.95C357.558 143.834 358.769 142.256 359.423 140.434L383.925 72.1824C384.276 71.2034 384.384 70.1553 384.24 69.1264C384.096 68.0975 383.704 67.1177 383.096 66.2694C382.488 65.421 381.683 64.7289 380.748 64.251C379.813 63.7732 378.775 63.5237 377.722 63.5234H256.818C255.144 63.5235 253.512 64.0352 252.145 64.988C250.779 65.9407 249.745 67.2878 249.187 68.8438L224.344 138.005C223.992 138.986 223.884 140.035 224.029 141.065C224.174 142.096 224.568 143.076 225.177 143.925C225.787 144.774 226.594 145.466 227.532 145.942C228.469 146.419 229.509 146.667 230.563 146.664V146.664Z" stroke="#96BED5" stroke-width="3" stroke-miterlimit="10"/>
<path d="M293.119 165.526H328.767L317.577 118.798H281.925L293.119 165.526Z" fill="#8DC5E0" stroke="#8DC5E0" stroke-width="7.4" stroke-miterlimit="10"/>
<path d="M284.26 39.0356C280.509 39.0356 277.921 35.425 277.921 31.6286V10.3769C277.92 9.39583 278.116 8.42431 278.496 7.51783C278.877 6.61135 279.434 5.78767 280.138 5.09383C280.841 4.39999 281.676 3.84959 282.595 3.47407C283.514 3.09856 284.499 2.90527 285.494 2.90527H334.525C335.52 2.90492 336.505 3.09794 337.424 3.4733C338.344 3.84866 339.179 4.399 339.882 5.09288C340.586 5.78675 341.144 6.61054 341.525 7.5172C341.905 8.42386 342.101 9.3956 342.101 10.3769V31.6286C342.101 32.6096 341.905 33.5811 341.524 34.4874C341.143 35.3938 340.585 36.2173 339.882 36.9109C339.178 37.6045 338.343 38.1545 337.424 38.5297C336.505 38.9049 335.52 39.0978 334.525 39.0975H305.778C298.74 39.0975 294.948 50.2632 294.948 50.2632C294.948 50.2632 292.551 39.0356 284.26 39.0356Z" fill="white" stroke="#3F4D79" stroke-width="3" stroke-miterlimit="10"/>
<path d="M324.034 23.6052C322.471 23.6052 321.205 22.3563 321.205 20.8158C321.205 19.2752 322.471 18.0264 324.034 18.0264C325.596 18.0264 326.862 19.2752 326.862 20.8158C326.862 22.3563 325.596 23.6052 324.034 23.6052Z" fill="white" stroke="#3F4D79" stroke-width="2" stroke-miterlimit="10"/>
<path d="M310.012 23.7878C308.45 23.7878 307.183 22.5389 307.183 20.9984C307.183 19.4578 308.45 18.209 310.012 18.209C311.574 18.209 312.84 19.4578 312.84 20.9984C312.84 22.5389 311.574 23.7878 310.012 23.7878Z" fill="white" stroke="#3F4D79" stroke-width="2" stroke-miterlimit="10"/>
<path d="M295.993 23.7878C294.431 23.7878 293.165 22.5389 293.165 20.9984C293.165 19.4578 294.431 18.209 295.993 18.209C297.555 18.209 298.821 19.4578 298.821 20.9984C298.821 22.5389 297.555 23.7878 295.993 23.7878Z" fill="white" stroke="#3F4D79" stroke-width="2" stroke-miterlimit="10"/>
<path fill-rule="evenodd" clip-rule="evenodd" d="M174.48 55.1764C173.36 53.6295 174.98 46.5781 176.746 43.3476C178.876 41.9756 186.431 43.118 190.326 39.4557C191.471 38.3625 192.086 39.1714 192.976 40.3685C194.541 42.4676 199.247 43.5553 201.007 44.7415C201.267 47.8025 198.697 54.8102 197.587 56.379C195.846 58.8661 179.941 59.0902 174.48 55.1764Z" fill="white"/>
<path d="M177.024 47.8355C175.767 45.7457 170.275 36.3965 168.523 34.0273" stroke="white" stroke-width="3.41" stroke-linecap="round" stroke-linejoin="round"/>
<path d="M176.524 54.8366C173.479 54.8366 166.239 44.4235 165.414 40.9307" stroke="white" stroke-width="3.41" stroke-linecap="round" stroke-linejoin="round"/>
<path fill-rule="evenodd" clip-rule="evenodd" d="M409.961 184.753C409.961 179.674 401.859 175.566 391.87 175.566C381.881 175.566 373.778 179.674 373.778 184.753C373.778 189.832 381.881 193.932 391.87 193.932C401.859 193.932 409.961 189.839 409.961 184.753Z" fill="#8DC5E0"/>
<path fill-rule="evenodd" clip-rule="evenodd" d="M498.693 186.807H152.251C151.364 186.807 150.512 187.154 149.885 187.774C149.257 188.393 148.904 189.232 148.904 190.108V196.083C148.904 196.958 149.257 197.798 149.885 198.417C150.512 199.036 151.364 199.384 152.251 199.384H498.693C499.581 199.384 500.432 199.036 501.06 198.417C501.687 197.798 502.04 196.958 502.04 196.083V190.108C502.04 189.232 501.687 188.393 501.06 187.774C500.432 187.154 499.581 186.807 498.693 186.807Z" fill="#AADAF1"/>
<path d="M394.649 199.683L464.705 411.659" stroke="#AADAF1" stroke-width="2" stroke-linecap="round" stroke-linejoin="round"/>
<path d="M394.649 199.683L324.601 411.659" stroke="#AADAF1" stroke-width="2" stroke-linecap="round" stroke-linejoin="round"/>
<path d="M451.529 199.683L381.481 411.659" stroke="#AADAF1" stroke-width="2" stroke-linecap="round" stroke-linejoin="round"/>
<path d="M257.93 199.683L327.986 411.659" stroke="#AADAF1" stroke-width="2" stroke-linecap="round" stroke-linejoin="round"/>
<path d="M201.05 199.683L271.106 411.659" stroke="#AADAF1" stroke-width="2" stroke-linecap="round" stroke-linejoin="round"/>
<path d="M201.051 199.683L131.002 411.659" stroke="#AADAF1" stroke-width="2" stroke-linecap="round" stroke-linejoin="round"/>
<path fill-rule="evenodd" clip-rule="evenodd" d="M217.537 154.355H187.336V186.807H217.537V154.355Z" fill="#8DC5E0"/>
<path d="M284.152 186.219L288.384 184.496L291.286 163.989H329.94L333.087 184.413L336.872 186.243C337.053 186.33 337.199 186.474 337.284 186.652C337.37 186.829 337.392 187.029 337.345 187.22C337.299 187.41 337.187 187.58 337.028 187.701C336.869 187.823 336.673 187.889 336.47 187.889H284.501C284.294 187.889 284.092 187.82 283.932 187.693C283.771 187.565 283.661 187.389 283.62 187.192C283.579 186.995 283.609 186.791 283.706 186.614C283.804 186.436 283.961 186.297 284.152 186.219Z" fill="#AADAF1"/>
<path d="M257.93 199.683L187.881 411.659" stroke="#AADAF1" stroke-width="2" stroke-linecap="round" stroke-linejoin="round"/>
<path d="M149.523 74.4658C156.648 87.2988 171.083 101.925 178.524 107.507" stroke="#C9C9C9" stroke-width="2" stroke-linecap="round" stroke-linejoin="round"/>
<path d="M195.025 71.0137C201.451 79.3722 203.107 93.5757 198.073 108" stroke="#C9C9C9" stroke-width="2" stroke-linecap="round" stroke-linejoin="round"/>
<path d="M151.524 112.319C151.524 111.031 151.911 109.772 152.636 108.701C153.361 107.63 154.392 106.795 155.597 106.303C156.803 105.81 158.129 105.681 159.409 105.933C160.689 106.185 161.864 106.806 162.786 107.717C163.708 108.628 164.336 109.789 164.59 111.052C164.844 112.316 164.712 113.625 164.212 114.815C163.712 116.005 162.866 117.021 161.78 117.736C160.695 118.451 159.419 118.832 158.114 118.83C156.366 118.829 154.69 118.142 153.454 116.921C152.218 115.7 151.524 114.045 151.524 112.319V112.319Z" stroke="#353823" stroke-width="3.41" stroke-linecap="round" stroke-linejoin="round"/>
<path fill-rule="evenodd" clip-rule="evenodd" d="M154.821 112.319C154.821 111.703 155.015 111.101 155.377 110.589C155.74 110.077 156.255 109.678 156.857 109.442C157.46 109.206 158.123 109.145 158.763 109.265C159.402 109.385 159.99 109.682 160.451 110.117C160.913 110.553 161.227 111.108 161.354 111.712C161.481 112.316 161.416 112.942 161.166 113.511C160.917 114.08 160.494 114.566 159.952 114.909C159.409 115.251 158.772 115.433 158.119 115.433C157.245 115.433 156.406 115.105 155.787 114.521C155.169 113.937 154.821 113.145 154.821 112.319Z" fill="#353823"/>
<path d="M156.248 105.807C151.97 90.1649 150.481 68.5247 161.524 64.6016" stroke="#353823" stroke-width="3.41" stroke-linecap="round" stroke-linejoin="round"/>
<path d="M186.525 63.3691C193.194 66.034 196.206 76.5979 197.696 87.1224" stroke="#353823" stroke-width="3.41" stroke-linecap="round" stroke-linejoin="round"/>
<path d="M191.09 107.131C188.985 97.3542 192.16 88.4815 198.182 87.2608C204.203 86.0401 210.795 93.0139 212.883 102.791C214.97 112.568 211.813 121.441 205.791 122.656C199.77 123.871 193.195 116.891 191.09 107.131Z" stroke="#353823" stroke-width="3.41" stroke-linecap="round" stroke-linejoin="round"/>
<path fill-rule="evenodd" clip-rule="evenodd" d="M199.47 33.7083C199.25 32.4064 198.47 31.4448 197.69 31.573C196.91 31.7012 196.48 32.8552 196.69 34.1571C196.9 35.459 197.69 36.4206 198.47 36.2974C199.25 36.1741 199.685 35.0152 199.47 33.7083Z" fill="#B5545C"/>
<path fill-rule="evenodd" clip-rule="evenodd" d="M184.064 34.6845C183.859 33.4664 183.119 32.5689 182.404 32.6872C181.689 32.8056 181.274 33.8856 181.474 35.1037C181.674 36.3217 182.424 37.2143 183.139 37.0763C183.854 36.9382 184.269 35.9026 184.064 34.6845Z" fill="#B5545C"/>
<path d="M252.028 255.45C245.249 254.179 239.14 250.857 234.693 246.023C230.245 241.189 227.72 235.127 227.526 228.82" stroke="#8D8D8D" stroke-width="2" stroke-linecap="round" stroke-linejoin="round"/>
<path d="M124.337 225.368C105.14 276.461 195.584 273.384 213.591 267.532C216.284 275.748 205.591 353.093 205.591 353.093" stroke="#8D8D8D" stroke-width="2" stroke-linecap="round" stroke-linejoin="round"/>
<path d="M271.844 278C265.209 298.653 271.334 332.605 278.476 347" stroke="#5D8BCC" stroke-width="2" stroke-linecap="round"/>
<path d="M193 172.5C193 170.621 192.472 168.784 191.483 167.222C190.494 165.66 189.089 164.442 187.444 163.723C185.8 163.004 183.99 162.816 182.244 163.183C180.498 163.549 178.895 164.454 177.636 165.782C176.377 167.111 175.52 168.804 175.173 170.647C174.826 172.489 175.004 174.4 175.685 176.136C176.366 177.871 177.52 179.355 179 180.399C180.48 181.443 182.22 182 184 182C186.387 182 188.676 180.999 190.364 179.218C192.052 177.436 193 175.02 193 172.5V172.5Z" stroke="#8DC5E0" stroke-width="2" stroke-linecap="round" stroke-linejoin="round"/>
<path d="M215.5 159L187.5 159" stroke="#AADAF1" stroke-width="2" stroke-linecap="round" stroke-linejoin="round"/>
</svg>
