<svg width="486" height="416" viewBox="0 0 486 416" fill="none" xmlns="http://www.w3.org/2000/svg">
<path fill-rule="evenodd" clip-rule="evenodd" d="M84 49C84 46.4286 84.7626 43.9149 86.1913 41.7769C87.6201 39.639 89.6508 37.9727 92.0266 36.989C94.4024 36.0052 97.0166 35.7481 99.5385 36.2503C102.06 36.7524 104.377 37.9911 106.195 39.8098C108.012 41.6285 109.25 43.9455 109.751 46.4677C110.252 48.9898 109.994 51.6039 109.009 53.9792C108.024 56.3546 106.357 58.3844 104.218 59.8122C102.079 61.2399 99.5651 62.0012 96.9937 62C95.2868 62 93.5967 61.6637 92.0198 61.0103C90.4429 60.3569 89.0102 59.3992 87.8036 58.192C86.5969 56.9848 85.6399 55.5516 84.9873 53.9744C84.3347 52.3972 83.9992 50.7069 84 49Z" fill="#6A3416"/>
<path fill-rule="evenodd" clip-rule="evenodd" d="M171.434 338.345H279.567C280.282 338.345 280.968 338.629 281.473 339.134C281.978 339.639 282.262 340.325 282.262 341.039C282.261 341.753 281.976 342.437 281.471 342.941C280.966 343.445 280.281 343.728 279.567 343.728H171.434C170.721 343.728 170.036 343.445 169.531 342.941C169.026 342.437 168.741 341.753 168.74 341.039C168.74 340.325 169.024 339.639 169.529 339.134C170.034 338.629 170.72 338.345 171.434 338.345Z" fill="white"/>
<path fill-rule="evenodd" clip-rule="evenodd" d="M138.016 284.82C93.167 339.941 49.585 369.308 49.585 369.308L26.3845 346.066L93.3735 268.806C93.3735 268.806 87.8804 209.165 99.5142 198.225C111.148 187.285 166.219 250.163 138.016 284.82Z" fill="#C4C4C4"/>
<path fill-rule="evenodd" clip-rule="evenodd" d="M156.625 185.737L206.026 383.358L180.71 395.694C180.71 395.694 138.311 285.232 132.042 278.503C119.143 264.681 98.2074 214.973 100.038 195.735C101.869 176.497 156.625 185.737 156.625 185.737Z" fill="#C4C4C4"/>
<path d="M200.413 386.15L144.275 203.14" stroke="#8D8D8D" stroke-width="2" stroke-linecap="round" stroke-linejoin="round"/>
<path d="M147.081 287.528C149.779 289.32 155.515 288.369 158.309 286.224" stroke="#8D8D8D" stroke-width="2" stroke-linecap="round" stroke-linejoin="round"/>
<path d="M154.379 271.629L142.59 282.857" stroke="#8D8D8D" stroke-width="2" stroke-linecap="round" stroke-linejoin="round"/>
<path d="M137.538 289.592C134.884 283.798 132.866 279.868 131.855 278.762C120.323 266.41 102.381 225.519 99.9256 203.14" stroke="#8D8D8D" stroke-width="2" stroke-linecap="round" stroke-linejoin="round"/>
<path d="M42.1035 363.694C42.1035 363.694 118.64 291.761 122.196 288.943C122.424 283.901 122.765 274.08 126.311 271.066" stroke="#8D8D8D" stroke-width="2" stroke-linecap="round" stroke-linejoin="round"/>
<path d="M96.5574 274.435C98.9451 276.043 103.028 281.785 103.294 285.101" stroke="#8D8D8D" stroke-width="2" stroke-linecap="round" stroke-linejoin="round"/>
<path d="M98.803 272.189C100.259 272.578 104.464 274.844 105.54 276.68" stroke="#8D8D8D" stroke-width="2" stroke-linecap="round" stroke-linejoin="round"/>
<path d="M98.8032 268.821L103.871 268.464L112.276 265.453" stroke="#8D8D8D" stroke-width="2" stroke-linecap="round" stroke-linejoin="round"/>
<path d="M99.3644 268.821L103.855 268.26" stroke="#8D8D8D" stroke-width="2" stroke-linecap="round" stroke-linejoin="round"/>
<path d="M207.818 127.226H175.903C175.605 127.226 175.32 127.344 175.109 127.554C174.899 127.765 174.78 128.051 174.78 128.348V144.067C174.78 144.365 174.899 144.65 175.109 144.861C175.32 145.071 175.605 145.19 175.903 145.19H207.818C208.115 145.19 208.401 145.071 208.611 144.861C208.822 144.65 208.94 144.365 208.94 144.067V128.348C208.94 128.051 208.822 127.765 208.611 127.554C208.401 127.344 208.115 127.226 207.818 127.226Z" stroke="#AADAF1" stroke-width="2" stroke-linecap="round" stroke-linejoin="round"/>
<path d="M190.724 109.223H158.815C158.517 109.223 158.231 109.341 158.021 109.552C157.81 109.762 157.692 110.048 157.692 110.345V126.064C157.692 126.362 157.81 126.647 158.021 126.858C158.231 127.069 158.517 127.187 158.815 127.187H190.724C191.021 127.187 191.307 127.069 191.517 126.858C191.728 126.647 191.846 126.362 191.846 126.064V110.345C191.846 110.048 191.728 109.762 191.517 109.552C191.307 109.341 191.021 109.223 190.724 109.223Z" stroke="#AADAF1" stroke-width="2" stroke-linecap="round" stroke-linejoin="round"/>
<path d="M173.629 127.226H141.72C141.423 127.226 141.137 127.344 140.927 127.554C140.716 127.765 140.598 128.051 140.598 128.348V144.067C140.598 144.365 140.716 144.65 140.927 144.861C141.137 145.071 141.423 145.19 141.72 145.19H173.629C173.927 145.19 174.213 145.071 174.423 144.861C174.634 144.65 174.752 144.365 174.752 144.067V128.348C174.752 128.051 174.634 127.765 174.423 127.554C174.213 127.344 173.927 127.226 173.629 127.226Z" stroke="#AADAF1" stroke-width="2" stroke-linecap="round" stroke-linejoin="round"/>
<path d="M224.367 145.224H192.458C192.16 145.224 191.875 145.342 191.664 145.552C191.454 145.763 191.335 146.049 191.335 146.346V162.065C191.335 162.363 191.454 162.648 191.664 162.859C191.875 163.07 192.16 163.188 192.458 163.188H224.367C224.665 163.188 224.95 163.07 225.161 162.859C225.372 162.648 225.49 162.363 225.49 162.065V146.346C225.49 146.049 225.372 145.763 225.161 145.552C224.95 145.342 224.665 145.224 224.367 145.224Z" stroke="#AADAF1" stroke-width="2" stroke-linecap="round" stroke-linejoin="round"/>
<path fill-rule="evenodd" clip-rule="evenodd" d="M2.68595 354.713H110.713C111.066 354.711 111.415 354.898 111.742 355.264C112.068 355.63 112.364 356.168 112.614 356.846C112.863 357.524 113.061 358.329 113.196 359.216C113.331 360.102 113.4 361.052 113.399 362.011C113.4 362.97 113.331 363.92 113.196 364.806C113.061 365.692 112.863 366.498 112.614 367.176C112.364 367.854 112.068 368.391 111.742 368.757C111.415 369.123 111.066 369.311 110.713 369.309H2.68595C1.97359 369.309 1.29041 368.54 0.786698 367.171C0.282984 365.803 0 363.946 0 362.011H0C0 360.075 0.282984 358.219 0.786698 356.85C1.29041 355.482 1.97359 354.713 2.68595 354.713Z" fill="white"/>
<path fill-rule="evenodd" clip-rule="evenodd" d="M238.306 340.444C229.289 340.448 220.471 343.092 212.939 348.049C205.408 353.006 199.492 360.06 195.922 368.339C193.017 365.996 189.402 364.709 185.67 364.69C181.938 364.671 178.31 365.92 175.381 368.233C173.348 363.391 170 359.215 165.715 356.18C161.43 353.144 156.381 351.37 151.139 351.058C145.897 350.746 140.673 351.908 136.058 354.414C131.444 356.92 127.623 360.669 125.031 365.235C122.331 363.566 119.294 362.521 116.139 362.175C112.985 361.829 109.793 362.191 106.796 363.235C103.799 364.279 101.073 365.978 98.8163 368.209C96.5595 370.44 94.8288 373.147 93.7505 376.131C94.2445 376.131 94.7105 375.991 95.2101 375.991H308.933C308.151 373.118 306.641 370.496 304.549 368.378C302.457 366.26 299.853 364.718 296.99 363.901C294.127 363.084 291.102 363.02 288.207 363.715C285.312 364.41 282.646 365.84 280.466 367.868C276.844 359.709 270.933 352.775 263.45 347.908C255.967 343.04 247.233 340.448 238.306 340.444Z" fill="#AADAF1"/>
<path fill-rule="evenodd" clip-rule="evenodd" d="M82.1695 370.612H326.684C327.398 370.614 328.082 370.898 328.586 371.404C329.09 371.909 329.373 372.593 329.373 373.307C329.372 374.02 329.088 374.703 328.584 375.207C328.08 375.711 327.397 375.994 326.684 375.996H82.1695C81.4568 375.994 80.7737 375.711 80.2697 375.207C79.7657 374.703 79.482 374.02 79.4805 373.307C79.4805 372.593 79.7636 371.909 80.2677 371.404C80.7718 370.898 81.4558 370.614 82.1695 370.612Z" fill="#DEDEDE"/>
<path fill-rule="evenodd" clip-rule="evenodd" d="M36.4633 335.063L25.2622 346.714L48.3363 368.185L58.945 354.401L36.4633 335.063Z" fill="#F77F89"/>
<path fill-rule="evenodd" clip-rule="evenodd" d="M30.8312 339.555L12.6055 362.592L41.2381 399.147C41.2381 399.147 60.2415 398.922 66.2439 398.922C66.1224 390.946 60.8247 374.422 46.074 375.06C49.0509 369.344 51.1651 364.632 51.1651 364.632L30.8312 339.555Z" fill="#1B3C87"/>
<path d="M46.0609 375.08C37.8168 372.295 34.0684 375.924 28.2847 382.637C24.2447 387.33 15.8244 386.931 10.6665 384.239" stroke="#0047AB" stroke-width="2" stroke-linecap="round" stroke-linejoin="round"/>
<path d="M27.167 404.379C29.8839 405.655 32.6894 406.693 35.5569 407.483C43.1024 400.172 47.5677 382.818 46.1522 375.081" stroke="#0047AB" stroke-width="2" stroke-linecap="round" stroke-linejoin="round"/>
<path d="M23.4669 348.62C25.2495 350.096 26.6317 352.075 27.4653 354.345C28.299 356.614 28.5527 359.089 28.1995 361.504C27.8462 363.919 26.8992 366.184 25.4598 368.055C24.0205 369.927 22.143 371.335 20.0283 372.129" stroke="#0047AB" stroke-width="2" stroke-linecap="round" stroke-linejoin="round"/>
<path d="M15.7822 358.559L43.9653 392.23L64.846 390.901" stroke="#0047AB" stroke-width="2" stroke-linecap="round" stroke-linejoin="round"/>
<path d="M66.2429 349.66L42.1035 323.837" stroke="#8D8D8D" stroke-width="2" stroke-linecap="round" stroke-linejoin="round"/>
<path fill-rule="evenodd" clip-rule="evenodd" d="M189.023 188.315C192.009 190.729 195.108 193.603 199.088 195.108C205.039 196.551 215.93 208.486 215.93 211.057C215.93 213.493 213.757 214.313 212.404 214.425C211.237 214.498 208.75 211.798 208.121 211.029C209.205 213.499 209.833 216.845 208.632 217.894C207.431 218.944 205.702 219.309 204.523 217.951C202.586 215.705 203.063 213.156 202.883 211.663C201.929 209.839 199.33 205.78 198.23 205.286C197.46 205.325 196.304 205.595 196.085 206.824C195.866 208.053 198.724 210.799 199.044 211.944C199.044 213.398 197.455 215.245 196.085 214.88C194.524 214.464 189.697 209.777 188.63 208.497C187.193 206.773 186.542 203.018 185.773 201.76C185.003 200.503 182.017 197.831 181.461 197.269C180.905 196.708 186.042 185.896 189.023 188.315Z" fill="#F77F89"/>
<path fill-rule="evenodd" clip-rule="evenodd" d="M159.213 129.465C169.941 138.576 185.997 174.46 196.315 183.29C195.237 188.831 178.143 209.467 166.062 204.55C150.927 198.386 151.112 122.588 159.213 129.465Z" fill="#0047AB"/>
<path d="M170.367 196.635C165.876 198.515 142.86 202.765 133.967 201.833" stroke="#8D8D8D" stroke-width="2" stroke-linecap="round" stroke-linejoin="round"/>
<path fill-rule="evenodd" clip-rule="evenodd" d="M97.3657 50.3848C97.3657 44.6531 100.594 40.0049 104.579 40.0049C108.565 40.0049 111.799 44.6531 111.799 50.3848C111.799 56.1165 108.565 60.7647 104.579 60.7647C100.594 60.7647 97.3657 56.1165 97.3657 50.3848Z" fill="#F77F89"/>
<path fill-rule="evenodd" clip-rule="evenodd" d="M101.43 55.8293C101.43 51.2691 102.783 46.8112 105.316 43.0196C107.85 39.2279 111.451 36.2728 115.664 34.5279C119.878 32.7831 124.514 32.3268 128.986 33.2169C133.459 34.1069 137.567 36.3034 140.791 39.5283C144.015 42.7533 146.211 46.862 147.1 51.3348C147.989 55.8076 147.531 60.4435 145.785 64.6563C144.039 68.8692 141.083 72.4696 137.291 75.0023C133.499 77.5351 129.041 78.8863 124.48 78.8852C121.453 78.8852 118.455 78.2888 115.658 77.1301C112.861 75.9714 110.32 74.273 108.179 72.132C106.039 69.991 104.341 67.4493 103.183 64.652C102.025 61.8548 101.429 58.8568 101.43 55.8293Z" fill="#F77F89"/>
<path fill-rule="evenodd" clip-rule="evenodd" d="M93.6271 202.955C92.5549 206.531 89.08 213.97 92.3865 227.28C86.1215 236.964 89.0463 243.784 103.395 245.497C105.809 242.549 108.229 240.618 110.923 236.363C111.799 232.534 111.72 226.657 111.799 225.062C111.951 221.84 107.229 209.091 108.403 203.365C109.576 197.639 94.6994 199.374 93.6271 202.955Z" fill="#F77F89"/>
<path fill-rule="evenodd" clip-rule="evenodd" d="M122.235 86.6211C89.0683 86.6211 76.4429 156.316 80.0638 200.913C86.9407 205.252 114.387 206.942 122.235 204.881C123.919 197.05 123.97 193.424 124.346 188.091C142.664 189.887 129.96 188.091 137.538 188.091C147.082 188.422 160.201 185.845 169.8 181.814C171.148 165.007 161.267 86.6211 122.235 86.6211Z" fill="#0047AB"/>
<path fill-rule="evenodd" clip-rule="evenodd" d="M108.666 69.32C110.395 76.7471 110.827 87.2056 110.541 91.3149C114.937 93.9085 126.333 95.7105 131.812 88.3565C129.218 82.0858 128.64 79.0544 128.859 75.4447C129.078 71.835 106.937 61.893 108.666 69.32Z" fill="#F77F89"/>
<path fill-rule="evenodd" clip-rule="evenodd" d="M116.015 77.2802C115.526 73.2944 118.395 63.9137 120.034 62.6113C135.444 63.1727 145.01 52.1977 146.565 49.1943C148.003 51.104 149.051 53.2788 149.647 55.5941C150.046 57.121 149.698 58.1933 147.087 60.3826C146.425 69.3816 138.257 83.6687 116.015 77.2802Z" fill="white"/>
<path d="M121.259 63.5599C121.259 63.5599 107.224 52.0741 103.148 51.5127" stroke="white" stroke-width="3.05" stroke-linecap="round" stroke-linejoin="round"/>
<path fill-rule="evenodd" clip-rule="evenodd" d="M132.704 51.5291C132.704 49.5306 133.355 47.9082 134.158 47.9082C134.961 47.9082 135.612 49.5306 135.612 51.5291C135.612 53.5276 134.961 55.15 134.158 55.15C133.355 55.15 132.704 53.5276 132.704 51.5291Z" fill="#CB5D66"/>
<path d="M123.47 192.419C118.132 193.188 89.0857 191.931 79.4805 187.979" stroke="#737999" stroke-width="2" stroke-linecap="round" stroke-linejoin="round"/>
<path d="M124.856 158.943C124.48 147.957 134.478 112.287 114.718 97.6182" stroke="#737999" stroke-width="2" stroke-linecap="round" stroke-linejoin="round"/>
<path d="M124.862 158.883L114.718 163.228" stroke="#737999" stroke-width="2" stroke-linecap="round" stroke-linejoin="round"/>
<path d="M115.162 157.916L124.89 158.601" stroke="#737999" stroke-width="2" stroke-linecap="round" stroke-linejoin="round"/>
<path d="M116.604 151.073L124.902 158.528" stroke="#737999" stroke-width="2" stroke-linecap="round" stroke-linejoin="round"/>
<path d="M169.829 181.803C170.39 174.454 168.84 155.339 163.653 136.151" stroke="#737999" stroke-width="2" stroke-linecap="round" stroke-linejoin="round"/>
<path d="M188.686 174.388C184.195 182.314 173.529 190.875 169.655 192.576" stroke="#737999" stroke-width="2" stroke-linecap="round" stroke-linejoin="round"/>
<path d="M157.461 199.672C156.99 196.832 155.294 186.283 155.294 186.283" stroke="#8D8D8D" stroke-width="2" stroke-linecap="round" stroke-linejoin="round"/>
<path d="M197.375 349.992L160.947 355.741" stroke="#8D8D8D" stroke-width="2" stroke-linecap="round" stroke-linejoin="round"/>
<path d="M179.522 287.655C178.877 287.728 178.228 287.763 177.579 287.762C173.281 287.763 169.131 286.189 165.914 283.338C162.697 280.487 160.636 276.556 160.121 272.289C159.605 268.021 160.671 263.713 163.116 260.178C165.561 256.643 169.216 254.126 173.391 253.103" stroke="#8D8D8D" stroke-width="2" stroke-linecap="round" stroke-linejoin="round"/>
<path fill-rule="evenodd" clip-rule="evenodd" d="M171.221 360.227L177.035 372.365L203.097 367.649L198.788 353.028L171.221 360.227Z" fill="#F77F89"/>
<path fill-rule="evenodd" clip-rule="evenodd" d="M173.168 372.413L182.072 397.905C182.072 397.905 233.583 387.587 237.497 386.573C230.214 369.458 215.271 372.328 208.717 373.967C207.073 370.849 205.606 367.642 204.322 364.359L173.168 372.413Z" fill="#1B3C87"/>
<path d="M208.281 368.105C209.337 364.669 211.789 362.381 213.743 362.988C215.697 363.595 216.45 366.86 215.394 370.271C214.338 373.682 211.886 375.989 209.931 375.388C207.977 374.787 207.225 371.534 208.281 368.105Z" stroke="#0047AB" stroke-width="2" stroke-linecap="round" stroke-linejoin="round"/>
<path d="M216.911 367.668C219.643 364.87 223.041 363.99 224.51 365.707C225.979 367.425 224.947 371.085 222.216 373.883C219.485 376.681 216.086 377.567 214.617 375.849C213.148 374.131 214.18 370.484 216.911 367.668Z" stroke="#0047AB" stroke-width="2" stroke-linecap="round" stroke-linejoin="round"/>
<path d="M180.379 393.068L235.471 382.623" stroke="#0047AB" stroke-width="2" stroke-linecap="round" stroke-linejoin="round"/>
<path d="M175.973 381.094C177.84 380.361 179.858 380.096 181.851 380.321C183.844 380.546 185.752 381.254 187.409 382.384C189.066 383.514 190.422 385.031 191.359 386.805C192.296 388.578 192.785 390.553 192.785 392.559C192.787 393.628 192.65 394.693 192.379 395.727" stroke="#0047AB" stroke-width="2" stroke-linecap="round" stroke-linejoin="round"/>
<path d="M116.256 76.4375C114.493 75.7695 107.408 73.2994 103.726 65.8779" stroke="white" stroke-width="3.05" stroke-linecap="round" stroke-linejoin="round"/>
<path fill-rule="evenodd" clip-rule="evenodd" d="M96.9502 60.2198C96.9491 58.7504 97.3839 57.3137 98.1995 56.0914C99.0152 54.8692 100.175 53.9164 101.532 53.3535C102.89 52.7907 104.384 52.6432 105.825 52.9295C107.266 53.2159 108.59 53.9234 109.629 54.9624C110.668 56.0015 111.375 57.3254 111.662 58.7666C111.948 60.2078 111.801 61.7016 111.238 63.059C110.675 64.4163 109.722 65.5762 108.5 66.3919C107.278 67.2076 105.841 67.6423 104.372 67.6412C102.404 67.6397 100.517 66.8574 99.1255 65.4659C97.7341 64.0744 96.9517 62.1876 96.9502 60.2198Z" fill="#F77F89"/>
<path d="M111.473 62.3926C111.007 63.9122 110.065 65.2423 108.787 66.1871C107.509 67.1319 105.961 67.6417 104.372 67.6415" stroke="#CB5D66" stroke-width="2" stroke-linecap="round" stroke-linejoin="round"/>
<path d="M98.5171 55.6556C99.5887 54.2792 101.111 53.325 102.817 52.9609" stroke="#CB5D66" stroke-width="2" stroke-linecap="round" stroke-linejoin="round"/>
<path d="M91.3647 240.984C92.8594 239.399 94.1997 237.675 95.3674 235.836" stroke="#CB5D66" stroke-width="2" stroke-linecap="round" stroke-linejoin="round"/>
<path d="M97.562 244.346C99.9198 242.067 103.372 237.256 105.135 234.37" stroke="#CB5D66" stroke-width="2" stroke-linecap="round" stroke-linejoin="round"/>
<path d="M196.758 205.718C200.295 202.782 205.813 208.795 208.323 211.22" stroke="#CB5D66" stroke-width="2" stroke-linecap="round" stroke-linejoin="round"/>
<path d="M105.657 63.2396C105.252 63.4187 104.814 63.5105 104.372 63.5091C103.879 63.5099 103.392 63.3966 102.95 63.1782C102.508 62.9598 102.122 62.6421 101.823 62.25C101.524 61.8578 101.319 61.4019 101.225 60.9177C101.132 60.4335 101.151 59.9341 101.282 59.4587C101.413 58.9832 101.652 58.5445 101.981 58.1768C102.31 57.8091 102.719 57.5223 103.177 57.3389C103.635 57.1555 104.129 57.0804 104.62 57.1194C105.112 57.1585 105.588 57.3107 106.011 57.5641" stroke="#CB5D66" stroke-width="2" stroke-linecap="round" stroke-linejoin="round"/>
<path d="M146.565 49.1943C148.004 51.104 149.051 53.2788 149.647 55.5941C150.046 57.121 149.698 58.1933 147.087 60.3826C146.571 67.3606 141.547 77.516 128.949 78.751" stroke="#C9C9C9" stroke-width="2" stroke-linecap="round" stroke-linejoin="round"/>
<path d="M469.458 109.364H468.108V41.6222C468.108 35.4753 465.666 29.5801 461.32 25.2336C456.973 20.8871 451.078 18.4453 444.931 18.4453H294.07C287.923 18.4453 282.028 20.8871 277.681 25.2336C273.335 29.5801 270.893 35.4753 270.893 41.6222V71.3024H270.382C270.02 71.3024 269.674 71.4458 269.419 71.7011C269.164 71.9564 269.02 72.3026 269.02 72.6636V85.9374C269.02 86.2984 269.164 86.6446 269.419 86.8999C269.674 87.1552 270.02 87.2986 270.382 87.2986H270.893V100.584H270.263C270.084 100.584 269.907 100.619 269.742 100.688C269.577 100.756 269.426 100.857 269.3 100.983C269.174 101.109 269.073 101.259 269.005 101.425C268.937 101.59 268.901 101.767 268.901 101.946V127.066C268.901 127.427 269.045 127.773 269.3 128.029C269.555 128.284 269.902 128.427 270.263 128.427H270.893V138.17H270.322C270.143 138.17 269.966 138.206 269.801 138.274C269.636 138.342 269.486 138.443 269.36 138.569C269.233 138.695 269.133 138.845 269.064 139.01C268.996 139.176 268.961 139.353 268.961 139.531V164.89C268.961 165.251 269.104 165.597 269.36 165.853C269.615 166.108 269.961 166.251 270.322 166.251H270.893V396.077C270.893 402.224 273.335 408.12 277.681 412.466C282.028 416.813 287.923 419.255 294.07 419.255H444.931C451.078 419.255 456.973 416.813 461.32 412.466C465.666 408.12 468.108 402.224 468.108 396.077V157.947H469.458C469.819 157.947 470.165 157.804 470.42 157.549C470.675 157.293 470.819 156.947 470.819 156.586V110.725C470.819 110.364 470.675 110.018 470.42 109.763C470.165 109.507 469.819 109.364 469.458 109.364Z" fill="#3F3D56"/>
<path d="M440.265 28.8838H417.677V31.6003C417.677 35.0214 416.317 38.3024 413.898 40.7215C411.479 43.1406 408.198 44.4996 404.777 44.4996H332.815C331.122 44.5004 329.445 44.1676 327.881 43.5204C326.316 42.8732 324.894 41.9241 323.696 40.7274C322.499 39.5307 321.548 38.1098 320.9 36.5458C320.251 34.9818 319.917 33.3054 319.916 31.6122V28.8838H298.736C294.582 28.8838 290.598 30.534 287.66 33.4715C284.723 36.4089 283.073 40.393 283.073 44.5471V393.147C283.073 397.301 284.723 401.285 287.66 404.223C290.598 407.16 294.582 408.811 298.736 408.811H440.265C444.418 408.811 448.4 407.161 451.336 404.225C454.273 401.288 455.922 397.306 455.922 393.153V44.5471C455.923 42.491 455.519 40.4548 454.733 38.5548C453.947 36.6549 452.794 34.9284 451.341 33.4739C449.887 32.0195 448.162 30.8655 446.262 30.0779C444.363 29.2903 442.327 28.8846 440.271 28.8838H440.265Z" fill="white"/>
<path d="M399.814 366.51H339.181C334.845 366.51 330.688 364.788 327.622 361.722C324.556 358.657 322.834 354.499 322.834 350.163C322.834 345.828 324.556 341.67 327.622 338.604C330.688 335.539 334.845 333.816 339.181 333.816H399.814C404.149 333.816 408.307 335.539 411.373 338.604C414.438 341.67 416.161 345.828 416.161 350.163C416.161 354.499 414.438 358.657 411.373 361.722C408.307 364.788 404.149 366.51 399.814 366.51Z" fill="#6CB360"/>
<path d="M423.592 232.234H315.404C313.907 232.234 312.47 231.639 311.411 230.58C310.352 229.521 309.757 228.084 309.757 226.587C309.757 225.089 310.352 223.653 311.411 222.593C312.47 221.534 313.907 220.939 315.404 220.939H423.592C425.09 220.939 426.526 221.534 427.585 222.593C428.644 223.653 429.239 225.089 429.239 226.587C429.239 228.084 428.644 229.521 427.585 230.58C426.526 231.639 425.09 232.234 423.592 232.234Z" fill="#E6E6E6"/>
<path d="M423.592 248.877H315.404C313.907 248.877 312.47 248.282 311.411 247.223C310.352 246.164 309.757 244.728 309.757 243.23C309.757 241.732 310.352 240.296 311.411 239.237C312.47 238.178 313.907 237.583 315.404 237.583H423.592C425.09 237.583 426.526 238.178 427.585 239.237C428.644 240.296 429.239 241.732 429.239 243.23C429.239 244.728 428.644 246.164 427.585 247.223C426.526 248.282 425.09 248.877 423.592 248.877Z" fill="#E6E6E6"/>
<path d="M423.592 265.522H315.404C313.907 265.522 312.47 264.927 311.411 263.868C310.352 262.809 309.757 261.372 309.757 259.875C309.757 258.377 310.352 256.941 311.411 255.882C312.47 254.822 313.907 254.228 315.404 254.228H423.592C425.09 254.228 426.526 254.822 427.585 255.882C428.644 256.941 429.239 258.377 429.239 259.875C429.239 261.372 428.644 262.809 427.585 263.868C426.526 264.927 425.09 265.522 423.592 265.522Z" fill="#E6E6E6"/>
<path d="M423.592 282.165H315.404C313.907 282.165 312.47 281.57 311.411 280.511C310.352 279.452 309.757 278.016 309.757 276.518C309.757 275.021 310.352 273.584 311.411 272.525C312.47 271.466 313.907 270.871 315.404 270.871H423.592C425.09 270.871 426.526 271.466 427.585 272.525C428.644 273.584 429.239 275.021 429.239 276.518C429.239 278.016 428.644 279.452 427.585 280.511C426.526 281.57 425.09 282.165 423.592 282.165Z" fill="#E6E6E6"/>
<path d="M349.882 298.812H315.404C313.907 298.812 312.47 298.217 311.411 297.158C310.352 296.099 309.757 294.662 309.757 293.165C309.757 291.667 310.352 290.231 311.411 289.172C312.47 288.113 313.907 287.518 315.404 287.518H349.882C351.38 287.518 352.816 288.113 353.875 289.172C354.934 290.231 355.529 291.667 355.529 293.165C355.529 294.662 354.934 296.099 353.875 297.158C352.816 298.217 351.38 298.812 349.882 298.812H349.882Z" fill="#E6E6E6"/>
<path d="M440.524 185.956H298.471C297.215 185.955 296.011 185.455 295.123 184.568C294.235 183.68 293.736 182.476 293.734 181.22V75.79C293.736 74.5343 294.235 73.3304 295.123 72.4425C296.011 71.5545 297.215 71.0551 298.471 71.0537H440.524C441.78 71.0551 442.984 71.5546 443.872 72.4425C444.759 73.3304 445.259 74.5343 445.26 75.79V181.22C445.259 182.476 444.759 183.68 443.872 184.568C442.984 185.455 441.78 185.955 440.524 185.956Z" fill="#E6E6E6"/>
<path d="M413.176 174.509H326.724V88.0566H413.176V174.509ZM327.924 173.308H411.975V89.2574H327.924V173.308Z" fill="#D0CDE1"/>
<path d="M396.367 115.4H343.535V120.219H396.367V115.4Z" fill="#3F3D56"/>
<path d="M396.367 128.873H343.535V133.692H396.367V128.873Z" fill="#3F3D56"/>
<path d="M396.367 142.347H343.535V147.166H396.367V142.347Z" fill="#3F3D56"/>
<path d="M367.698 355.681L361.897 350.006L359.283 352.563L366.677 359.796C367.024 360.135 367.494 360.326 367.984 360.326C368.045 360.326 368.105 360.326 368.169 360.317C368.441 360.291 368.704 360.206 368.938 360.068C369.172 359.931 369.373 359.744 369.524 359.521L380.616 343.247L377.54 341.239L367.698 355.681Z" fill="white"/>
<path d="M457.69 56.9489C473.283 56.9489 485.923 44.3082 485.923 28.7152C485.923 13.1221 473.283 0.481445 457.69 0.481445C442.097 0.481445 429.456 13.1221 429.456 28.7152C429.456 44.3082 442.097 56.9489 457.69 56.9489Z" fill="#0047AB"/>
<path d="M465.512 26.9139V21.5117C465.513 20.4839 465.311 19.4661 464.919 18.5164C464.526 17.5667 463.95 16.7037 463.223 15.9767C462.497 15.2497 461.634 14.673 460.685 14.2796C459.735 13.8861 458.718 13.6836 457.69 13.6836C456.662 13.6836 455.645 13.8861 454.695 14.2796C453.746 14.673 452.883 15.2497 452.157 15.9767C451.43 16.7037 450.854 17.5667 450.462 18.5164C450.069 19.4661 449.867 20.4839 449.868 21.5117V26.9139C448.822 26.961 447.835 27.4093 447.111 28.1657C446.388 28.9221 445.984 29.9283 445.983 30.975V43.741H469.397V30.975C469.396 29.9283 468.992 28.9221 468.269 28.1657C467.545 27.4093 466.558 26.961 465.512 26.9139ZM457.69 16.4435C459.034 16.445 460.322 16.9795 461.272 17.9297C462.222 18.8798 462.756 20.168 462.758 21.5117V26.9045H452.622V21.5117C452.624 20.168 453.158 18.8798 454.108 17.9297C455.058 16.9795 456.346 16.445 457.69 16.4435Z" fill="white"/>
<path d="M459.795 33.2185C459.795 32.8557 459.701 32.4989 459.523 32.183C459.345 31.867 459.087 31.6025 458.777 31.4153C458.466 31.228 458.112 31.1242 457.749 31.1141C457.386 31.104 457.027 31.1878 456.707 31.3574C456.386 31.5271 456.114 31.7768 455.919 32.0823C455.723 32.3879 455.609 32.7388 455.589 33.1011C455.569 33.4634 455.643 33.8248 455.804 34.1501C455.964 34.4754 456.207 34.7537 456.507 34.9578V39.5323H458.874V34.9578C459.158 34.7651 459.39 34.5058 459.551 34.2026C459.711 33.8995 459.795 33.5616 459.795 33.2185Z" fill="#0047AB"/>
<path fill-rule="evenodd" clip-rule="evenodd" d="M120.177 9.00001C118.171 9.00573 116.19 9.41967 114.373 10.2131C112.555 11.0066 110.943 12.1605 109.65 13.5949C107.915 12.9827 106.077 12.6638 104.222 12.6533C101.736 12.6202 99.2777 13.1387 97.0474 14.1664C94.8171 15.194 92.8789 16.7015 91.3916 18.5653C89.9042 20.429 88.9101 22.596 88.4907 24.8887C88.0714 27.1813 88.2387 29.5343 88.9789 31.7547C88.0414 32.5618 87.2927 33.5417 86.78 34.6329C86.2673 35.724 86.0017 36.9027 86 38.0946C86.0151 40.1456 86.7937 42.1275 88.2019 43.6993C89.6101 45.2712 91.5598 46.3347 93.7156 46.7069C93.823 46.2236 93.823 45.8846 93.9907 45.3322C94.4469 43.8633 101.277 41.1767 102.042 41.6601C102.644 42.0642 103.329 42.3464 104.055 42.4887C104.117 42.4921 104.18 42.4921 104.242 42.4887C107.079 42.4819 109.862 41.7653 112.303 40.4132C114.744 39.0611 116.753 37.1228 118.124 34.7991C118.809 34.9118 119.502 34.9768 120.197 34.9937C120.197 37.5661 121.012 40.0808 122.54 42.2196C124.067 44.3585 126.238 46.0255 128.779 47.0099C131.319 47.9944 134.114 48.2519 136.811 47.7501C139.507 47.2482 141.984 46.0095 143.928 44.1905C145.873 42.3716 147.196 40.0541 147.733 37.5311C148.269 35.0082 147.994 32.393 146.942 30.0164C145.89 27.6399 144.108 25.6086 141.822 24.1794C139.536 22.7503 136.848 21.9875 134.098 21.9875C134.096 20.2794 133.734 18.5886 133.033 17.0116C132.332 15.4346 131.305 14.0021 130.013 12.7961C128.72 11.5901 127.186 10.6342 125.498 9.98285C123.811 9.3315 122.002 8.99754 120.177 9.00001Z" fill="#6A3416"/>
</svg>
