<svg width="142" height="143" viewBox="0 0 142 143" fill="none" xmlns="http://www.w3.org/2000/svg">
<rect y="0.990234" width="142" height="142" rx="25" fill="#E2F0FE"/>
<path d="M82.838 81.087H74.6123V94.7967H70.6805L78.7252 106.865L86.7712 94.7967H82.838V81.087ZM78.7252 101.922L75.8037 97.5386H77.3542V83.8289H80.0961V97.5386H81.648L78.7252 101.922ZM54.2292 92.0548H58.1611V105.764H66.3867V92.0548H70.3186L62.2739 79.9861L54.2292 92.0548ZM63.6462 89.3128V103.022H60.9043V89.3128H59.3524L62.2753 84.9298L65.1967 89.3128H63.6462ZM99.8623 83.9551C97.5495 83.6562 95.2052 83.9002 93.0076 84.6625C92.0603 81.1089 90.2945 77.9297 87.9598 75.2851C99.1316 73.4973 107.515 63.9225 107.515 52.2967C107.515 39.4452 97.0601 28.9902 84.2089 28.9902C78.6456 28.9902 73.3168 31.0069 69.1286 34.5673V31.7322C69.1286 30.22 67.8989 28.9902 66.3867 28.9902H30.7423C29.2302 28.9902 28.0004 30.22 28.0004 31.7322V45.4418C28.0004 46.954 29.2302 48.1838 30.7423 48.1838V50.9257C29.2302 50.9257 28.0004 52.1555 28.0004 53.6677V67.3773C28.0004 68.8895 29.2302 70.1193 30.7423 70.1193V72.8612C29.2302 72.8612 28.0004 74.091 28.0004 75.6031V89.3128C28.0004 90.4809 28.738 91.4735 29.769 91.8683C28.8655 93.5601 28.2664 95.4301 28.0745 97.4098C27.655 101.724 29.0177 105.856 31.9117 109.044C34.766 112.187 38.8377 113.99 43.0821 113.99H97.9197C102.164 113.99 106.234 112.187 109.089 109.042C111.981 105.855 113.344 101.724 112.926 97.4084C112.257 90.5042 106.764 84.8448 99.8623 83.9551ZM69.13 45.4418V42.6999H75.8476C75.2019 45.1087 74.7673 47.8575 74.6603 50.9257H66.3881V48.1838C67.8989 48.1838 69.13 46.954 69.13 45.4418ZM89.6968 42.6999C90.4014 45.0717 90.8977 47.8177 91.017 50.9257H77.4022C77.5215 47.8177 78.0178 45.0717 78.7224 42.6999H89.6968ZM79.6725 39.958C81.2011 36.1659 83.1026 33.6268 84.2089 32.3546C85.3166 33.6268 87.2181 36.1659 88.7467 39.958H79.6725ZM104.704 50.9257H93.7589C93.6519 47.8575 93.2173 45.1087 92.5716 42.6999H102.383C103.701 45.1841 104.508 47.9713 104.704 50.9257ZM74.6466 53.6677C74.7536 56.7373 75.206 59.4792 75.8572 61.8935H69.1286V53.6677H74.6466ZM77.3885 53.6677H91.0225C90.9046 56.7756 90.4056 59.5217 89.7009 61.8935H78.6964C77.9986 59.5244 77.505 56.7784 77.3885 53.6677ZM93.7657 53.6677H104.707C104.514 56.6248 103.727 59.412 102.426 61.8935H92.5662C93.2146 59.4806 93.6588 56.7386 93.7657 53.6677ZM69.13 67.3773V64.6354H76.7208C77.2953 66.2148 77.9369 67.62 78.5922 68.8456C76.0559 67.9024 73.3319 67.3773 70.5009 67.3773C70.0375 67.3773 69.581 67.4089 69.1245 67.4349C69.1245 67.4157 69.13 67.3979 69.13 67.3773ZM83.448 71.3271C82.3239 69.8862 80.8625 67.6584 79.6492 64.6354H88.7453C87.2963 68.2356 85.514 70.7047 84.4118 72.0112C84.0965 71.7754 83.7743 71.5464 83.448 71.3271ZM87.4594 72.5911C88.8002 70.8075 90.4385 68.1684 91.7175 64.6354H100.675C97.5536 68.8086 92.8828 71.7397 87.4594 72.5911ZM100.622 39.958H91.7093C90.4302 36.4264 88.8002 33.7831 87.4745 32.0173C92.8294 32.8769 97.4892 35.8026 100.622 39.958ZM80.9392 32.0242C79.6135 33.79 77.9876 36.4305 76.7099 39.958H69.13V38.3457C72.268 34.9553 76.433 32.7522 80.9392 32.0242ZM30.7437 31.7322H66.3881L66.3895 45.4418H30.7437V31.7322ZM33.4856 48.1838H63.6462V50.9257H33.4856V48.1838ZM30.7437 53.6677H66.3881V67.3773H30.7437V53.6677ZM33.4856 70.1193H59.5567C58.1158 70.8884 56.771 71.8152 55.5261 72.8612H33.4856V70.1193ZM30.7437 89.3128V75.6031H52.7651C50.5675 78.1847 48.9018 81.2502 47.9928 84.6625C45.7939 83.8989 43.4509 83.6562 41.1381 83.9551C37.2762 84.4527 33.8571 86.4461 31.4758 89.3128H30.7437ZM107.058 107.2C104.722 109.773 101.392 111.248 97.9183 111.248H43.0808C39.6082 111.248 36.2768 109.773 33.9421 107.2C31.5745 104.592 30.4599 101.209 30.8026 97.6743C31.3496 92.0287 35.8436 87.4031 41.4877 86.6751C42.0128 86.6079 42.5392 86.5736 43.0629 86.5736C44.8918 86.5736 46.7028 86.9822 48.3767 87.7801L49.9793 88.5451L50.3138 86.8012C52.1646 77.1345 60.6535 70.1193 70.5009 70.1193C80.3484 70.1193 88.8372 77.1345 90.6866 86.7998L91.0211 88.5437L92.6237 87.7787C94.7775 86.7518 97.1602 86.3694 99.5127 86.6723C105.157 87.4003 109.651 92.0273 110.198 97.6716C110.541 101.209 109.425 104.592 107.058 107.2ZM99.2892 75.6031H102.031V78.3451H99.2892V75.6031ZM104.773 78.3451V75.6031H107.515V78.3451H104.773ZM112.999 78.3451H110.257V75.6031H112.999V78.3451Z" fill="#0047AB"/>
</svg>
