<svg width="551" height="551" viewBox="0 0 551 551" fill="none" xmlns="http://www.w3.org/2000/svg">
<path d="M257.061 162.645H537.695C541.222 162.641 544.604 161.293 547.099 158.898C549.593 156.502 550.997 153.254 551 149.866V12.7792C550.997 9.39115 549.593 6.14293 547.099 3.74718C544.604 1.35144 541.222 0.00382514 537.695 0H257.061C253.533 0.00382718 250.151 1.35144 247.657 3.74718C245.162 6.14292 243.759 9.39115 243.755 12.7792V149.866C243.759 153.254 245.162 156.502 247.657 158.898C250.151 161.293 253.533 162.641 257.061 162.645Z" fill="#0047AB" fill-opacity="0.7"/>
<path d="M222.733 228H176.923C176.495 228 176.085 228.163 175.783 228.453C175.48 228.743 175.31 229.136 175.31 229.546V251.196C175.31 251.606 175.48 251.999 175.783 252.289C176.085 252.579 176.495 252.742 176.923 252.742H222.733C223.161 252.742 223.571 252.579 223.873 252.289C224.175 251.999 224.345 251.606 224.345 251.196V229.546C224.345 229.136 224.175 228.743 223.873 228.453C223.571 228.163 223.161 228 222.733 228Z" stroke="#AADAF1" stroke-width="2" stroke-linecap="round" stroke-linejoin="round"/>
<path d="M198.164 203.212H152.377C151.95 203.212 151.54 203.375 151.237 203.665C150.935 203.955 150.765 204.348 150.765 204.758V226.408C150.765 226.818 150.935 227.211 151.237 227.501C151.54 227.791 151.95 227.954 152.377 227.954H198.164C198.591 227.954 199.001 227.791 199.304 227.501C199.606 227.211 199.776 226.818 199.776 226.408V204.758C199.776 204.348 199.606 203.955 199.304 203.665C199.001 203.375 198.591 203.212 198.164 203.212Z" stroke="#AADAF1" stroke-width="2" stroke-linecap="round" stroke-linejoin="round"/>
<path d="M173.65 228H127.831C127.404 228 126.994 228.163 126.691 228.453C126.389 228.743 126.219 229.136 126.219 229.546V251.196C126.219 251.606 126.389 251.999 126.691 252.289C126.994 252.579 127.404 252.742 127.831 252.742H173.65C174.078 252.742 174.488 252.579 174.79 252.289C175.092 251.999 175.262 251.606 175.262 251.196V229.546C175.262 229.136 175.092 228.743 174.79 228.453C174.488 228.163 174.078 228 173.65 228Z" stroke="#AADAF1" stroke-width="2" stroke-linecap="round" stroke-linejoin="round"/>
<path d="M246.528 252.836H200.685C200.258 252.836 199.848 252.999 199.545 253.289C199.243 253.579 199.073 253.972 199.073 254.382V276.032C199.073 276.442 199.243 276.835 199.545 277.125C199.848 277.415 200.258 277.578 200.685 277.578H246.528C246.956 277.578 247.366 277.415 247.668 277.125C247.97 276.835 248.14 276.442 248.14 276.032V254.382C248.14 253.972 247.97 253.579 247.668 253.289C247.366 252.999 246.956 252.836 246.528 252.836V252.836Z" stroke="#AADAF1" stroke-width="2" stroke-linecap="round" stroke-linejoin="round"/>
<path fill-rule="evenodd" clip-rule="evenodd" d="M158.003 503.051H134.151V525.528H158.003V503.051Z" fill="#F77F89"/>
<path fill-rule="evenodd" clip-rule="evenodd" d="M68.3809 502.4H44.5204V524.87H68.3809V502.4Z" fill="#F77F89"/>
<path fill-rule="evenodd" clip-rule="evenodd" d="M200.307 67.7158L184.459 64.5303C183.369 64.3074 182.231 64.5077 181.295 65.0872C180.358 65.6668 179.699 66.5786 179.461 67.6231L172.94 96.618C172.827 97.1314 172.82 97.6612 172.921 98.1769C173.022 98.6926 173.228 99.1841 173.528 99.6231C173.828 100.062 174.215 100.44 174.667 100.735C175.12 101.03 175.628 101.236 176.164 101.342L191.996 104.536C193.086 104.758 194.224 104.558 195.16 103.979C196.097 103.399 196.756 102.487 196.994 101.443L203.547 72.4478C203.66 71.9329 203.666 71.4016 203.564 70.8845C203.462 70.3674 203.255 69.8748 202.954 69.435C202.653 68.9952 202.264 68.6168 201.809 68.3218C201.355 68.0267 200.844 67.8208 200.307 67.7158Z" fill="#9B9B9B"/>
<path fill-rule="evenodd" clip-rule="evenodd" d="M195.172 114.432C197.122 111.471 211.818 83.9527 207.263 81.6176C202.709 79.2826 200.169 81.7181 199.057 84.2465C196.639 81.78 191.649 78.8341 189.585 80.9836C187.167 83.4501 189.174 87.3934 190.988 88.9321C188.916 88.2362 187.006 87.8264 185.345 90.0532C183.225 92.8213 185.95 100.747 187.401 101.937L179.743 108.896C179.743 108.896 193.229 117.363 195.172 114.432Z" fill="#F77F89"/>
<path fill-rule="evenodd" clip-rule="evenodd" d="M64.4624 284.034C64.4624 272.003 51.9357 262.253 36.4747 262.253C21.0138 262.253 8.49509 272.003 8.49509 284.034C8.49509 296.065 21.0219 305.815 36.4747 305.815C51.9276 305.815 64.4624 296.065 64.4624 284.034Z" fill="#BF9111"/>
<path fill-rule="evenodd" clip-rule="evenodd" d="M88.5328 35.5667C66.9858 35.5667 56.2889 54.3709 55.2571 60.9044C54.2253 67.438 55.5554 81.2009 53.6449 86.7138C48.3408 101.714 29.0267 109.825 29.0267 125.003C29.0267 160.121 69.3316 149.954 81.5923 149.505C93.853 149.057 126.129 148.067 126.129 126.998C126.129 118.616 120.188 118.616 120.083 107.714C119.995 98.4974 125.363 95.8917 125.363 73.8091C125.307 64.7782 112.53 35.4585 88.5328 35.5667Z" fill="black"/>
<path fill-rule="evenodd" clip-rule="evenodd" d="M118.754 218.259C119.335 212.259 123.107 151.764 104.132 127.022C104.762 125.018 105.228 122.971 105.526 120.898C112.483 125.707 138.496 151.053 141.801 155.266C144.807 151.602 177.204 108.055 178.817 107.537C180.429 107.019 196.26 114.07 196.607 115.686C196.954 117.302 158.043 189.272 148.241 192.303C144.13 193.571 138.326 189.682 136.513 189.117C136.263 192.983 172.561 294.272 137.915 295.045C117.319 270.404 118.182 224.228 118.754 218.259Z" fill="#F7D167"/>
<path fill-rule="evenodd" clip-rule="evenodd" d="M127.363 236.637L175.592 505.865L132.982 505.695L101.334 376.911L85.5026 507.867L44.6335 507.365L41.8364 236.977L127.363 236.637Z" fill="#3B4161"/>
<path fill-rule="evenodd" clip-rule="evenodd" d="M63.7288 243.062C68.1542 243.967 123.767 242.884 128.845 240.17C133.924 237.456 132.876 228.665 120.357 225.696C124.791 224.637 134.206 219.456 121.51 217.639C119.245 195.874 129.079 116.196 89.9753 114.804C62.3342 110.899 57.7314 134.18 57.7314 134.18C57.7314 134.18 59.3033 242.157 63.7288 243.062Z" fill="#6367FD"/>
<path fill-rule="evenodd" clip-rule="evenodd" d="M89.9834 45.6182C104.84 45.6182 116.883 59.0486 116.883 75.6106C116.883 92.1725 104.84 105.572 89.9834 105.572C83.7029 105.478 77.7003 103.072 73.2165 98.8529C73.7727 91.3374 73.8453 83.706 72.6362 79.7162C70.766 74.7678 71.4431 76.8399 73.3616 76.6235L71.6769 75.2472C71.6769 71.8064 71.0804 74.1569 67.4932 74.1569L63.2371 73.9868C63.9706 58.1981 75.6348 45.6182 89.9834 45.6182Z" fill="#F77F89"/>
<path fill-rule="evenodd" clip-rule="evenodd" d="M120.697 70.3599C114.942 68.9063 110.436 66.2388 105.47 57.7568C99.5532 62.9759 94.5232 63.0764 85.7367 61.4217C86.2526 65.5429 86.6718 70.2053 81.0211 70.762C75.3703 71.3187 58.668 78.2929 58.668 78.2929L59.4741 60.0145L74.2176 44.1639L91.4359 41.1484L106.615 47.9758L116.094 59.7748C116.094 59.7748 126.42 71.7749 120.697 70.3599Z" fill="black"/>
<path fill-rule="evenodd" clip-rule="evenodd" d="M82.5525 72.7412C82.5525 70.5172 81.8652 68.343 80.5775 66.4935C79.2898 64.6439 77.4595 63.202 75.3177 62.3498C73.176 61.4976 70.819 61.2735 68.5445 61.7057C66.27 62.1379 64.1801 63.2071 62.5389 64.7781C60.8976 66.3491 59.7787 68.3515 59.3234 70.5323C58.8681 72.713 59.0969 74.9743 59.9809 77.0304C60.865 79.0865 62.3645 80.8451 64.2901 82.084C66.2157 83.323 68.4809 83.9867 70.7996 83.9913C72.3422 83.9954 73.8704 83.7073 75.2967 83.1437C76.7229 82.58 78.0192 81.7519 79.1111 80.7067C80.2029 79.6615 81.069 78.4199 81.6596 77.053C82.2501 75.6861 82.5536 74.2209 82.5525 72.7412Z" fill="#F77F89"/>
<path fill-rule="evenodd" clip-rule="evenodd" d="M94.0634 101.451C92.9268 106.763 93.8538 113.644 95.2 118.554C91.2259 120.734 75.3135 121.484 70.477 118.144C72.3229 111.672 75.1362 87.9894 72.6292 79.7239C78.941 79.1981 95.1999 96.1312 94.0634 101.451Z" fill="#F77F89"/>
<path fill-rule="evenodd" clip-rule="evenodd" d="M63.0444 264.434C64.7785 267.172 66.6621 269.82 68.6871 272.367C68.6871 272.367 73.9832 270.759 75.4341 272.622C76.8851 274.485 86.5663 286.23 81.8104 290.228C77.0544 294.225 71.718 284.243 70.2187 282.944C65.2819 287.258 60.6272 291.859 56.2813 296.723C56.2813 296.723 56.3216 289.694 55.5155 287.22C54.7094 284.746 49.7438 278.143 48.0833 276.395C46.4227 274.648 60.3198 260.042 63.0444 264.434Z" fill="#F77F89"/>
<path fill-rule="evenodd" clip-rule="evenodd" d="M68.7763 118.593C71.2993 124.701 74.3141 130.67 82.1252 135.046C82.5686 141.889 75.9102 235.686 70.3885 245.397C68.1543 249.204 65.3789 252.693 62.1421 255.766C63.8429 260.142 65.3665 264.109 64.7377 265.377C63.9316 267.032 49.9297 278.521 48.0354 278.019C46.794 277.694 43.2714 274.199 40.3049 271.06C26.6013 278.637 13.9536 284.034 13.7037 291.109C13.7037 296.166 15.4771 297.751 17.6455 300.186C14.5179 298.702 7.01311 291.117 6.8519 281.784C6.65038 270.016 18.4758 249.434 20.5555 244.214C16.6943 240.008 3.18416 222.186 7.62939e-05 206.521C8.1739 176.065 40.4581 119.436 68.7763 118.593Z" fill="#F7D167"/>
<path d="M58.6602 174.394C55.8872 178.623 36.6295 206.497 36.6295 206.497C36.6295 206.497 54.678 242.01 60.9253 254.381" stroke="#FF3274" stroke-width="2" stroke-linecap="round" stroke-linejoin="round"/>
<path d="M8.68922 224.908C12.0822 223.325 14.906 220.808 16.7997 217.678C18.6933 214.548 19.5708 210.947 19.3198 207.336C19.0688 203.725 17.7009 200.268 15.3908 197.407C13.0807 194.545 9.9335 192.41 6.35152 191.273" stroke="#FF3274" stroke-width="2" stroke-linecap="round" stroke-linejoin="round"/>
<path d="M29.9464 200.304L36.637 206.489" stroke="#FF3274" stroke-width="2" stroke-linecap="round" stroke-linejoin="round"/>
<path d="M28.3745 210.147L36.637 206.033" stroke="#FF3274" stroke-width="2" stroke-linecap="round" stroke-linejoin="round"/>
<path d="M60.6824 258.55C58.8122 260.591 46.9787 268.656 43.7543 269.97" stroke="#FF3274" stroke-width="2" stroke-linecap="round" stroke-linejoin="round"/>
<path d="M159.083 180.449C157.311 178.682 155.029 177.462 152.53 176.947C150.031 176.432 147.428 176.646 145.056 177.56C142.684 178.474 140.651 180.047 139.217 182.077C137.784 184.108 137.016 186.503 137.012 188.955V189.241" stroke="#FF3274" stroke-width="2" stroke-linecap="round" stroke-linejoin="round"/>
<path d="M141.84 155.249L148.458 164.69" stroke="#FF3274" stroke-width="2" stroke-linecap="round" stroke-linejoin="round"/>
<path d="M135.94 162.673L141.639 155.088" stroke="#FF3274" stroke-width="2" stroke-linecap="round" stroke-linejoin="round"/>
<path d="M173.811 113.39L192.302 124.686" stroke="#FF3274" stroke-width="2" stroke-linecap="round" stroke-linejoin="round"/>
<path d="M101.382 377.034C102.543 369.488 106.96 304.887 103.849 282.402" stroke="#737999" stroke-width="2" stroke-linecap="round" stroke-linejoin="round"/>
<path d="M55.8623 394.329L43.4403 389.582L56.8054 381.587" stroke="#737999" stroke-width="2" stroke-linecap="round" stroke-linejoin="round"/>
<path d="M118.755 396.535L105.721 394.687L114.201 385.95" stroke="#737999" stroke-width="2" stroke-linecap="round" stroke-linejoin="round"/>
<path d="M130.394 253.547C126.363 254.073 87.6707 256.122 62.6817 254.962" stroke="#737999" stroke-width="2" stroke-linecap="round" stroke-linejoin="round"/>
<path d="M172.867 490.509L128.983 489.318" stroke="#737999" stroke-width="2" stroke-linecap="round" stroke-linejoin="round"/>
<path d="M87.2771 493.431L44.4975 492.264" stroke="#737999" stroke-width="2" stroke-linecap="round" stroke-linejoin="round"/>
<path d="M70.356 283.052L52.4767 300.364" stroke="#737999" stroke-width="2" stroke-linecap="round" stroke-linejoin="round"/>
<path d="M81.1741 272.583L77.8288 275.815" stroke="#737999" stroke-width="2" stroke-linecap="round" stroke-linejoin="round"/>
<path d="M72.8715 507.712L85.3096 255.286" stroke="#737999" stroke-width="2" stroke-linecap="round" stroke-linejoin="round"/>
<path d="M104.236 334.748L147.379 505.749" stroke="#737999" stroke-width="2" stroke-linecap="round" stroke-linejoin="round"/>
<path fill-rule="evenodd" clip-rule="evenodd" d="M95.2 75.5025C95.2 73.9561 94.5389 72.7422 93.7167 72.7422C92.8945 72.7422 92.2255 73.9793 92.2255 75.5025C92.2255 77.0257 92.8945 78.2551 93.7167 78.2551C94.5389 78.2551 95.2 77.018 95.2 75.5025Z" fill="#B5545C"/>
<path fill-rule="evenodd" clip-rule="evenodd" d="M112.24 75.5025C112.24 73.9561 111.571 72.7422 110.749 72.7422C109.927 72.7422 109.266 73.9793 109.266 75.5025C109.266 77.0257 109.927 78.2551 110.749 78.2551C111.571 78.2551 112.24 77.018 112.24 75.5025Z" fill="#B5545C"/>
<path d="M103.744 76.0127C103.502 78.1622 103.985 82.9715 105.678 85.0746" stroke="#B5545C" stroke-width="2" stroke-linecap="round" stroke-linejoin="round"/>
<path d="M92.7733 89.3428C92.6986 89.6259 92.6607 89.9167 92.6605 90.2088C92.657 90.7644 92.7951 91.3124 93.0628 91.8051C93.3305 92.2978 93.7196 92.7204 94.1964 93.0359C94.6732 93.3514 95.2231 93.5505 95.7984 93.6156C96.3736 93.6808 96.9568 93.6101 97.4971 93.4098" stroke="#B5545C" stroke-width="2" stroke-linecap="round" stroke-linejoin="round"/>
<path d="M93.6841 105.262C92.4606 105.452 91.2234 105.547 89.9841 105.549C86.7815 105.544 83.6153 104.896 80.6898 103.646" stroke="#B5545C" stroke-width="2" stroke-linecap="round" stroke-linejoin="round"/>
<path d="M78.0542 71.389C77.8322 70.0139 77.2038 68.7288 76.2435 67.6859C75.2832 66.643 74.0313 65.8861 72.6362 65.5049C71.241 65.1237 69.7612 65.1343 68.3721 65.5353C66.9831 65.9362 65.743 66.7109 64.7989 67.7673C63.8549 68.8238 63.2464 70.1177 63.0457 71.4958C62.845 72.8738 63.0605 74.2782 63.6666 75.5423C64.2727 76.8065 65.244 77.8774 66.4654 78.6282C67.6867 79.3789 69.1069 79.778 70.5575 79.7782C71.2829 79.7754 72.0045 79.6766 72.7017 79.4844" stroke="#B5545C" stroke-width="2" stroke-linecap="round" stroke-linejoin="round"/>
<path d="M22.0632 245.791L38.8704 268.987" stroke="#FF3274" stroke-width="2" stroke-linecap="round" stroke-linejoin="round"/>
<path fill-rule="evenodd" clip-rule="evenodd" d="M68.3813 516.272L44.5208 516.079L44.7546 548.739L118.512 548.291C118.23 541.571 104.664 529.633 88.1226 527.267C71.5815 524.901 68.3813 518.406 68.3813 516.272Z" fill="#9B9B9B"/>
<path d="M105.139 533.321C102.148 535.788 99.5392 538.652 97.3923 541.826" stroke="#4E4242" stroke-width="2" stroke-linecap="round" stroke-linejoin="round"/>
<path d="M93.9346 529.068C90.9391 531.531 88.33 534.396 86.188 537.574" stroke="#4E4242" stroke-width="2" stroke-linecap="round" stroke-linejoin="round"/>
<path d="M87.8886 528.396C108.742 506.801 68.905 501.28 87.816 528.396" stroke="#4E4242" stroke-width="2" stroke-linecap="round" stroke-linejoin="round"/>
<path d="M87.7263 528.357C65.4619 503.127 52.7659 544.926 87.7263 528.434" stroke="#4E4242" stroke-width="2" stroke-linecap="round" stroke-linejoin="round"/>
<path d="M44.5375 521.746H72.0657" stroke="#4E4242" stroke-width="2" stroke-linecap="round" stroke-linejoin="round"/>
<path d="M44.7294 548.646L118.173 548.29" stroke="#4E4242" stroke-width="2" stroke-linecap="round" stroke-linejoin="round"/>
<path fill-rule="evenodd" clip-rule="evenodd" d="M158.003 516.93L134.15 516.736L134.384 549.396L208.134 548.971C207.852 542.252 194.285 530.314 177.744 527.948C161.203 525.582 158.003 519.064 158.003 516.93Z" fill="#9B9B9B"/>
<path d="M194.785 533.979C191.793 536.445 189.185 539.309 187.038 542.484" stroke="#4E4242" stroke-width="2" stroke-linecap="round" stroke-linejoin="round"/>
<path d="M183.582 529.726C180.586 532.189 177.977 535.053 175.835 538.231" stroke="#4E4242" stroke-width="2" stroke-linecap="round" stroke-linejoin="round"/>
<path d="M177.535 529.046C198.389 507.458 158.552 501.938 177.463 529.046" stroke="#4E4242" stroke-width="2" stroke-linecap="round" stroke-linejoin="round"/>
<path d="M177.381 529.013C155.117 503.776 142.429 545.583 177.381 529.091" stroke="#4E4242" stroke-width="2" stroke-linecap="round" stroke-linejoin="round"/>
<path d="M134.191 522.403H161.719" stroke="#4E4242" stroke-width="2" stroke-linecap="round" stroke-linejoin="round"/>
<path d="M134.384 549.303L207.836 548.971" stroke="#4E4242" stroke-width="2" stroke-linecap="round" stroke-linejoin="round"/>
<path fill-rule="evenodd" clip-rule="evenodd" d="M203.434 98.2495C204.515 95.7907 204.039 86.4737 198.146 83.3809L203.434 98.2495Z" fill="#F77F89"/>
<path d="M203.434 98.2495C204.515 95.7907 204.039 86.4737 198.146 83.3809" stroke="#B5545C" stroke-width="2" stroke-linecap="round" stroke-linejoin="round"/>
<path fill-rule="evenodd" clip-rule="evenodd" d="M195.503 101.228C196.164 98.1349 194.439 91.6323 190.932 89.3359L195.503 101.228Z" fill="#F77F89"/>
<path d="M195.503 101.228C196.164 98.1349 194.439 91.6323 190.932 89.3359" stroke="#B5545C" stroke-width="2" stroke-linecap="round" stroke-linejoin="round"/>
<path d="M82.02 134.992C76.8288 131.242 70.9362 124.051 68.9048 118.909" stroke="#FF3274" stroke-width="2" stroke-linecap="round" stroke-linejoin="round"/>
<path d="M116.489 226.416C101.262 229.578 83.1244 228.473 74.2573 227.522" stroke="#4C4FD9" stroke-width="2" stroke-linecap="round" stroke-linejoin="round"/>
<path d="M260.815 153.794H535.073C536.891 153.792 538.634 153.099 539.919 151.866C541.205 150.634 541.928 148.963 541.93 147.221V16.5311C541.928 14.7884 541.205 13.1177 539.919 11.8854C538.634 10.6531 536.891 9.95995 535.073 9.95801H260.815C258.997 9.95995 257.254 10.6531 255.969 11.8854C254.683 13.1177 253.96 14.7884 253.958 16.5311V147.221C253.96 148.963 254.683 150.634 255.969 151.866C257.254 153.099 258.997 153.792 260.815 153.794Z" fill="white"/>
<path d="M294.387 75.2381H432.343C434.044 75.2381 435.676 74.5387 436.88 73.2937C438.083 72.0487 438.759 70.3602 438.759 68.5995C438.759 66.8388 438.083 65.1503 436.88 63.9053C435.676 62.6604 434.044 61.9609 432.343 61.9609H294.387C292.685 61.9609 291.053 62.6604 289.85 63.9053C288.647 65.1503 287.971 66.8388 287.971 68.5995C287.971 70.3602 288.647 72.0487 289.85 73.2937C291.053 74.5387 292.685 75.2381 294.387 75.2381Z" fill="#0047AB"/>
<path d="M339.711 48.6834H432.369C434.064 48.6834 435.689 48.0423 436.887 46.901C438.086 45.7598 438.759 44.212 438.759 42.598C438.759 40.9841 438.086 39.4363 436.887 38.295C435.689 37.1538 434.064 36.5127 432.369 36.5127H339.711C338.016 36.5127 336.391 37.1538 335.192 38.295C333.994 39.4363 333.321 40.9841 333.321 42.598C333.321 44.212 333.994 45.7598 335.192 46.901C336.391 48.0423 338.016 48.6834 339.711 48.6834Z" fill="#0047AB"/>
<path d="M490.344 75.2377C479.387 75.2377 470.504 66.5688 470.504 55.8752C470.504 45.1816 479.387 36.5127 490.344 36.5127C501.302 36.5127 510.185 45.1816 510.185 55.8752C510.185 66.5688 501.302 75.2377 490.344 75.2377Z" fill="#0047AB"/>
<path d="M336.722 126.134C332.965 126.134 329.919 123.161 329.919 119.495C329.919 115.829 332.965 112.856 336.722 112.856C340.479 112.856 343.524 115.829 343.524 119.495C343.524 123.161 340.479 126.134 336.722 126.134Z" fill="#E6E6E6"/>
<path d="M314.614 126.134C311.17 126.134 308.378 123.161 308.378 119.495C308.378 115.829 311.17 112.856 314.614 112.856C318.058 112.856 320.849 115.829 320.849 119.495C320.849 123.161 318.058 126.134 314.614 126.134Z" fill="#E6E6E6"/>
<path d="M291.372 126.134C287.615 126.134 284.569 123.161 284.569 119.495C284.569 115.829 287.615 112.856 291.372 112.856C295.129 112.856 298.174 115.829 298.174 119.495C298.174 123.161 295.129 126.134 291.372 126.134Z" fill="#E6E6E6"/>
</svg>
