<svg width="171" height="175" viewBox="0 0 171 175" fill="none" xmlns="http://www.w3.org/2000/svg">
<path d="M68.3757 79.4993C68.4335 80.3014 68.9602 80.9668 69.6735 81.1364L75.4274 82.5073C75.6305 83.5902 75.888 84.6585 76.2001 85.7013L71.8446 90.0583C71.3047 90.598 71.1495 91.4657 71.4632 92.1931C72.259 94.0417 73.1456 95.7499 74.0983 97.2703C74.5111 97.9302 75.2673 98.2146 75.9623 97.9685L81.5545 95.9796C82.2232 96.8072 82.9348 97.593 83.6843 98.3313L81.883 104.506C81.6601 105.27 81.9161 106.107 82.5154 106.564C83.8924 107.616 85.4394 108.595 87.1136 109.474C87.774 109.82 88.5583 109.647 89.047 109.053L92.993 104.243C93.9391 104.586 94.9066 104.872 95.8873 105.097L97.1289 111.45C97.2824 112.236 97.8851 112.817 98.6099 112.883C99.4883 112.959 100.368 113.029 101.265 113.029C102.161 113.029 103.041 112.959 103.92 112.883C104.646 112.819 105.249 112.237 105.402 111.45L106.644 105.097C107.625 104.872 108.594 104.588 109.538 104.243L113.484 109.053C113.975 109.649 114.761 109.822 115.418 109.474C117.092 108.595 118.639 107.614 120.016 106.564C120.615 106.107 120.871 105.27 120.648 104.506L118.847 98.3313C119.596 97.593 120.308 96.8072 120.977 95.9814L126.569 97.9703C127.261 98.2183 128.019 97.9339 128.433 97.2721C129.386 95.7517 130.272 94.0435 131.068 92.1949C131.382 91.4675 131.227 90.5998 130.687 90.0602L126.331 85.7031C126.642 84.6585 126.901 83.5902 127.104 82.5073L132.858 81.1364C133.569 80.9668 134.096 80.3014 134.156 79.5011C134.223 78.5294 134.286 77.5577 134.286 76.5678C134.286 75.5779 134.223 74.6062 134.154 73.6364C134.096 72.8342 133.569 72.1688 132.856 71.9993L127.102 70.6283C126.899 69.5455 126.642 68.4753 126.329 67.4325L130.685 63.0755C131.225 62.5359 131.38 61.6681 131.066 60.9407C130.271 59.0921 129.382 57.3839 128.431 55.8635C128.017 55.2018 127.259 54.9174 126.567 55.1653L120.975 57.1542C120.306 56.3266 119.595 55.5408 118.845 54.8025L120.647 48.6279C120.869 47.864 120.614 47.0272 120.014 46.5697C118.637 45.5178 117.09 44.5388 115.416 43.6601C114.756 43.3119 113.971 43.4851 113.483 44.0812L109.537 48.8904C108.591 48.5477 107.623 48.2614 106.642 48.0372L105.401 41.6839C105.247 40.8982 104.645 40.3166 103.92 40.251C102.161 40.0942 100.367 40.0979 98.6082 40.251C97.8818 40.3148 97.2791 40.8963 97.1256 41.6839L95.884 48.0372C94.9033 48.2614 93.9358 48.5458 92.9914 48.8904L89.0453 44.0812C88.5566 43.4851 87.7724 43.3137 87.1119 43.6601C85.4378 44.5388 83.8907 45.5178 82.5137 46.5697C81.9144 47.0272 81.6585 47.864 81.8814 48.6279L83.6827 54.8025C82.9331 55.5408 82.2215 56.3266 81.5528 57.1542L75.9623 55.1653C75.2689 54.9174 74.5111 55.2018 74.0983 55.8635C73.1456 57.3839 72.259 59.0921 71.4632 60.9407C71.1495 61.6681 71.3047 62.5359 71.8446 63.0755L76.2001 67.4325C75.8897 68.4771 75.6305 69.5455 75.4274 70.6283L69.6735 71.9993C68.9619 72.1688 68.4352 72.8342 68.3757 73.6345C68.3064 74.6062 68.2437 75.5779 68.2437 76.5678C68.2437 77.5577 68.3064 78.5294 68.3757 79.4993ZM71.5804 75.2753L77.1973 73.9353C77.8611 73.7767 78.3696 73.1861 78.4786 72.4459C78.7262 70.7651 79.1258 69.1152 79.6657 67.5401C79.9067 66.8401 79.7334 66.047 79.2298 65.5439L74.9882 61.2998C75.3581 60.5177 75.7444 59.7685 76.144 59.0593L81.5858 60.9954C82.2298 61.2233 82.9397 60.9954 83.3706 60.4157C84.3448 59.0994 85.4444 57.8871 86.6364 56.8097C87.1615 56.3357 87.3712 55.5536 87.1615 54.839L85.408 48.8302C86.0503 48.3872 86.7272 47.9606 87.4372 47.5541L91.2809 52.2393C91.7382 52.7953 92.4581 52.9868 93.0904 52.7206C94.5136 52.1245 96.0078 51.6833 97.5318 51.4098C98.2021 51.2895 98.737 50.728 98.8807 49.9951L100.093 43.7932C100.87 43.7476 101.661 43.7458 102.435 43.7932L103.649 49.9951C103.793 50.728 104.328 51.2895 104.998 51.4098C106.52 51.6833 108.014 52.1245 109.441 52.7206C110.072 52.9868 110.791 52.7972 111.249 52.2393L115.092 47.5559C115.801 47.9643 116.479 48.3909 117.122 48.832L115.368 54.8408C115.16 55.5554 115.368 56.3357 115.893 56.8115C117.085 57.8871 118.183 59.1012 119.159 60.4175C119.59 60.999 120.298 61.2306 120.944 60.9972L126.386 59.0611C126.787 59.7703 127.173 60.5177 127.541 61.2998L123.298 65.5439C122.795 66.047 122.621 66.8401 122.862 67.5419C123.402 69.1134 123.802 70.7632 124.049 72.4459C124.158 73.1861 124.667 73.7767 125.331 73.9353L130.948 75.2735C130.969 75.7019 130.984 76.1339 130.984 76.5678C130.984 77.0017 130.971 77.4338 130.949 77.8604L125.332 79.2003C124.669 79.3589 124.16 79.9496 124.051 80.6897C123.803 82.3706 123.404 84.0204 122.864 85.5955C122.623 86.2956 122.796 87.0886 123.3 87.5918L127.541 91.8358C127.172 92.6179 126.785 93.3672 126.386 94.0763L120.944 92.1402C120.295 91.9069 119.59 92.1384 119.159 92.72C118.186 94.0326 117.087 95.2467 115.893 96.326C115.368 96.7999 115.16 97.582 115.368 98.2948L117.122 104.304C116.479 104.747 115.802 105.173 115.094 105.58L111.25 100.894C110.795 100.338 110.076 100.151 109.441 100.413C108.018 101.009 106.523 101.451 104.999 101.724C104.329 101.844 103.794 102.406 103.651 103.139L102.439 109.341C101.661 109.386 100.87 109.388 100.096 109.341L98.8823 103.139C98.7387 102.406 98.2037 101.844 97.5334 101.724C96.0111 101.451 94.5169 101.009 93.0904 100.413C92.4581 100.147 91.7382 100.337 91.2825 100.894L87.4388 105.578C86.7305 105.17 86.052 104.743 85.4097 104.302L87.1631 98.293C87.3711 97.5784 87.1631 96.7981 86.6381 96.3223C85.446 95.2467 84.3481 94.0326 83.3723 92.7163C82.9414 92.1348 82.2314 91.9051 81.5875 92.1366L76.1456 94.0727C75.7444 93.3635 75.3581 92.6161 74.9899 91.8322L79.2331 87.5881C79.7367 87.0849 79.91 86.2919 79.669 85.5901C79.1291 84.0186 78.7295 82.3687 78.4819 80.6861C78.3729 79.9459 77.8644 79.3553 77.2006 79.1966L71.5804 77.8622C71.5606 77.4338 71.5458 77.0017 71.5458 76.5678C71.5458 76.1339 71.559 75.7019 71.5804 75.2753Z" fill="#0047AB"/>
<path d="M154.46 29.5966C155.081 29.3815 155.53 28.7817 155.604 28.067C155.703 27.1464 155.749 26.3133 155.749 25.5221C155.749 24.7309 155.703 23.8978 155.606 22.9771C155.531 22.2625 155.082 21.6627 154.462 21.4476L149.883 19.8597C149.746 19.4459 149.594 19.0393 149.428 18.6419L151.647 13.9476C151.947 13.3113 151.881 12.5384 151.478 11.9732C150.522 10.6388 149.423 9.42462 148.211 8.36543C147.699 7.91878 146.999 7.84769 146.423 8.17766L142.168 10.6278C141.808 10.4455 141.44 10.2778 141.065 10.1265L139.627 5.07119C139.432 4.38573 138.889 3.88986 138.242 3.80782C136.571 3.5927 135.301 3.5927 133.63 3.80782C132.983 3.88986 132.44 4.38573 132.245 5.07119L130.807 10.1265C130.432 10.2778 130.064 10.4455 129.704 10.6296L125.452 8.17948C124.876 7.84951 124.178 7.92061 123.664 8.36543C122.456 9.42097 121.356 10.6351 120.397 11.9732C119.992 12.5384 119.926 13.3095 120.227 13.9476L122.444 18.6419C122.279 19.0393 122.127 19.4459 121.99 19.8597L117.412 21.4476C116.791 21.6627 116.342 22.2625 116.268 22.9771C116.17 23.8978 116.124 24.7309 116.124 25.5221C116.124 26.3133 116.17 27.1464 116.268 28.067C116.342 28.7817 116.791 29.3815 117.412 29.5966L121.99 31.1845C122.127 31.5983 122.279 32.0048 122.446 32.4022L120.227 37.0966C119.926 37.7328 119.992 38.5058 120.395 39.0709C121.351 40.4054 122.451 41.6195 123.663 42.6787C124.173 43.1254 124.875 43.1965 125.451 42.8665L129.702 40.4182C130.062 40.6005 130.43 40.7682 130.805 40.9195L132.243 45.9748C132.438 46.6603 132.981 47.1561 133.629 47.2382C134.466 47.3475 135.22 47.3986 135.937 47.3986C136.653 47.3986 137.408 47.3475 138.242 47.24C138.889 47.1579 139.432 46.6621 139.627 45.9766L141.065 40.9213C141.44 40.77 141.808 40.6023 142.168 40.4182L146.419 42.8683C146.995 43.2001 147.696 43.129 148.207 42.6824C149.416 41.6268 150.516 40.4127 151.475 39.0746C151.879 38.5094 151.945 37.7383 151.645 37.1002L149.426 32.4059C149.593 32.0085 149.744 31.6019 149.882 31.1881L154.46 29.5966ZM148.087 27.985C147.565 28.1673 147.159 28.6213 147 29.201C146.776 30.025 146.479 30.818 146.119 31.56C145.86 32.0923 145.855 32.7322 146.109 33.2664L148.204 37.7C147.813 38.1795 147.398 38.6371 146.966 39.0673L142.95 36.7538C142.465 36.4731 141.885 36.4804 141.405 36.7648C140.733 37.1622 140.015 37.4904 139.269 37.7383C138.745 37.9115 138.332 38.3618 138.167 38.9379L136.807 43.7215C136.204 43.7616 135.671 43.7616 135.067 43.7215L133.706 38.9379C133.541 38.3618 133.13 37.9133 132.605 37.7383C131.857 37.4904 131.139 37.1622 130.47 36.7648C129.988 36.4786 129.408 36.4731 128.923 36.7538L124.908 39.0673C124.473 38.6352 124.059 38.1776 123.669 37.7L125.765 33.2664C126.017 32.7322 126.014 32.0905 125.755 31.56C125.395 30.818 125.098 30.025 124.873 29.201C124.716 28.6231 124.308 28.1673 123.787 27.985L119.454 26.4828C119.434 26.1492 119.426 25.8302 119.426 25.5221C119.426 25.214 119.434 24.895 119.454 24.5613L123.787 23.0592C124.308 22.8768 124.714 22.4229 124.873 21.8432C125.098 21.0173 125.395 20.2243 125.755 19.486C126.014 18.9537 126.019 18.3138 125.765 17.7778L123.669 13.3442C124.061 12.8647 124.475 12.4071 124.908 11.9769L128.923 14.2903C129.407 14.5692 129.988 14.5638 130.468 14.2794C131.14 13.882 131.859 13.5538 132.605 13.3059C133.128 13.1327 133.541 12.6824 133.706 12.1063L135.067 7.32265C135.669 7.28254 136.203 7.28254 136.807 7.32265L138.167 12.1063C138.332 12.6824 138.744 13.1309 139.269 13.3059C140.016 13.5538 140.735 13.882 141.403 14.2794C141.885 14.5656 142.465 14.5711 142.95 14.2903L146.966 11.9769C147.4 12.4089 147.814 12.8665 148.204 13.3442L146.109 17.7778C145.856 18.3119 145.86 18.9537 146.119 19.4842C146.479 20.2261 146.776 21.0192 147 21.8432C147.157 22.4211 147.565 22.8768 148.087 23.0592L152.419 24.5613C152.439 24.895 152.447 25.214 152.447 25.5221C152.447 25.8302 152.439 26.1492 152.419 26.4828L148.087 27.985Z" fill="#0047AB"/>
<path d="M166.088 63.741L163.252 62.6289C163.09 62.1203 162.905 61.6226 162.695 61.1395L163.985 58.1406C164.254 57.5171 164.18 56.7806 163.793 56.2373C162.968 55.0724 162.014 54.0169 160.955 53.1017C160.462 52.6751 159.791 52.5949 159.23 52.8902L156.512 54.314C156.076 54.0843 155.626 53.8783 155.165 53.7015L154.156 50.5695C153.946 49.9187 153.42 49.4538 152.799 49.3699C151.328 49.1749 150.263 49.1749 148.792 49.3699C148.171 49.452 147.644 49.9168 147.435 50.5695L146.428 53.7015C145.967 53.8801 145.516 54.0843 145.079 54.3158L142.363 52.8921C141.801 52.5967 141.133 52.6788 140.639 53.1035C139.584 54.015 138.628 55.0688 137.799 56.2373C137.414 56.7806 137.34 57.5189 137.608 58.1424L138.897 61.1431C138.689 61.6244 138.502 62.1221 138.342 62.6307L135.506 63.7446C134.916 63.9761 134.495 64.5577 134.419 65.2432C134.329 66.0508 134.286 66.7745 134.286 67.4527C134.286 68.1309 134.329 68.8528 134.418 69.664C134.492 70.3495 134.913 70.9311 135.504 71.1626L138.341 72.2746C138.502 72.7833 138.687 73.281 138.897 73.7641L137.608 76.763C137.338 77.3864 137.413 78.123 137.799 78.6662C138.625 79.8312 139.579 80.8867 140.637 81.8019C141.129 82.2266 141.8 82.3087 142.363 82.0133L145.08 80.5895C145.516 80.8192 145.967 81.0252 146.428 81.2021L147.436 84.3341C147.646 84.9849 148.173 85.4498 148.793 85.5336C149.528 85.6357 150.182 85.6831 150.796 85.6831C151.41 85.6831 152.064 85.6357 152.799 85.5373C153.42 85.4552 153.946 84.9904 154.156 84.3377L155.163 81.2057C155.624 81.0271 156.075 80.8229 156.512 80.5914L159.228 82.0152C159.791 82.3123 160.462 82.2321 160.952 81.8037C162.007 80.8922 162.963 79.8384 163.792 78.6699C164.176 78.1266 164.251 77.3883 163.983 76.7648L162.694 73.7641C162.902 73.2828 163.088 72.7851 163.248 72.2765L166.085 71.1626C166.674 70.9311 167.095 70.3495 167.171 69.664C167.264 68.8528 167.307 68.1309 167.307 67.4527C167.307 66.7745 167.264 66.0526 167.175 65.2413C167.1 64.5541 166.679 63.9743 166.088 63.741ZM163.988 68.1181L161.371 69.1445C160.864 69.3432 160.476 69.8026 160.333 70.375C160.116 71.241 159.808 72.0668 159.416 72.8307C159.152 73.3466 159.132 73.9737 159.362 74.5097L160.547 77.2679C160.273 77.5997 159.986 77.917 159.687 78.2178L157.189 76.9088C156.707 76.6554 156.137 76.6773 155.668 76.969C154.975 77.4029 154.227 77.7419 153.446 77.9808C152.928 78.1394 152.512 78.5678 152.33 79.1275L151.401 82.017C151.001 82.0407 150.595 82.0407 150.195 82.017L149.266 79.1275C149.086 78.5678 148.67 78.1394 148.151 77.9808C147.367 77.7419 146.619 77.401 145.927 76.969C145.46 76.6791 144.894 76.6572 144.407 76.9088L141.909 78.2178C141.608 77.9151 141.321 77.5979 141.048 77.2679L142.234 74.5097C142.465 73.9737 142.444 73.3466 142.179 72.8307C141.786 72.065 141.479 71.2391 141.263 70.3769C141.119 69.8044 140.731 69.345 140.224 69.1445L137.608 68.1181C137.594 67.8975 137.588 67.6769 137.588 67.4527C137.588 67.2285 137.594 67.006 137.604 66.7873L140.221 65.7591C140.728 65.5604 141.116 65.101 141.258 64.5285C141.476 63.6608 141.785 62.8367 142.176 62.0729C142.44 61.557 142.46 60.9298 142.231 60.3939L141.045 57.6356C141.319 57.3038 141.606 56.9866 141.905 56.6858L144.403 57.9947C144.889 58.25 145.457 58.2281 145.924 57.9346C146.617 57.5007 147.365 57.1616 148.146 56.9228C148.665 56.7642 149.081 56.3358 149.262 55.7761L150.192 52.8866C150.591 52.8629 150.998 52.8629 151.397 52.8866L152.327 55.7761C152.507 56.3358 152.923 56.7642 153.441 56.9228C154.225 57.1616 154.973 57.5025 155.665 57.9346C156.134 58.2281 156.7 58.25 157.186 57.9947L159.684 56.6858C159.984 56.9884 160.272 57.3056 160.544 57.6356L159.359 60.3939C159.127 60.9298 159.149 61.557 159.413 62.0729C159.806 62.8386 160.113 63.6644 160.329 64.5267C160.473 65.0991 160.861 65.5585 161.368 65.7591L163.985 66.7855C163.998 67.0079 164.005 67.2285 164.005 67.4527C164.005 67.6769 163.998 67.8975 163.988 68.1181Z" fill="#0047AB"/>
<path d="M101.265 96.6216C111.278 96.6216 119.426 87.6249 119.426 76.5681C119.426 65.5114 111.278 56.5146 101.265 56.5146C91.251 56.5146 83.103 65.5114 83.103 76.5681C83.103 87.6249 91.251 96.6216 101.265 96.6216ZM101.265 60.1607C109.457 60.1607 116.124 67.5222 116.124 76.5681C116.124 85.6141 109.457 92.9755 101.265 92.9755C93.0721 92.9755 86.4051 85.6141 86.4051 76.5681C86.4051 67.5222 93.0721 60.1607 101.265 60.1607Z" fill="#0047AB"/>
<path d="M68.2803 46.2312L70.8163 48.5665C78.3765 38.5562 89.4732 32.8154 101.265 32.8154C102.105 32.8154 102.944 32.8683 103.783 32.9266L101.749 35.1726L104.083 37.7504L109.037 32.2813C109.682 31.5685 109.682 30.4163 109.037 29.7035L104.083 24.2344L101.749 26.8122L103.993 29.2897C103.085 29.2259 102.175 29.1694 101.265 29.1694C88.4925 29.1694 76.4695 35.3878 68.2803 46.2312Z" fill="#0047AB"/>
<path d="M135.937 16.4072C131.385 16.4072 127.682 20.4963 127.682 25.5224C127.682 30.5486 131.385 34.6377 135.937 34.6377C140.489 34.6377 144.192 30.5486 144.192 25.5224C144.192 20.4963 140.489 16.4072 135.937 16.4072ZM135.937 30.9916C133.206 30.9916 130.984 28.5378 130.984 25.5224C130.984 22.5071 133.206 20.0533 135.937 20.0533C138.668 20.0533 140.89 22.5071 140.89 25.5224C140.89 28.5378 138.668 30.9916 135.937 30.9916Z" fill="#0047AB"/>
<path d="M150.797 60.1602C147.154 60.1602 144.192 63.4307 144.192 67.4523C144.192 71.474 147.154 74.7445 150.797 74.7445C154.439 74.7445 157.401 71.474 157.401 67.4523C157.401 63.4307 154.439 60.1602 150.797 60.1602ZM150.797 71.0984C148.975 71.0984 147.494 69.4631 147.494 67.4523C147.494 65.4415 148.975 63.8062 150.797 63.8062C152.618 63.8062 154.099 65.4415 154.099 67.4523C154.099 69.4631 152.618 71.0984 150.797 71.0984Z" fill="#0047AB"/>
<path d="M165.98 9.15166L157.724 7.32861C156.826 7.12808 155.959 7.77161 155.781 8.75788L154.13 17.8731L157.368 18.5895L158.258 13.6819C159.857 17.3572 160.703 21.408 160.703 25.5226C160.703 31.8084 158.824 37.7187 155.271 42.6136L157.848 44.8942C161.819 39.4233 164.005 32.5449 164.005 25.5226C164.005 20.748 163.006 16.0409 161.106 11.7932L165.332 12.7266L165.98 9.15166Z" fill="#0047AB"/>
<path d="M9.94972 126.626L4.14628 138.457C4.08136 138.598 4.02446 138.741 3.97397 138.888C2.92725 142.038 3.45622 145.5 5.39657 148.194C7.33693 150.888 10.453 152.487 13.7735 152.493H24.1061V145.604H13.7735C12.698 145.605 11.6841 145.103 11.0325 144.249C10.3801 143.394 10.1645 142.283 10.4498 141.247L16.1843 129.588L9.94972 126.626Z" fill="#AADAF1"/>
<path d="M80.7869 106.046H91.2693C94.3766 106.048 97.3188 107.449 99.2784 109.86C101.239 112.272 102.01 115.437 101.378 118.479L94.2195 147.326L87.5376 145.654L94.6675 116.947C94.8438 115.972 94.5785 114.969 93.9438 114.209C93.2914 113.401 92.308 112.932 91.2693 112.935H80.7812" fill="#AADAF1"/>
<path d="M74.0481 73.2744H29.2724C27.4451 73.272 25.6915 73.9965 24.3987 75.2893C23.1067 76.5813 22.3814 78.3349 22.3838 80.1622V166.27C22.3838 170.073 25.4678 173.157 29.2724 173.157H74.0481C76.2161 173.157 78.2582 172.137 79.559 170.402L80.9367 166.27V80.1622C80.9367 76.3585 77.8527 73.2744 74.0481 73.2744Z" fill="#AADAF1"/>
<path d="M22.3838 83.6074H80.9367V159.382H22.3838V83.6074Z" fill="#AADAF1"/>
<path d="M75.7704 147.327V166.271L74.3927 170.403C73.0911 172.138 71.0498 173.158 68.8818 173.158H29.2724C25.4678 173.158 22.3838 170.074 22.3838 166.271V147.327H75.7704Z" fill="#AADAF1"/>
<path d="M75.7704 80.1622V147.463L68.9852 159.381H22.3838V80.1622C22.3814 78.3349 23.1067 76.5813 24.3987 75.2893C25.6915 73.9965 27.4451 73.272 29.2724 73.2744H68.8818C72.6864 73.2744 75.7704 76.3585 75.7704 80.1622Z" fill="#AADAF1"/>
<path d="M63.7159 133.548H56.8273V126.66C56.8273 125.709 56.0563 124.938 55.105 124.938H48.2163C47.265 124.938 46.494 125.709 46.494 126.66V133.548H39.6053C38.6548 133.548 37.8838 134.319 37.8838 135.271V142.159C37.8838 143.11 38.6548 143.881 39.6053 143.881H46.494V150.77C46.494 151.721 47.265 152.492 48.2163 152.492H55.105C56.0563 152.492 56.8273 151.721 56.8273 150.77V143.881H63.7159C64.6665 143.881 65.4375 143.11 65.4375 142.159V135.271C65.4375 134.319 64.6665 133.548 63.7159 133.548Z" fill="#F3F3F3"/>
<path d="M101.602 159.382C101.602 166.99 95.4337 173.158 87.8253 173.158C86.9581 173.157 86.0934 173.077 85.2422 172.918C78.7383 171.684 74.0312 166.001 74.0312 159.382C74.0312 152.762 78.7383 147.078 85.2422 145.846C86.0934 145.686 86.9581 145.605 87.8253 145.604C95.4337 145.604 101.602 151.773 101.602 159.382Z" fill="#AADAF1"/>
<path d="M96.4353 159.381C96.4353 151.905 91.4237 145.845 85.242 145.845C79.0594 145.845 74.0479 151.905 74.0479 159.381C74.0479 166.856 79.0594 172.917 85.242 172.917C91.4237 172.917 96.4353 166.856 96.4353 159.381Z" fill="#AADAF1"/>
<path d="M94.7143 159.381C94.7143 163.185 91.6294 166.269 87.8256 166.269C84.0211 166.269 80.937 163.185 80.937 159.381C80.937 155.576 84.0211 152.492 87.8256 152.492C91.6294 152.492 94.7143 155.576 94.7143 159.381Z" fill="#AADAF1"/>
<path d="M23.9426 84.7049L18.661 82.2796C18.4325 82.1754 18.1705 82.1754 17.942 82.2804C17.7144 82.3854 17.5429 82.5842 17.474 82.8262L8.82934 113.011C7.86838 116.246 9.43124 119.695 12.4969 121.105L18.2097 123.732C21.281 125.137 24.918 124.068 26.7414 121.225L43.973 93.9234C44.1108 93.7134 44.1501 93.4545 44.0812 93.2133C44.0114 92.972 43.8407 92.7724 43.6131 92.6674L38.1791 90.1797L41.05 83.9178L47.3928 86.8263C49.1921 87.6591 50.5378 89.2372 51.0748 91.1455C51.615 93.0698 51.3008 95.1344 50.214 96.811L32.4254 124.967C28.7779 130.663 21.4917 132.806 15.3405 129.99L9.6268 127.37C3.47954 124.547 0.348196 117.628 2.28535 111.146L11.2057 79.9898C11.7683 78.0671 13.13 76.4802 14.9445 75.6322C16.743 74.7907 18.8205 74.7795 20.6278 75.6034L26.8151 78.4398L23.9426 84.7049Z" fill="#AADAF1"/>
<path d="M21.7288 76.1123L26.9624 78.5119C28.6911 79.3054 29.4501 81.3499 28.6575 83.0787C27.8648 84.8074 25.8203 85.5664 24.0915 84.7738L18.8579 82.3742L21.7288 76.1123Z" fill="#F3F3F3"/>
<path d="M21.7303 76.1157L23.2627 76.8041V76.8218C22.6816 77.8388 22.3787 78.9913 22.3843 80.1623V83.9861L18.8538 82.3671L18.6647 82.2806C18.4354 82.1756 18.1718 82.1764 17.9433 82.2822C17.7149 82.3888 17.5442 82.5891 17.4761 82.832L8.83145 113.004C7.85766 116.244 9.42293 119.706 12.4998 121.115L18.2166 123.733C19.519 124.334 20.9817 124.498 22.3843 124.197V131.138C19.9751 131.403 17.5394 131.004 15.341 129.984L9.6233 127.366C3.47122 124.548 0.339883 117.625 2.28745 111.144L11.2078 79.9908C11.7704 78.0688 13.1313 76.4819 14.9451 75.6332C16.7444 74.7956 18.8186 74.7836 20.6283 75.5987L21.7303 76.1157Z" fill="#AADAF1"/>
<path d="M50.2142 96.8158L32.424 124.972C31.1914 126.86 29.5195 128.42 27.5503 129.519V119.944L43.9796 93.9225C44.1151 93.7117 44.1535 93.4529 44.0838 93.2116C44.0149 92.9712 43.845 92.7716 43.6181 92.665L38.1762 90.1853L41.0518 83.917L47.3899 86.8271C49.1908 87.6599 50.5372 89.2395 51.075 91.1494C51.6088 93.0746 51.2954 95.136 50.2142 96.8158Z" fill="#AADAF1"/>
<path d="M21.73 76.1152L23.2624 76.8037V76.8213C22.6813 77.8384 22.3784 78.9909 22.384 80.1619V83.9857L18.8535 82.3667L21.73 76.1152Z" fill="#F3F3F3"/>
<path d="M28.6533 83.0726C28.4136 83.6112 28.0322 84.0753 27.5505 84.4159V80.1617C27.5473 79.7513 27.5881 79.3418 27.6715 78.9395C28.905 79.9309 29.3089 81.6324 28.6533 83.0726Z" fill="#F3F3F3"/>
<path d="M41.0515 83.9186L46.2178 86.2878L43.3469 92.5497L38.1807 90.1805C36.4519 89.3879 35.6929 87.3433 36.4855 85.6145C37.2782 83.885 39.3227 83.126 41.0515 83.9186Z" fill="#F3F3F3"/>
<path d="M10.5707 148.204C8.59987 145.519 8.06609 142.04 9.14166 138.888C9.19135 138.741 9.24906 138.597 9.31317 138.457L14.7608 127.349C8.63433 124.515 5.52062 117.61 7.45216 111.142L16.3725 79.9908C16.9351 78.0681 18.2968 76.4812 20.1114 75.6332C20.2059 75.5883 20.3093 75.5731 20.4055 75.5338C18.6527 74.7981 16.6707 74.8341 14.9451 75.6332C13.1306 76.4812 11.7689 78.0681 11.2062 79.9908L2.28589 111.147C0.356757 117.613 3.47046 124.515 9.59449 127.349L4.1469 138.457C4.08198 138.597 4.02508 138.741 3.97459 138.888C2.92787 142.038 3.45684 145.5 5.3972 148.194C7.33755 150.888 10.4537 152.487 13.7741 152.492H18.9404C15.6191 152.509 12.4974 150.91 10.5707 148.204Z" fill="white"/>
<path d="M26 173H24.2858C23.0233 173 22 169.896 22 166.067V147H23.7142V166.067C23.7142 169.896 24.7376 173 26 173Z" fill="white"/>
<path d="M24 84.4281V119.769L23.6869 121.037C23.3022 122.567 22.6944 123.634 22 124V84L22.6069 84.7191L22.6599 84.7877C22.8343 84.9878 23.0226 85.0922 23.2135 85.0962C23.4974 85.1034 23.7738 84.8682 24 84.4281Z" fill="white"/>
<path d="M22 131.572C22.7031 131.402 23.3841 130.866 24 130V159H22V131.572Z" fill="white"/>
<path d="M34.4387 73.2745C31.1046 73.2633 28.2465 75.6556 27.6711 78.9401C27.4507 78.7726 27.2143 78.6283 26.965 78.5097L26.8095 78.4407L23.2622 76.8218V76.8041C24.47 74.6177 26.7742 73.2641 29.2724 73.2745H34.4387Z" fill="white"/>
<path d="M0.630371 110.672L6.79207 89.1497L9.54912 79.5225L12.8608 80.4714L10.1037 90.0986L3.93964 111.62L0.630371 110.672Z" fill="white"/>
<path d="M55.1051 164.547H48.2165C47.2652 164.547 46.4941 165.318 46.4941 166.269C46.4941 167.22 47.2652 167.991 48.2165 167.991H55.1051C56.0565 167.991 56.8275 167.22 56.8275 166.269C56.8275 165.318 56.0565 164.547 55.1051 164.547Z" fill="#0047AB"/>
<path d="M39.6055 145.604H44.7726V150.77C44.7726 152.672 46.3146 154.214 48.2165 154.214H55.1051C57.007 154.214 58.5491 152.672 58.5491 150.77V145.604H63.7161C65.618 145.604 67.16 144.062 67.16 142.159V135.272C67.16 133.369 65.618 131.827 63.7161 131.827H58.5491V126.661C58.5491 124.759 57.007 123.216 55.1051 123.216H48.2165C46.3146 123.216 44.7726 124.759 44.7726 126.661V131.827H39.6055C37.7036 131.827 36.1616 133.369 36.1616 135.272V142.159C36.1616 144.062 37.7036 145.604 39.6055 145.604ZM39.6055 135.272H46.4942C47.4455 135.272 48.2165 134.501 48.2165 133.549V126.661H55.1051V133.549C55.1051 134.501 55.8762 135.272 56.8275 135.272H63.7161V142.159H56.8275C55.8762 142.159 55.1051 142.93 55.1051 143.882V150.77H48.2165V143.882C48.2165 142.93 47.4455 142.159 46.4942 142.159H39.6055V135.272Z" fill="#0047AB"/>
<path d="M4.42216 97.4293C4.30354 97.8685 4.35404 98.3373 4.56482 98.7413L4.75637 99.0114C4.83091 99.1011 4.91747 99.1797 5.01284 99.2454C5.09299 99.3207 5.18436 99.3833 5.28294 99.4297C5.38713 99.4802 5.49373 99.5235 5.60353 99.5588C6.04353 99.6774 6.51239 99.6261 6.91553 99.4145C7.11109 99.2991 7.28341 99.1476 7.42206 98.9681C7.85085 98.4231 7.91817 97.6769 7.59438 97.0638C7.47896 96.869 7.32749 96.6975 7.14876 96.5589C6.97324 96.4186 6.77287 96.3128 6.55808 96.2479C6.11727 96.1285 5.64841 96.179 5.24367 96.3906C4.84854 96.6206 4.55521 96.9917 4.42216 97.4293Z" fill="#0047AB"/>
<path d="M87.8258 150.77C83.0699 150.77 79.2148 154.625 79.2148 159.381C79.2148 164.136 83.0699 167.991 87.8258 167.991C92.5809 167.991 96.436 164.136 96.436 159.381C96.4304 154.627 92.5785 150.775 87.8258 150.77ZM87.8258 164.547C84.9726 164.547 82.6588 162.234 82.6588 159.381C82.6588 156.527 84.9726 154.213 87.8258 154.213C90.6791 154.213 92.9921 156.527 92.9921 159.381C92.9921 162.234 90.6791 164.547 87.8258 164.547Z" fill="#0047AB"/>
<path d="M65.4374 104.273H67.1597C68.1111 104.273 68.8821 103.502 68.8821 102.55C68.8821 101.599 68.1111 100.828 67.1597 100.828H65.4374C64.4868 100.828 63.7158 101.599 63.7158 102.55C63.7158 103.502 64.4868 104.273 65.4374 104.273Z" fill="#0047AB"/>
<path d="M96.3483 146.45L103.219 118.78C103.961 115.23 103.063 111.534 100.775 108.719C98.4867 105.905 95.0516 104.272 91.4241 104.274H82.6584V80.1629C82.6528 75.4102 78.801 71.5583 74.0483 71.5527H29.2726C26.857 71.5527 24.5519 72.5682 22.9218 74.3515C22.8432 74.4508 22.7767 74.5598 22.7238 74.6745L22.4481 74.547L21.3405 74.0309C19.0771 72.9978 16.4739 73.0098 14.2194 74.0637C11.9528 75.1241 10.2529 77.1093 9.55405 79.5121V79.5241L6.31852 90.8064C6.14861 91.3979 6.3081 92.0351 6.73528 92.4775C7.16327 92.9199 7.79402 93.101 8.39112 92.952C8.98821 92.8029 9.46028 92.3468 9.63019 91.7546L12.8577 80.4851C13.2785 79.0361 14.3028 77.8387 15.6677 77.1959C16.8482 76.6517 18.1939 76.586 19.4217 77.0115L17.8052 80.5332C17.6048 80.5701 17.41 80.631 17.2249 80.7143C16.5389 81.0285 16.0251 81.6272 15.8175 82.3517L7.17609 112.539C5.96748 116.595 7.93108 120.922 11.7789 122.682L17.4918 125.302C21.3469 127.079 25.9216 125.73 28.1978 122.147L45.4198 94.8739C45.8325 94.2415 45.9488 93.4601 45.7364 92.7348C45.6682 92.5128 45.5705 92.3004 45.4454 92.1048L47.0468 88.6136C48.2017 89.2636 49.0553 90.3416 49.4215 91.6151C49.8295 93.0698 49.589 94.6294 48.7619 95.8933L30.9845 124.023C27.7995 129.001 21.4366 130.879 16.0588 128.426L10.3467 125.8C4.98087 123.322 2.25187 117.278 3.94216 111.615L5.83604 104.998C6.09812 104.084 5.56915 103.13 4.65467 102.868C3.74019 102.606 2.78645 103.135 2.52437 104.049L0.630494 110.671C-1.16961 116.765 0.975927 123.338 6.02358 127.198L0.885361 137.683C0.784376 137.896 0.695413 138.114 0.618472 138.337C-0.606173 142.014 0.00935531 146.055 2.27431 149.2C4.53846 152.345 8.17632 154.211 12.0514 154.215H20.6624V166.27C20.668 171.023 24.5199 174.875 29.2726 174.881H74.0483C76.1882 174.886 78.2528 174.087 79.8309 172.642C87.0417 176.915 96.3435 174.673 100.817 167.584C105.29 160.496 103.309 151.135 96.3483 146.465V146.45ZM91.4241 107.717C94.004 107.716 96.4477 108.872 98.0827 110.867C99.7177 112.862 100.371 115.485 99.8628 118.014L93.193 144.861C92.1142 144.46 90.9937 144.181 89.8524 144.03L96.5014 117.255C96.7843 115.772 96.3932 114.241 95.4339 113.077C94.4569 111.863 92.9822 111.158 91.4241 111.161H82.6584V107.717H91.4241ZM82.6584 114.606H91.4241C91.9411 114.604 92.4308 114.838 92.7537 115.242C93.0495 115.583 93.1906 116.032 93.1449 116.481L86.322 143.958C85.0717 144.084 83.8414 144.362 82.6584 144.786V114.606ZM29.2726 74.9966H74.0483C76.9015 74.9966 79.2145 77.3097 79.2145 80.1629V81.8853H30.6848C30.7842 79.7798 29.5948 77.8258 27.6801 76.9466L26.0162 76.1836C26.9291 75.4182 28.0816 74.9983 29.2726 74.9966ZM43.9347 87.1365L42.5 90.2654L40.0019 89.1185L38.8974 88.612C38.1697 88.2722 37.7738 87.4739 37.9429 86.6885C38.112 85.903 38.8021 85.3396 39.6051 85.33H39.6156C39.8616 85.33 40.1036 85.3829 40.3273 85.4847L43.9347 87.1365ZM24.8092 83.2101L23.8587 82.7741L23.0732 82.4126L23.0404 82.4022L21.1457 81.531L22.5803 78.4029L26.0988 80.017L26.2438 80.0844C27.0926 80.4891 27.4589 81.5006 27.0669 82.3557C26.675 83.2109 25.67 83.5932 24.8092 83.2149V83.2101ZM13.2152 119.549C10.9222 118.49 9.75842 115.905 10.4862 113.486L18.8519 84.2672L20.6624 85.0976V122.614C20.0621 122.57 19.4746 122.419 18.928 122.168L13.2152 119.549ZM25.2997 120.282C24.9767 120.773 24.5728 121.207 24.1063 121.565V86.5851C24.5656 86.7277 25.0424 86.8047 25.5233 86.8127C26.8754 86.8135 28.1738 86.2805 29.1347 85.33H34.7715C33.8762 87.8426 35.0424 90.6237 37.4612 91.7482L41.9991 93.8264L25.2997 120.282ZM33.881 125.888L42.0993 112.884H61.9934C62.9447 112.884 63.7157 112.113 63.7157 111.161C63.7157 110.211 62.9447 109.44 61.9934 109.44H44.2745L47.5461 104.274H58.5487C59.5 104.274 60.271 103.502 60.271 102.551C60.271 101.6 59.5 100.829 58.5487 100.829H49.7165L51.6608 97.7479C53.0177 95.6545 53.4072 93.0778 52.73 90.6766C52.0672 88.3299 50.4258 86.3815 48.2249 85.33H79.2145V146.503C75.4212 149.042 72.9382 153.123 72.4277 157.659H24.1063V132.601C28.1241 131.745 31.6393 129.331 33.881 125.888ZM15.2821 131.818C16.9925 132.516 18.8158 132.894 20.6624 132.936V143.882H12.0514C11.5377 143.883 11.0504 143.654 10.7234 143.258C10.3956 142.862 10.2617 142.341 10.3587 141.836L15.2821 131.818ZM12.0514 150.771C9.27674 150.769 6.67277 149.43 5.05621 147.175C3.44044 144.918 3.01086 142.022 3.90209 139.395L8.99623 128.977L12.1356 130.417L7.1825 140.488C7.13442 140.586 7.09514 140.69 7.06549 140.796C6.65353 142.302 6.94607 143.913 7.86135 145.177C8.82311 146.535 10.3876 147.337 12.0514 147.327H20.6624V150.771H12.0514ZM74.0483 171.437H29.2726C26.4194 171.437 24.1063 169.124 24.1063 166.27V161.103H72.4277C72.8268 164.661 74.4474 167.969 77.0137 170.465C76.1513 171.091 75.1142 171.43 74.0483 171.437ZM87.8255 171.437C81.3312 171.429 76.0103 166.278 75.7907 159.788C75.9021 159.528 75.9021 159.234 75.7907 158.975C76.0135 152.372 81.5099 147.179 88.1148 147.33C94.7197 147.481 99.9726 152.92 99.8932 159.526C99.8139 166.132 94.432 171.444 87.8255 171.437Z" fill="#0047AB"/>
</svg>
