<svg width="142" height="143" viewBox="0 0 142 143" fill="none" xmlns="http://www.w3.org/2000/svg">
<rect y="0.990234" width="142" height="142" rx="25" fill="#E2F0FE"/>
<path d="M37.4062 102.561V47.8027H34.7188V102.561C34.7197 103.362 35.0385 104.131 35.6053 104.697C36.1721 105.264 36.9406 105.583 37.7422 105.584H64.2812V102.896H37.7422C37.6531 102.896 37.5678 102.861 37.5048 102.798C37.4418 102.735 37.4064 102.65 37.4062 102.561Z" fill="#0047AB"/>
<path d="M104.594 79.3586L97.5721 76.3493L95.8632 72.0769L96.9353 71.4336C97.6301 71.014 98.2052 70.4225 98.6052 69.7162C99.0051 69.0098 99.2164 68.2124 99.2188 67.4006V59.8965C99.5751 59.8965 99.9169 59.7549 100.169 59.5029C100.421 59.2509 100.562 58.9091 100.562 58.5527V55.5293C100.561 53.8371 99.8875 52.2147 98.6909 51.0181C97.4943 49.8215 95.8719 49.1484 94.1797 49.1465H92.6625C92.073 48.3158 91.2932 47.6383 90.3882 47.1708C89.4833 46.7032 88.4795 46.4591 87.4609 46.459H80.4062C80.0499 46.459 79.7081 46.6006 79.4561 46.8526C79.2041 47.1046 79.0625 47.4463 79.0625 47.8027V53.5137C79.0639 54.7925 79.4488 56.0415 80.1674 57.0993C80.886 58.1572 81.9054 58.9751 83.0938 59.4476V67.4006C83.096 68.2123 83.3073 69.0098 83.7072 69.7162C84.1072 70.4225 84.6822 71.014 85.3771 71.4337L86.4493 72.077L84.7404 76.3493L75.8457 80.1613C75.6294 80.2541 75.4412 80.402 75.3 80.5902L67.7729 90.6264L57.9151 88.162C57.858 88.1465 57.8 88.1348 57.7413 88.1271L57.7357 88.1263C57.73 88.1255 57.7244 88.125 57.7188 88.1243C57.6593 88.1173 57.5994 88.1142 57.5395 88.1152H44.125C43.7686 88.1152 43.4268 88.2568 43.1748 88.5088C42.9228 88.7608 42.7812 89.1026 42.7812 89.459V90.8027C42.7836 92.9403 43.6338 94.9897 45.1453 96.5011C46.6568 98.0126 48.7062 98.8628 50.8438 98.8652H57.4293L70.7364 101.527C70.9218 101.564 71.1129 101.562 71.2973 101.52C71.4817 101.478 71.6551 101.398 71.8062 101.284L75.0312 98.8652V102.896H66.9688V107.6C66.9701 108.847 67.4661 110.042 68.3478 110.924C69.2295 111.805 70.425 112.301 71.6719 112.303H102.578C103.825 112.301 105.02 111.805 105.902 110.924C106.784 110.042 107.28 108.847 107.281 107.6V73.334H104.594V79.3586ZM104.594 102.896H97.875V94.834H101.906V92.1465H97.875V90.2895L102.507 87.9734C102.671 87.8916 102.816 87.7774 102.933 87.6377C103.051 87.498 103.139 87.3357 103.192 87.1609C103.245 86.986 103.262 86.8021 103.241 86.6206C103.221 86.439 103.164 86.2635 103.073 86.1048L99.6874 80.1799L104.594 82.2826V102.896ZM84.4375 87.2848L82.2777 86.2049L84.4375 82.4253V87.2848ZM87.125 80.0527L90.35 82.4715C90.5826 82.6459 90.8655 82.7402 91.1562 82.7402C91.447 82.7402 91.7299 82.6459 91.9625 82.4715L95.1875 80.0527V102.896H87.125V80.0527ZM91.1562 74.1208C91.9902 74.1206 92.8091 73.8984 93.5288 73.4771L94.9011 76.908L91.1562 79.7168L87.4114 76.9081L88.7837 73.477C89.5034 73.8984 90.3223 74.1206 91.1562 74.1209V74.1208ZM97.875 82.4252L100.035 86.2049L97.875 87.2848V82.4252ZM93.8438 51.834H94.1797C95.1594 51.8351 96.0987 52.2248 96.7915 52.9175C97.4842 53.6103 97.8739 54.5496 97.875 55.5293V57.209H93.8438V51.834ZM81.75 53.5137V49.1465H87.4609C88.4407 49.1476 89.3799 49.5373 90.0727 50.23C90.7655 50.9228 91.1551 51.8621 91.1562 52.8418V57.209H85.4453C84.4656 57.2079 83.5263 56.8182 82.8335 56.1254C82.1408 55.4327 81.7511 54.4934 81.75 53.5137ZM85.7812 67.4006V59.8965H96.5312V67.4006C96.5303 67.7485 96.4397 68.0903 96.2683 68.393C96.0969 68.6957 95.8504 68.9492 95.5526 69.129L92.1934 71.1446C91.8803 71.333 91.5218 71.4325 91.1563 71.4325C90.7909 71.4325 90.4324 71.333 90.1192 71.1446L86.7597 69.129C86.4619 68.9492 86.2155 68.6957 86.0441 68.393C85.8727 68.0902 85.7822 67.7485 85.7812 67.4006ZM45.4688 90.8027H56.2188V96.1777H50.8438C49.4187 96.1761 48.0525 95.6093 47.0449 94.6016C46.0372 93.594 45.4704 92.2278 45.4688 90.8027ZM76.976 94.9759C76.7528 94.8641 76.5029 94.8168 76.2543 94.8392C76.0058 94.8616 75.7684 94.9529 75.5688 95.1027L70.6744 98.7736L58.9062 96.4198V91.18L67.9866 93.45C68.2432 93.5142 68.5129 93.5012 68.7621 93.4127C69.0113 93.3243 69.2288 93.1643 69.3875 92.9527L77.2345 82.4901L82.6252 80.1799L79.2394 86.1049C79.1488 86.2636 79.0915 86.439 79.071 86.6206C79.0505 86.8022 79.0672 86.986 79.1202 87.1609C79.1731 87.3358 79.2612 87.498 79.379 87.6377C79.4967 87.7774 79.6418 87.8916 79.8052 87.9734L84.4375 90.2895V102.896H77.7188V96.1777C77.7188 95.9282 77.6493 95.6836 77.5181 95.4713C77.3869 95.259 77.1992 95.0875 76.976 94.9759ZM102.578 109.615H71.6719C71.1375 109.615 70.6251 109.402 70.2473 109.024C69.8694 108.646 69.6568 108.134 69.6562 107.6V105.584H104.594V107.6C104.593 108.134 104.381 108.646 104.003 109.024C103.625 109.402 103.113 109.615 102.578 109.615Z" fill="#0047AB"/>
<path d="M102.578 31.6777H71.6719C70.425 31.6791 69.2295 32.1751 68.3478 33.0568C67.4661 33.9385 66.9701 35.1339 66.9688 36.3809V37.0527H37.7422C36.9406 37.0537 36.1721 37.3725 35.6053 37.9393C35.0385 38.5061 34.7197 39.2746 34.7188 40.0762V45.1152H37.4062V40.0762C37.4064 39.9871 37.4418 39.9017 37.5048 39.8388C37.5678 39.7758 37.6531 39.7404 37.7422 39.7402H85.4453C85.5344 39.7404 85.6197 39.7758 85.6827 39.8388C85.7457 39.9017 85.7811 39.9871 85.7812 40.0762V43.7715H88.4688V42.4277H104.594V70.6465H107.281V36.3809C107.28 35.1339 106.784 33.9385 105.902 33.0568C105.02 32.1751 103.825 31.6791 102.578 31.6777ZM88.4501 39.7402C88.3666 39.0015 88.0141 38.3193 87.46 37.8237C86.9059 37.3281 86.1888 37.0537 85.4453 37.0527H69.6562V36.3809C69.6568 35.8465 69.8694 35.3341 70.2473 34.9562C70.6251 34.5784 71.1375 34.3658 71.6719 34.3652H102.578C103.113 34.3658 103.625 34.5784 104.003 34.9562C104.381 35.3341 104.593 35.8465 104.594 36.3809V39.7402H88.4501Z" fill="#0047AB"/>
<path d="M65.625 43.7715H57.5625C57.2061 43.7715 56.8643 43.9131 56.6123 44.1651C56.3603 44.4171 56.2188 44.7588 56.2188 45.1152V51.834H49.5C49.1436 51.834 48.8018 51.9756 48.5498 52.2276C48.2978 52.4796 48.1562 52.8214 48.1562 53.1777V61.2402C48.1562 61.5966 48.2978 61.9384 48.5498 62.1904C48.8018 62.4424 49.1436 62.584 49.5 62.584H56.2188V69.3027C56.2188 69.6591 56.3603 70.0009 56.6123 70.2529C56.8643 70.5049 57.2061 70.6465 57.5625 70.6465H65.625C65.9814 70.6465 66.3232 70.5049 66.5752 70.2529C66.8272 70.0009 66.9688 69.6591 66.9688 69.3027V62.584H73.6875C74.0439 62.584 74.3857 62.4424 74.6377 62.1904C74.8897 61.9384 75.0312 61.5966 75.0312 61.2402V53.1777C75.0312 52.8214 74.8897 52.4796 74.6377 52.2276C74.3857 51.9756 74.0439 51.834 73.6875 51.834H66.9688V45.1152C66.9688 44.7588 66.8272 44.4171 66.5752 44.1651C66.3232 43.9131 65.9814 43.7715 65.625 43.7715ZM72.3438 54.5215V59.8965H65.625C65.2686 59.8965 64.9268 60.0381 64.6748 60.2901C64.4228 60.5421 64.2812 60.8839 64.2812 61.2402V67.959H58.9062V61.2402C58.9062 60.8839 58.7647 60.5421 58.5127 60.2901C58.2607 60.0381 57.9189 59.8965 57.5625 59.8965H50.8438V54.5215H57.5625C57.9189 54.5215 58.2607 54.3799 58.5127 54.1279C58.7647 53.8759 58.9062 53.5341 58.9062 53.1777V46.459H64.2812V53.1777C64.2812 53.5341 64.4228 53.8759 64.6748 54.1279C64.9268 54.3799 65.2686 54.5215 65.625 54.5215H72.3438Z" fill="#0047AB"/>
<path d="M60.25 74.6777H41.4375V77.3652H60.25V74.6777Z" fill="#0047AB"/>
<path d="M73.6875 74.6777H62.9375V77.3652H73.6875V74.6777Z" fill="#0047AB"/>
<path d="M69.6562 81.3965H54.875V84.084H69.6562V81.3965Z" fill="#0047AB"/>
<path d="M52.1875 81.3965H41.4375V84.084H52.1875V81.3965Z" fill="#0047AB"/>
</svg>
