<svg width="165" height="176" viewBox="0 0 165 176" fill="none" xmlns="http://www.w3.org/2000/svg">
<g clip-path="url(#clip0)">
<path d="M89.5213 87.877V89.5353C89.5213 91.3595 88.0288 92.8521 86.2045 92.8521H79.5876H72.9542H66.3373C64.513 92.8521 63.0205 91.3595 63.0205 89.5353V87.877H63.1034H89.5213Z" fill="white"/>
<path d="M89.5213 74.6263V87.8767H63.1034H63.0205V74.6263C63.0205 72.8021 64.513 71.3096 66.3373 71.3096H76.2709H86.2045C88.0288 71.3096 89.5213 72.8021 89.5213 74.6263Z" fill="#AADAF1"/>
<path d="M81.2461 97.8277V97.8442H71.2959V97.8277L72.9543 92.8525H79.5878L81.2461 97.8277Z" fill="#AADAF1"/>
<path d="M150.897 97.8277V97.8442H140.947V97.8277L142.606 92.8525H149.239L150.897 97.8277Z" fill="#AADAF1"/>
<path d="M159.173 74.6263V87.8767H132.755H132.672V74.6263C132.672 72.8021 134.164 71.3096 135.989 71.3096H145.922H155.856C157.68 71.3096 159.173 72.8021 159.173 74.6263Z" fill="#AADAF1"/>
<path d="M145.923 49.751C147.764 49.751 149.239 51.2435 149.239 53.0677C149.239 54.8919 147.764 56.3845 145.923 56.3845C144.098 56.3845 142.606 54.8919 142.606 53.0677C142.606 51.2435 144.098 49.751 145.923 49.751Z" fill="#AADAF1"/>
<path d="M132.755 87.877H159.173V89.5353C159.173 91.3595 157.68 92.8521 155.856 92.8521H149.239H142.606H135.989C134.164 92.8521 132.672 91.3595 132.672 89.5353V87.877H132.755Z" fill="white"/>
<path d="M132.755 24.876H159.173V26.5343C159.173 28.3586 157.68 29.8511 155.856 29.8511H149.239H142.606H135.989C134.164 29.8511 132.672 28.3586 132.672 26.5343V24.876H132.755Z" fill="white"/>
<path d="M149.239 29.8506L150.897 34.8257H145.922H140.947L142.606 29.8506H149.239Z" fill="#AADAF1"/>
<path d="M159.173 11.6087V24.8757H132.755H132.672V11.6087C132.672 9.80111 134.164 8.29199 135.989 8.29199H155.856C157.68 8.29199 159.173 9.80111 159.173 11.6087Z" fill="#AADAF1"/>
<path d="M129.339 38.1426V43.1177H106.122L104.878 38.1426H129.339Z" fill="#AADAF1"/>
<path d="M129.339 53.0681V66.3351H92.8545V53.0681V43.1179V36.4844H104.463L104.878 38.1427L106.121 43.1179H129.339V53.0681Z" fill="#AADAF1"/>
<path d="M79.5878 29.8506L81.2461 34.8257H76.271H71.2959L72.9543 29.8506H79.5878Z" fill="#AADAF1"/>
<path d="M89.5213 24.876V26.5343C89.5213 28.3586 88.0288 29.8511 86.2045 29.8511H79.5876H72.9542H66.3373C64.513 29.8511 63.0205 28.3586 63.0205 26.5343V24.876H63.1034H89.5213Z" fill="white"/>
<path d="M89.5213 11.6087V24.8757H63.1034H63.0205V11.6087C63.0205 9.80111 64.513 8.29199 66.3373 8.29199H86.2045C88.0288 8.29199 89.5213 9.80111 89.5213 11.6087Z" fill="#AADAF1"/>
<path d="M76.2708 49.751C78.1116 49.751 79.5876 51.2435 79.5876 53.0677C79.5876 54.8919 78.1116 56.3845 76.2708 56.3845C74.4466 56.3845 72.9541 54.8919 72.9541 53.0677C72.9541 51.2435 74.4466 49.751 76.2708 49.751Z" fill="#AADAF1"/>
<path d="M129.339 67.9934H92.8579C91.9408 67.9934 91.1995 67.2521 91.1995 66.335L91.1929 36.4794C91.1929 36.0382 91.3653 35.617 91.6788 35.3052C91.9906 34.9935 92.4101 34.8193 92.8512 34.8193H104.466C105.228 34.8193 105.891 35.3384 106.075 36.0764L107.42 41.4595H129.339C130.256 41.4595 130.997 42.2007 130.997 43.1178V66.335C130.997 67.2521 130.256 67.9934 129.339 67.9934ZM94.5163 64.6767H127.68V44.7762H106.125C105.364 44.7762 104.7 44.2571 104.516 43.5192L103.17 38.1361H94.5096L94.5163 64.6767Z" fill="#0047AB"/>
<path d="M129.342 39.7962H104.881C103.964 39.7962 103.223 39.0549 103.223 38.1379C103.223 37.2208 103.964 36.4795 104.881 36.4795H129.342C130.259 36.4795 131 37.2208 131 38.1379C131 39.0549 130.259 39.7962 129.342 39.7962Z" fill="#0047AB"/>
<path d="M129.342 44.7763C128.425 44.7763 127.684 44.035 127.684 43.118V38.1379C127.684 37.2208 128.425 36.4795 129.342 36.4795C130.259 36.4795 131 37.2208 131 38.1379V43.118C131 44.035 130.259 44.7763 129.342 44.7763Z" fill="#0047AB"/>
<path d="M72.9542 54.7259H59.6872C58.7701 54.7259 58.0288 53.9846 58.0288 53.0676C58.0288 52.1505 58.7701 51.4092 59.6872 51.4092H72.9542C73.8712 51.4092 74.6125 52.1505 74.6125 53.0676C74.6125 53.9846 73.8712 54.7259 72.9542 54.7259Z" fill="#0047AB"/>
<path d="M76.271 58.043C73.5281 58.043 71.2959 55.8108 71.2959 53.0679C71.2959 50.3249 73.5281 48.0928 76.271 48.0928C79.014 48.0928 81.2461 50.3249 81.2461 53.0679C81.2461 55.8108 79.014 58.043 76.271 58.043ZM76.271 51.4095C75.3556 51.4095 74.6126 52.1525 74.6126 53.0679C74.6126 53.9833 75.3556 54.7263 76.271 54.7263C77.1864 54.7263 77.9294 53.9833 77.9294 53.0679C77.9294 52.1525 77.1864 51.4095 76.271 51.4095Z" fill="#0047AB"/>
<path d="M92.8512 54.7259H79.5876C78.6705 54.7259 77.9292 53.9846 77.9292 53.0676C77.9292 52.1505 78.6705 51.4092 79.5876 51.4092H92.8512C93.7683 51.4092 94.5096 52.1505 94.5096 53.0676C94.5096 53.9846 93.7683 54.7259 92.8512 54.7259Z" fill="#0047AB"/>
<path d="M142.609 54.7259H129.342C128.425 54.7259 127.684 53.9846 127.684 53.0676C127.684 52.1505 128.425 51.4092 129.342 51.4092H142.609C143.526 51.4092 144.267 52.1505 144.267 53.0676C144.267 53.9846 143.526 54.7259 142.609 54.7259Z" fill="#0047AB"/>
<path d="M145.926 58.043C143.183 58.043 140.951 55.8108 140.951 53.0679C140.951 50.3249 143.183 48.0928 145.926 48.0928C148.669 48.0928 150.901 50.3249 150.901 53.0679C150.901 55.8108 148.669 58.043 145.926 58.043ZM145.926 51.4095C145.01 51.4095 144.267 52.1525 144.267 53.0679C144.267 53.9833 145.01 54.7263 145.926 54.7263C146.841 54.7263 147.584 53.9833 147.584 53.0679C147.584 52.1525 146.841 51.4095 145.926 51.4095Z" fill="#0047AB"/>
<path d="M162.506 54.7259H149.242C148.325 54.7259 147.584 53.9846 147.584 53.0676C147.584 52.1505 148.325 51.4092 149.242 51.4092H162.506C163.423 51.4092 164.164 52.1505 164.164 53.0676C164.164 53.9846 163.423 54.7259 162.506 54.7259Z" fill="#0047AB"/>
<path d="M89.5245 26.5316H63.0983C62.1812 26.5316 61.4399 25.7903 61.4399 24.8732C61.4399 23.9561 62.1812 23.2148 63.0983 23.2148H89.5261C90.4432 23.2148 91.1845 23.9561 91.1845 24.8732C91.1845 25.7903 90.4416 26.5316 89.5245 26.5316Z" fill="#0047AB"/>
<path d="M86.208 31.5056H66.3374C63.5945 31.5056 61.3623 29.2734 61.3623 26.5305V11.6167C61.3623 8.87377 63.5945 6.6416 66.3374 6.6416H86.208C88.951 6.6416 91.1832 8.87377 91.1832 11.6167V26.5305C91.1832 29.2734 88.951 31.5056 86.208 31.5056ZM66.3374 9.95834C65.422 9.95834 64.679 10.7013 64.679 11.6167V26.5305C64.679 27.4459 65.422 28.1888 66.3374 28.1888H86.208C87.1235 28.1888 87.8664 27.4459 87.8664 26.5305V11.6167C87.8664 10.7013 87.1235 9.95834 86.208 9.95834H66.3374Z" fill="#0047AB"/>
<path d="M71.299 36.4768C71.1265 36.4768 70.949 36.4486 70.7749 36.3906C69.9076 36.1004 69.4366 35.1617 69.7268 34.2928L71.3852 29.321C71.6754 28.4536 72.6041 27.981 73.483 28.2729C74.3504 28.5631 74.8213 29.5017 74.5311 30.3707L72.8728 35.3425C72.6406 36.0374 71.9938 36.4768 71.299 36.4768Z" fill="#0047AB"/>
<path d="M81.2426 36.478C80.5478 36.478 79.901 36.0385 79.6705 35.3436L78.0121 30.3718C77.7219 29.5045 78.1912 28.5642 79.0602 28.274C79.9259 27.9821 80.8678 28.4531 81.1581 29.3221L82.8164 34.2939C83.1067 35.1612 82.6373 36.1015 81.7683 36.3917C81.5942 36.4498 81.4168 36.478 81.2426 36.478Z" fill="#0047AB"/>
<path d="M82.9044 36.4837H69.6408C68.7237 36.4837 67.9824 35.7424 67.9824 34.8254C67.9824 33.9083 68.7237 33.167 69.6408 33.167H82.9044C83.8215 33.167 84.5628 33.9083 84.5628 34.8254C84.5628 35.7424 83.8215 36.4837 82.9044 36.4837Z" fill="#0047AB"/>
<path d="M76.2707 51.4151C75.3536 51.4151 74.6123 50.6738 74.6123 49.7568V34.8215C74.6123 33.9044 75.3536 33.1631 76.2707 33.1631C77.1878 33.1631 77.9291 33.9044 77.9291 34.8215V49.7568C77.9291 50.6738 77.1878 51.4151 76.2707 51.4151Z" fill="#0047AB"/>
<path d="M159.176 26.5316H132.75C131.833 26.5316 131.092 25.7903 131.092 24.8732C131.092 23.9561 131.833 23.2148 132.75 23.2148H159.178C160.095 23.2148 160.836 23.9561 160.836 24.8732C160.836 25.7903 160.093 26.5316 159.176 26.5316Z" fill="#0047AB"/>
<path d="M155.859 31.5056H135.989C133.246 31.5056 131.014 29.2734 131.014 26.5305V11.6167C131.014 8.87377 133.246 6.6416 135.989 6.6416H155.859C158.602 6.6416 160.835 8.87377 160.835 11.6167V26.5305C160.835 29.2734 158.602 31.5056 155.859 31.5056ZM135.989 9.95834C135.073 9.95834 134.33 10.7013 134.33 11.6167V26.5305C134.33 27.4459 135.073 28.1888 135.989 28.1888H155.859C156.775 28.1888 157.518 27.4459 157.518 26.5305V11.6167C157.518 10.7013 156.775 9.95834 155.859 9.95834H135.989Z" fill="#0047AB"/>
<path d="M140.954 36.4768C140.781 36.4768 140.604 36.4486 140.43 36.3906C139.562 36.1004 139.091 35.1617 139.382 34.2928L141.04 29.321C141.33 28.4536 142.259 27.981 143.138 28.2729C144.005 28.5631 144.476 29.5017 144.186 30.3707L142.528 35.3425C142.295 36.0374 141.649 36.4768 140.954 36.4768Z" fill="#0047AB"/>
<path d="M150.897 36.478C150.203 36.478 149.556 36.0385 149.325 35.3436L147.667 30.3718C147.377 29.5045 147.846 28.5642 148.715 28.274C149.581 27.9821 150.523 28.4531 150.813 29.3221L152.471 34.2939C152.761 35.1612 152.292 36.1015 151.423 36.3917C151.249 36.4498 151.07 36.478 150.897 36.478Z" fill="#0047AB"/>
<path d="M152.559 36.4837H139.296C138.378 36.4837 137.637 35.7424 137.637 34.8254C137.637 33.9083 138.378 33.167 139.296 33.167H152.559C153.476 33.167 154.218 33.9083 154.218 34.8254C154.218 35.7424 153.476 36.4837 152.559 36.4837Z" fill="#0047AB"/>
<path d="M159.176 89.5423H132.75C131.833 89.5423 131.092 88.801 131.092 87.884C131.092 86.9669 131.833 86.2256 132.75 86.2256H159.178C160.095 86.2256 160.836 86.9669 160.836 87.884C160.836 88.801 160.093 89.5423 159.176 89.5423Z" fill="#0047AB"/>
<path d="M155.859 94.5153H135.989C133.246 94.5153 131.014 92.2832 131.014 89.5402V74.6265C131.014 71.8835 133.246 69.6514 135.989 69.6514H155.859C158.602 69.6514 160.835 71.8835 160.835 74.6265V89.5402C160.835 92.2832 158.602 94.5153 155.859 94.5153ZM135.989 72.9681C135.073 72.9681 134.33 73.7111 134.33 74.6265V89.5402C134.33 90.4556 135.073 91.1986 135.989 91.1986H155.859C156.775 91.1986 157.518 90.4556 157.518 89.5402V74.6265C157.518 73.7111 156.775 72.9681 155.859 72.9681H135.989Z" fill="#0047AB"/>
<path d="M140.954 99.4876C140.781 99.4876 140.604 99.4594 140.43 99.4014C139.562 99.1111 139.091 98.1725 139.382 97.3035L141.04 92.3317C141.33 91.4644 142.259 90.9917 143.138 91.2836C144.005 91.5738 144.476 92.5125 144.186 93.3815L142.528 98.3533C142.295 99.0498 141.649 99.4876 140.954 99.4876Z" fill="#0047AB"/>
<path d="M150.897 99.4877C150.203 99.4877 149.556 99.0483 149.325 98.3534L147.667 93.3816C147.377 92.5143 147.846 91.574 148.715 91.2838C149.581 90.9919 150.523 91.4629 150.813 92.3319L152.471 97.3037C152.761 98.171 152.292 99.1113 151.423 99.4015C151.249 99.4612 151.07 99.4877 150.897 99.4877Z" fill="#0047AB"/>
<path d="M152.559 99.4935H139.296C138.378 99.4935 137.637 98.7522 137.637 97.8351C137.637 96.918 138.378 96.1768 139.296 96.1768H152.559C153.476 96.1768 154.218 96.918 154.218 97.8351C154.218 98.7522 153.476 99.4935 152.559 99.4935Z" fill="#0047AB"/>
<path d="M145.926 51.4151C145.009 51.4151 144.268 50.6738 144.268 49.7568V34.8215C144.268 33.9044 145.009 33.1631 145.926 33.1631C146.843 33.1631 147.584 33.9044 147.584 34.8215V49.7568C147.584 50.6738 146.843 51.4151 145.926 51.4151Z" fill="#0047AB"/>
<path d="M145.926 72.9767C145.009 72.9767 144.268 72.2354 144.268 71.3183V56.383C144.268 55.4659 145.009 54.7246 145.926 54.7246C146.843 54.7246 147.584 55.4659 147.584 56.383V71.3183C147.584 72.2354 146.843 72.9767 145.926 72.9767Z" fill="#0047AB"/>
<path d="M89.5245 89.5423H63.0983C62.1812 89.5423 61.4399 88.801 61.4399 87.884C61.4399 86.9669 62.1812 86.2256 63.0983 86.2256H89.5261C90.4432 86.2256 91.1845 86.9669 91.1845 87.884C91.1845 88.801 90.4416 89.5423 89.5245 89.5423Z" fill="#0047AB"/>
<path d="M86.208 94.5153H66.3374C63.5945 94.5153 61.3623 92.2832 61.3623 89.5402V74.6265C61.3623 71.8835 63.5945 69.6514 66.3374 69.6514H86.208C88.951 69.6514 91.1832 71.8835 91.1832 74.6265V89.5402C91.1832 92.2832 88.951 94.5153 86.208 94.5153ZM66.3374 72.9681C65.422 72.9681 64.679 73.7111 64.679 74.6265V89.5402C64.679 90.4556 65.422 91.1986 66.3374 91.1986H86.208C87.1235 91.1986 87.8664 90.4556 87.8664 89.5402V74.6265C87.8664 73.7111 87.1235 72.9681 86.208 72.9681H66.3374Z" fill="#0047AB"/>
<path d="M71.299 99.4876C71.1265 99.4876 70.949 99.4594 70.7749 99.4014C69.9076 99.1111 69.4366 98.1725 69.7268 97.3035L71.3852 92.3317C71.6754 91.4644 72.6041 90.9917 73.483 91.2836C74.3504 91.5738 74.8213 92.5125 74.5311 93.3815L72.8728 98.3533C72.6406 99.0498 71.9938 99.4876 71.299 99.4876Z" fill="#0047AB"/>
<path d="M81.2426 99.4877C80.5478 99.4877 79.901 99.0483 79.6705 98.3534L78.0121 93.3816C77.7219 92.5143 78.1912 91.574 79.0602 91.2838C79.9259 90.9919 80.8678 91.4629 81.1581 92.3319L82.8164 97.3037C83.1067 98.171 82.6373 99.1113 81.7683 99.4015C81.5942 99.4612 81.4168 99.4877 81.2426 99.4877Z" fill="#0047AB"/>
<path d="M82.9044 99.4935H69.6408C68.7237 99.4935 67.9824 98.7522 67.9824 97.8351C67.9824 96.918 68.7237 96.1768 69.6408 96.1768H82.9044C83.8215 96.1768 84.5628 96.918 84.5628 97.8351C84.5628 98.7522 83.8215 99.4935 82.9044 99.4935Z" fill="#0047AB"/>
<path d="M76.2707 72.9767C75.3536 72.9767 74.6123 72.2354 74.6123 71.3183V56.383C74.6123 55.4659 75.3536 54.7246 76.2707 54.7246C77.1878 54.7246 77.9291 55.4659 77.9291 56.383V71.3183C77.9291 72.2354 77.1878 72.9767 76.2707 72.9767Z" fill="#0047AB"/>
</g>
<path d="M41.8787 130.884C28.943 130.462 25.8407 119.386 25.1766 115.811C23.9313 115.522 22.8218 114.817 22.0313 113.813C21.1289 112.569 20.7103 111.04 20.8538 109.51C20.7512 108.686 20.8229 107.849 21.064 107.054C21.3051 106.26 21.7104 105.524 22.2536 104.896C22.5602 104.582 22.9128 104.316 23.2992 104.107C20.8949 100.226 19.7108 95.7119 19.9 91.15C21.3973 80.4503 30.0202 79.4091 32.7209 79.3488C33.9638 77.9031 35.5177 76.7572 37.2661 75.9969C40.5412 74.6759 44.1611 74.4742 47.5627 75.4232C54.2492 77.1687 58.7084 80.5163 60.8239 85.3742C63.8359 92.2788 61.194 100.226 59.6765 103.794C60.2552 103.983 60.7886 104.289 61.2427 104.694C61.8607 105.321 62.3264 106.082 62.6039 106.918C62.8814 107.754 62.9633 108.642 62.8434 109.514C62.9882 111.044 62.57 112.574 61.6673 113.817C60.876 114.821 59.766 115.526 58.5205 115.815C57.8564 119.386 54.7613 130.462 41.8787 130.884ZM25.6958 106.401C25.1872 106.377 24.6895 106.554 24.3103 106.894C24.0478 107.262 23.8608 107.678 23.7601 108.118C23.6594 108.559 23.6471 109.015 23.7237 109.46C23.7297 109.556 23.7264 109.652 23.7137 109.747C23.6357 110.57 23.8483 111.394 24.3146 112.077C24.6055 112.402 24.9583 112.666 25.3524 112.852C25.7464 113.039 26.1738 113.145 26.6095 113.165C26.9374 113.203 27.2419 113.354 27.4716 113.591C27.7013 113.829 27.8421 114.138 27.8702 114.467C27.9175 115 29.1897 127.6 41.8816 128.016C54.5031 127.6 55.781 115 55.8284 114.464C55.8571 114.135 55.9982 113.827 56.2278 113.59C56.4574 113.354 56.7616 113.203 57.0891 113.165C57.5248 113.145 57.9522 113.039 58.3463 112.853C58.7404 112.666 59.0932 112.402 59.3839 112.077C59.8523 111.391 60.065 110.562 59.9849 109.735C59.9729 109.643 59.9696 109.55 59.9748 109.457C60.0524 108.997 60.035 108.526 59.9237 108.073C59.8125 107.621 59.6097 107.195 59.328 106.824C58.88 106.494 58.3226 106.348 57.7704 106.416C57.5049 106.463 57.2316 106.435 56.9817 106.334C56.7319 106.232 56.5155 106.063 56.3576 105.845C56.1996 105.626 56.1064 105.368 56.0887 105.099C56.0709 104.83 56.1293 104.561 56.2572 104.324C56.3103 104.223 61.564 94.2523 58.1877 86.503C56.4394 82.4985 52.6228 79.7031 46.8413 78.1942C44.0625 77.4079 41.102 77.5591 38.4178 78.6245C36.8908 79.2824 35.5597 80.324 34.5539 81.648C34.4091 81.8449 34.2159 82.0012 33.993 82.1017C33.7702 82.2022 33.5252 82.2435 33.2817 82.2217C32.9102 82.1915 24.1282 81.6236 22.7513 91.4411C22.7513 91.4411 22.354 99.2507 26.8777 103.984C27.0748 104.19 27.206 104.45 27.2546 104.731C27.3031 105.012 27.2668 105.301 27.1502 105.562C27.0428 105.828 26.8533 106.054 26.6092 106.207C26.3651 106.359 26.0789 106.43 25.7919 106.409L25.6958 106.401Z" fill="#0047AB"/>
<path d="M57.5208 106.434C57.1506 106.435 56.7946 106.292 56.5273 106.036C56.26 105.78 56.1021 105.43 56.0865 105.06C56.0693 104.689 55.6247 96.0244 49.1561 95.1911C46.1975 95.5668 43.1933 95.3326 40.3286 94.5028C37.464 93.6729 34.7997 92.2652 32.5 90.3662C30.6713 91.7417 26.4574 95.9226 27.2678 104.839C27.2785 105.204 27.1496 105.56 26.9073 105.833C26.6651 106.106 26.3278 106.277 25.9642 106.31C25.6005 106.343 25.238 106.236 24.9504 106.011C24.6628 105.786 24.4718 105.46 24.4164 105.099C23.2274 92.017 31.6279 87.4762 31.9851 87.2897C32.2509 87.151 32.5536 87.099 32.8505 87.1412C33.1474 87.1834 33.4236 87.3176 33.6402 87.5249C35.6845 89.3765 38.1046 90.7648 40.735 91.5948C43.3654 92.4248 46.1439 92.677 48.8808 92.334C49.0121 92.3128 49.1455 92.308 49.278 92.3197C56.5699 93.0784 58.7973 100.912 58.9551 104.941C58.9698 105.321 58.8334 105.691 58.5758 105.97C58.3183 106.249 57.9605 106.414 57.581 106.43L57.5208 106.434Z" fill="#0047AB"/>
<path d="M82.2014 175.236H1.62714C1.24675 175.236 0.881937 175.085 0.612959 174.816C0.343982 174.547 0.192871 174.182 0.192871 173.801V157.812C0.203123 152.759 2.21704 147.915 5.793 144.345C9.36896 140.774 14.2151 138.767 19.2686 138.764H22.0224C22.4028 138.764 22.7676 138.915 23.0366 139.184C23.3056 139.453 23.4567 139.818 23.4567 140.198C23.4567 140.578 23.3056 140.943 23.0366 141.212C22.7676 141.481 22.4028 141.632 22.0224 141.632H19.2686C14.9756 141.634 10.8587 143.339 7.82053 146.372C4.78236 149.405 3.0709 153.519 3.06141 157.812V172.367H80.7672V157.812C80.7622 153.523 79.056 149.41 76.0227 146.377C72.9894 143.343 68.8769 141.637 64.5872 141.632H61.6355C61.2551 141.632 60.8903 141.481 60.6213 141.212C60.3523 140.943 60.2012 140.578 60.2012 140.198C60.2012 139.818 60.3523 139.453 60.6213 139.184C60.8903 138.915 61.2551 138.764 61.6355 138.764H64.5872C69.637 138.771 74.4778 140.78 78.0486 144.351C81.6193 147.922 83.6285 152.762 83.6357 157.812V173.801C83.6357 174.182 83.4846 174.547 83.2156 174.816C82.9466 175.085 82.5818 175.236 82.2014 175.236Z" fill="#0047AB"/>
<path d="M46.7079 175.236C46.5015 175.236 46.2975 175.191 46.1098 175.105C45.9222 175.019 45.7553 174.894 45.6207 174.737C45.486 174.581 45.3867 174.397 45.3295 174.199C45.2724 174 45.2587 173.792 45.2894 173.588L51.0939 135.174C51.1247 134.971 51.1987 134.776 51.3111 134.604C51.4234 134.432 51.5715 134.286 51.7452 134.176C51.9189 134.066 52.1141 133.995 52.3178 133.967C52.5214 133.939 52.7287 133.956 52.9255 134.015L62.9424 137.034C63.1419 137.094 63.3259 137.197 63.4816 137.336C63.6372 137.474 63.7609 137.645 63.8439 137.836C63.9269 138.027 63.9672 138.234 63.9621 138.442C63.9571 138.651 63.9067 138.855 63.8144 139.042L59.8329 147.031L62.1421 149.623C62.3467 149.854 62.4712 150.145 62.4971 150.453C62.5229 150.761 62.4487 151.069 62.2855 151.331L47.9271 174.556C47.7986 174.764 47.6191 174.935 47.4058 175.054C47.1924 175.173 46.9522 175.236 46.7079 175.236ZM53.6842 137.239L49.1734 167.091L59.2893 150.74L57.0476 148.223C56.8568 148.009 56.7346 147.743 56.6965 147.459C56.6584 147.175 56.7062 146.886 56.8339 146.629L60.4884 139.295L53.6842 137.239Z" fill="#0047AB"/>
<path d="M36.9562 175.235C36.7116 175.235 36.4711 175.173 36.2575 175.054C36.0439 174.935 35.8642 174.763 35.7356 174.555L21.3729 151.334C21.2096 151.072 21.1354 150.764 21.1613 150.456C21.1871 150.149 21.3116 149.858 21.5163 149.626L23.8255 147.034L19.8439 139.046C19.7517 138.859 19.7013 138.654 19.6962 138.446C19.6911 138.237 19.7315 138.031 19.8145 137.839C19.8975 137.648 20.0211 137.478 20.1768 137.339C20.3325 137.201 20.5165 137.098 20.716 137.038L30.7329 134.018C30.9296 133.959 31.1367 133.943 31.3402 133.971C31.5436 133.999 31.7387 134.071 31.9123 134.181C32.0858 134.29 32.2337 134.436 32.3459 134.608C32.4582 134.78 32.5322 134.974 32.563 135.177L38.3704 173.591C38.4004 173.795 38.3863 174.002 38.3291 174.2C38.2719 174.397 38.1728 174.58 38.0387 174.736C37.9046 174.892 37.7385 175.017 37.5517 175.103C37.3649 175.189 37.1618 175.234 36.9562 175.235ZM24.3748 150.735L34.4907 167.086L29.9799 137.238L23.1757 139.289L26.8288 146.624C26.9566 146.881 27.0047 147.17 26.9669 147.454C26.9291 147.738 26.807 148.004 26.6165 148.218L24.3748 150.735Z" fill="#0047AB"/>
<path d="M41.9386 148.494C38.8374 148.492 35.7391 148.304 32.6604 147.932C32.4694 147.914 32.284 147.859 32.1149 147.768C31.9458 147.678 31.7966 147.555 31.676 147.406C31.5554 147.256 31.466 147.085 31.4129 146.9C31.3599 146.716 31.3443 146.523 31.3671 146.333C31.39 146.142 31.4507 145.959 31.5458 145.792C31.6409 145.626 31.7684 145.48 31.9208 145.364C32.0732 145.247 32.2474 145.163 32.433 145.115C32.6187 145.067 32.8121 145.057 33.0017 145.085C38.8635 145.806 44.7915 145.806 50.6533 145.085C51.0271 145.044 51.4018 145.152 51.6968 145.386C51.9918 145.619 52.1834 145.958 52.2305 146.332C52.2775 146.705 52.1761 147.081 51.9482 147.38C51.7202 147.679 51.384 147.877 51.0118 147.93C48.0022 148.308 44.9719 148.496 41.9386 148.494Z" fill="#0047AB"/>
<path d="M52.5148 136.821C52.2915 136.82 52.0715 136.767 51.8723 136.666C51.6731 136.566 51.5002 136.42 51.3674 136.24C49.2361 133.359 48.8503 127.648 48.8144 127.006C48.7925 126.627 48.9222 126.254 49.175 125.97C49.4278 125.686 49.783 125.514 50.1626 125.492C50.5412 125.474 50.9117 125.605 51.1947 125.857C51.4778 126.109 51.651 126.462 51.6772 126.84C51.7647 128.349 52.2954 132.673 53.6723 134.535C53.8296 134.748 53.9249 135.001 53.9475 135.264C53.9701 135.528 53.9192 135.793 53.8003 136.03C53.6815 136.267 53.4994 136.466 53.2743 136.606C53.0492 136.745 52.7898 136.82 52.5249 136.821H52.5148Z" fill="#0047AB"/>
<path d="M31.1491 136.822C30.8842 136.821 30.6248 136.746 30.3996 136.607C30.1745 136.467 29.9924 136.268 29.8736 136.031C29.7548 135.794 29.7038 135.529 29.7264 135.265C29.749 135.001 29.8443 134.749 30.0017 134.536C31.3814 132.671 31.9107 128.348 31.9982 126.841C32.0091 126.652 32.057 126.468 32.1392 126.298C32.2213 126.128 32.3362 125.976 32.4771 125.851C32.618 125.726 32.7822 125.629 32.9604 125.567C33.1386 125.505 33.3273 125.479 33.5156 125.49C33.704 125.501 33.8883 125.549 34.0581 125.631C34.228 125.713 34.38 125.828 34.5054 125.969C34.6309 126.11 34.7274 126.274 34.7893 126.452C34.8513 126.63 34.8776 126.819 34.8667 127.007C34.8308 127.648 34.4364 133.36 32.3137 136.241C32.1791 136.423 32.0035 136.57 31.8011 136.671C31.5987 136.772 31.3752 136.824 31.1491 136.822Z" fill="#0047AB"/>
<path d="M70.8221 155.133C70.4488 155.133 70.0902 154.988 69.8224 154.728C69.5546 154.468 69.3987 154.113 69.3879 153.74C69.1197 144.4 65.5684 141.461 65.534 141.433C65.2377 141.197 65.0455 140.855 64.9988 140.48C64.9522 140.104 65.0547 139.725 65.2844 139.425C65.5126 139.127 65.8491 138.93 66.2211 138.879C66.593 138.827 66.9702 138.924 67.2709 139.149C67.4602 139.293 71.9423 142.774 72.2564 153.657C72.2672 154.037 72.1268 154.406 71.8659 154.682C71.605 154.959 71.2451 155.12 70.8652 155.131L70.8221 155.133Z" fill="#0047AB"/>
<path d="M70.8298 163.6C69.7084 163.6 68.6121 163.268 67.6795 162.645C66.7469 162.022 66.02 161.137 65.5907 160.101C65.1613 159.065 65.0489 157.925 65.2675 156.825C65.4861 155.725 66.0259 154.715 66.8188 153.922C67.6117 153.129 68.6219 152.589 69.7217 152.37C70.8216 152.151 71.9616 152.263 72.9977 152.692C74.0338 153.121 74.9193 153.848 75.5424 154.78C76.1655 155.713 76.498 156.809 76.498 157.93C76.4965 159.433 75.8989 160.874 74.8362 161.937C73.7736 163 72.3328 163.598 70.8298 163.6ZM70.8298 155.129C70.2757 155.129 69.734 155.293 69.2732 155.601C68.8123 155.908 68.4531 156.346 68.2409 156.857C68.0286 157.369 67.973 157.933 68.0809 158.476C68.1888 159.019 68.4555 159.519 68.8472 159.911C69.2388 160.302 69.738 160.569 70.2814 160.678C70.8248 160.786 71.388 160.73 71.9 160.518C72.4119 160.306 72.8495 159.947 73.1573 159.487C73.4652 159.026 73.6295 158.484 73.6295 157.93C73.6287 157.188 73.3336 156.476 72.8087 155.951C72.2839 155.426 71.5722 155.13 70.8298 155.129Z" fill="#0047AB"/>
<path d="M11.912 155.133C11.5486 155.134 11.1984 154.997 10.9322 154.75C10.6659 154.502 10.5035 154.163 10.4777 153.801C9.69602 142.793 15.7615 139.274 16.0197 139.13C16.351 138.943 16.743 138.895 17.1095 138.997C17.476 139.099 17.7869 139.342 17.9739 139.674C18.1609 140.005 18.2085 140.397 18.1065 140.764C18.0044 141.13 17.7609 141.441 17.4296 141.628C17.2116 141.757 12.6965 144.544 13.3376 153.598C13.3644 153.978 13.2394 154.352 12.9901 154.64C12.7407 154.927 12.3875 155.103 12.0081 155.13L11.912 155.133Z" fill="#0047AB"/>
<path d="M9.0107 166.617C8.78876 166.618 8.56961 166.568 8.37051 166.47C8.17141 166.371 7.99778 166.229 7.86328 166.052C7.16316 165.133 6.6474 164.086 6.34439 162.971C5.67858 160.799 5.89702 158.452 6.95222 156.44C8.00743 154.427 9.81412 152.913 11.9796 152.226C13.0068 151.937 14.0812 151.856 15.1401 151.987C16.199 152.118 17.2212 152.458 18.147 152.989C19.7694 153.926 21.0672 155.336 21.8668 157.031C22.6664 158.726 22.9299 160.624 22.6219 162.472C22.5595 162.847 22.3506 163.182 22.0412 163.404C21.7317 163.625 21.347 163.714 20.9718 163.652C20.5965 163.589 20.2614 163.38 20.0402 163.071C19.8189 162.762 19.7297 162.377 19.7921 162.002C20.0026 160.735 19.8238 159.435 19.2793 158.272C18.7349 157.109 17.8504 156.139 16.7428 155.49C16.1456 155.145 15.4857 154.923 14.8016 154.836C14.1175 154.749 13.4229 154.799 12.7584 154.984C11.3213 155.464 10.1316 156.492 9.44741 157.845C8.76326 159.197 8.63984 160.764 9.10392 162.207C9.31147 162.97 9.66509 163.686 10.1452 164.315C10.3067 164.528 10.4057 164.781 10.431 165.047C10.4563 165.313 10.4069 165.58 10.2884 165.819C10.1699 166.059 9.98702 166.26 9.76027 166.401C9.53352 166.542 9.27193 166.617 9.00496 166.617H9.0107Z" fill="#0047AB"/>
<path d="M21.2262 163.675C21.1702 163.675 21.1128 163.675 21.0555 163.666L19.4391 163.475C19.2519 163.453 19.071 163.394 18.9066 163.302C18.7423 163.21 18.5976 163.086 18.481 162.938C18.3644 162.79 18.2781 162.621 18.2271 162.439C18.176 162.258 18.1611 162.068 18.1834 161.881C18.2056 161.694 18.2644 161.513 18.3566 161.349C18.4487 161.184 18.5724 161.04 18.7204 160.923C19.0194 160.687 19.3996 160.58 19.7775 160.625L21.394 160.817C21.757 160.861 22.0898 161.041 22.3244 161.321C22.5591 161.601 22.6778 161.961 22.6564 162.326C22.6349 162.691 22.475 163.034 22.2092 163.285C21.9433 163.536 21.5917 163.676 21.2262 163.676V163.675Z" fill="#0047AB"/>
<path d="M9.01094 166.631C8.67418 166.631 8.34799 166.513 8.08953 166.297C7.83106 166.081 7.65681 165.781 7.59729 165.45C7.53777 165.118 7.59678 164.777 7.76399 164.484C7.93119 164.192 8.19593 163.968 8.51181 163.851L10.2329 163.216C10.4095 163.15 10.5973 163.119 10.7857 163.126C10.9741 163.133 11.1593 163.176 11.3308 163.255C11.5022 163.333 11.6566 163.444 11.7851 163.582C11.9136 163.72 12.0136 163.882 12.0796 164.058C12.1455 164.235 12.176 164.423 12.1693 164.611C12.1626 164.799 12.1189 164.985 12.0407 165.156C11.9624 165.328 11.8512 165.482 11.7133 165.61C11.5754 165.739 11.4135 165.839 11.2369 165.905L9.5158 166.542C9.35422 166.601 9.1832 166.632 9.01094 166.631Z" fill="#0047AB"/>
<defs>
<clipPath id="clip0">
<rect width="106.136" height="106.136" fill="white" transform="translate(58.0288)"/>
</clipPath>
</defs>
</svg>
