<svg width="156" height="176" viewBox="0 0 156 176" fill="none" xmlns="http://www.w3.org/2000/svg">
<path d="M74.646 72.9537L67.373 80.2267C66.8985 81.0314 66.6838 81.9628 66.758 82.894C66.8323 83.8251 67.192 84.7107 67.788 85.43L87.1135 104.757C88.7579 106.355 90.9637 107.244 93.2566 107.233C95.5495 107.222 97.7465 106.311 99.3753 104.697C100.991 103.069 101.9 100.869 101.906 98.5752C101.913 96.2811 101.015 94.0768 99.4087 92.4392L80.0814 73.112C79.333 72.4621 78.3828 72.0912 77.392 72.0624C76.4012 72.0335 75.431 72.3485 74.646 72.9537Z" fill="#0047AB"/>
<path d="M42.1138 26.377C37.9403 26.377 33.8605 27.6145 30.3904 29.9332C26.9202 32.2519 24.2156 35.5475 22.6185 39.4033C21.0214 43.2591 20.6035 47.5019 21.4177 51.5952C22.2319 55.6885 24.2416 59.4485 27.1927 62.3996C30.1438 65.3507 33.9038 67.3604 37.9971 68.1746C42.0904 68.9888 46.3332 68.5709 50.189 66.9738C54.0448 65.3767 57.3404 62.672 59.6591 59.2019C61.9777 55.7318 63.2153 51.652 63.2153 47.4785C63.2093 41.8839 60.9841 36.5201 57.0281 32.5641C53.0721 28.6081 47.7084 26.383 42.1138 26.377ZM42.1138 65.0631C38.6359 65.0631 35.2361 64.0318 32.3443 62.0996C29.4525 60.1674 27.1986 57.421 25.8677 54.2079C24.5368 50.9947 24.1885 47.459 24.867 44.0479C25.5455 40.6368 27.2203 37.5036 29.6796 35.0443C32.1388 32.585 35.2721 30.9103 38.6832 30.2318C42.0943 29.5533 45.63 29.9015 48.8431 31.2324C52.0563 32.5634 54.8026 34.8172 56.7349 37.709C58.6671 40.6008 59.6984 44.0006 59.6984 47.4785C59.6933 52.1407 57.839 56.6104 54.5423 59.9071C51.2457 63.2037 46.7759 65.058 42.1138 65.0631Z" fill="#0047AB"/>
<path d="M40.0841 51.753L34.5661 46.235L32.0796 48.7215L39.1134 55.7553C39.4431 56.0851 39.8903 56.2704 40.3567 56.2705C40.4147 56.2705 40.471 56.2705 40.5325 56.2617C40.7912 56.2361 41.041 56.1534 41.2639 56.0196C41.4867 55.8858 41.6772 55.7042 41.8215 55.488L52.3723 39.6619L49.4462 37.71L40.0841 51.753Z" fill="#0047AB"/>
<path d="M12.2207 7.0332H68.4915V10.5501H12.2207V7.0332Z" fill="#0047AB"/>
<path d="M12.2207 14.0674H68.4898V17.5843H12.2207V14.0674Z" fill="#0047AB"/>
<path d="M101.903 92.8047V21.1016C101.9 18.7705 100.973 16.5358 99.3247 14.8875C97.6764 13.2393 95.4416 12.312 93.1106 12.3092H80.8014V8.79232C80.8107 6.4728 79.8995 4.24432 78.2676 2.59595C76.6357 0.947566 74.4165 0.0139542 72.097 0H8.79232C6.46131 0.00279219 4.22657 0.930019 2.57829 2.57829C0.93002 4.22657 0.00279219 6.46131 0 8.79232V100.232C0.00279219 102.563 0.93002 104.798 2.57829 106.446C4.22657 108.095 6.46131 109.022 8.79232 109.025H72.097C74.2955 109.008 76.4068 108.162 78.0083 106.656C79.6098 105.15 80.5835 103.094 80.7346 100.901L85.8886 106.055C87.859 107.955 90.4913 109.014 93.2284 109.007C95.1183 109.016 96.9748 108.509 98.5983 107.542C100.222 106.575 101.551 105.183 102.443 103.517C103.335 101.851 103.756 99.9733 103.661 98.0859C103.566 96.1984 102.958 94.3726 101.903 92.8047ZM93.1106 15.8262C94.5098 15.8262 95.8516 16.382 96.8409 17.3713C97.8302 18.3606 98.386 19.7024 98.386 21.1016V88.9677L81.2604 71.8438C81.1162 71.7136 80.9561 71.6117 80.8014 71.4921V65.0631H91.3522V61.5462H80.8014V58.0293H91.3522V54.5124H80.8014V50.9954H91.3522V47.4785H80.8014V43.9616H91.3522V40.4447H80.8014V36.9277H91.3522V33.4108H80.8014V29.8939H91.3522V26.3769H80.8014V15.8262H93.1106ZM77.2845 100.232C77.2978 100.921 77.1734 101.606 76.9185 102.247C76.6637 102.887 76.2835 103.47 75.8003 103.961C75.3171 104.453 74.7406 104.842 74.1047 105.108C73.4687 105.374 72.7862 105.51 72.097 105.508H8.79232C7.3932 105.508 6.05138 104.952 5.06205 103.963C4.07272 102.973 3.51693 101.632 3.51693 100.232V8.79232C3.51693 7.3932 4.07272 6.05138 5.06205 5.06205C6.05138 4.07273 7.3932 3.51693 8.79232 3.51693H72.097C72.7862 3.51516 73.4687 3.65106 74.1047 3.91665C74.7406 4.18223 75.3171 4.57217 75.8003 5.06356C76.2835 5.55495 76.6637 6.1379 76.9185 6.77821C77.1734 7.41852 77.2978 8.10328 77.2845 8.79232V70.3579C76.0532 70.3737 74.8529 70.7463 73.8291 71.4305L65.4887 63.0919C68.6016 58.4807 70.2603 53.0421 70.2506 47.4785C70.2506 41.9138 68.6005 36.4742 65.5089 31.8473C62.4174 27.2205 58.0232 23.6143 52.8822 21.4848C47.7411 19.3553 42.084 18.7981 36.6263 19.8837C31.1685 20.9693 26.1553 23.649 22.2205 27.5838C18.2856 31.5186 15.606 36.5318 14.5204 41.9896C13.4348 47.4473 13.992 53.1044 16.1215 58.2455C18.251 63.3865 21.8572 67.7807 26.484 70.8722C31.1108 73.9638 36.5505 75.6139 42.1152 75.6139C47.6778 75.6228 53.1155 73.9648 57.7268 70.8538L64.2472 77.3724H12.2213V80.8893H65.2372C64.9137 82.0402 64.9204 83.2589 65.2566 84.4062H12.2213V87.9232H67.7571L77.2845 97.4505V100.232ZM68.4921 76.6461L59.1723 67.3157C58.873 67.0164 58.4758 66.8351 58.0536 66.8051C57.6315 66.7751 57.2126 66.8983 56.874 67.1522C52.6268 70.3687 47.4429 72.1055 42.1152 72.097C37.2461 72.097 32.4864 70.6531 28.4379 67.948C24.3894 65.2429 21.234 61.398 19.3707 56.8996C17.5074 52.4012 17.0198 47.4512 17.9697 42.6757C18.9197 37.9002 21.2643 33.5136 24.7073 30.0706C28.1503 26.6277 32.5368 24.283 37.3124 23.3331C42.0879 22.3832 47.0378 22.8707 51.5363 24.734C56.0347 26.5973 59.8796 29.7527 62.5847 33.8012C65.2898 37.8497 66.7337 42.6094 66.7337 47.4785C66.74 52.8032 65.0034 57.9836 61.7889 62.2285C61.535 62.5671 61.4117 62.986 61.4418 63.4082C61.4718 63.8303 61.6531 64.2275 61.9524 64.5268L71.2828 73.8555L68.4921 76.6461ZM98.1275 103.489C96.8257 104.768 95.0767 105.49 93.2516 105.501C91.4266 105.511 89.6691 104.811 88.3522 103.547L69.0777 84.2726C68.7552 83.8565 68.5579 83.3572 68.509 82.833C68.4601 82.3089 68.5616 81.7816 68.8016 81.3131L75.7687 74.3443C76.2124 74.0113 76.7542 73.8351 77.309 73.8434C77.8637 73.8517 78.4 74.0439 78.8337 74.39L98.1451 93.7015C99.4236 95.0107 100.138 96.769 100.135 98.5989C100.131 100.429 99.4107 102.184 98.1275 103.489Z" fill="#0047AB"/>
<path d="M12.2207 91.4404H68.4915V94.9574H12.2207V91.4404Z" fill="#0047AB"/>
<path d="M12.2207 98.4736H68.4915V101.991H12.2207V98.4736Z" fill="#0047AB"/>
<g clip-path="url(#clip0)">
<path d="M59.1768 73C59.1768 67.4772 63.6539 63 69.1768 63H85.2303C112.845 63 135.23 85.3858 135.23 113V161.365C135.23 166.888 130.753 171.365 125.23 171.365H69.1768C63.6539 171.365 59.1768 166.888 59.1768 161.365V73Z" fill="#AADAF1"/>
<path d="M138.719 87.1332L115.273 63.6869C114.833 63.2473 114.238 63 113.615 63H64.3783C59.2084 63 55 67.206 55 72.3785V166.163C55 171.336 59.2084 175.542 64.3785 175.542H130.028C135.198 175.542 139.406 171.336 139.406 166.163V88.7907C139.406 88.168 139.159 87.5728 138.719 87.1332ZM115.96 71.0047L131.401 86.4463H120.649C118.062 86.4463 115.96 84.342 115.96 81.7571V71.0047ZM134.717 166.163C134.717 168.748 132.615 170.852 130.028 170.852H64.3785C61.7912 170.852 59.6894 168.748 59.6894 166.163V72.3785C59.6894 69.7936 61.7914 67.6894 64.3785 67.6894H111.271V81.7571C111.271 86.9294 115.479 91.1354 120.649 91.1354H134.717V166.163Z" fill="#0047AB"/>
<path d="M122.994 128.649H71.4126C70.1166 128.649 69.0679 129.698 69.0679 130.994C69.0679 132.29 70.1166 133.339 71.4126 133.339H122.994C124.29 133.339 125.339 132.29 125.339 130.994C125.339 129.698 124.29 128.649 122.994 128.649Z" fill="#0047AB"/>
<path d="M122.994 114.582H71.4126C70.1166 114.582 69.0679 115.631 69.0679 116.927C69.0679 118.223 70.1166 119.271 71.4126 119.271H122.994C124.29 119.271 125.339 118.223 125.339 116.927C125.339 115.631 124.29 114.582 122.994 114.582Z" fill="#0047AB"/>
<path d="M122.994 142.717H71.4126C70.1166 142.717 69.0679 143.766 69.0679 145.061C69.0679 146.357 70.1166 147.406 71.4126 147.406H122.994C124.29 147.406 125.339 146.357 125.339 145.061C125.339 143.766 124.29 142.717 122.994 142.717Z" fill="#0047AB"/>
<path d="M99.548 156.785H71.4126C70.1166 156.785 69.0679 157.834 69.0679 159.13C69.0679 160.426 70.1166 161.475 71.4126 161.475H99.548C100.844 161.475 101.893 160.426 101.893 159.13C101.892 157.834 100.844 156.785 99.548 156.785Z" fill="#0047AB"/>
<path d="M92.5142 102.858C92.5142 104.154 93.5629 105.203 94.8589 105.203H122.994C124.29 105.203 125.339 104.154 125.339 102.858C125.339 101.562 124.29 100.514 122.994 100.514H94.8589C93.5629 100.514 92.5142 101.563 92.5142 102.858Z" fill="#0047AB"/>
<path d="M76.1017 100.514H71.4126C70.1166 100.514 69.0679 101.563 69.0679 102.859C69.0679 104.155 70.1166 105.203 71.4126 105.203H73.7573C73.7573 106.499 74.806 107.548 76.1019 107.548C77.3979 107.548 78.4466 106.499 78.4466 105.203V104.772C81.1696 103.8 83.1356 101.222 83.1356 98.1694C83.1356 94.2907 79.9805 91.1356 76.1017 91.1356C74.8104 91.1356 73.757 90.0847 73.757 88.7909C73.757 87.4973 74.8104 86.4462 76.1017 86.4462H80.7909C82.0869 86.4462 83.1356 85.3975 83.1356 84.1015C83.1356 82.8055 82.0869 81.7568 80.7909 81.7568H78.4462C78.4462 80.4608 77.3975 79.4121 76.1015 79.4121C74.8055 79.4121 73.7568 80.4608 73.7568 81.7568V82.1887C71.0338 83.1601 69.0679 85.7382 69.0679 88.7909C69.0679 92.6696 72.223 95.8247 76.1017 95.8247C77.3931 95.8247 78.4464 96.8756 78.4464 98.1694C78.4464 99.4632 77.3931 100.514 76.1017 100.514Z" fill="#0047AB"/>
</g>
<defs>
<clipPath id="clip0">
<rect width="112.542" height="112.542" fill="white" transform="translate(42.4775 62.5801)"/>
</clipPath>
</defs>
</svg>
