<svg width="1440" height="471" viewBox="0 0 1440 471" fill="none" xmlns="http://www.w3.org/2000/svg">
<rect width="1440" height="471" fill="#0047AB"/>
<path d="M493.489 105.196L488.568 102.764L495.033 89.6776C495.491 88.7522 495.111 87.6313 494.186 87.174L451.119 65.8943C450.194 65.4371 449.073 65.8166 448.616 66.742L441.782 80.5723L439.276 79.3339C438.35 78.8767 437.229 79.2562 436.772 80.1816L417.828 118.521C417.371 119.447 417.75 120.568 418.676 121.025L465.964 144.391C470.504 146.634 476.022 144.766 478.265 140.226L494.337 107.699C494.794 106.774 494.415 105.653 493.489 105.196ZM422.007 118.502L439.295 83.5133L451.357 89.473L451.606 94.4535C451.64 95.1301 452.038 95.7356 452.645 96.0357L474.322 106.747L461.806 132.077C460.901 133.908 460.663 135.898 460.999 137.768L422.007 118.502L422.007 118.502ZM465.158 133.732L478.501 106.727C478.959 105.801 478.579 104.681 477.654 104.223L455.285 93.1705L455.036 88.19C455.002 87.5134 454.604 86.908 453.997 86.6078L445.133 82.2283L451.139 70.0737L490.854 89.6974L466.059 139.879C464.557 138.268 464.123 135.826 465.158 133.732ZM474.914 138.57C473.867 140.688 471.618 141.825 469.395 141.565L486.912 106.115L490.158 107.719L474.914 138.57Z" fill="white" fill-opacity="0.26"/>
<path d="M458.121 112.105L454.931 110.529L456.604 107.143C457.061 106.218 456.682 105.097 455.756 104.64L449.273 101.436C448.348 100.979 447.227 101.359 446.769 102.284L445.097 105.67L441.906 104.093C440.981 103.636 439.86 104.015 439.403 104.941L436.071 111.684C435.613 112.61 435.993 113.731 436.918 114.188L440.109 115.764L438.436 119.15C437.979 120.075 438.358 121.196 439.284 121.653L445.767 124.857C446.692 125.314 447.813 124.934 448.27 124.009L449.943 120.624L453.133 122.2C454.059 122.657 455.18 122.278 455.637 121.352L458.969 114.609C459.426 113.684 459.047 112.563 458.121 112.105ZM453.114 118.021L449.923 116.444C448.998 115.987 447.877 116.367 447.42 117.292L445.747 120.677L442.615 119.13L444.288 115.744C444.745 114.819 444.366 113.698 443.44 113.241L440.25 111.664L441.926 108.273L445.116 109.849C446.042 110.306 447.163 109.927 447.62 109.001L449.293 105.616L452.425 107.163L450.752 110.549C450.294 111.474 450.674 112.595 451.599 113.052L454.79 114.629L453.114 118.021Z" fill="white" fill-opacity="0.26"/>
<path d="M1121.52 215.417L1113.65 211.061L1115.59 207.538C1116.22 206.398 1115.27 205.193 1114.13 204.562L1108.02 201.181C1108.86 196.234 1106.38 192.156 1102.23 189.863C1098.22 187.442 1093.1 187.893 1089.57 190.979L1083.56 187.655C1082.42 187.024 1081 186.912 1080.37 188.052L1078.42 191.574L1070.54 187.219C1065.85 184.687 1059.99 186.256 1057.2 190.797L1024.36 250.167C1021.83 254.726 1024.14 260.334 1028.7 262.856L1079.68 291.055C1084.24 293.576 1090.22 292.553 1092.74 287.994L1125.58 228.624C1127.94 223.841 1126.16 218.048 1121.52 215.417ZM1083.13 192.831L1088.83 195.983C1089.9 196.412 1091.11 196.097 1091.83 195.207C1093.93 192.874 1097.33 192.253 1100.11 193.697C1102.78 195.281 1104.03 198.483 1103.13 201.454C1102.75 202.578 1103.18 203.816 1104.17 204.466L1110.07 207.733L1105.49 216.022L1078.55 201.12L1083.13 192.831ZM1088.6 285.702C1087.34 287.982 1084.25 288.171 1081.97 286.91L1031 258.712C1028.72 257.451 1027.24 254.74 1028.5 252.46L1061.34 193.089C1062.86 190.834 1065.84 190.089 1068.25 191.363L1076.12 195.719L1073.2 201.003C1072.67 202.225 1073.19 203.65 1074.39 204.233L1104.96 221.141C1106.11 221.861 1107.62 221.579 1108.43 220.49L1111.35 215.205L1119.23 219.561C1121.59 220.922 1122.54 223.842 1121.44 226.331L1088.6 285.702L1088.6 285.702Z" fill="white" fill-opacity="0.26"/>
<path d="M1065.89 230.114L1055.77 232.766L1054.57 228.317C1054.25 227.068 1052.99 226.308 1051.73 226.609C1050.46 227.006 1049.73 228.329 1050.07 229.614L1051.91 236.315C1052.05 236.93 1052.45 237.452 1053.02 237.739C1053.57 238.034 1054.21 238.099 1054.81 237.92L1067.13 234.723C1067.2 234.708 1067.26 234.69 1067.32 234.67C1068.5 234.275 1069.13 233 1068.74 231.822C1068.41 230.573 1067.15 229.813 1065.89 230.114Z" fill="white" fill-opacity="0.26"/>
<path d="M1096.01 252.727L1072.18 239.545C1071.04 238.912 1069.6 239.326 1068.96 240.471C1068.33 241.615 1068.74 243.056 1069.89 243.689L1093.72 256.871C1094.86 257.504 1096.3 257.09 1096.94 255.945C1097.57 254.801 1097.16 253.36 1096.01 252.727Z" fill="white" fill-opacity="0.26"/>
<path d="M1105.18 236.15L1081.35 222.968C1080.21 222.334 1078.77 222.749 1078.13 223.894C1077.5 225.038 1077.91 226.479 1079.06 227.112L1102.89 240.294C1104.03 240.927 1105.47 240.513 1106.11 239.368C1106.74 238.224 1106.33 236.783 1105.18 236.15Z" fill="white" fill-opacity="0.26"/>
<path d="M1056.72 246.692L1046.6 249.344L1045.4 244.895C1045.08 243.646 1043.82 242.886 1042.56 243.187C1041.29 243.584 1040.56 244.907 1040.9 246.192L1042.74 252.893C1042.88 253.509 1043.28 254.03 1043.85 254.318C1044.4 254.612 1045.04 254.677 1045.64 254.498L1057.96 251.301C1058.03 251.286 1058.09 251.268 1058.15 251.248C1059.33 250.853 1059.96 249.578 1059.57 248.4C1059.24 247.151 1057.98 246.391 1056.72 246.692Z" fill="white" fill-opacity="0.26"/>
<path d="M1086.84 269.306L1063.01 256.124C1061.87 255.491 1060.42 255.905 1059.79 257.05C1059.16 258.194 1059.57 259.635 1060.72 260.268L1084.55 273.45C1085.69 274.084 1087.13 273.669 1087.77 272.524C1088.4 271.38 1087.99 269.939 1086.84 269.306Z" fill="white" fill-opacity="0.26"/>
<path d="M1055.98 221.38L1068.31 228.2C1068.38 228.243 1068.45 228.283 1068.52 228.318C1069.64 228.86 1070.98 228.393 1071.52 227.274L1077.71 216.084C1078.35 214.94 1077.93 213.499 1076.79 212.866L1064.46 206.045C1063.31 205.412 1061.87 205.827 1061.24 206.971L1055.05 218.161C1055.01 218.23 1054.97 218.301 1054.93 218.374C1054.39 219.493 1054.86 220.838 1055.98 221.38ZM1064.24 211.336L1072.42 215.864L1068.53 222.909L1060.34 218.382L1064.24 211.336Z" fill="white" fill-opacity="0.26"/>
<path d="M334.728 287.823L327.89 292.39C327.191 292.858 327.003 293.803 327.47 294.502C327.937 295.202 328.883 295.39 329.582 294.923L336.419 290.355C337.118 289.888 337.307 288.942 336.84 288.243C336.372 287.544 335.427 287.356 334.728 287.823Z" fill="white" fill-opacity="0.26"/>
<path d="M329.991 280.732L312.012 292.743C311.313 293.21 311.124 294.156 311.591 294.855C312.059 295.554 313.004 295.742 313.703 295.275L331.683 283.264C332.382 282.797 332.57 281.851 332.103 281.152C331.636 280.453 330.69 280.265 329.991 280.732Z" fill="white" fill-opacity="0.26"/>
<path d="M325.254 273.641L307.275 285.652C306.576 286.119 306.387 287.065 306.854 287.764C307.322 288.463 308.267 288.652 308.966 288.184L326.946 276.173C327.645 275.706 327.833 274.761 327.366 274.061C326.899 273.362 325.953 273.174 325.254 273.641Z" fill="white" fill-opacity="0.26"/>
<path d="M298.273 281.948C297.881 281.87 297.464 281.952 297.129 282.176C296.796 282.398 296.56 282.752 296.482 283.145C296.404 283.537 296.487 283.955 296.709 284.288C296.931 284.621 297.285 284.857 297.678 284.935C298.072 285.012 298.488 284.93 298.821 284.708C299.155 284.485 299.39 284.132 299.469 283.738C299.548 283.345 299.465 282.928 299.243 282.595C299.02 282.262 298.666 282.026 298.273 281.948Z" fill="white" fill-opacity="0.26"/>
<path d="M303.01 289.039C302.616 288.961 302.2 289.043 301.866 289.266C301.533 289.489 301.298 289.842 301.218 290.235C301.14 290.628 301.223 291.045 301.445 291.378C301.668 291.711 302.022 291.948 302.414 292.026C302.809 292.103 303.224 292.021 303.557 291.799C303.892 291.575 304.127 291.223 304.206 290.829C304.284 290.436 304.201 290.019 303.979 289.686C303.757 289.353 303.403 289.117 303.01 289.039Z" fill="white" fill-opacity="0.26"/>
<path d="M307.746 296.128C307.352 296.051 306.936 296.133 306.602 296.356C306.269 296.579 306.034 296.932 305.955 297.325C305.877 297.718 305.959 298.135 306.182 298.468C306.404 298.801 306.758 299.038 307.151 299.116C307.544 299.194 307.961 299.111 308.294 298.889C308.628 298.665 308.864 298.312 308.942 297.919C309.02 297.526 308.938 297.109 308.715 296.776C308.493 296.443 308.139 296.207 307.746 296.128Z" fill="white" fill-opacity="0.26"/>
<path d="M320.517 266.551L302.538 278.562C301.838 279.029 301.65 279.975 302.117 280.674C302.585 281.374 303.53 281.562 304.229 281.095L322.209 269.083C322.908 268.616 323.096 267.671 322.629 266.971C322.162 266.272 321.216 266.084 320.517 266.551Z" fill="white" fill-opacity="0.26"/>
<path d="M337.19 229.834C335.485 229.946 333.926 230.714 332.8 231.999C331.673 233.283 331.114 234.929 331.226 236.634L333.729 274.875C333.743 275.085 333.8 275.289 333.896 275.476L339.486 286.271C339.764 286.808 340.334 287.13 340.938 287.091C341.21 287.073 341.466 286.983 341.684 286.838C341.949 286.661 342.158 286.401 342.27 286.089L346.405 274.657C346.476 274.46 346.506 274.249 346.492 274.04L343.989 235.798C343.759 232.279 340.709 229.604 337.19 229.834ZM340.59 281.78L337.671 276.143L342.749 275.811L340.59 281.78ZM343.354 272.719L336.669 273.157L334.66 242.469L341.345 242.031L343.354 272.719ZM340.95 235.997L341.146 238.993L334.461 239.43L334.265 236.435C334.206 235.542 334.499 234.68 335.089 234.007C335.679 233.334 336.496 232.932 337.389 232.873C338.281 232.815 339.144 233.108 339.816 233.698C340.489 234.288 340.892 235.104 340.95 235.997Z" fill="white" fill-opacity="0.26"/>
<path d="M329 238.68C329.7 238.212 329.888 237.267 329.421 236.568L320.222 222.798C318.823 220.704 315.98 220.138 313.886 221.537L267.798 252.327C265.704 253.726 265.138 256.568 266.538 258.663L304.77 315.892C306.17 317.987 309.012 318.552 311.106 317.153L357.194 286.364C359.288 284.965 359.854 282.122 358.455 280.028L352.223 270.7C351.756 270.001 350.81 269.813 350.111 270.28C349.412 270.747 349.224 271.692 349.691 272.392L355.923 281.72C356.389 282.418 356.2 283.365 355.502 283.832L309.415 314.621C308.717 315.087 307.769 314.899 307.303 314.201L269.07 256.971C268.603 256.273 268.792 255.325 269.49 254.859L315.578 224.07C316.276 223.603 317.223 223.792 317.69 224.49L326.888 238.259C327.356 238.959 328.301 239.147 329 238.68Z" fill="white" fill-opacity="0.26"/>
<path d="M295.409 243.771C288.986 248.062 287.252 256.778 291.543 263.201C293.769 266.533 297.186 268.603 300.856 269.225C300.928 269.242 301.001 269.254 301.076 269.261C304.416 269.772 307.949 269.088 310.973 267.068C313.997 265.047 315.982 262.046 316.787 258.765C316.81 258.693 316.827 258.62 316.839 258.547C317.67 254.919 317.066 250.97 314.84 247.637C310.549 241.214 301.832 239.48 295.409 243.771ZM309.281 264.536C307.214 265.917 304.843 266.499 302.534 266.357C302.329 263.64 303.581 261.019 305.898 259.471C308.215 257.923 311.116 257.77 313.547 259C312.794 261.187 311.349 263.154 309.281 264.536ZM300.827 256.266L300.277 255.443C299.531 254.326 299.833 252.81 300.95 252.064C302.067 251.318 303.583 251.62 304.329 252.737L304.879 253.56C305.625 254.676 305.323 256.192 304.206 256.939C303.089 257.685 301.573 257.383 300.827 256.266ZM314.138 255.923C312.279 255.162 310.265 254.949 308.318 255.288C308.4 254.119 308.111 252.915 307.411 251.868L306.861 251.045C305.182 248.531 301.771 247.853 299.258 249.532C296.745 251.211 296.066 254.622 297.745 257.135L298.295 257.958C298.995 259.006 299.996 259.733 301.107 260.105C300.049 261.774 299.474 263.716 299.466 265.725C297.337 264.958 295.426 263.531 294.075 261.51C290.717 256.483 292.074 249.661 297.101 246.303C302.128 242.945 308.949 244.302 312.307 249.329C313.658 251.351 314.244 253.662 314.138 255.923Z" fill="white" fill-opacity="0.26"/>
<g clip-path="url(#clip0)">
<path d="M838.677 359.164C838.118 359.46 837.451 359.545 836.804 359.349L830.351 357.367L829.123 361.36C828.908 362.063 828.337 362.601 827.627 362.776C826.914 362.95 826.159 362.736 825.643 362.213L810.327 346.699C809.787 346.152 809.591 345.355 809.817 344.621C810.041 343.885 810.651 343.333 811.407 343.185L832.789 338.938C833.511 338.796 834.252 339.042 834.745 339.588C835.237 340.133 835.406 340.896 835.19 341.599L834.026 345.391L840.471 347.369C841.772 347.772 842.508 349.161 842.111 350.463L839.888 357.704C839.686 358.357 839.236 358.867 838.677 359.164ZM828.114 353.148C828.758 352.807 829.494 352.738 830.191 352.95L836.395 354.855L837.622 350.863L831.073 348.852C830.471 348.67 829.975 348.259 829.677 347.699C829.379 347.136 829.318 346.495 829.505 345.89L830.174 343.714L816.025 346.523L826.16 356.792L826.785 354.753C826.998 354.061 827.47 353.49 828.114 353.148Z" fill="#4277C1"/>
<path d="M815.045 324.612L763.39 351.999C762.372 352.539 761.109 352.153 760.567 351.132L755.677 341.909C755.136 340.889 755.525 339.626 756.543 339.086L808.198 311.698C809.216 311.158 810.48 311.545 811.021 312.565L815.912 321.788C816.453 322.809 816.063 324.072 815.045 324.612ZM763.279 347.332L811.244 321.9L808.31 316.366L760.345 341.797L763.279 347.332Z" fill="#4277C1"/>
<path d="M796.288 360.556L781.529 368.381C780.51 368.921 779.247 368.534 778.706 367.514L772.837 356.445C772.296 355.425 772.685 354.163 773.704 353.623L788.463 345.797C789.48 345.258 790.744 345.644 791.285 346.664L797.154 357.732C797.695 358.753 797.305 360.016 796.288 360.556ZM781.418 363.713L792.486 357.844L788.574 350.465L777.505 356.334L781.418 363.713Z" fill="#4277C1"/>
<path d="M815.854 350.181L803.667 356.642C802.649 357.182 801.384 356.795 800.843 355.775L794.975 344.707C794.434 343.687 794.824 342.424 795.842 341.884L810.6 334.059C811.619 333.519 812.883 333.905 813.423 334.925L817.921 343.408C818.23 343.991 818.245 344.685 817.962 345.282C817.68 345.88 817.13 346.306 816.483 346.434L816.024 346.527L816.364 346.871C816.827 347.341 817.041 348.003 816.94 348.655C816.84 349.305 816.438 349.871 815.854 350.181ZM803.555 351.975L811.42 347.805L810.327 346.699C809.788 346.153 809.592 345.354 809.817 344.62C810.042 343.886 810.655 343.336 811.405 343.186L812.916 342.885L810.711 338.727L799.643 344.596L803.555 351.975Z" fill="#4277C1"/>
<path d="M821.979 356.387L778.06 379.673C777.042 380.213 775.778 379.827 775.237 378.806L755.675 341.911C755.134 340.89 755.523 339.627 756.541 339.087L808.196 311.7C809.214 311.16 810.478 311.547 811.019 312.567L826.471 341.711C826.78 342.294 826.796 342.987 826.513 343.586C826.228 344.182 825.683 344.61 825.034 344.737L816.021 346.526L822.487 353.077C822.951 353.546 823.164 354.208 823.065 354.859C822.966 355.512 822.562 356.078 821.979 356.387ZM777.951 375.004L817.544 354.012L810.325 346.7C809.785 346.153 809.589 345.356 809.814 344.622C810.039 343.887 810.649 343.334 811.405 343.186L821.467 341.188L808.307 316.368L760.343 341.798L777.951 375.004Z" fill="#4277C1"/>
<path d="M873.915 378.482L778.633 429.001C774.385 431.253 769.097 429.631 766.845 425.382L727.086 350.395C724.833 346.146 726.457 340.858 730.705 338.606L825.988 288.087C830.234 285.835 835.521 287.459 837.774 291.707L877.533 366.695C879.787 370.943 878.164 376.229 873.915 378.482ZM732.663 342.294C730.449 343.468 729.603 346.223 730.777 348.438L770.536 423.425C771.709 425.638 774.464 426.484 776.679 425.31L871.961 374.791C874.174 373.618 875.018 370.864 873.845 368.65L834.086 293.663C832.912 291.448 830.157 290.603 827.945 291.775L732.663 342.294Z" fill="#4277C1"/>
<path d="M873.915 378.482L778.635 429C774.388 431.252 769.099 429.63 766.846 425.381L757.237 407.258L867.925 348.57L877.534 366.694C879.787 370.943 878.164 376.229 873.915 378.482ZM762.883 408.991L770.536 423.425C771.709 425.638 774.464 426.484 776.679 425.31L871.959 374.792C874.172 373.619 875.018 370.864 873.845 368.65L866.192 354.216L762.883 408.991Z" fill="#4277C1"/>
<path d="M826.052 394.406L818.673 398.318C817.654 398.858 816.391 398.472 815.85 397.452L811.937 390.072C811.397 389.052 811.786 387.79 812.804 387.25L820.183 383.337C821.202 382.797 822.465 383.183 823.006 384.203L826.919 391.583C827.46 392.603 827.07 393.866 826.052 394.406ZM818.562 393.651L822.251 391.694L820.295 388.005L816.605 389.961L818.562 393.651Z" fill="#4277C1"/>
<path d="M864.706 409.362L809.362 438.706C808.344 439.246 807.081 438.86 806.54 437.84L804.581 434.146C802.965 431.096 804.13 427.3 807.18 425.683L855.151 400.248C858.202 398.631 861.998 399.796 863.615 402.846L865.573 406.54C866.114 407.56 865.725 408.822 864.706 409.362ZM809.251 434.038L860.906 406.651L859.925 404.802C859.386 403.785 858.123 403.399 857.107 403.938L809.136 429.372C808.121 429.911 807.732 431.173 808.271 432.19L809.251 434.038Z" fill="#4277C1"/>
<path d="M853.414 405.895L812.829 427.414C811.81 427.954 810.547 427.566 810.006 426.546C809.465 425.526 809.854 424.264 810.872 423.724C817.426 420.25 818.397 415.627 814.228 407.765C813.687 406.745 814.076 405.481 815.095 404.941L833.543 395.16C834.561 394.62 835.824 395.007 836.365 396.027C840.534 403.89 844.908 405.678 851.458 402.205C852.477 401.665 853.74 402.051 854.281 403.071C854.822 404.091 854.433 405.355 853.414 405.895ZM820.528 418.604L841.804 407.324C838.78 406.178 836.075 403.668 833.709 399.798L818.841 407.682C820.715 411.812 821.276 415.459 820.528 418.604Z" fill="#4277C1"/>
</g>
<defs>
<clipPath id="clip0">
<rect width="125.286" height="125.286" fill="white" transform="translate(723 342.688) rotate(-27.9327)"/>
</clipPath>
</defs>
</svg>
