<svg width="336" height="289" viewBox="0 0 336 289" fill="none" xmlns="http://www.w3.org/2000/svg">
<path d="M5.88992 97.4525C5.88983 95.9297 6.50327 94.4686 7.59671 93.387L91.537 10.3725C92.0847 9.8308 92.7364 9.40087 93.4545 9.10748C94.1725 8.81409 94.9428 8.66305 95.7207 8.66309H231.94C232.713 8.66306 233.479 8.81241 234.194 9.10261C234.909 9.39281 235.558 9.81817 236.105 10.3544L318.573 91.2034C319.12 91.7396 319.554 92.3763 319.85 93.0769C320.146 93.7776 320.298 94.5286 320.298 95.2869V170C320.298 171.497 319.705 172.935 318.644 174.012L277.042 216.241C276.496 216.796 275.842 217.237 275.119 217.54C274.396 217.843 273.619 218.001 272.833 218.004L163.384 218.496L124.243 273.678C123.7 274.443 122.977 275.068 122.135 275.499C121.293 275.931 120.357 276.156 119.407 276.156H30.9247C29.683 276.155 28.4733 275.77 27.4683 275.055C26.4633 274.34 25.7144 273.332 25.3287 272.175L6.18445 214.745C5.99393 214.165 5.89847 213.56 5.9017 212.951H5.88992V97.4525ZM111.625 86.3502L24.9606 101.076L71.596 141.032L111.625 86.3502ZM84.0788 143.787H146.064L123.413 90.0592L84.0788 143.787ZM155.991 137.099L190.515 84.0258H133.616L155.991 137.099ZM165.614 143.787H231.735L200.914 89.5171L165.614 143.787ZM243.596 140.928L299.81 98.9316L212.262 85.7482L243.596 140.928ZM161.275 155.337L165.242 201.536L224.81 155.34L161.275 155.337ZM149.453 155.337H90.5665L153.341 200.557L149.453 155.337ZM17.671 110.168V198.38L64.1239 149.965L17.671 110.168ZM116.338 73.8266L93.849 24.49L28.9492 88.6739L116.338 73.8266ZM128.628 72.476H197.523L222.651 20.2129H104.805L128.628 72.476ZM209.95 73.7176L297.524 86.9025L233.697 24.3276L209.95 73.7176ZM254.659 147.185L308.517 162.335V106.948L254.659 147.185ZM252.825 158.685L274.425 202.275L303.363 172.9L252.825 158.685ZM239.662 158.552L177.336 206.885L263.417 206.498L239.662 158.552ZM73.3168 157.245L25.4274 207.158L142.368 206.988L73.3168 157.245ZM149.01 218.532L34.8582 218.698L117.585 262.832L149.01 218.532ZM35.1954 264.606H96.2627L21.9844 224.971L35.1954 264.606Z" fill="#E3EBF8"/>
<path d="M17.6716 115.499C7.91184 115.499 -1.90735e-05 107.743 -1.90735e-05 98.1744C-1.90735e-05 88.6062 7.91184 80.8496 17.6716 80.8496C27.4314 80.8496 35.3433 88.6062 35.3433 98.1744C35.3433 107.743 27.4314 115.499 17.6716 115.499Z" fill="#E3EBF8"/>
<path d="M164.935 230.999C155.175 230.999 147.263 223.243 147.263 213.674C147.263 204.106 155.175 196.35 164.935 196.35C174.695 196.35 182.606 204.106 182.606 213.674C182.606 223.243 174.695 230.999 164.935 230.999Z" fill="#E3EBF8"/>
<path d="M123.701 288.747C113.941 288.747 106.029 280.991 106.029 271.422C106.029 261.854 113.941 254.098 123.701 254.098C133.461 254.098 141.373 261.854 141.373 271.422C141.373 280.991 133.461 288.747 123.701 288.747Z" fill="#E3EBF8"/>
<path d="M35.343 288.747C25.5832 288.747 17.6714 280.991 17.6714 271.422C17.6714 261.854 25.5832 254.098 35.343 254.098C45.1028 254.098 53.0146 261.854 53.0146 271.422C53.0146 280.991 45.1028 288.747 35.343 288.747Z" fill="#E3EBF8"/>
<path d="M17.6716 230.999C7.91184 230.999 -1.90735e-05 223.243 -1.90735e-05 213.674C-1.90735e-05 204.106 7.91184 196.35 17.6716 196.35C27.4314 196.35 35.3433 204.106 35.3433 213.674C35.3433 223.243 27.4314 230.999 17.6716 230.999Z" fill="#E3EBF8"/>
<path d="M159.043 167.473C149.283 167.473 141.372 159.716 141.372 150.148C141.372 140.58 149.283 132.823 159.043 132.823C168.803 132.823 176.715 140.58 176.715 150.148C176.715 159.716 168.803 167.473 159.043 167.473Z" fill="#E3EBF8"/>
<path d="M235.622 34.6496C225.863 34.6496 217.951 26.893 217.951 17.3248C217.951 7.75657 225.863 0 235.622 0C245.382 0 253.294 7.75657 253.294 17.3248C253.294 26.893 245.382 34.6496 235.622 34.6496Z" fill="#E3EBF8"/>
<path d="M100.137 34.6496C90.3777 34.6496 82.4658 26.893 82.4658 17.3248C82.4658 7.75657 90.3777 0 100.137 0C109.897 0 117.809 7.75657 117.809 17.3248C117.809 26.893 109.897 34.6496 100.137 34.6496Z" fill="#E3EBF8"/>
<path d="M318.089 115.499C308.329 115.499 300.417 107.743 300.417 98.1744C300.417 88.6062 308.329 80.8496 318.089 80.8496C327.849 80.8496 335.761 88.6062 335.761 98.1744C335.761 107.743 327.849 115.499 318.089 115.499Z" fill="#E3EBF8"/>
<path d="M318.089 190.574C308.329 190.574 300.417 182.818 300.417 173.25C300.417 163.681 308.329 155.925 318.089 155.925C327.849 155.925 335.761 163.681 335.761 173.25C335.761 182.818 327.849 190.574 318.089 190.574Z" fill="#E3EBF8"/>
<path d="M276.855 230.999C267.095 230.999 259.184 223.243 259.184 213.674C259.184 204.106 267.095 196.35 276.855 196.35C286.615 196.35 294.527 204.106 294.527 213.674C294.527 223.243 286.615 230.999 276.855 230.999Z" fill="#E3EBF8"/>
<path d="M206.17 98.174C196.41 98.174 188.498 90.4174 188.498 80.8492C188.498 71.281 196.41 63.5244 206.17 63.5244C215.929 63.5244 223.841 71.281 223.841 80.8492C223.841 90.4174 215.929 98.174 206.17 98.174Z" fill="#E3EBF8"/>
<path d="M129.592 98.174C119.832 98.174 111.92 90.4174 111.92 80.8492C111.92 71.281 119.832 63.5244 129.592 63.5244C139.351 63.5244 147.263 71.281 147.263 80.8492C147.263 90.4174 139.351 98.174 129.592 98.174Z" fill="#E3EBF8"/>
<path d="M247.402 167.473C237.642 167.473 229.73 159.716 229.73 150.148C229.73 140.58 237.642 132.823 247.402 132.823C257.161 132.823 265.073 140.58 265.073 150.148C265.073 159.716 257.161 167.473 247.402 167.473Z" fill="#E3EBF8"/>
<path d="M76.5759 167.473C66.8161 167.473 58.9043 159.716 58.9043 150.148C58.9043 140.58 66.8161 132.823 76.5759 132.823C86.3357 132.823 94.2476 140.58 94.2476 150.148C94.2476 159.716 86.3357 167.473 76.5759 167.473Z" fill="#E3EBF8"/>
</svg>
