<svg width="142" height="143" viewBox="0 0 142 143" fill="none" xmlns="http://www.w3.org/2000/svg">
<rect y="0.990234" width="142" height="142" rx="25" fill="#E2F0FE"/>
<g clip-path="url(#clip0)">
<path d="M114 93.2478C114 89.0614 111.331 85.3593 107.361 84.0359L93.1936 79.3125V76.4387C96.259 74.4346 98.553 71.3576 99.5588 67.7456C102.995 67.3366 105.677 64.4377 105.677 60.8935V48.4482C105.677 37.7192 96.9485 28.9902 86.2208 28.9902C79.7594 28.9902 73.7573 32.1708 70.1304 37.5058C66.5319 38.6498 64.0645 41.9875 64.0645 45.8061V60.8935C64.0645 64.4377 66.7473 67.3366 70.1832 67.7456C71.1869 71.359 73.483 74.4346 76.5484 76.4387V79.3125L64.0645 83.4737V70.6031H61.2903V65.0547H30.7742V70.6031H28V114.99H64.0645V109.442H114V93.2478ZM100.055 93.6833L97.1537 96.5834L98.513 100.66L92.3029 105.834L97.004 83.5076L98.8598 84.126L100.055 93.6833ZM69.6867 93.6833L70.8808 84.1273L72.7366 83.509L77.4377 105.835L71.2276 100.661L72.5869 96.5848L69.6867 93.6833ZM84.871 87.8226L88.7315 91.6825L86.7877 95.5709H82.9556L81.0117 91.6825L84.871 87.8226ZM90.7993 93.751L91.8024 94.7541L89.8992 103.797L89.0749 97.2004L90.7993 93.751ZM78.9426 93.751L80.6684 97.2018L79.8441 103.798L77.9409 94.7554L78.9426 93.751ZM83.3213 98.3451H86.4206L87.4609 106.668H82.281L83.3213 98.3451ZM94.3558 82.6251L92.4844 91.5139L86.9475 85.9763L92.0841 81.8679L94.3558 82.6251ZM100.071 64.8177C100.1 64.4364 100.129 64.0557 100.129 63.6677V56.9875C101.74 57.5619 102.903 59.0878 102.903 60.8935C102.903 62.7201 101.712 64.2596 100.071 64.8177ZM71.3359 40.0457L71.8561 39.915L72.3383 39.1923C75.439 34.5413 80.6277 31.7644 86.2208 31.7644C95.4185 31.7644 102.903 39.2492 102.903 48.4482V55.381C102.093 54.768 101.16 54.3088 100.129 54.0995V51.1838H98.4866C96.8252 51.1838 95.3826 50.0574 94.9789 48.4441C94.5651 46.7909 93.0852 45.6354 91.3804 45.6354C90.3889 45.6354 89.4569 46.0208 88.7573 46.7218L87.1385 48.3405C85.3051 50.1739 82.8696 51.1838 80.2755 51.1838H69.6129V54.0982C68.5821 54.3088 67.6488 54.7667 66.8387 55.3796V45.8047C66.8387 43.0759 68.6877 40.7088 71.3359 40.0457ZM66.8387 60.8935C66.8387 59.0878 68.0023 57.5619 69.6129 56.9875V63.6677C69.6129 64.0557 69.642 64.4364 69.6712 64.8177C68.0301 64.2596 66.8387 62.7201 66.8387 60.8935ZM72.3871 63.6677V53.958H80.2755C83.6098 53.958 86.745 52.6596 89.1013 50.3013L90.7214 48.6825C91.1976 48.2057 92.1241 48.4584 92.2894 49.1167C92.9064 51.5929 94.9139 53.4209 97.3548 53.8564V63.6677C97.3548 70.5503 91.755 76.1515 84.871 76.1515C77.987 76.1515 72.3871 70.5503 72.3871 63.6677ZM84.871 78.9257C86.8297 78.9257 88.6963 78.5417 90.4194 77.8658V79.6457L84.871 84.0847L79.3226 79.6457V77.8658C81.0456 78.5417 82.9122 78.9257 84.871 78.9257ZM77.6578 81.8679L82.7944 85.9763L77.2575 91.5139L75.3862 82.6251L77.6578 81.8679ZM33.5484 67.8289H58.5161V70.6031H33.5484V67.8289ZM50.1935 112.216H41.871V101.119H50.1935V112.216ZM61.2903 112.216H52.9677V98.3451H39.0968V112.216H30.7742V73.3773H61.2903V112.216ZM64.0645 86.3983L67.9637 85.0986L66.7649 94.6843L69.4117 97.3325L67.9969 101.578L74.104 106.668H64.0645V86.3983ZM111.226 106.668H95.6379L101.744 101.578L100.329 97.3325L102.975 94.6843L101.777 85.0986L106.482 86.6672C109.32 87.6134 111.226 90.2568 111.226 93.2478V106.668ZM79.3226 58.1193C79.3226 58.8846 78.7008 59.5064 77.9355 59.5064C77.1701 59.5064 76.5484 58.8846 76.5484 58.1193C76.5484 57.3539 77.1701 56.7322 77.9355 56.7322C78.7008 56.7322 79.3226 57.3539 79.3226 58.1193ZM90.4194 58.1193C90.4194 57.3539 91.0411 56.7322 91.8064 56.7322C92.5718 56.7322 93.1936 57.3539 93.1936 58.1193C93.1936 58.8846 92.5718 59.5064 91.8064 59.5064C91.0411 59.5064 90.4194 58.8846 90.4194 58.1193ZM84.871 71.9902C81.811 71.9902 79.3226 69.5019 79.3226 66.4418H82.0968C82.0968 67.9719 83.341 69.216 84.871 69.216C86.401 69.216 87.6452 67.9719 87.6452 66.4418H90.4194C90.4194 69.5019 87.931 71.9902 84.871 71.9902ZM58.5161 76.1515H33.5484V84.4741H58.5161V76.1515ZM47.4194 78.9257H50.1935V81.6999H47.4194V78.9257ZM44.6452 81.6999H41.871V78.9257H44.6452V81.6999ZM36.3226 78.9257H39.0968V81.6999H36.3226V78.9257ZM55.7419 81.6999H52.9677V78.9257H55.7419V81.6999ZM58.5161 87.2483H33.5484V95.5709H58.5161V87.2483ZM47.4194 90.0225H50.1935V92.7967H47.4194V90.0225ZM44.6452 92.7967H41.871V90.0225H44.6452V92.7967ZM36.3226 90.0225H39.0968V92.7967H36.3226V90.0225ZM55.7419 92.7967H52.9677V90.0225H55.7419V92.7967Z" fill="#0047AB"/>
</g>
<defs>
<clipPath id="clip0">
<rect width="86" height="86" fill="white" transform="translate(28 28.9902)"/>
</clipPath>
</defs>
</svg>
