<svg width="580" height="433" viewBox="0 0 580 433" fill="none" xmlns="http://www.w3.org/2000/svg">
<g filter="url(#filter0_f)">
<path d="M290 413C439.117 413 560 404.941 560 395C560 385.059 439.117 377 290 377C140.883 377 20 385.059 20 395C20 404.941 140.883 413 290 413Z" fill="#0047AB" fill-opacity="0.1"/>
</g>
<line x1="300.979" y1="152.646" x2="300.979" y2="124.608" stroke="#C4C4C4" stroke-width="2"/>
<line x1="268.022" y1="133.954" x2="268.022" y2="102.473" stroke="#C4C4C4" stroke-width="2"/>
<path fill-rule="evenodd" clip-rule="evenodd" d="M205.935 347.096L206.907 357.891L195.062 363.323L188.275 349.312L205.935 347.096Z" fill="#F77F89"/>
<path fill-rule="evenodd" clip-rule="evenodd" d="M193.639 362.174L199.107 375.284L232.065 362.408C232.065 362.408 227.23 353.427 210.471 360.237C208.816 356.093 208.734 355.878 208.734 355.878L193.639 362.174Z" fill="#0047AB"/>
<path fill-rule="evenodd" clip-rule="evenodd" d="M140.717 342.181L136.964 351.797L149.066 357.346L156.678 348.077L140.717 342.181Z" fill="#F77F89"/>
<path fill-rule="evenodd" clip-rule="evenodd" d="M137.382 349.987L132.261 362.782L163.184 376.505C163.184 376.505 167.052 367.231 150.025 359.929L151.684 355.951L137.382 349.987Z" fill="#0047AB"/>
<path d="M163.499 373.108L133.27 360.257" stroke="#4C4FD9" stroke-width="1.7" stroke-linecap="round" stroke-linejoin="round"/>
<path d="M216.235 369.01C214.22 366.524 208.643 362.333 195.863 367.506L195.29 366.131" stroke="#4C4FD9" stroke-width="1.7" stroke-linecap="round" stroke-linejoin="round"/>
<path d="M134.727 356.762C135.48 357.076 136.164 357.535 136.74 358.114C137.316 358.692 137.772 359.378 138.082 360.133C138.393 360.887 138.551 361.696 138.549 362.512C138.548 363.328 138.385 364.136 138.071 364.889C138.007 365.041 137.946 365.189 137.884 365.338" stroke="#4C4FD9" stroke-width="1.7" stroke-linecap="round" stroke-linejoin="round"/>
<path d="M200.609 369.139L200.567 366.253" stroke="#4C4FD9" stroke-width="1.7" stroke-linecap="round" stroke-linejoin="round"/>
<path d="M204.485 368.685L204.731 365.098" stroke="#4C4FD9" stroke-width="1.7" stroke-linecap="round" stroke-linejoin="round"/>
<path d="M208.154 367.735L208.606 364.643" stroke="#4C4FD9" stroke-width="1.7" stroke-linecap="round" stroke-linejoin="round"/>
<path d="M136.723 351.633L151.098 357.354" stroke="#4C4FD9" stroke-width="1.7" stroke-linecap="round" stroke-linejoin="round"/>
<path d="M194.258 363.658L209.593 357.262" stroke="#4C4FD9" stroke-width="1.7" stroke-linecap="round" stroke-linejoin="round"/>
<path d="M230.539 360.141L214.214 366.949" stroke="#4C4FD9" stroke-width="1.7" stroke-linecap="round" stroke-linejoin="round"/>
<path d="M215.284 358.374L215.532 361.754" stroke="#4C4FD9" stroke-width="1.7" stroke-linecap="round" stroke-linejoin="round"/>
<path d="M217.963 357.837L217.717 361.424" stroke="#4C4FD9" stroke-width="1.7" stroke-linecap="round" stroke-linejoin="round"/>
<path d="M221.055 358.289L220.603 361.382" stroke="#4C4FD9" stroke-width="1.7" stroke-linecap="round" stroke-linejoin="round"/>
<path fill-rule="evenodd" clip-rule="evenodd" d="M208.736 215.21C208.736 211.866 214 209.16 220.488 209.16C226.976 209.16 232.239 211.866 232.239 215.21C232.239 218.555 226.976 221.256 220.488 221.256C214 221.256 208.736 218.56 208.736 215.21Z" fill="#8DC5E0"/>
<path fill-rule="evenodd" clip-rule="evenodd" d="M151.1 216.562H376.132C376.709 216.562 377.262 216.792 377.67 217.199C378.078 217.607 378.307 218.16 378.307 218.737V222.672C378.307 223.248 378.078 223.801 377.67 224.209C377.262 224.617 376.709 224.846 376.132 224.846H151.1C150.524 224.846 149.971 224.617 149.563 224.209C149.155 223.801 148.926 223.248 148.926 222.672V218.737C148.926 218.16 149.155 217.607 149.563 217.199C149.971 216.792 150.524 216.562 151.1 216.562Z" fill="#73A9C3"/>
<path d="M181.736 225.043L136.211 364.653" stroke="#73A9C3" stroke-width="2" stroke-linecap="round" stroke-linejoin="round"/>
<path d="M218.682 225.043L173.177 364.653" stroke="#73A9C3" stroke-width="2" stroke-linecap="round" stroke-linejoin="round"/>
<path d="M218.682 225.043L264.182 364.653" stroke="#73A9C3" stroke-width="2" stroke-linecap="round" stroke-linejoin="round"/>
<path d="M181.736 225.043L227.236 364.653" stroke="#73A9C3" stroke-width="2" stroke-linecap="round" stroke-linejoin="round"/>
<path fill-rule="evenodd" clip-rule="evenodd" d="M104.675 238.236C137.244 229.062 183.964 234.143 194.043 248.137C197.643 253.135 196.423 260.956 195.518 263.903C194.613 266.849 156.501 348.617 156.501 348.617L139.413 342.119L156.206 275.713C156.206 275.713 100.627 239.367 104.675 238.236Z" fill="#1B3C87"/>
<path d="M145.464 344.416L165.135 281.03" stroke="#8D8D8D" stroke-width="2" stroke-linecap="round" stroke-linejoin="round"/>
<path d="M141.13 335.302L159.468 342.188" stroke="#8D8D8D" stroke-width="2" stroke-linecap="round" stroke-linejoin="round"/>
<path fill-rule="evenodd" clip-rule="evenodd" d="M77.9855 278.389H152.655C155.216 278.389 157.672 279.406 159.483 281.217C161.294 283.028 162.311 285.484 162.311 288.045C162.311 290.605 161.294 293.061 159.483 294.872C157.672 296.683 155.216 297.7 152.655 297.7H77.9855C75.4246 297.7 72.9686 296.683 71.1577 294.872C69.3469 293.061 68.3296 290.605 68.3296 288.045V288.045C68.3296 285.484 69.3469 283.028 71.1577 281.217C72.9686 279.406 75.4246 278.389 77.9855 278.389Z" fill="#73A9C3"/>
<path fill-rule="evenodd" clip-rule="evenodd" d="M112.192 291.104H118.449C118.945 291.104 119.42 291.301 119.771 291.652C120.121 292.003 120.318 292.478 120.318 292.974V362.134C120.318 362.63 120.121 363.105 119.771 363.456C119.42 363.806 118.945 364.003 118.449 364.003H112.192C111.696 364.003 111.221 363.806 110.87 363.456C110.52 363.105 110.323 362.63 110.323 362.134V292.974C110.323 292.478 110.52 292.003 110.87 291.652C111.221 291.301 111.696 291.104 112.192 291.104Z" fill="#73A9C3"/>
<path fill-rule="evenodd" clip-rule="evenodd" d="M109.674 341.799H120.987C121.804 341.799 122.587 342.123 123.165 342.701C123.742 343.278 124.067 344.062 124.067 344.878V361.573C124.067 361.98 123.986 362.382 123.83 362.757C123.674 363.132 123.444 363.473 123.156 363.759C122.867 364.045 122.525 364.272 122.149 364.425C121.772 364.578 121.369 364.656 120.963 364.652H109.649C108.832 364.652 108.049 364.328 107.472 363.75C106.894 363.173 106.57 362.39 106.57 361.573V344.878C106.57 344.472 106.65 344.069 106.807 343.694C106.963 343.319 107.192 342.978 107.48 342.692C107.769 342.406 108.111 342.18 108.488 342.026C108.864 341.873 109.267 341.796 109.674 341.799Z" fill="#73A9C3"/>
<path d="M77.833 376.542V373.281C77.833 370.993 78.742 368.798 80.36 367.18C81.9781 365.562 84.1726 364.653 86.4608 364.653H115.32" stroke="#73A9C3" stroke-width="2" stroke-linecap="round" stroke-linejoin="round"/>
<path d="M152.724 376.542V373.281C152.723 372.147 152.499 371.024 152.064 369.977C151.629 368.929 150.993 367.978 150.19 367.177C149.387 366.375 148.435 365.74 147.387 365.307C146.338 364.874 145.215 364.652 144.081 364.653H115.231" stroke="#73A9C3" stroke-width="2" stroke-linecap="round" stroke-linejoin="round"/>
<path d="M101.178 376.542V372.607C101.178 368.215 103.466 364.653 106.284 364.653H124.356C127.175 364.653 129.462 368.215 129.462 372.607V376.542" stroke="#73A9C3" stroke-width="2" stroke-linecap="round" stroke-linejoin="round"/>
<path d="M73.106 381.274C73.106 380.339 73.3832 379.425 73.9026 378.648C74.422 377.87 75.1603 377.264 76.0241 376.907C76.8878 376.549 77.8383 376.455 78.7553 376.638C79.6722 376.82 80.5145 377.27 81.1756 377.931C81.8367 378.593 82.2869 379.435 82.4693 380.352C82.6517 381.269 82.5581 382.219 82.2003 383.083C81.8426 383.947 81.2367 384.685 80.4593 385.204C79.6819 385.724 78.768 386.001 77.8331 386.001C76.5798 386 75.3782 385.501 74.4919 384.615C73.6057 383.729 73.1073 382.527 73.106 381.274V381.274Z" stroke="#73A9C3" stroke-width="2" stroke-linecap="round" stroke-linejoin="round"/>
<path d="M96.4512 381.274C96.4512 380.339 96.7284 379.425 97.2478 378.648C97.7673 377.87 98.5055 377.264 99.3693 376.907C100.233 376.549 101.184 376.455 102.1 376.638C103.017 376.82 103.86 377.27 104.521 377.931C105.182 378.593 105.632 379.435 105.815 380.352C105.997 381.269 105.903 382.219 105.546 383.083C105.188 383.947 104.582 384.685 103.805 385.204C103.027 385.724 102.113 386.001 101.178 386.001C99.925 386 98.7234 385.501 97.8371 384.615C96.9509 383.729 96.4525 382.527 96.4512 381.274V381.274Z" stroke="#73A9C3" stroke-width="2" stroke-linecap="round" stroke-linejoin="round"/>
<path d="M129.462 376.542C130.398 376.541 131.313 376.818 132.092 377.337C132.871 377.856 133.478 378.595 133.837 379.46C134.196 380.324 134.291 381.276 134.109 382.194C133.927 383.112 133.476 383.956 132.815 384.618C132.153 385.281 131.31 385.732 130.392 385.915C129.474 386.098 128.522 386.004 127.657 385.646C126.792 385.288 126.053 384.682 125.533 383.904C125.013 383.125 124.735 382.21 124.735 381.274C124.735 380.02 125.233 378.817 126.119 377.93C127.005 377.042 128.208 376.543 129.462 376.542" stroke="#73A9C3" stroke-width="2" stroke-linecap="round" stroke-linejoin="round"/>
<path d="M148.017 381.274C148.017 380.339 148.294 379.425 148.813 378.648C149.333 377.87 150.071 377.264 150.935 376.907C151.798 376.549 152.749 376.455 153.666 376.638C154.583 376.82 155.425 377.27 156.086 377.931C156.747 378.593 157.198 379.435 157.38 380.352C157.562 381.269 157.469 382.219 157.111 383.083C156.753 383.947 156.147 384.685 155.37 385.204C154.593 385.724 153.679 386.001 152.744 386.001C151.49 386 150.289 385.501 149.403 384.615C148.516 383.729 148.018 382.527 148.017 381.274V381.274Z" stroke="#73A9C3" stroke-width="2" stroke-linecap="round" stroke-linejoin="round"/>
<path fill-rule="evenodd" clip-rule="evenodd" d="M80.7846 218.987C50.9905 281.222 111.125 282.899 132.227 282.589C153.329 282.28 158.883 280.691 164.594 279.309C166.419 284.837 188.293 356.438 188.293 356.438L207.502 350.633C207.502 350.633 192.819 259.672 189.503 253.528C180.398 236.637 126.541 235.722 119.728 236.13C112.915 236.538 84.5623 211.097 80.7846 218.987Z" fill="#1B3C87"/>
<path d="M82.6438 227.493C62.235 278.429 149.763 275.359 168.907 269.526C171.77 277.716 195.47 353.841 195.47 353.841" stroke="#8D8D8D" stroke-width="2" stroke-linecap="round" stroke-linejoin="round"/>
<path d="M193.325 269.619C187.167 268.352 181.618 265.041 177.577 260.224C173.537 255.407 171.243 249.366 171.067 243.081" stroke="#8D8D8D" stroke-width="2" stroke-linecap="round" stroke-linejoin="round"/>
<path d="M155.429 281.178C158.516 280.723 161.575 280.099 164.593 279.309C165.351 281.601 169.556 295.261 174.215 310.46" stroke="#8D8D8D" stroke-width="2" stroke-linecap="round" stroke-linejoin="round"/>
<path d="M193.182 268.625C191.579 260.622 190.231 254.916 189.503 253.529C180.944 237.661 132.856 235.89 121.449 236.077" stroke="#8D8D8D" stroke-width="2" stroke-linecap="round" stroke-linejoin="round"/>
<path d="M206.582 345.006L186.64 351.032" stroke="#8D8D8D" stroke-width="2" stroke-linecap="round" stroke-linejoin="round"/>
<path d="M307.489 225.043L261.984 364.653" stroke="#73A9C3" stroke-width="2" stroke-linecap="round" stroke-linejoin="round"/>
<path d="M344.435 225.043L298.93 364.653" stroke="#73A9C3" stroke-width="2" stroke-linecap="round" stroke-linejoin="round"/>
<path d="M344.435 225.043L389.935 364.653" stroke="#73A9C3" stroke-width="2" stroke-linecap="round" stroke-linejoin="round"/>
<path d="M307.489 225.043L352.989 364.653" stroke="#73A9C3" stroke-width="2" stroke-linecap="round" stroke-linejoin="round"/>
<path fill-rule="evenodd" clip-rule="evenodd" d="M228.687 134.151H299.22C300.679 134.151 302.08 134.731 303.112 135.764C304.144 136.796 304.724 138.196 304.724 139.656V197.901C304.724 199.361 304.144 200.761 303.112 201.793C302.08 202.825 300.679 203.405 299.22 203.405H228.687C227.229 203.403 225.831 202.822 224.801 201.79C223.771 200.758 223.192 199.359 223.192 197.901V139.656C223.192 138.198 223.771 136.799 224.801 135.767C225.831 134.735 227.229 134.154 228.687 134.151Z" fill="#73A9C3"/>
<path fill-rule="evenodd" clip-rule="evenodd" d="M228.687 134.146C227.965 134.145 227.249 134.287 226.581 134.563C225.914 134.839 225.307 135.244 224.796 135.755C224.284 136.265 223.879 136.872 223.602 137.539C223.326 138.207 223.183 138.922 223.183 139.645V197.9C223.19 199.356 223.772 200.749 224.804 201.776C225.836 202.803 227.232 203.38 228.687 203.38H232.224C232.195 203.045 232.116 202.721 232.116 202.396V134.146H228.687Z" fill="#8DC5E0"/>
<path fill-rule="evenodd" clip-rule="evenodd" d="M254.178 186.232H277.99L291.326 216.563H266.672L254.178 186.232Z" fill="#8DC5E0"/>
<path fill-rule="evenodd" clip-rule="evenodd" d="M333.727 195.19H353.343V216.563H333.727V195.19Z" fill="#8DC5E0"/>
<path d="M348.115 205.874C348.115 204.873 348.412 203.894 348.968 203.062C349.524 202.23 350.314 201.581 351.239 201.198C352.164 200.815 353.182 200.714 354.164 200.91C355.146 201.105 356.048 201.587 356.755 202.295C357.463 203.003 357.945 203.905 358.141 204.887C358.336 205.868 358.236 206.886 357.853 207.811C357.47 208.736 356.821 209.526 355.988 210.083C355.156 210.639 354.177 210.936 353.176 210.936C351.834 210.936 350.547 210.402 349.597 209.453C348.648 208.504 348.115 207.217 348.115 205.874V205.874Z" stroke="#8DC5E0" stroke-width="2" stroke-linecap="round" stroke-linejoin="round"/>
<path d="M333.727 198.83H353.176" stroke="#73A9C3" stroke-width="2" stroke-linecap="round" stroke-linejoin="round"/>
<path fill-rule="evenodd" clip-rule="evenodd" d="M109.272 69.0234C128.756 69.0234 132.79 87.5334 132.8 94.3314C132.8 100.81 131.535 101.798 131.58 108.365C131.609 113.353 133.055 116.845 132.922 119.679C132.155 134.436 112.204 138.69 106.508 138.774C100.812 138.858 76.0103 134.057 76.0103 122.586C76.0103 114.583 81.1014 101.784 80.9636 92.8951C80.6587 74.4343 96.0943 69.0234 109.272 69.0234Z" fill="black"/>
<path fill-rule="evenodd" clip-rule="evenodd" d="M102.263 237.251H136.813L141.491 186.208L135.249 147.092L123.444 135.724L111.609 130.441L90.2358 133.708L102.263 237.251Z" fill="#F7D167"/>
<path fill-rule="evenodd" clip-rule="evenodd" d="M96.3257 129.812C88.2488 130.033 64.1312 138.789 60.6093 147.673C57.9334 154.412 56.0986 215.387 62.385 218.363C62.7886 218.558 63.2103 218.713 63.6443 218.825C63.2655 220.694 59.6452 263.976 60.565 267.577C61.4848 271.177 63.9 276.628 67.3974 276.431C80.9294 275.619 105.79 257.857 108.259 254.96C108.638 249.47 109.686 228.85 109.686 228.85L107.531 167.668L95.1993 133.954C95.1993 133.954 104.403 129.591 96.3257 129.812Z" fill="white"/>
<path fill-rule="evenodd" clip-rule="evenodd" d="M113.926 129.428C127.812 131.154 147.414 141.922 149.937 146.826C152.062 150.948 150.985 204.314 150.985 204.314C150.985 204.314 143.115 215.111 146.661 230.64C149.918 244.964 150.882 264.3 147.468 267.916C141.841 265.068 134.605 253.651 133.302 250.837C131.998 248.024 131.659 232.106 130.655 228.702C129.652 225.298 125.161 165.036 125.161 165.036C125.161 165.036 123.065 140.692 113.926 129.428Z" fill="white"/>
<path d="M78.9668 134.554C85.9566 147.299 100.118 161.824 107.418 167.368" stroke="#C9C9C9" stroke-width="2" stroke-linecap="round" stroke-linejoin="round"/>
<path d="M120.955 130.889C127.178 139.28 128.781 153.54 123.906 168.022" stroke="#C9C9C9" stroke-width="2" stroke-linecap="round" stroke-linejoin="round"/>
<path d="M86.0303 170.157C86.0303 169.061 86.3552 167.99 86.9641 167.079C87.5729 166.168 88.4382 165.458 89.4506 165.039C90.4629 164.62 91.5768 164.511 92.6514 164.725C93.7259 164.939 94.7128 165.467 95.4872 166.242C96.2616 167.017 96.7888 168.005 97.0019 169.079C97.2151 170.154 97.1047 171.268 96.6847 172.28C96.2648 173.292 95.5541 174.157 94.6426 174.765C93.7311 175.373 92.6598 175.697 91.5641 175.696C90.096 175.694 88.6884 175.11 87.6508 174.072C86.6131 173.033 86.0303 171.625 86.0303 170.157V170.157Z" stroke="#353823" stroke-width="3.41" stroke-linecap="round" stroke-linejoin="round"/>
<path fill-rule="evenodd" clip-rule="evenodd" d="M88.7261 170.157C88.7261 169.597 88.892 169.05 89.2027 168.585C89.5135 168.12 89.9553 167.758 90.4721 167.543C90.9889 167.329 91.5576 167.273 92.1063 167.382C92.6549 167.492 93.1589 167.761 93.5544 168.157C93.95 168.552 94.2194 169.056 94.3285 169.605C94.4377 170.153 94.3816 170.722 94.1676 171.239C93.9535 171.756 93.591 172.197 93.1258 172.508C92.6607 172.819 92.1139 172.985 91.5545 172.985C90.8043 172.985 90.0849 172.687 89.5545 172.157C89.0241 171.626 88.7261 170.907 88.7261 170.157Z" fill="#353823"/>
<path d="M90.0689 164.82C86.3305 151.091 86.0894 131.986 95.7404 128.543" stroke="#353823" stroke-width="3.41" stroke-linecap="round" stroke-linejoin="round"/>
<path d="M112.593 126.206C118.097 128.538 123.341 139.29 124.57 148.499" stroke="#353823" stroke-width="3.41" stroke-linecap="round" stroke-linejoin="round"/>
<path d="M118.628 165.794C116.867 157.284 119.524 149.561 124.561 148.499C129.598 147.436 135.112 153.506 136.858 162.016C138.604 170.526 135.963 178.248 130.926 179.306C125.889 180.364 120.389 174.289 118.628 165.794Z" stroke="#353823" stroke-width="3.41" stroke-linecap="round" stroke-linejoin="round"/>
<path d="M84.3725 152.409L82.2476 193.782" stroke="#C9C9C9" stroke-width="2" stroke-linecap="round" stroke-linejoin="round"/>
<path d="M78.3911 153.629L83.9151 161.332" stroke="#C9C9C9" stroke-width="2" stroke-linecap="round" stroke-linejoin="round"/>
<path fill-rule="evenodd" clip-rule="evenodd" d="M96.8518 190.492L75.6118 195.573L96.8518 190.492Z" fill="#606060"/>
<path d="M96.8518 190.492L75.6118 195.573" stroke="#C9C9C9" stroke-width="2" stroke-linecap="round" stroke-linejoin="round"/>
<path d="M76.6841 189.892L82.0949 194.024" stroke="#C9C9C9" stroke-width="2" stroke-linecap="round" stroke-linejoin="round"/>
<path d="M97.6586 214.451C88.7258 218.047 67.5054 222.346 63.4965 218.785C58.1348 214.018 56.61 164.824 59.3006 151.774C60.8698 144.179 68.7942 139.29 72.9261 137.322" stroke="#C9C9C9" stroke-width="2" stroke-linecap="round" stroke-linejoin="round"/>
<path d="M91.2741 216.558C88.7261 213.326 87.7521 197.211 88.9819 192.376" stroke="#C9C9C9" stroke-width="2" stroke-linecap="round" stroke-linejoin="round"/>
<path fill-rule="evenodd" clip-rule="evenodd" d="M91.5547 195.523C91.5537 195.266 91.6291 195.015 91.7712 194.8C91.9133 194.586 92.1157 194.419 92.3529 194.32C92.5901 194.221 92.8514 194.195 93.1036 194.244C93.3558 194.294 93.5877 194.417 93.7698 194.598C93.9519 194.78 94.0761 195.011 94.1266 195.263C94.1771 195.515 94.1517 195.777 94.0535 196.014C93.9554 196.252 93.7889 196.455 93.5753 196.598C93.3616 196.741 93.1103 196.817 92.8533 196.817C92.683 196.818 92.5142 196.785 92.3567 196.72C92.1992 196.655 92.056 196.56 91.9353 196.44C91.8147 196.32 91.719 196.177 91.6536 196.019C91.5883 195.862 91.5547 195.694 91.5547 195.523Z" fill="#C9C9C9"/>
<path fill-rule="evenodd" clip-rule="evenodd" d="M120.67 162.739H163.086C165.659 162.739 167.193 164.751 166.529 167.23L150.154 227.468C149.755 228.734 148.973 229.846 147.916 230.65C146.859 231.454 145.579 231.911 144.251 231.959H101.86C99.2921 231.959 97.7525 229.947 98.4166 227.468L114.787 167.23C115.185 165.966 115.963 164.856 117.017 164.052C118.07 163.248 119.346 162.79 120.67 162.739Z" fill="#0047AB"/>
<path fill-rule="evenodd" clip-rule="evenodd" d="M132.377 159.64H156.45C156.717 159.618 156.986 159.664 157.231 159.773C157.475 159.883 157.689 160.052 157.85 160.267C158.012 160.481 158.116 160.732 158.155 160.998C158.193 161.263 158.163 161.534 158.068 161.785L156.898 165.877C156.699 166.482 156.32 167.012 155.812 167.396C155.304 167.779 154.691 167.998 154.054 168.022H129.981C129.714 168.043 129.446 167.996 129.202 167.887C128.958 167.777 128.746 167.607 128.584 167.393C128.423 167.18 128.318 166.929 128.279 166.664C128.241 166.399 128.269 166.128 128.363 165.877L129.533 161.785C129.733 161.181 130.112 160.652 130.62 160.269C131.128 159.885 131.741 159.666 132.377 159.64Z" fill="#3B4161"/>
<path fill-rule="evenodd" clip-rule="evenodd" d="M96.7288 193.444C98.6042 192.359 100.596 191.489 102.666 190.851C105.652 188.392 107.846 178.677 108.638 178.062C109.43 177.447 112.081 177.846 112.16 178.765C112.504 182.135 112.322 186.07 109.336 189.587C118.023 184.063 118.682 181.613 121.073 183.463C123.463 185.312 124.324 194.334 122.273 198.062C116.626 208.353 101.771 209.745 97.2257 209.814C96.0943 204.919 96.0943 199.002 96.7288 193.444Z" fill="#F77F89"/>
<path d="M122.603 186.139L115.003 192.223" stroke="#A7464F" stroke-width="3.41" stroke-linecap="round" stroke-linejoin="round"/>
<path d="M123.415 192.435L113.764 200.108" stroke="#A7464F" stroke-width="3.41" stroke-linecap="round" stroke-linejoin="round"/>
<path fill-rule="evenodd" clip-rule="evenodd" d="M165.796 192.145C165.678 190.118 166.288 185.617 168.088 181.323C168.747 179.769 168.787 177.211 166.47 177.211C163.833 177.211 160.306 182.504 162.043 188.805C163.779 195.106 165.968 195.008 165.796 192.145Z" fill="#F77F89"/>
<path fill-rule="evenodd" clip-rule="evenodd" d="M157.631 180.235C159.726 180.235 166.096 192.838 166.052 194.367C166.008 195.897 165.344 198.224 164.355 198.106C163.366 197.988 155.093 187.456 155.093 183.88C155.093 181.809 156.101 180.235 157.631 180.235Z" fill="#F77F89"/>
<path fill-rule="evenodd" clip-rule="evenodd" d="M154.896 187.477C157.508 187.477 164.394 197.521 164.443 198.672C164.493 199.823 163.1 200.881 161.949 200.93C160.798 200.979 152.569 194.23 152.569 191.092C152.554 189.174 153.42 187.477 154.896 187.477Z" fill="#F77F89"/>
<path fill-rule="evenodd" clip-rule="evenodd" d="M157.306 206.262C158.438 206.208 161.586 203.395 161.586 201.181C161.586 200.311 159.387 198.058 158.285 198.127C157.183 198.195 154.935 202.431 154.98 203.508C155.024 204.585 155.826 206.317 157.306 206.262Z" fill="#F77F89"/>
<path d="M161.585 184.894C163.843 188.652 166.076 193.462 166.052 194.367" stroke="#A7464F" stroke-width="3.41" stroke-linecap="round" stroke-linejoin="round"/>
<path d="M156.475 188.215C159.583 190.556 164.389 197.713 164.429 198.673" stroke="#A94B53" stroke-width="3.41" stroke-linecap="round" stroke-linejoin="round"/>
<path fill-rule="evenodd" clip-rule="evenodd" d="M88.519 97.7945C88.519 86.535 97.5256 77.3857 108.657 77.3857C119.789 77.3857 128.776 86.5153 128.776 97.7748C128.776 109.034 119.749 118.183 108.657 118.183C97.565 118.183 88.519 109.059 88.519 97.7945Z" fill="#F77F89"/>
<path fill-rule="evenodd" clip-rule="evenodd" d="M105.676 99.2654C105.893 97.9668 106.66 97.0076 107.428 97.1355C108.195 97.2634 108.618 98.4144 108.411 99.713C108.205 101.012 107.428 101.971 106.66 101.848C105.893 101.725 105.465 100.569 105.676 99.2654Z" fill="#B5545C"/>
<path fill-rule="evenodd" clip-rule="evenodd" d="M120.832 100.239C121.033 99.024 121.761 98.1287 122.465 98.2468C123.168 98.3648 123.577 99.4421 123.38 100.657C123.183 101.872 122.445 102.762 121.742 102.625C121.038 102.487 120.63 101.454 120.832 100.239Z" fill="#B5545C"/>
<path fill-rule="evenodd" clip-rule="evenodd" d="M91.5938 106.772C92.7891 110.097 95.7945 127.377 95.037 133.654C98.1852 138.425 112.214 137.097 116.395 133.059C114.314 127.249 114.236 123.083 114.998 118.184C115.721 113.599 90.3985 103.457 91.5938 106.772Z" fill="#F77F89"/>
<path fill-rule="evenodd" clip-rule="evenodd" d="M116.621 76.8937C116.794 81.7389 112.371 86.3676 100.35 88.6648C101.668 92.0638 101.776 97.1745 95.2093 98.0944C87.5505 99.1569 86.9258 89.3731 86.9258 89.3731L98.3968 75.8214C98.3968 75.8214 116.454 72.0387 116.621 76.8937Z" fill="black"/>
<path fill-rule="evenodd" clip-rule="evenodd" d="M113.011 73.4853C112.519 77.7894 117.472 88.2421 128.943 88.5274C137.099 88.5274 113.488 69.1763 113.011 73.4853Z" fill="black"/>
<path fill-rule="evenodd" clip-rule="evenodd" d="M99.7044 117.46C98.6025 116.068 100.196 109.723 101.933 106.816C104.028 105.581 111.461 106.609 115.293 103.313C116.419 102.329 117.024 103.058 117.9 104.135C119.439 106.024 124.068 107.002 125.799 108.07C126.055 110.825 123.527 117.131 122.435 118.542C120.723 120.78 105.076 120.982 99.7044 117.46Z" fill="white"/>
<path d="M102.946 107.391C101.933 105.699 97.506 98.1284 96.0942 96.21" stroke="white" stroke-width="3.41" stroke-linecap="round" stroke-linejoin="round"/>
<path d="M100.576 117.057C97.5803 117.057 90.4576 107.686 89.646 104.543" stroke="white" stroke-width="3.41" stroke-linecap="round" stroke-linejoin="round"/>
<path fill-rule="evenodd" clip-rule="evenodd" d="M85.0757 99.4661C85.0757 98.1693 85.4602 96.9016 86.1807 95.8233C86.9012 94.745 87.9253 93.9046 89.1234 93.4083C90.3215 92.912 91.6399 92.7822 92.9118 93.0352C94.1838 93.2882 95.3521 93.9127 96.2691 94.8297C97.1861 95.7467 97.8106 96.915 98.0636 98.1869C98.3166 99.4589 98.1868 100.777 97.6905 101.975C97.1942 103.174 96.3538 104.198 95.2755 104.918C94.1972 105.639 92.9295 106.023 91.6326 106.023C89.8936 106.023 88.2258 105.332 86.9962 104.103C85.7665 102.873 85.0757 101.205 85.0757 99.4661Z" fill="#F77F89"/>
<path d="M73.4821 275.226C66.1037 278.315 60.565 272.811 60.5207 267.356C60.4764 261.901 62.6358 229.352 62.931 226.105" stroke="#C9C9C9" stroke-width="2" stroke-linecap="round" stroke-linejoin="round"/>
<path d="M150.872 154.613C151.256 143.476 139.529 138.38 134.704 136.196" stroke="#C9C9C9" stroke-width="2" stroke-linecap="round" stroke-linejoin="round"/>
<path d="M234.271 40.0364L212.218 37.2565C211.218 28.9421 212.728 20.8251 215.307 12.7529L237.36 15.5328C234.032 23.4519 233.055 31.6255 234.271 40.0364Z" fill="#F2F2F2"/>
<path d="M231.865 17.3853L218.388 15.6865L218.205 17.1345L231.682 18.8333L231.865 17.3853Z" fill="#403B3B"/>
<path opacity="0.3" d="M233.538 21.1609L215.272 18.8584L215.181 19.5824L233.447 21.8849L233.538 21.1609Z" fill="#6C63FF"/>
<path opacity="0.3" d="M233.244 23.4998L214.978 21.1973L214.886 21.9212L233.153 24.2238L233.244 23.4998Z" fill="#6C63FF"/>
<path opacity="0.3" d="M232.949 25.8387L214.683 23.5361L214.591 24.2601L232.858 26.5626L232.949 25.8387Z" fill="#6C63FF"/>
<path opacity="0.3" d="M232.654 28.1775L214.388 25.875L214.296 26.599L232.563 28.9015L232.654 28.1775Z" fill="#6C63FF"/>
<path opacity="0.3" d="M232.36 30.5164L214.093 28.2139L214.002 28.9378L232.268 31.2404L232.36 30.5164Z" fill="#6C63FF"/>
<path opacity="0.3" d="M232.065 32.8553L213.798 30.5527L213.707 31.2767L231.973 33.5792L232.065 32.8553Z" fill="#6C63FF"/>
<path opacity="0.3" d="M231.77 35.1941L213.503 32.8916L213.412 33.6156L231.678 35.9181L231.77 35.1941Z" fill="#6C63FF"/>
<path d="M223.827 31.8446L203.195 23.5749C204.332 15.2782 207.847 7.80746 212.384 0.650391L233.016 8.92007C227.793 15.7394 224.779 23.3998 223.827 31.8446Z" fill="#E6E6E6"/>
<path d="M227.231 9.32225L214.623 4.26855L214.08 5.62319L226.688 10.6769L227.231 9.32225Z" fill="#403B3B"/>
<path opacity="0.3" d="M227.895 13.3985L210.806 6.54883L210.535 7.22614L227.624 14.0758L227.895 13.3985Z" fill="#6C63FF"/>
<path opacity="0.3" d="M227.018 15.5869L209.929 8.7373L209.657 9.41462L226.746 16.2643L227.018 15.5869Z" fill="#6C63FF"/>
<path opacity="0.3" d="M226.141 17.7754L209.052 10.9258L208.781 11.6031L225.87 18.4527L226.141 17.7754Z" fill="#6C63FF"/>
<path opacity="0.3" d="M225.264 19.9629L208.175 13.1133L207.903 13.7906L224.993 20.6402L225.264 19.9629Z" fill="#6C63FF"/>
<path opacity="0.3" d="M224.387 22.1514L207.297 15.3018L207.026 15.9791L224.115 22.8287L224.387 22.1514Z" fill="#6C63FF"/>
<path opacity="0.3" d="M223.51 24.3399L206.42 17.4902L206.149 18.1676L223.238 25.0172L223.51 24.3399Z" fill="#6C63FF"/>
<path opacity="0.3" d="M222.633 26.5283L205.544 19.6787L205.272 20.356L222.362 27.2057L222.633 26.5283Z" fill="#6C63FF"/>
<path d="M218.725 33.8361H196.497C194.465 25.7121 194.949 17.4699 196.497 9.13867H218.725C216.413 17.4118 216.467 25.6434 218.725 33.8361Z" fill="#F2F2F2"/>
<path d="M213.505 11.6641H199.922V13.1235H213.505V11.6641Z" fill="#403B3B"/>
<path opacity="0.3" d="M215.638 15.2012H197.228V15.9309H215.638V15.2012Z" fill="#6C63FF"/>
<path opacity="0.3" d="M215.638 17.5586H197.228V18.2883H215.638V17.5586Z" fill="#6C63FF"/>
<path opacity="0.3" d="M215.638 19.916H197.228V20.6457H215.638V19.916Z" fill="#6C63FF"/>
<path opacity="0.3" d="M215.638 22.2734H197.228V23.0031H215.638V22.2734Z" fill="#6C63FF"/>
<path opacity="0.3" d="M215.638 24.6309H197.228V25.3606H215.638V24.6309Z" fill="#6C63FF"/>
<path opacity="0.3" d="M215.638 26.9883H197.228V27.718H215.638V26.9883Z" fill="#6C63FF"/>
<path opacity="0.3" d="M215.638 29.3457H197.228V30.0754H215.638V29.3457Z" fill="#6C63FF"/>
<path d="M203.743 28.9064L196.085 22.9531C196.008 22.8198 195.898 22.7091 195.765 22.6321C195.632 22.5552 195.481 22.5146 195.327 22.5146H191.194C190.962 22.5146 190.74 22.6067 190.576 22.7707C190.412 22.9346 190.32 23.157 190.32 23.3888V59.8674C190.32 60.6194 190.619 61.3406 191.15 61.8724C191.682 62.4041 192.403 62.7028 193.155 62.7028H235.582C235.955 62.7028 236.323 62.6295 236.667 62.487C237.011 62.3445 237.324 62.1357 237.587 61.8724C237.851 61.6091 238.059 61.2965 238.202 60.9525C238.344 60.6085 238.418 60.2398 238.418 59.8674V31.4836C238.418 30.8001 238.146 30.1445 237.663 29.6612C237.18 29.1779 236.524 28.9064 235.841 28.9064H203.743Z" fill="#73A9C3"/>
<path d="M236.975 37.3662H229.279V40.0597H236.975V37.3662Z" fill="#6C63FF"/>
<path d="M339.855 45.9053H305.423V65.0892H339.855V45.9053Z" fill="#0047AB"/>
<path d="M409.213 31.6396H375.272V50.8235H409.213V31.6396Z" fill="#0047AB"/>
<path d="M398.883 80.8291H364.942V99.5211H398.883V80.8291Z" fill="#0047AB"/>
<path d="M385.602 19.835H352.153V39.0189H385.602V19.835Z" fill="#E5E5E5"/>
<path d="M387.077 54.7588H331.493V86.2401H387.077V54.7588Z" fill="#73A9C3"/>
<line x1="333.969" y1="86.7324" x2="333.969" y2="125.592" stroke="#C4C4C4" stroke-width="2"/>
<line x1="237.558" y1="63.6133" x2="237.558" y2="102.473" stroke="#C4C4C4" stroke-width="2"/>
<line x1="333.461" y1="125.608" x2="300.996" y2="125.608" stroke="#C4C4C4" stroke-width="2"/>
<line x1="269.022" y1="102.489" x2="236.557" y2="102.489" stroke="#C4C4C4" stroke-width="2"/>
<path d="M333.215 89.6836C336.067 89.6836 338.38 87.4813 338.38 84.7646C338.38 82.048 336.067 79.8457 333.215 79.8457C330.362 79.8457 328.05 82.048 328.05 84.7646C328.05 87.4813 330.362 89.6836 333.215 89.6836Z" fill="#C4C4C4"/>
<path d="M236.804 66.5645C239.656 66.5645 241.968 64.3622 241.968 61.6455C241.968 58.9288 239.656 56.7266 236.804 56.7266C233.951 56.7266 231.639 58.9288 231.639 61.6455C231.639 64.3622 233.951 66.5645 236.804 66.5645Z" fill="#C4C4C4"/>
<path fill-rule="evenodd" clip-rule="evenodd" d="M386.307 362.92L382.888 373.742L368.703 370.557L370.094 356.795L386.307 362.92Z" fill="#FF3274"/>
<path fill-rule="evenodd" clip-rule="evenodd" d="M433.619 349.724L438.212 359.925L425.499 365.28L419.84 354.968L433.619 349.724Z" fill="#FF3274"/>
<path fill-rule="evenodd" clip-rule="evenodd" d="M438.505 358.983L425.066 364.705C425.066 364.705 408.316 380.136 400.587 383.897C400.61 387.323 401.058 388.914 403.737 389.892C404.934 390.328 426.584 381.806 426.584 381.806L430.215 377.976L444.221 371.642L438.505 358.983Z" fill="#6A3416"/>
<path d="M430.389 356.294C430.389 355.962 430.288 355.636 430.1 355.359C429.912 355.083 429.645 354.867 429.332 354.739C429.019 354.612 428.675 354.579 428.343 354.644C428.011 354.709 427.706 354.869 427.466 355.104C427.227 355.34 427.064 355.64 426.998 355.966C426.932 356.293 426.966 356.631 427.095 356.939C427.225 357.246 427.444 357.509 427.726 357.694C428.007 357.879 428.338 357.978 428.677 357.978C428.902 357.978 429.125 357.935 429.333 357.851C429.541 357.766 429.73 357.642 429.889 357.486C430.048 357.33 430.174 357.144 430.26 356.939C430.345 356.735 430.389 356.516 430.389 356.294V356.294Z" stroke="white" stroke-width="2" stroke-linecap="round" stroke-linejoin="round"/>
<path d="M436.863 358.487C436.863 358.153 436.762 357.826 436.574 357.548C436.385 357.271 436.116 357.054 435.803 356.927C435.489 356.799 435.143 356.766 434.81 356.832C434.477 356.897 434.171 357.058 433.931 357.295C433.691 357.531 433.528 357.832 433.463 358.16C433.397 358.488 433.432 358.827 433.562 359.136C433.693 359.444 433.914 359.707 434.197 359.892C434.479 360.077 434.812 360.175 435.151 360.174C435.606 360.173 436.041 359.995 436.362 359.678C436.683 359.362 436.863 358.933 436.863 358.487V358.487Z" stroke="white" stroke-width="2" stroke-linecap="round" stroke-linejoin="round"/>
<path d="M427.989 361.45C427.989 361.117 427.889 360.791 427.701 360.515C427.513 360.238 427.245 360.022 426.933 359.895C426.62 359.767 426.276 359.734 425.944 359.799C425.611 359.864 425.306 360.024 425.067 360.26C424.828 360.495 424.665 360.795 424.599 361.121C424.533 361.448 424.566 361.786 424.696 362.094C424.826 362.401 425.045 362.664 425.326 362.849C425.608 363.034 425.939 363.133 426.277 363.133C426.731 363.133 427.167 362.956 427.488 362.64C427.809 362.324 427.989 361.896 427.989 361.45Z" stroke="white" stroke-width="2" stroke-linecap="round" stroke-linejoin="round"/>
<path fill-rule="evenodd" clip-rule="evenodd" d="M445.276 369.208L431.567 375.203C431.211 375.356 430.931 375.641 430.788 375.996C430.645 376.352 430.65 376.748 430.803 377.1L432.001 379.747C432.081 379.919 432.195 380.074 432.337 380.202C432.478 380.331 432.643 380.431 432.824 380.496C433.004 380.562 433.196 380.591 433.388 380.584C433.581 380.576 433.77 380.531 433.944 380.452L447.662 374.457C447.839 374.382 447.999 374.274 448.133 374.138C448.267 374.002 448.372 373.842 448.443 373.667C448.514 373.491 448.549 373.303 448.546 373.114C448.543 372.925 448.502 372.738 448.426 372.565L447.233 369.917C447.152 369.744 447.037 369.588 446.895 369.459C446.753 369.329 446.586 369.228 446.404 369.163C446.222 369.097 446.029 369.067 445.836 369.074C445.642 369.082 445.452 369.127 445.276 369.208Z" fill="#3C1B09"/>
<path fill-rule="evenodd" clip-rule="evenodd" d="M468.464 252.101C437.241 243.454 392.452 248.243 382.789 261.435C379.338 266.146 380.507 273.518 381.375 276.296C382.242 279.073 418.779 356.15 418.779 356.15L435.162 350.025L419.062 287.429C419.062 287.429 472.345 253.168 468.464 252.101Z" fill="#C4C4C4"/>
<path d="M429.361 352.191L410.503 292.441" stroke="#8D8D8D" stroke-width="2" stroke-linecap="round" stroke-linejoin="round"/>
<path d="M433.516 343.599L415.936 350.09" stroke="#8D8D8D" stroke-width="2" stroke-linecap="round" stroke-linejoin="round"/>
<path fill-rule="evenodd" clip-rule="evenodd" d="M383.171 372.746L369.09 368.795C369.09 368.795 346.186 370.293 337.783 368.383C335.59 371.049 334.897 372.556 336.368 374.986C337.014 376.066 359.253 382.97 359.253 382.97L364.53 382.27L379.427 386.104L383.171 372.746Z" fill="#6A3416"/>
<path fill-rule="evenodd" clip-rule="evenodd" d="M381.818 384.879L367.35 380.971C367.165 380.918 366.972 380.902 366.781 380.923C366.59 380.944 366.405 381.002 366.237 381.093C366.069 381.184 365.921 381.307 365.801 381.455C365.681 381.603 365.592 381.772 365.539 381.954L364.756 384.736C364.707 384.919 364.695 385.109 364.722 385.297C364.748 385.484 364.811 385.665 364.909 385.828C365.006 385.991 365.135 386.134 365.288 386.248C365.442 386.362 365.617 386.446 365.803 386.493L380.271 390.402C380.455 390.454 380.649 390.47 380.84 390.449C381.03 390.428 381.215 390.371 381.383 390.279C381.552 390.188 381.7 390.065 381.82 389.917C381.939 389.77 382.028 389.6 382.082 389.419L382.864 386.637C382.913 386.454 382.925 386.263 382.899 386.076C382.873 385.888 382.809 385.708 382.712 385.544C382.615 385.381 382.486 385.238 382.332 385.124C382.179 385.01 382.004 384.927 381.818 384.879Z" fill="#3C1B09"/>
<path d="M376.88 367.899C376.881 367.565 376.781 367.238 376.593 366.96C376.405 366.682 376.137 366.465 375.823 366.336C375.509 366.208 375.164 366.174 374.83 366.239C374.497 366.304 374.19 366.465 373.95 366.701C373.71 366.938 373.546 367.239 373.48 367.567C373.414 367.895 373.448 368.234 373.579 368.543C373.709 368.851 373.93 369.115 374.213 369.3C374.496 369.485 374.829 369.583 375.169 369.583C375.623 369.583 376.058 369.405 376.379 369.09C376.7 368.774 376.88 368.346 376.88 367.899Z" stroke="white" stroke-width="2" stroke-linecap="round" stroke-linejoin="round"/>
<path d="M373.811 362.456C373.811 362.122 373.711 361.795 373.523 361.517C373.335 361.238 373.067 361.021 372.753 360.893C372.439 360.765 372.094 360.731 371.76 360.796C371.427 360.861 371.121 361.022 370.88 361.258C370.64 361.494 370.476 361.795 370.41 362.123C370.344 362.451 370.379 362.791 370.509 363.099C370.64 363.408 370.86 363.672 371.143 363.857C371.426 364.042 371.759 364.14 372.099 364.139C372.552 364.138 372.987 363.96 373.308 363.645C373.629 363.33 373.809 362.902 373.811 362.456V362.456Z" stroke="white" stroke-width="2" stroke-linecap="round" stroke-linejoin="round"/>
<path d="M383.171 366.699C383.171 366.366 383.071 366.04 382.883 365.764C382.695 365.487 382.427 365.271 382.115 365.144C381.802 365.016 381.458 364.983 381.126 365.048C380.794 365.113 380.489 365.273 380.249 365.509C380.01 365.744 379.847 366.044 379.781 366.37C379.715 366.697 379.749 367.035 379.878 367.343C380.008 367.65 380.227 367.913 380.509 368.098C380.79 368.283 381.121 368.382 381.46 368.382C381.914 368.382 382.349 368.205 382.67 367.889C382.991 367.573 383.171 367.145 383.171 366.699Z" stroke="white" stroke-width="2" stroke-linecap="round" stroke-linejoin="round"/>
<path fill-rule="evenodd" clip-rule="evenodd" d="M494.051 289.951H422.467C420.012 289.951 417.658 290.91 415.922 292.617C414.186 294.324 413.21 296.639 413.21 299.053C413.21 301.467 414.186 303.782 415.922 305.489C417.658 307.196 420.012 308.155 422.467 308.155H494.051C496.506 308.155 498.861 307.196 500.597 305.489C502.333 303.782 503.308 301.467 503.308 299.053V299.053C503.308 296.639 502.333 294.324 500.597 292.617C498.861 290.91 496.506 289.951 494.051 289.951Z" fill="#73A9C3"/>
<path fill-rule="evenodd" clip-rule="evenodd" d="M461.258 301.938H455.26C454.784 301.938 454.328 302.123 453.992 302.454C453.656 302.784 453.468 303.232 453.468 303.699V368.892C453.468 369.36 453.656 369.808 453.992 370.138C454.328 370.469 454.784 370.654 455.26 370.654H461.258C461.733 370.654 462.189 370.469 462.525 370.138C462.861 369.808 463.05 369.36 463.05 368.892V303.699C463.05 303.232 462.861 302.784 462.525 302.454C462.189 302.123 461.733 301.938 461.258 301.938Z" fill="#73A9C3"/>
<path fill-rule="evenodd" clip-rule="evenodd" d="M463.672 349.724H452.826C452.043 349.724 451.293 350.03 450.739 350.574C450.185 351.118 449.874 351.857 449.874 352.626V368.364C449.874 368.747 449.951 369.126 450.101 369.48C450.251 369.833 450.471 370.154 450.747 370.424C451.024 370.694 451.352 370.907 451.713 371.052C452.074 371.196 452.46 371.269 452.85 371.266H463.696C464.479 371.266 465.23 370.96 465.783 370.416C466.337 369.872 466.648 369.133 466.648 368.364V352.626C466.648 352.243 466.571 351.864 466.421 351.51C466.271 351.157 466.052 350.835 465.775 350.566C465.498 350.296 465.17 350.082 464.809 349.938C464.448 349.793 464.062 349.721 463.672 349.724Z" fill="#73A9C3"/>
<path d="M494.197 382.474V379.399C494.197 377.242 493.325 375.174 491.774 373.649C490.223 372.123 488.119 371.267 485.925 371.267H458.259" stroke="#73A9C3" stroke-width="2" stroke-linecap="round" stroke-linejoin="round"/>
<path d="M422.401 382.474V379.399C422.401 378.33 422.616 377.272 423.033 376.285C423.45 375.297 424.06 374.4 424.83 373.645C425.599 372.89 426.513 372.291 427.517 371.883C428.522 371.475 429.599 371.265 430.686 371.267H458.344" stroke="#73A9C3" stroke-width="2" stroke-linecap="round" stroke-linejoin="round"/>
<path d="M471.816 382.474V378.764C471.816 374.624 469.623 371.267 466.921 371.267H449.596C446.894 371.267 444.701 374.624 444.701 378.764V382.474" stroke="#73A9C3" stroke-width="2" stroke-linecap="round" stroke-linejoin="round"/>
<path d="M498.729 386.933C498.729 386.052 498.463 385.191 497.965 384.458C497.467 383.725 496.76 383.154 495.931 382.817C495.103 382.479 494.192 382.391 493.313 382.563C492.434 382.735 491.627 383.159 490.993 383.783C490.359 384.406 489.927 385.2 489.753 386.064C489.578 386.929 489.667 387.824 490.01 388.639C490.353 389.453 490.934 390.149 491.68 390.638C492.425 391.128 493.301 391.389 494.197 391.389C495.399 391.388 496.551 390.918 497.4 390.083C498.25 389.248 498.728 388.115 498.729 386.933V386.933Z" stroke="#73A9C3" stroke-width="2" stroke-linecap="round" stroke-linejoin="round"/>
<path d="M476.348 386.933C476.348 386.052 476.082 385.191 475.584 384.458C475.086 383.725 474.379 383.154 473.551 382.817C472.723 382.479 471.811 382.391 470.932 382.563C470.053 382.735 469.246 383.159 468.612 383.783C467.978 384.406 467.547 385.2 467.372 386.064C467.197 386.929 467.287 387.824 467.63 388.639C467.973 389.453 468.553 390.149 469.299 390.638C470.044 391.128 470.92 391.389 471.816 391.389C473.018 391.388 474.17 390.918 475.019 390.083C475.869 389.248 476.347 388.115 476.348 386.933V386.933Z" stroke="#73A9C3" stroke-width="2" stroke-linecap="round" stroke-linejoin="round"/>
<path d="M444.701 382.474C443.804 382.473 442.926 382.734 442.18 383.223C441.433 383.713 440.851 384.409 440.507 385.224C440.163 386.039 440.072 386.936 440.247 387.802C440.421 388.667 440.853 389.462 441.487 390.087C442.121 390.711 442.93 391.136 443.81 391.309C444.69 391.481 445.602 391.393 446.431 391.056C447.261 390.718 447.969 390.146 448.468 389.413C448.967 388.679 449.233 387.817 449.233 386.934C449.233 385.752 448.756 384.618 447.906 383.782C447.056 382.945 445.903 382.475 444.701 382.474" stroke="#73A9C3" stroke-width="2" stroke-linecap="round" stroke-linejoin="round"/>
<path d="M426.914 386.933C426.914 386.052 426.648 385.191 426.15 384.458C425.652 383.725 424.945 383.154 424.117 382.817C423.288 382.479 422.377 382.391 421.498 382.563C420.619 382.735 419.812 383.159 419.178 383.783C418.544 384.406 418.112 385.2 417.938 386.064C417.763 386.929 417.852 387.824 418.195 388.639C418.538 389.453 419.119 390.149 419.865 390.638C420.61 391.128 421.486 391.389 422.382 391.389C423.584 391.388 424.736 390.918 425.585 390.083C426.435 389.248 426.913 388.115 426.914 386.933V386.933Z" stroke="#73A9C3" stroke-width="2" stroke-linecap="round" stroke-linejoin="round"/>
<path fill-rule="evenodd" clip-rule="evenodd" d="M491.368 233.958C519.931 292.622 462.281 294.203 442.051 293.911C421.821 293.619 416.497 292.121 411.022 290.819C409.273 296.03 388.302 363.523 388.302 363.523L369.887 358.052C369.887 358.052 383.963 272.309 387.142 266.517C395.871 250.595 447.503 249.732 454.034 250.117C460.565 250.502 487.746 226.521 491.368 233.958Z" fill="#C4C4C4"/>
<path d="M489.584 241.975C509.15 289.988 425.239 287.095 406.886 281.596C404.141 289.316 381.421 361.074 381.421 361.074" stroke="#8D8D8D" stroke-width="2" stroke-linecap="round" stroke-linejoin="round"/>
<path d="M383.477 281.683C389.381 280.489 394.701 277.368 398.575 272.827C402.448 268.287 404.647 262.592 404.816 256.668" stroke="#8D8D8D" stroke-width="2" stroke-linecap="round" stroke-linejoin="round"/>
<path d="M419.808 292.58C416.849 292.152 413.916 291.564 411.022 290.818C410.296 292.979 406.264 305.855 401.798 320.183" stroke="#8D8D8D" stroke-width="2" stroke-linecap="round" stroke-linejoin="round"/>
<path d="M383.615 280.747C385.152 273.203 386.444 267.824 387.142 266.517C395.347 251.558 441.448 249.889 452.383 250.065" stroke="#8D8D8D" stroke-width="2" stroke-linecap="round" stroke-linejoin="round"/>
<path d="M370.769 352.747L389.886 358.427" stroke="#8D8D8D" stroke-width="2" stroke-linecap="round" stroke-linejoin="round"/>
<path fill-rule="evenodd" clip-rule="evenodd" d="M519.753 258.252C520.695 261.195 523.749 267.317 520.843 278.273C526.349 286.244 523.779 291.858 511.168 293.267C509.046 290.841 506.915 289.247 504.551 285.749C503.782 282.598 503.851 277.76 503.782 276.448C503.648 273.796 509.401 262.064 508.37 257.351C507.339 252.638 518.805 255.304 519.753 258.252Z" fill="#F77F89"/>
<path d="M521.699 289.559C520.289 288.275 519.025 286.878 517.926 285.386" stroke="#CB5D66" stroke-width="2" stroke-linecap="round" stroke-linejoin="round"/>
<path d="M516.04 292.34C513.985 290.54 510.98 286.738 509.438 284.458" stroke="#CB5D66" stroke-width="2" stroke-linecap="round" stroke-linejoin="round"/>
<path fill-rule="evenodd" clip-rule="evenodd" d="M415.549 246.726C412.937 248.725 410.227 251.099 406.746 252.342C401.542 253.529 392.018 263.392 392.018 265.516C392.018 267.528 393.918 268.205 395.101 268.298C396.122 268.358 398.297 266.128 398.847 265.493C397.9 267.533 397.374 270.297 398.4 271.164C399.426 272.031 400.963 272.332 401.989 271.21C403.688 269.355 403.27 267.25 403.428 266.017C404.262 264.51 406.535 261.157 407.497 260.749C408.17 260.781 409.181 261.004 409.373 262.02C409.564 263.035 407.065 265.303 406.786 266.249C406.786 267.45 408.17 268.975 409.373 268.674C410.738 268.331 414.96 264.459 415.893 263.401C417.149 261.978 417.719 258.871 418.392 257.837C419.064 256.803 421.676 254.591 422.162 254.127C422.648 253.663 418.156 244.732 415.549 246.726Z" fill="#F77F89"/>
<path d="M408.995 260.987C405.822 258.607 400.871 263.481 398.62 265.447" stroke="#CB5D66" stroke-width="2" stroke-linecap="round" stroke-linejoin="round"/>
<path fill-rule="evenodd" clip-rule="evenodd" d="M456.109 167.201C446.04 176.304 441.108 199.099 438.429 213.772C429.596 221.991 411.809 240.192 411.824 244.56C411.838 248.929 420.519 256.224 422.729 256.173C424.938 256.122 445.507 234.834 448.703 232.347C451.9 229.86 458.509 165.024 456.109 167.201Z" fill="#F7D167"/>
<path fill-rule="evenodd" clip-rule="evenodd" d="M452.264 129.565C450.908 128.412 448.606 127.968 448.606 121.623C448.606 114.866 457.127 108.725 467.978 108.725C485.019 108.725 489.97 122.859 490.558 127.856C491.145 132.854 490.22 144.677 491.405 149.48C493.785 159.308 503.779 166.894 503.779 183.316C503.779 188.309 480.881 183.983 476.783 183.404C472.684 182.825 467.9 157.117 467.9 157.117C467.9 157.117 453.62 130.719 452.264 129.565Z" fill="black"/>
<path fill-rule="evenodd" clip-rule="evenodd" d="M478.286 144.651C477.473 147.811 477.356 161.328 477.96 165.838C475.197 167.746 464.915 167.526 462.771 165.458C463.419 159.889 463.419 154.933 462.771 152.523C462.123 150.113 479.1 141.491 478.286 144.651Z" fill="#F77F89"/>
<path fill-rule="evenodd" clip-rule="evenodd" d="M447.663 134.925C447.663 124.296 455.895 115.68 466.054 115.68C476.213 115.68 484.445 124.296 484.445 134.925C484.445 145.553 476.213 154.165 466.054 154.165C455.895 154.165 447.663 145.549 447.663 134.925Z" fill="#F77F89"/>
<path fill-rule="evenodd" clip-rule="evenodd" d="M469.827 153.294C469.556 149.989 466.669 142.809 465.164 141.953C463.659 141.096 451.845 139.782 447.88 134.227C445.864 135.796 444.211 138.712 444.373 139.319C444.708 140.573 447.87 142.698 447.87 142.698C447.87 142.698 448.584 150.744 454.756 154.331C459.218 156.933 468.046 154.808 469.827 153.294Z" fill="white"/>
<path d="M464.639 143.036C466.672 139.742 472.117 135.431 475.014 134.227" stroke="white" stroke-width="2" stroke-linecap="round" stroke-linejoin="round"/>
<path d="M467.469 147.862C467.469 147.862 478.831 149.476 480.673 144.892" stroke="white" stroke-width="2" stroke-linecap="round" stroke-linejoin="round"/>
<path fill-rule="evenodd" clip-rule="evenodd" d="M456.007 116.776C458.405 118.838 459.465 123.987 461.658 126.572C465.214 130.77 472.053 131.483 474.157 137.02C476.262 142.557 487.275 138.084 487.275 138.084L485.862 124.92L477.704 116.809L465.018 113.361C465.018 113.361 453.627 114.709 456.007 116.776Z" fill="black"/>
<path fill-rule="evenodd" clip-rule="evenodd" d="M471.241 139.791C471.241 138.507 471.642 137.252 472.393 136.185C473.144 135.117 474.212 134.285 475.462 133.794C476.711 133.303 478.086 133.174 479.412 133.425C480.739 133.675 481.957 134.293 482.913 135.201C483.87 136.109 484.521 137.266 484.785 138.525C485.049 139.784 484.913 141.089 484.396 142.275C483.878 143.462 483.002 144.475 481.877 145.189C480.753 145.902 479.431 146.283 478.078 146.283C476.265 146.282 474.527 145.597 473.245 144.38C471.963 143.163 471.242 141.513 471.241 139.791Z" fill="#F77F89"/>
<path fill-rule="evenodd" clip-rule="evenodd" d="M455.68 133.532C455.68 132.122 456.313 130.981 457.092 130.981C457.87 130.981 458.509 132.122 458.509 133.532C458.509 134.941 457.875 136.082 457.092 136.082C456.308 136.082 455.68 134.941 455.68 133.532Z" fill="#CB5D66"/>
<path fill-rule="evenodd" clip-rule="evenodd" d="M470.458 158.338C500.415 158.338 521.287 212.262 523.459 220.441C525.632 228.621 523.949 258.444 523.171 260.711C520.201 261.263 509.472 259.396 507.241 258.123C505.284 255.021 504.564 231.505 503.767 229.373C503.205 227.579 502.214 225.932 500.87 224.561C501.741 230.887 500.797 246.419 500.22 248.686C499.642 250.952 453.144 250.845 449.616 249.443C447.405 248.565 445.844 247.65 445.531 245.532C445.042 242.034 446.539 239.721 446.133 236.8C445.727 233.878 444 233.428 443.476 228.672C442.933 223.693 446.47 217.06 445.311 212.146C439.185 186.15 453.873 158.338 470.458 158.338Z" fill="#F7D167"/>
<path fill-rule="evenodd" clip-rule="evenodd" d="M464.127 158.338H476.945C477.701 158.338 478.315 159.169 478.315 160.206V165.279C478.315 166.302 477.701 167.148 476.945 167.148H464.127C463.367 167.148 462.753 166.316 462.753 165.279V160.192C462.753 159.169 463.367 158.338 464.127 158.338Z" fill="#F7D167"/>
<path d="M446.248 259.419C446.248 259.419 463.15 262.24 473.599 260.924" stroke="#8D8D8D" stroke-width="2" stroke-linecap="round" stroke-linejoin="round"/>
<path d="M448.135 250.146C446.691 249.409 445.728 248.496 445.497 246.86C445.015 243.375 446.488 241.063 446.089 238.152C445.689 235.242 443.99 234.788 443.475 230.042C442.941 225.074 446.421 218.456 445.28 213.553C443.171 204.185 443.465 194.464 446.137 185.231" stroke="#FF3274" stroke-width="2" stroke-linecap="round" stroke-linejoin="round"/>
<path d="M427.857 252.464C426.061 251.508 416.856 243.684 414.653 239.481" stroke="#FF3274" stroke-width="2" stroke-linecap="round" stroke-linejoin="round"/>
<path d="M425.028 250.609L420.312 255.71" stroke="#FF3274" stroke-width="2" stroke-linecap="round" stroke-linejoin="round"/>
<path d="M422.198 248.291L417.482 253.391" stroke="#FF3274" stroke-width="2" stroke-linecap="round" stroke-linejoin="round"/>
<path d="M419.369 245.973L414.653 250.609" stroke="#FF3274" stroke-width="2" stroke-linecap="round" stroke-linejoin="round"/>
<path d="M417.011 242.727L412.295 247.363" stroke="#FF3274" stroke-width="2" stroke-linecap="round" stroke-linejoin="round"/>
<path d="M524.056 254.782L506.137 252.928" stroke="#FF3274" stroke-width="2" stroke-linecap="round" stroke-linejoin="round"/>
<path d="M521.227 254.318L520.756 262.201" stroke="#FF3274" stroke-width="2" stroke-linecap="round" stroke-linejoin="round"/>
<path d="M516.512 253.855L516.04 261.738" stroke="#FF3274" stroke-width="2" stroke-linecap="round" stroke-linejoin="round"/>
<path d="M512.268 253.392L511.325 260.81" stroke="#FF3274" stroke-width="2" stroke-linecap="round" stroke-linejoin="round"/>
<path d="M525 234.845C522.268 234.842 519.621 233.95 517.512 232.32C515.402 230.689 513.961 228.422 513.433 225.905C512.905 223.388 513.324 220.777 514.618 218.517C515.912 216.258 518.001 214.49 520.529 213.516" stroke="#FF3274" stroke-width="2" stroke-linecap="round" stroke-linejoin="round"/>
<path d="M500.95 226.035C499.348 223.54 480.697 195.608 479.729 194.505" stroke="#FF3274" stroke-width="2" stroke-linecap="round" stroke-linejoin="round"/>
<path d="M475.485 194.505H479.729" stroke="#FF3274" stroke-width="2" stroke-linecap="round" stroke-linejoin="round"/>
<path d="M475.957 199.142L479.73 194.505" stroke="#FF3274" stroke-width="2" stroke-linecap="round" stroke-linejoin="round"/>
<path d="M479.258 201.46L479.729 194.505" stroke="#FF3274" stroke-width="2" stroke-linecap="round" stroke-linejoin="round"/>
<path d="M454.736 238.09L467.94 232.062" stroke="#FF3274" stroke-width="2" stroke-linecap="round" stroke-linejoin="round"/>
<path d="M467.469 230.208L450.021 233.454" stroke="#FF3274" stroke-width="2" stroke-linecap="round" stroke-linejoin="round"/>
<path d="M452.378 231.135L466.997 222.325" stroke="#FF3274" stroke-width="2" stroke-linecap="round" stroke-linejoin="round"/>
<path d="M470.745 167.148H464.115C463.361 167.148 462.753 166.315 462.753 165.276V160.209C462.753 159.185 463.361 158.338 464.115 158.338H476.815C477.029 158.35 477.237 158.416 477.417 158.529C477.597 158.642 477.744 158.799 477.843 158.984" stroke="#FF3274" stroke-width="2" stroke-linecap="round" stroke-linejoin="round"/>
<path d="M466.054 158.338V167.148" stroke="#FF3274" stroke-width="2" stroke-linecap="round" stroke-linejoin="round"/>
<path d="M469.827 158.338V162.621V167.148" stroke="#FF3274" stroke-width="2" stroke-linecap="round" stroke-linejoin="round"/>
<path d="M474.071 158.338V162.621V167.148" stroke="#FF3274" stroke-width="2" stroke-linecap="round" stroke-linejoin="round"/>
<path d="M447.826 134.227C445.84 135.797 444.213 138.716 444.373 139.323C444.702 140.578 447.816 142.705 447.816 142.705C447.816 142.705 448.518 150.757 454.595 154.347C456.73 155.607 459.877 155.737 462.753 155.389" stroke="#C9C9C9" stroke-width="2" stroke-linecap="round" stroke-linejoin="round"/>
<defs>
<filter id="filter0_f" x="0" y="357" width="580" height="76" filterUnits="userSpaceOnUse" color-interpolation-filters="sRGB">
<feFlood flood-opacity="0" result="BackgroundImageFix"/>
<feBlend mode="normal" in="SourceGraphic" in2="BackgroundImageFix" result="shape"/>
<feGaussianBlur stdDeviation="10" result="effect1_foregroundBlur"/>
</filter>
</defs>
</svg>
