<svg width="142" height="143" viewBox="0 0 142 143" fill="none" xmlns="http://www.w3.org/2000/svg">
<rect y="0.990234" width="142" height="142" rx="25" fill="#E2F0FE"/>
<path d="M104.29 84.4746H107.064V87.2488H104.29V84.4746Z" fill="#0047AB"/>
<path d="M98.7422 84.4746H101.516V87.2488H98.7422V84.4746Z" fill="#0047AB"/>
<path d="M93.1934 84.4746H95.9676V87.2488H93.1934V84.4746Z" fill="#0047AB"/>
<path d="M100.129 98.3451C100.896 98.3451 101.516 97.725 101.516 96.958V92.7967H107.065C110.889 92.7967 114 89.6854 114 85.8612V35.9257C114 32.1015 110.889 28.9902 107.065 28.9902H34.9355C31.1113 28.9902 28 32.1015 28 35.9257V85.8612C28 89.6854 31.1113 92.7967 34.9355 92.7967H58.5161V103.893H57.129C54.8348 103.893 52.9677 105.76 52.9677 108.055V113.603C52.9677 114.37 53.5878 114.99 54.3548 114.99H87.6452C88.4122 114.99 89.0323 114.37 89.0323 113.603V108.055C89.0323 105.76 87.1652 103.893 84.871 103.893H83.4839V92.7967H93.1936V96.958C93.1936 97.725 93.8136 98.3451 94.5806 98.3451H95.9677V108.055C95.9677 111.879 99.079 114.99 102.903 114.99H114V112.216H102.903C100.609 112.216 98.7419 110.349 98.7419 108.055V98.3451H100.129ZM34.9355 31.7644H107.065C109.359 31.7644 111.226 33.6315 111.226 35.9257V78.9257H100.129V70.6031H101.516C102.283 70.6031 102.903 69.9817 102.903 69.216V63.6677C102.903 62.902 102.283 62.2806 101.516 62.2806H87.6452C86.8781 62.2806 86.2581 62.902 86.2581 63.6677V69.216C86.2581 69.9817 86.8781 70.6031 87.6452 70.6031H89.0323V78.9257H80.7097V70.6031H82.0968C82.8638 70.6031 83.4839 69.9817 83.4839 69.216V63.6677C83.4839 62.902 82.8638 62.2806 82.0968 62.2806H68.2258C67.4587 62.2806 66.8387 62.902 66.8387 63.6677V69.216C66.8387 69.9817 67.4587 70.6031 68.2258 70.6031H69.6129V78.9257H30.7742V35.9257C30.7742 33.6315 32.6412 31.7644 34.9355 31.7644ZM89.0323 67.8289V65.0547H100.129V67.8289H89.0323ZM97.3548 70.6031V78.9257H91.8064V70.6031H97.3548ZM69.6129 67.8289V65.0547H80.7097V67.8289H69.6129ZM77.9355 70.6031V78.9257H72.3871V70.6031H77.9355ZM30.7742 85.8612V81.6999H111.226V85.8612C111.226 88.1555 109.359 90.0225 107.065 90.0225H34.9355C32.6412 90.0225 30.7742 88.1555 30.7742 85.8612ZM86.2581 108.055V112.216H55.7419V108.055C55.7419 107.289 56.3634 106.668 57.129 106.668H84.871C85.6366 106.668 86.2581 107.289 86.2581 108.055ZM80.7097 103.893H61.2903V92.7967H80.7097V103.893ZM98.7419 92.7967V95.5709H95.9677V92.7967H98.7419Z" fill="#0047AB"/>
<path d="M39.0967 59.5061C40.1537 59.5061 41.1316 59.194 41.9736 58.6793L51.9399 67.5387C51.7124 68.052 51.5806 68.6179 51.5806 69.2157C51.5806 71.51 53.4476 73.377 55.7419 73.377C58.0361 73.377 59.9032 71.51 59.9032 69.2157C59.9032 66.9215 58.0361 65.0544 55.7419 65.0544C55.0594 65.0544 54.4241 65.2348 53.854 65.5288L43.9002 56.6819C44.3608 55.8732 44.6451 54.9522 44.6451 53.9577C44.6451 52.9312 44.3469 51.9824 43.8586 51.1571L49.7968 45.219C50.3405 45.4783 50.9398 45.6351 51.5806 45.6351C53.8749 45.6351 55.7419 43.768 55.7419 41.4738C55.7419 39.1795 53.8749 37.3125 51.5806 37.3125C49.2863 37.3125 47.4193 39.1795 47.4193 41.4738C47.4193 42.1146 47.576 42.7139 47.8368 43.2562L41.8987 49.1944C41.072 48.7075 40.1232 48.4093 39.0967 48.4093C36.0368 48.4093 33.5483 50.8977 33.5483 53.9577C33.5483 57.0176 36.0368 59.5061 39.0967 59.5061ZM57.129 69.2157C57.129 69.98 56.5076 70.6028 55.7419 70.6028C54.9762 70.6028 54.3548 69.98 54.3548 69.2157C54.3548 68.4514 54.9762 67.8286 55.7419 67.8286C56.5076 67.8286 57.129 68.4514 57.129 69.2157ZM51.5806 40.0867C52.3463 40.0867 52.9677 40.7095 52.9677 41.4738C52.9677 42.2381 52.3463 42.8609 51.5806 42.8609C50.8149 42.8609 50.1935 42.2381 50.1935 41.4738C50.1935 40.7095 50.8149 40.0867 51.5806 40.0867ZM39.0967 51.1835C40.6267 51.1835 41.8709 52.4277 41.8709 53.9577C41.8709 55.4876 40.6267 56.7319 39.0967 56.7319C37.5668 56.7319 36.3225 55.4876 36.3225 53.9577C36.3225 52.4277 37.5668 51.1835 39.0967 51.1835Z" fill="#0047AB"/>
<path d="M62.6771 56.7319H107.064C107.831 56.7319 108.451 56.1104 108.451 55.3448V38.6996C108.451 37.9339 107.831 37.3125 107.064 37.3125H62.6771C61.9101 37.3125 61.29 37.9339 61.29 38.6996V55.3448C61.29 56.1104 61.9101 56.7319 62.6771 56.7319ZM64.0642 40.0867H105.677V53.9577H64.0642V40.0867Z" fill="#0047AB"/>
<path d="M66.8389 42.8613H102.903V45.6355H66.8389V42.8613Z" fill="#0047AB"/>
<path d="M66.8389 48.4102H102.903V51.1843H66.8389V48.4102Z" fill="#0047AB"/>
</svg>
