<svg width="142" height="143" viewBox="0 0 142 143" fill="none" xmlns="http://www.w3.org/2000/svg">
<rect y="0.990234" width="142" height="142" rx="25" fill="#E2F0FE"/>
<path d="M90.4844 30.334H51.5156C50.2687 30.3354 49.0732 30.8313 48.1915 31.713C47.3098 32.5947 46.8139 33.7902 46.8125 35.0371V108.943C46.8139 110.19 47.3098 111.386 48.1915 112.267C49.0732 113.149 50.2687 113.645 51.5156 113.646H90.4844C91.7313 113.645 92.9268 113.149 93.8085 112.267C94.6902 111.386 95.1861 110.19 95.1875 108.943V35.0371C95.1861 33.7902 94.6902 32.5947 93.8085 31.713C92.9268 30.8313 91.7313 30.3354 90.4844 30.334ZM77.3408 33.0215L76.6689 35.709H65.3311L64.6592 33.0215H77.3408ZM92.5 108.943C92.4996 109.478 92.2871 109.99 91.9091 110.368C91.5312 110.746 91.0188 110.959 90.4844 110.959H51.5156C50.9812 110.959 50.4688 110.746 50.0909 110.368C49.7129 109.99 49.5004 109.478 49.5 108.943V35.0371C49.5004 34.5027 49.7129 33.9902 50.0909 33.6123C50.4688 33.2344 50.9812 33.0219 51.5156 33.0215H61.8877L62.9778 37.3786C63.0505 37.6693 63.2182 37.9274 63.4544 38.1118C63.6906 38.2962 63.9816 38.3964 64.2812 38.3965H77.7188C78.0184 38.3964 78.3094 38.2962 78.5456 38.1118C78.7818 37.9274 78.9495 37.6693 79.0222 37.3786L80.1123 33.0215H90.4844C91.0188 33.0219 91.5312 33.2344 91.9091 33.6123C92.2871 33.9902 92.4996 34.5027 92.5 35.0371V108.943Z" fill="#0047AB"/>
<path d="M66.9688 58.5527V61.2402C66.9688 61.5966 67.1103 61.9384 67.3623 62.1904C67.6143 62.4424 67.9561 62.584 68.3125 62.584H73.6875C74.0439 62.584 74.3857 62.4424 74.6377 62.1904C74.8897 61.9384 75.0312 61.5966 75.0312 61.2402V58.5527H77.7188C78.0751 58.5527 78.4169 58.4112 78.6689 58.1592C78.9209 57.9072 79.0625 57.5654 79.0625 57.209V51.834C79.0625 51.4776 78.9209 51.1358 78.6689 50.8838C78.4169 50.6318 78.0751 50.4902 77.7188 50.4902H75.0312V47.8027C75.0312 47.4463 74.8897 47.1046 74.6377 46.8526C74.3857 46.6006 74.0439 46.459 73.6875 46.459H68.3125C67.9561 46.459 67.6143 46.6006 67.3623 46.8526C67.1103 47.1046 66.9688 47.4463 66.9688 47.8027V50.4902H64.2812C63.9249 50.4902 63.5831 50.6318 63.3311 50.8838C63.0791 51.1358 62.9375 51.4776 62.9375 51.834V57.209C62.9375 57.5654 63.0791 57.9072 63.3311 58.1592C63.5831 58.4112 63.9249 58.5527 64.2812 58.5527H66.9688ZM65.625 53.1777H68.3125C68.6689 53.1777 69.0107 53.0362 69.2627 52.7842C69.5147 52.5322 69.6562 52.1904 69.6562 51.834V49.1465H72.3438V51.834C72.3438 52.1904 72.4853 52.5322 72.7373 52.7842C72.9893 53.0362 73.3311 53.1777 73.6875 53.1777H76.375V55.8652H73.6875C73.3311 55.8652 72.9893 56.0068 72.7373 56.2588C72.4853 56.5108 72.3438 56.8526 72.3438 57.209V59.8965H69.6562V57.209C69.6562 56.8526 69.5147 56.5108 69.2627 56.2588C69.0107 56.0068 68.6689 55.8652 68.3125 55.8652H65.625V53.1777Z" fill="#0047AB"/>
<path d="M71 67.959C73.6577 67.959 76.2557 67.1709 78.4655 65.6944C80.6753 64.2178 82.3976 62.1192 83.4146 59.6638C84.4317 57.2084 84.6978 54.5066 84.1793 51.9C83.6608 49.2933 82.381 46.899 80.5017 45.0197C78.6225 43.1405 76.2281 41.8607 73.6215 41.3422C71.0149 40.8237 68.3131 41.0898 65.8577 42.1069C63.4023 43.1239 61.3037 44.8462 59.8271 47.056C58.3506 49.2658 57.5625 51.8638 57.5625 54.5215C57.5665 58.0841 58.9836 61.4996 61.5027 64.0188C64.0219 66.5379 67.4374 67.9549 71 67.959ZM71 43.7715C73.1261 43.7715 75.2045 44.402 76.9724 45.5832C78.7402 46.7644 80.1181 48.4433 80.9317 50.4076C81.7453 52.3719 81.9582 54.5334 81.5434 56.6187C81.1286 58.704 80.1048 60.6195 78.6014 62.1229C77.098 63.6263 75.1825 64.6501 73.0972 65.0649C71.0119 65.4797 68.8505 65.2668 66.8862 64.4532C64.9218 63.6396 63.2429 62.2617 62.0617 60.4939C60.8805 58.726 60.25 56.6476 60.25 54.5215C60.2532 51.6714 61.3868 48.9389 63.4021 46.9236C65.4175 44.9083 68.1499 43.7747 71 43.7715Z" fill="#0047AB"/>
<path d="M87.125 70.6465H54.875C54.5186 70.6465 54.1768 70.7881 53.9248 71.0401C53.6728 71.2921 53.5312 71.6338 53.5312 71.9902V77.3652C53.5312 77.7216 53.6728 78.0634 53.9248 78.3154C54.1768 78.5674 54.5186 78.709 54.875 78.709H87.125C87.4814 78.709 87.8232 78.5674 88.0752 78.3154C88.3272 78.0634 88.4688 77.7216 88.4688 77.3652V71.9902C88.4688 71.6338 88.3272 71.2921 88.0752 71.0401C87.8232 70.7881 87.4814 70.6465 87.125 70.6465ZM85.7812 76.0215H56.2188V73.334H85.7812V76.0215Z" fill="#0047AB"/>
<path d="M87.125 100.209H54.875C54.5186 100.209 54.1768 100.351 53.9248 100.603C53.6728 100.855 53.5312 101.196 53.5312 101.553V106.928C53.5312 107.284 53.6728 107.626 53.9248 107.878C54.1768 108.13 54.5186 108.271 54.875 108.271H87.125C87.4814 108.271 87.8232 108.13 88.0752 107.878C88.3272 107.626 88.4688 107.284 88.4688 106.928V101.553C88.4688 101.196 88.3272 100.855 88.0752 100.603C87.8232 100.351 87.4814 100.209 87.125 100.209ZM85.7812 105.584H56.2188V102.896H85.7812V105.584Z" fill="#0047AB"/>
<path d="M80.4062 84.084C80.7626 84.084 81.1044 83.9424 81.3564 83.6904C81.6084 83.4384 81.75 83.0966 81.75 82.7402C81.75 82.3838 81.6084 82.0421 81.3564 81.7901C81.1044 81.5381 80.7626 81.3965 80.4062 81.3965H61.5938C61.2374 81.3965 60.8956 81.5381 60.6436 81.7901C60.3916 82.0421 60.25 82.3838 60.25 82.7402C60.25 83.0966 60.3916 83.4384 60.6436 83.6904C60.8956 83.9424 61.2374 84.084 61.5938 84.084H80.4062Z" fill="#0047AB"/>
<path d="M87.125 86.7715H54.875C54.5186 86.7715 54.1768 86.9131 53.9248 87.1651C53.6728 87.4171 53.5312 87.7588 53.5312 88.1152C53.5312 88.4716 53.6728 88.8134 53.9248 89.0654C54.1768 89.3174 54.5186 89.459 54.875 89.459H87.125C87.4814 89.459 87.8232 89.3174 88.0752 89.0654C88.3272 88.8134 88.4688 88.4716 88.4688 88.1152C88.4688 87.7588 88.3272 87.4171 88.0752 87.1651C87.8232 86.9131 87.4814 86.7715 87.125 86.7715Z" fill="#0047AB"/>
<path d="M80.4062 94.834C80.7626 94.834 81.1044 94.6924 81.3564 94.4404C81.6084 94.1884 81.75 93.8466 81.75 93.4902C81.75 93.1338 81.6084 92.7921 81.3564 92.5401C81.1044 92.2881 80.7626 92.1465 80.4062 92.1465H61.5938C61.2374 92.1465 60.8956 92.2881 60.6436 92.5401C60.3916 92.7921 60.25 93.1338 60.25 93.4902C60.25 93.8466 60.3916 94.1884 60.6436 94.4404C60.8956 94.6924 61.2374 94.834 61.5938 94.834H80.4062Z" fill="#0047AB"/>
</svg>
