<svg width="28" height="22" viewBox="0 0 28 22" fill="none" xmlns="http://www.w3.org/2000/svg">
<path d="M27.7533 1.57227L19.2615 11.0004L27.7533 20.4285C27.9068 20.07 27.9999 19.6736 27.9999 19.2504V2.75042C27.9999 2.32711 27.9068 1.9308 27.7533 1.57227Z" fill="white"/>
<path d="M25.5392 0H2.46106C2.08224 0 1.72759 0.104072 1.40674 0.27561L12.2602 12.3428C13.2198 13.4151 14.7804 13.4151 15.7401 12.3428L26.5935 0.27561C26.2726 0.104072 25.918 0 25.5392 0Z" fill="white"/>
<path d="M0.246641 1.57227C0.0931328 1.9308 0 2.32711 0 2.75042V19.2504C0 19.6737 0.0931328 20.07 0.246641 20.4285L8.73846 11.0004L0.246641 1.57227Z" fill="white"/>
<path d="M18.1017 12.2969L16.9 13.6397C15.301 15.4265 12.6992 15.4265 11.1002 13.6397L9.89856 12.2969L1.40674 21.725C1.72759 21.8965 2.08224 22.0006 2.46106 22.0006H25.5392C25.918 22.0006 26.2726 21.8965 26.5935 21.725L18.1017 12.2969Z" fill="white"/>
</svg>
