<svg width="95" height="96" viewBox="0 0 95 96" fill="none" xmlns="http://www.w3.org/2000/svg">
<rect y="0.302734" width="95" height="95" rx="10" fill="#E2F0FE"/>
<path d="M38.2469 43.5704C38.0749 43.4195 37.8519 43.3398 37.6232 43.3476C37.3945 43.3554 37.1774 43.4501 37.0162 43.6124C36.8549 43.7747 36.7616 43.9924 36.7552 44.2211C36.7489 44.4499 36.83 44.6724 36.982 44.8434C37.8662 45.7259 39.0644 46.2216 40.3136 46.2216C41.5629 46.2216 42.7611 45.7259 43.6453 44.8434C43.8133 44.674 43.9071 44.4448 43.9061 44.2062C43.905 43.9677 43.8093 43.7393 43.6399 43.5713C43.556 43.4881 43.4566 43.4223 43.3473 43.3776C43.2379 43.3328 43.1209 43.3101 43.0028 43.3106C42.7642 43.3116 42.5358 43.4073 42.3678 43.5767C41.8211 44.1221 41.0805 44.4283 40.3083 44.4283C39.5361 44.4283 38.7954 44.1221 38.2487 43.5767L38.2469 43.5704Z" fill="#0047AB"/>
<path d="M37.6109 40.6091C37.8493 40.6091 38.078 40.5144 38.2466 40.3458C38.4152 40.1772 38.5099 39.9485 38.5099 39.7101V38.8111C38.5099 38.5727 38.4152 38.344 38.2466 38.1754C38.078 38.0068 37.8493 37.9121 37.6109 37.9121C37.3725 37.9121 37.1438 38.0068 36.9752 38.1754C36.8066 38.344 36.7119 38.5727 36.7119 38.8111V39.7101C36.7119 39.9485 36.8066 40.1772 36.9752 40.3458C37.1438 40.5144 37.3725 40.6091 37.6109 40.6091Z" fill="#0047AB"/>
<path d="M43.0054 40.6091C43.2439 40.6091 43.4725 40.5144 43.6411 40.3458C43.8097 40.1772 43.9044 39.9485 43.9044 39.7101V38.8111C43.9044 38.5727 43.8097 38.344 43.6411 38.1754C43.4725 38.0068 43.2439 37.9121 43.0054 37.9121C42.767 37.9121 42.5383 38.0068 42.3698 38.1754C42.2012 38.344 42.1064 38.5727 42.1064 38.8111V39.7101C42.1064 39.9485 42.2012 40.1772 42.3698 40.3458C42.5383 40.5144 42.767 40.6091 43.0054 40.6091Z" fill="#0047AB"/>
<path d="M69.9746 20.832H48.3989C47.3635 20.8347 46.3604 21.1935 45.5583 21.8483C44.7562 22.5031 44.2038 23.414 43.9939 24.428H41.207C40.4169 24.4279 39.6408 24.6365 38.9573 25.0328C38.2737 25.429 37.707 25.9988 37.3144 26.6844C36.8706 26.3858 36.348 26.2262 35.8131 26.226H34.0151C32.823 26.226 31.6797 26.6995 30.8367 27.5425C29.9937 28.3855 29.5202 29.5288 29.5202 30.7209V36.816C29.2385 37.0669 29.0129 37.3742 28.858 37.7181C28.7031 38.062 28.6224 38.4346 28.6212 38.8118V39.7108C28.6233 40.4254 28.9082 41.1101 29.4135 41.6155C29.9188 42.1208 30.6035 42.4056 31.3182 42.4077H32.2171C32.2169 43.5438 32.4571 44.667 32.9219 45.7035C33.3867 46.7401 34.0657 47.6665 34.9141 48.422V48.7007H33.1161C32.0908 48.7029 31.0969 49.0553 30.2991 49.6994C29.5013 50.3436 28.9474 51.2408 28.7291 52.2427L28.0189 52.4225C25.8775 52.9531 23.9759 54.1865 22.6183 55.9255C21.2607 57.6645 20.5255 59.8085 20.5303 62.0147V73.8723C20.5303 74.1107 20.625 74.3394 20.7936 74.508C20.9622 74.6766 21.1909 74.7713 21.4293 74.7713H59.1868C59.4252 74.7713 59.6539 74.6766 59.8225 74.508C59.9911 74.3394 60.0858 74.1107 60.0858 73.8723V67.5794H69.9746C71.1668 67.5794 72.3101 67.1058 73.153 66.2629C73.996 65.4199 74.4696 64.2766 74.4696 63.0845V25.327C74.4696 24.1348 73.996 22.9915 73.153 22.1486C72.3101 21.3056 71.1668 20.832 69.9746 20.832ZM32.2171 40.6098H31.3182C31.0797 40.6098 30.8511 40.515 30.6825 40.3465C30.5139 40.1779 30.4192 39.9492 30.4192 39.7108V38.8118C30.4192 38.5734 30.5139 38.3447 30.6825 38.1761C30.8511 38.0075 31.0797 37.9128 31.3182 37.9128H32.2171V40.6098ZM32.2171 35.2158V36.1148H31.3182V30.7209C31.3203 30.0063 31.6051 29.3215 32.1104 28.8162C32.6157 28.3109 33.3005 28.0261 34.0151 28.0239H35.8131C36.0515 28.0239 36.2802 28.1186 36.4488 28.2872C36.6174 28.4558 36.7121 28.6845 36.7121 28.9229C36.7121 29.1613 36.8068 29.39 36.9754 29.5586C37.144 29.7272 37.3726 29.8219 37.6111 29.8219C37.8495 29.8219 38.0782 29.7272 38.2467 29.5586C38.4153 29.39 38.5101 29.1613 38.5101 28.9229C38.5122 28.2083 38.797 27.5236 39.3023 27.0182C39.8077 26.5129 40.4924 26.2281 41.207 26.226H44.803C45.9951 26.226 47.1384 26.6995 47.9814 27.5425C48.8243 28.3855 49.2979 29.5288 49.2979 30.7209V36.1148H48.3989V35.2158C48.3968 34.5012 48.112 33.8165 47.6066 33.3112C47.1013 32.8058 46.4166 32.521 45.702 32.5189H34.9141C34.1995 32.521 33.5147 32.8058 33.0094 33.3112C32.5041 33.8165 32.2193 34.5012 32.2171 35.2158ZM50.1969 38.8118V39.7108C50.1969 39.9492 50.1022 40.1779 49.9336 40.3465C49.765 40.515 49.5363 40.6098 49.2979 40.6098H48.3989V37.9128H49.2979C49.5363 37.9128 49.765 38.0075 49.9336 38.1761C50.1022 38.3447 50.1969 38.5734 50.1969 38.8118ZM34.0151 42.4077V35.2158C34.0151 34.9774 34.1098 34.7487 34.2784 34.5802C34.447 34.4116 34.6757 34.3168 34.9141 34.3168H45.702C45.9404 34.3168 46.169 34.4116 46.3376 34.5802C46.5062 34.7487 46.6009 34.9774 46.6009 35.2158V42.4077C46.6009 44.0767 45.9379 45.6773 44.7578 46.8575C43.5776 48.0377 41.977 48.7007 40.308 48.7007C38.639 48.7007 37.0384 48.0377 35.8583 46.8575C34.6781 45.6773 34.0151 44.0767 34.0151 42.4077ZM40.308 53.0428L36.7121 50.8852V49.6446C37.8277 50.2059 39.0592 50.4982 40.308 50.4982C41.5569 50.4982 42.7884 50.2059 43.904 49.6446V50.8852L40.308 53.0428ZM41.4138 57.277L40.308 57.6456L39.2292 57.286L39.3281 56.0274L40.308 55.2453L41.2879 56.0364L41.4138 57.277ZM44.9468 52.3595L46.9426 52.863L44.5962 56.378L42.7443 54.8857C42.7375 54.8847 42.7312 54.8816 42.7263 54.8767L41.8813 54.2025L44.9468 52.3595ZM45.702 50.6964V50.4986H47.4999C47.9445 50.5004 48.3818 50.6112 48.7736 50.8212C49.1654 51.0312 49.4998 51.3341 49.7474 51.7033L48.6147 51.4246L45.702 50.6964ZM35.6693 52.3595L38.7348 54.2025L37.8898 54.8767L37.8808 54.8857L36.0199 56.378L33.6735 52.863L35.6693 52.3595ZM33.1161 50.4986H34.9141V50.6964L32.0014 51.4246L30.8687 51.7033C31.1163 51.3341 31.4506 51.0312 31.8424 50.8212C32.2343 50.6112 32.6716 50.5004 33.1161 50.4986ZM29.5202 62.1855C29.8758 62.1855 30.2234 62.2909 30.5191 62.4885C30.8148 62.686 31.0452 62.9669 31.1813 63.2954C31.3174 63.6239 31.353 63.9854 31.2836 64.3342C31.2142 64.683 31.043 65.0034 30.7915 65.2548C30.5401 65.5063 30.2197 65.6775 29.8709 65.7469C29.5222 65.8162 29.1607 65.7806 28.8321 65.6446C28.5036 65.5085 28.2228 65.278 28.0252 64.9823C27.8276 64.6867 27.7222 64.3391 27.7222 63.9834C27.7236 63.507 27.9135 63.0505 28.2504 62.7137C28.5873 62.3768 29.0438 62.1869 29.5202 62.1855ZM35.894 72.9733H30.4192V69.3774C30.4192 69.1389 30.3244 68.9103 30.1559 68.7417C29.9873 68.5731 29.7586 68.4784 29.5202 68.4784C29.2817 68.4784 29.0531 68.5731 28.8845 68.7417C28.7159 68.9103 28.6212 69.1389 28.6212 69.3774V72.9733H22.3283V62.0147C22.3247 60.2105 22.9258 58.4571 24.0355 57.0345C25.1452 55.6119 26.6996 54.6022 28.4504 54.1665L28.6212 54.1215V60.5134C27.7737 60.7322 27.0352 61.2525 26.544 61.9769C26.0528 62.7013 25.8426 63.58 25.9529 64.4482C26.0632 65.3165 26.4863 66.1147 27.143 66.6933C27.7998 67.2719 28.6449 67.5911 29.5202 67.5911C30.3954 67.5911 31.2406 67.2719 31.8973 66.6933C32.554 66.1147 32.9772 65.3165 33.0875 64.4482C33.1977 63.58 32.9876 62.7013 32.4964 61.9769C32.0051 61.2525 31.2666 60.7322 30.4192 60.5134V53.6721L31.8216 53.3214L35.0669 58.185C35.1339 58.2914 35.2233 58.382 35.3289 58.4503C35.4345 58.5186 35.5537 58.5631 35.6782 58.5805C35.7228 58.588 35.768 58.591 35.8131 58.5895C36.0162 58.59 36.2131 58.5201 36.3705 58.3917L37.3683 57.6006L35.894 72.9733ZM37.701 72.9733L39.0584 59.1199L40.0293 59.4436C40.2103 59.5035 40.4058 59.5035 40.5867 59.4436L41.5846 59.1109L42.9151 72.9733H37.701ZM58.2878 72.9733H51.9949V69.3774C51.9949 69.1389 51.9002 68.9103 51.7316 68.7417C51.563 68.5731 51.3343 68.4784 51.0959 68.4784C50.8575 68.4784 50.6288 68.5731 50.4602 68.7417C50.2916 68.9103 50.1969 69.1389 50.1969 69.3774V72.9733H44.7221L43.2118 57.5737L44.2456 58.3917C44.4029 58.5201 44.5999 58.59 44.803 58.5895C44.8481 58.591 44.8933 58.588 44.9378 58.5805C45.0624 58.5631 45.1816 58.5186 45.2872 58.4503C45.3928 58.382 45.4822 58.2914 45.5491 58.185L48.7945 53.3214L50.1969 53.6721V55.8926C49.7205 55.894 49.264 56.0839 48.9271 56.4207C48.5902 56.7576 48.4003 57.2141 48.3989 57.6905V59.3177C47.5798 59.7906 46.8994 60.4707 46.426 61.2896C45.9526 62.1085 45.7029 63.0376 45.702 63.9834V65.7814C45.7034 66.2578 45.8933 66.7143 46.2301 67.0512C46.567 67.3881 47.0235 67.578 47.4999 67.5794H48.3989C48.6373 67.5794 48.866 67.4847 49.0346 67.3161C49.2032 67.1475 49.2979 66.9188 49.2979 66.6804C49.2979 66.442 49.2032 66.2133 49.0346 66.0447C48.866 65.8761 48.6373 65.7814 48.3989 65.7814H47.4999V63.9834C47.4999 63.0297 47.8788 62.1151 48.5532 61.4407C49.2275 60.7664 50.1422 60.3875 51.0959 60.3875C52.0496 60.3875 52.9642 60.7664 53.6386 61.4407C54.313 62.1151 54.6918 63.0297 54.6918 63.9834V65.7814H53.7929C53.5544 65.7814 53.3258 65.8761 53.1572 66.0447C52.9886 66.2133 52.8939 66.442 52.8939 66.6804C52.8939 66.9188 52.9886 67.1475 53.1572 67.3161C53.3258 67.4847 53.5544 67.5794 53.7929 67.5794H54.6918C55.1683 67.578 55.6247 67.3881 55.9616 67.0512C56.2985 66.7143 56.4884 66.2578 56.4898 65.7814V63.9834C56.4888 63.0376 56.2391 62.1085 55.7658 61.2896C55.2924 60.4707 54.612 59.7906 53.7929 59.3177V57.6905C53.7914 57.2141 53.6015 56.7576 53.2647 56.4207C52.9278 56.0839 52.4713 55.894 51.9949 55.8926V54.1215L52.1657 54.1665C53.9165 54.6022 55.4709 55.6119 56.5806 57.0345C57.6903 58.4571 58.2913 60.2105 58.2878 62.0147V72.9733ZM51.9949 57.6905V58.6704C51.4004 58.5625 50.7914 58.5625 50.1969 58.6704V57.6905H51.9949ZM72.6716 63.0845C72.6695 63.7991 72.3846 64.4838 71.8793 64.9891C71.374 65.4945 70.6893 65.7793 69.9746 65.7814H60.0858V64.8824H60.9848C61.2232 64.8824 61.4518 64.7877 61.6204 64.6191C61.789 64.4505 61.8837 64.2219 61.8837 63.9834C61.8837 63.745 61.789 63.5164 61.6204 63.3478C61.4518 63.1792 61.2232 63.0845 60.9848 63.0845H60.0858V62.1855H72.6716V63.0845ZM72.6716 60.3875H59.9509C59.6374 58.4866 58.7738 56.7192 57.4669 55.3037C56.16 53.8882 54.4671 52.8865 52.5972 52.4225L51.887 52.2427C51.6687 51.2408 51.1147 50.3436 50.3169 49.6994C49.5191 49.0553 48.5253 48.7029 47.4999 48.7007H45.702V48.422C46.5504 47.6665 47.2293 46.7401 47.6942 45.7035C48.159 44.667 48.3992 43.5438 48.3989 42.4077H49.2979C50.0125 42.4056 50.6973 42.1208 51.2026 41.6155C51.7079 41.1101 51.9927 40.4254 51.9949 39.7108V38.8118C51.9936 38.4346 51.9129 38.062 51.758 37.7181C51.6031 37.3742 51.3775 37.0669 51.0959 36.816V30.7209C51.094 29.7878 50.8852 28.8667 50.4846 28.0239H72.6716V60.3875ZM72.6716 26.226H49.199C48.2796 25.3258 47.106 24.7295 45.8368 24.5179C46.0084 23.9721 46.3491 23.4951 46.8097 23.1557C47.2703 22.8164 47.8268 22.6323 48.3989 22.63H69.9746C70.6893 22.6321 71.374 22.917 71.8793 23.4223C72.3846 23.9276 72.6695 24.6123 72.6716 25.327V26.226Z" fill="#0047AB"/>
<path d="M57.3892 25.3273H60.9852C61.2236 25.3273 61.4523 25.2326 61.6209 25.064C61.7894 24.8954 61.8842 24.6667 61.8842 24.4283C61.8842 24.1899 61.7894 23.9612 61.6209 23.7926C61.4523 23.624 61.2236 23.5293 60.9852 23.5293H57.3892C57.1508 23.5293 56.9221 23.624 56.7535 23.7926C56.5849 23.9612 56.4902 24.1899 56.4902 24.4283C56.4902 24.6667 56.5849 24.8954 56.7535 25.064C56.9221 25.2326 57.1508 25.3273 57.3892 25.3273Z" fill="#0047AB"/>
<path d="M66.5492 51.8833L62.7375 48.0626C62.5691 47.8951 62.3412 47.8012 62.1037 47.8012C61.8662 47.8012 61.6384 47.8951 61.4699 48.0626L60.1934 49.3391L57.6492 46.795L58.9258 45.5184C59.0932 45.35 59.1872 45.1221 59.1872 44.8846C59.1872 44.6471 59.0932 44.4193 58.9258 44.2509L55.1051 40.4392C54.9367 40.2717 54.7088 40.1777 54.4713 40.1777C54.2338 40.1777 54.006 40.2717 53.8375 40.4392L52.57 41.7067C51.7273 42.5497 51.2539 43.6928 51.2539 44.8846C51.2539 46.0765 51.7273 47.2196 52.57 48.0626L58.9258 54.4184C59.3423 54.8373 59.8374 55.1697 60.3828 55.3965C60.9282 55.6233 61.5131 55.7401 62.1037 55.7401C62.6944 55.7401 63.2792 55.6233 63.8246 55.3965C64.37 55.1697 64.8652 54.8373 65.2816 54.4184L66.5492 53.1508C66.7167 52.9824 66.8106 52.7546 66.8106 52.5171C66.8106 52.2796 66.7167 52.0517 66.5492 51.8833ZM64.0051 53.1508C63.4994 53.6559 62.8139 53.9396 62.0992 53.9396C61.3845 53.9396 60.6991 53.6559 60.1934 53.1508L53.8375 46.795C53.3325 46.2893 53.0488 45.6038 53.0488 44.8891C53.0488 44.1744 53.3325 43.489 53.8375 42.9833L54.4758 42.345L57.02 44.8891L56.3817 45.5184C56.2145 45.6854 56.0819 45.8837 55.9914 46.102C55.9009 46.3203 55.8543 46.5542 55.8543 46.7905C55.8543 47.0268 55.9009 47.2608 55.9914 47.479C56.0819 47.6973 56.2145 47.8956 56.3817 48.0626L58.9258 50.6067C59.0928 50.7739 59.2911 50.9065 59.5094 50.997C59.7276 51.0875 59.9616 51.134 60.1979 51.134C60.4342 51.134 60.6681 51.0875 60.8864 50.997C61.1047 50.9065 61.303 50.7739 61.4699 50.6067L62.0992 49.9684L64.6434 52.5126L64.0051 53.1508Z" fill="#0047AB"/>
<path d="M60.9849 35.2168C60.7465 35.2168 60.5178 35.3115 60.3492 35.4801C60.1807 35.6487 60.0859 35.8774 60.0859 36.1158C60.0859 36.3542 60.1807 36.5829 60.3492 36.7515C60.5178 36.9201 60.7465 37.0148 60.9849 37.0148C63.3684 37.0174 65.6535 37.9654 67.3388 39.6507C69.0242 41.3361 69.9722 43.6212 69.9748 46.0046C69.9748 46.2431 70.0695 46.4717 70.2381 46.6403C70.4067 46.8089 70.6354 46.9036 70.8738 46.9036C71.1122 46.9036 71.3409 46.8089 71.5095 46.6403C71.6781 46.4717 71.7728 46.2431 71.7728 46.0046C71.7697 43.1445 70.6321 40.4023 68.6097 38.3799C66.5872 36.3575 63.8451 35.2199 60.9849 35.2168Z" fill="#0047AB"/>
<path d="M60.9849 38.8125C60.7465 38.8125 60.5178 38.9072 60.3492 39.0758C60.1807 39.2444 60.0859 39.4731 60.0859 39.7115C60.0859 39.9499 60.1807 40.1786 60.3492 40.3472C60.5178 40.5158 60.7465 40.6105 60.9849 40.6105C62.415 40.6119 63.7862 41.1806 64.7974 42.1919C65.8087 43.2031 66.3774 44.5743 66.3789 46.0044C66.3789 46.2428 66.4736 46.4715 66.6422 46.6401C66.8108 46.8087 67.0394 46.9034 67.2778 46.9034C67.5163 46.9034 67.7449 46.8087 67.9135 46.6401C68.0821 46.4715 68.1768 46.2428 68.1768 46.0044C68.1747 44.0976 67.4163 42.2696 66.068 40.9213C64.7197 39.573 62.8917 38.8146 60.9849 38.8125Z" fill="#0047AB"/>
<path d="M60.9849 44.2062C61.4618 44.2062 61.9191 44.3956 62.2563 44.7328C62.5935 45.07 62.7829 45.5273 62.7829 46.0042C62.7829 46.2426 62.8776 46.4712 63.0462 46.6398C63.2148 46.8084 63.4435 46.9031 63.6819 46.9031C63.9203 46.9031 64.149 46.8084 64.3176 46.6398C64.4862 46.4712 64.5809 46.2426 64.5809 46.0042C64.5809 45.0504 64.202 44.1358 63.5276 43.4614C62.8533 42.7871 61.9386 42.4082 60.9849 42.4082C60.7465 42.4082 60.5178 42.5029 60.3492 42.6715C60.1807 42.8401 60.0859 43.0688 60.0859 43.3072C60.0859 43.5456 60.1807 43.7743 60.3492 43.9429C60.5178 44.1115 60.7465 44.2062 60.9849 44.2062Z" fill="#0047AB"/>
<path d="M29.5201 64.882C30.0166 64.882 30.4191 64.4795 30.4191 63.983C30.4191 63.4865 30.0166 63.084 29.5201 63.084C29.0236 63.084 28.6211 63.4865 28.6211 63.983C28.6211 64.4795 29.0236 64.882 29.5201 64.882Z" fill="#0047AB"/>
</svg>
