<svg width="486" height="416" viewBox="0 0 486 416" fill="none" xmlns="http://www.w3.org/2000/svg">
<path d="M6.00049 51.8535H198C280.843 51.8535 348 119.011 348 201.854V316.854H156C73.1578 316.854 6.00049 249.696 6.00049 166.854V51.8535Z" fill="#0047AB"/>
<path d="M323.297 0C323.01 0.000443271 322.735 0.0948448 322.532 0.262485C322.33 0.430125 322.216 0.657304 322.216 0.894161C322.216 1.13102 322.33 1.3582 322.532 1.52584C322.735 1.69348 323.01 1.78788 323.297 1.78832H345.277C345.564 1.78788 345.839 1.69348 346.042 1.52584C346.244 1.3582 346.358 1.13102 346.358 0.894161C346.358 0.657304 346.244 0.430125 346.042 0.262485C345.839 0.0948448 345.564 0.000443271 345.277 0H323.297Z" fill="#3F3D56"/>
<path d="M323.299 6.25879C323.012 6.25879 322.736 6.40009 322.533 6.65163C322.33 6.90316 322.216 7.24431 322.216 7.60003C322.216 7.95575 322.33 8.2969 322.533 8.54843C322.736 8.79996 323.012 8.94127 323.299 8.94127H345.277C345.564 8.94061 345.839 8.799 346.042 8.54755C346.244 8.29609 346.358 7.95531 346.358 7.60003C346.358 7.24474 346.244 6.90397 346.042 6.65252C345.839 6.40106 345.564 6.25945 345.277 6.25879H323.299Z" fill="#3F3D56"/>
<path d="M480.482 115.347H427.727V114.594H479.734V79.5801H480.482V115.347Z" fill="#E4E4E4"/>
<path d="M308.657 129.653H307.909V93.8867H360.665V94.6397H308.657V129.653Z" fill="#E4E4E4"/>
<path d="M386.595 49.1789H332.946V14.3066H333.707V48.4448H386.595V49.1789Z" fill="#E4E4E4"/>
<path d="M491.92 74.2151C492.206 74.2146 492.481 74.1202 492.684 73.9526C492.887 73.785 493.001 73.5578 493.001 73.3209C493.001 73.0841 492.887 72.8569 492.684 72.6892C492.481 72.5216 492.206 72.4272 491.92 72.4268H469.944C469.801 72.4265 469.66 72.4495 469.528 72.4943C469.397 72.5392 469.277 72.605 469.176 72.6881C469.076 72.7711 468.996 72.8698 468.941 72.9784C468.886 73.0869 468.858 73.2034 468.858 73.3209C468.858 73.4385 468.886 73.5549 468.941 73.6635C468.996 73.7721 469.076 73.8707 469.176 73.9538C469.277 74.0368 469.397 74.1027 469.528 74.1475C469.66 74.1923 469.801 74.2153 469.944 74.2151H491.92Z" fill="#2F2E41"/>
<path d="M491.92 67.9563C492.206 67.9558 492.481 67.8614 492.684 67.6938C492.887 67.5262 493.001 67.299 493.001 67.0621C493.001 66.8253 492.887 66.5981 492.684 66.4304C492.481 66.2628 492.206 66.1684 491.92 66.168H469.944C469.801 66.1678 469.66 66.1907 469.528 66.2355C469.397 66.2804 469.277 66.3462 469.176 66.4293C469.076 66.5123 468.996 66.611 468.941 66.7196C468.886 66.8282 468.858 66.9446 468.858 67.0621C468.858 67.1797 468.886 67.2961 468.941 67.4047C468.996 67.5133 469.076 67.6119 469.176 67.695C469.277 67.778 469.397 67.8439 469.528 67.8887C469.66 67.9335 469.801 67.9565 469.944 67.9563H491.92Z" fill="#2F2E41"/>
<path d="M398.667 126.077C390.62 126.077 382.754 123.691 376.064 119.22C369.373 114.75 364.159 108.396 361.079 100.962C358 93.5275 357.194 85.3472 358.764 77.4552C360.334 69.5632 364.209 62.314 369.899 56.6242C375.588 50.9344 382.838 47.0596 390.73 45.4898C398.622 43.9199 406.802 44.7256 414.236 47.8049C421.67 50.8842 428.024 56.0988 432.494 62.7893C436.965 69.4798 439.351 77.3457 439.351 85.3923C439.339 96.1787 435.049 106.52 427.421 114.147C419.794 121.774 409.453 126.064 398.667 126.077ZM398.667 45.4685C390.771 45.4685 383.052 47.81 376.486 52.1969C369.921 56.5838 364.804 62.819 361.782 70.1141C358.76 77.4093 357.97 85.4366 359.51 93.1811C361.05 100.926 364.853 108.039 370.436 113.623C376.02 119.206 383.134 123.009 390.878 124.549C398.622 126.09 406.65 125.299 413.945 122.277C421.24 119.255 427.475 114.138 431.862 107.573C436.249 101.007 438.591 93.2885 438.591 85.3923C438.579 74.8075 434.369 64.6597 426.884 57.1751C419.399 49.6906 409.252 45.4805 398.667 45.4685Z" fill="#E4E4E4"/>
<path d="M383.019 54.5441C385.488 54.5441 387.49 52.5425 387.49 50.0733C387.49 47.6042 385.488 45.6025 383.019 45.6025C380.55 45.6025 378.548 47.6042 378.548 50.0733C378.548 52.5425 380.55 54.5441 383.019 54.5441Z" fill="#1B3C87"/>
<path d="M359.771 99.2522C362.24 99.2522 364.241 97.2505 364.241 94.7814C364.241 92.3122 362.24 90.3105 359.771 90.3105C357.301 90.3105 355.3 92.3122 355.3 94.7814C355.3 97.2505 357.301 99.2522 359.771 99.2522Z" fill="#1B3C87"/>
<path d="M426.833 118.923C429.302 118.923 431.303 116.921 431.303 114.452C431.303 111.983 429.302 109.981 426.833 109.981C424.363 109.981 422.362 111.983 422.362 114.452C422.362 116.921 424.363 118.923 426.833 118.923Z" fill="#1B3C87"/>
<path d="M296.474 134.124C296.187 134.124 295.912 134.265 295.708 134.517C295.505 134.768 295.391 135.11 295.391 135.465C295.391 135.821 295.505 136.162 295.708 136.414C295.912 136.665 296.187 136.807 296.474 136.807H318.452C318.739 136.806 319.014 136.664 319.217 136.413C319.42 136.161 319.533 135.821 319.533 135.465C319.533 135.11 319.42 134.769 319.217 134.518C319.014 134.266 318.739 134.125 318.452 134.124H296.474Z" fill="#2F2E41"/>
<path d="M296.476 141.277C296.334 141.277 296.193 141.3 296.061 141.345C295.93 141.39 295.81 141.456 295.709 141.539C295.608 141.622 295.528 141.72 295.474 141.829C295.419 141.938 295.391 142.054 295.391 142.171C295.391 142.289 295.419 142.405 295.474 142.514C295.528 142.623 295.608 142.721 295.709 142.804C295.81 142.887 295.93 142.953 296.061 142.998C296.193 143.043 296.334 143.066 296.476 143.066H318.452C318.739 143.065 319.014 142.971 319.217 142.803C319.42 142.636 319.533 142.408 319.533 142.171C319.533 141.935 319.42 141.707 319.217 141.54C319.014 141.372 318.739 141.278 318.452 141.277H296.476Z" fill="#2F2E41"/>
<path d="M50.3419 96.2165H27.4866C27.3803 96.2172 27.2748 96.1959 27.1763 96.1539C27.0779 96.1119 26.9883 96.05 26.9129 95.9718C26.8374 95.8936 26.7776 95.8006 26.7367 95.6981C26.6958 95.5957 26.6748 95.4858 26.6748 95.3749C26.6748 95.2639 26.6958 95.154 26.7367 95.0516C26.7776 94.9491 26.8374 94.8561 26.9129 94.7779C26.9883 94.6997 27.0779 94.6378 27.1763 94.5958C27.2748 94.5538 27.3803 94.5325 27.4866 94.5332H50.3419C50.4483 94.5325 50.5537 94.5538 50.6522 94.5958C50.7506 94.6378 50.8402 94.6997 50.9156 94.7779C50.9911 94.8561 51.051 94.9491 51.0918 95.0516C51.1327 95.154 51.1537 95.2639 51.1537 95.3749C51.1537 95.4858 51.1327 95.5957 51.0918 95.6981C51.051 95.8006 50.9911 95.8936 50.9156 95.9718C50.8402 96.05 50.7506 96.1119 50.6522 96.1539C50.5537 96.1959 50.4483 96.2172 50.3419 96.2165Z" fill="#9FBADF"/>
<path d="M50.3419 102.177H27.4866C27.3803 102.178 27.2748 102.157 27.1763 102.115C27.0779 102.073 26.9883 102.011 26.9129 101.933C26.8374 101.855 26.7776 101.762 26.7367 101.659C26.6958 101.557 26.6748 101.447 26.6748 101.336C26.6748 101.225 26.6958 101.115 26.7367 101.013C26.7776 100.91 26.8374 100.817 26.9129 100.739C26.9883 100.661 27.0779 100.599 27.1763 100.557C27.2748 100.515 27.3803 100.493 27.4866 100.494H50.3419C50.4483 100.493 50.5537 100.515 50.6522 100.557C50.7506 100.599 50.8402 100.661 50.9156 100.739C50.9911 100.817 51.051 100.91 51.0918 101.013C51.1327 101.115 51.1537 101.225 51.1537 101.336C51.1537 101.447 51.1327 101.557 51.0918 101.659C51.051 101.762 50.9911 101.855 50.9156 101.933C50.8402 102.011 50.7506 102.073 50.6522 102.115C50.5537 102.157 50.4483 102.178 50.3419 102.177Z" fill="#9FBADF"/>
<path d="M167.34 96.2165H144.485C144.379 96.2172 144.273 96.1959 144.175 96.1539C144.076 96.1119 143.987 96.05 143.911 95.9718C143.836 95.8936 143.776 95.8006 143.735 95.6981C143.694 95.5957 143.673 95.4858 143.673 95.3749C143.673 95.2639 143.694 95.154 143.735 95.0516C143.776 94.9491 143.836 94.8561 143.911 94.7779C143.987 94.6997 144.076 94.6378 144.175 94.5958C144.273 94.5538 144.379 94.5325 144.485 94.5332H167.34C167.554 94.5346 167.758 94.6239 167.908 94.7815C168.058 94.9392 168.142 95.1525 168.142 95.3749C168.142 95.5972 168.058 95.8105 167.908 95.9682C167.758 96.1258 167.554 96.2151 167.34 96.2165H167.34Z" fill="#9FBADF"/>
<path d="M167.34 102.177H144.485C144.379 102.178 144.273 102.157 144.175 102.115C144.076 102.073 143.987 102.011 143.911 101.933C143.836 101.855 143.776 101.762 143.735 101.659C143.694 101.557 143.673 101.447 143.673 101.336C143.673 101.225 143.694 101.115 143.735 101.013C143.776 100.91 143.836 100.817 143.911 100.739C143.987 100.661 144.076 100.599 144.175 100.557C144.273 100.515 144.379 100.493 144.485 100.494H167.34C167.554 100.496 167.758 100.585 167.908 100.742C168.058 100.9 168.142 101.113 168.142 101.336C168.142 101.558 168.058 101.771 167.908 101.929C167.758 102.087 167.554 102.176 167.34 102.177H167.34Z" fill="#9FBADF"/>
<path d="M50.3414 108.136H27.4862C27.3798 108.137 27.2743 108.116 27.1759 108.074C27.0774 108.032 26.9879 107.97 26.9124 107.892C26.837 107.814 26.7771 107.72 26.7362 107.618C26.6954 107.516 26.6743 107.406 26.6743 107.295C26.6743 107.184 26.6954 107.074 26.7362 106.971C26.7771 106.869 26.837 106.776 26.9124 106.698C26.9879 106.62 27.0774 106.558 27.1759 106.516C27.2743 106.474 27.3798 106.452 27.4862 106.453H50.3414C50.4478 106.452 50.5532 106.474 50.6517 106.516C50.7502 106.558 50.8397 106.62 50.9151 106.698C50.9906 106.776 51.0505 106.869 51.0913 106.971C51.1322 107.074 51.1532 107.184 51.1532 107.295C51.1532 107.406 51.1322 107.516 51.0913 107.618C51.0505 107.72 50.9906 107.814 50.9151 107.892C50.8397 107.97 50.7502 108.032 50.6517 108.074C50.5532 108.116 50.4478 108.137 50.3414 108.136Z" fill="white"/>
<path d="M50.3414 114.097H27.4862C27.3798 114.098 27.2743 114.077 27.1759 114.035C27.0774 113.993 26.9879 113.931 26.9124 113.853C26.837 113.774 26.7771 113.681 26.7362 113.579C26.6954 113.477 26.6743 113.367 26.6743 113.256C26.6743 113.145 26.6954 113.035 26.7362 112.932C26.7771 112.83 26.837 112.737 26.9124 112.659C26.9879 112.581 27.0774 112.519 27.1759 112.477C27.2743 112.435 27.3798 112.413 27.4862 112.414H50.3414C50.4478 112.413 50.5532 112.435 50.6517 112.477C50.7502 112.519 50.8397 112.581 50.9151 112.659C50.9906 112.737 51.0505 112.83 51.0913 112.932C51.1322 113.035 51.1532 113.145 51.1532 113.256C51.1532 113.367 51.1322 113.477 51.0913 113.579C51.0505 113.681 50.9906 113.774 50.9151 113.853C50.8397 113.931 50.7502 113.993 50.6517 114.035C50.5532 114.077 50.4478 114.098 50.3414 114.097Z" fill="white"/>
<path d="M50.3413 120.057H27.4861C27.2721 120.057 27.0668 119.969 26.9155 119.811C26.7642 119.653 26.6792 119.439 26.6792 119.216C26.6792 118.992 26.7642 118.778 26.9155 118.621C27.0668 118.463 27.2721 118.374 27.4861 118.374H50.3413C50.5553 118.374 50.7606 118.463 50.9119 118.621C51.0632 118.778 51.1482 118.992 51.1482 119.216C51.1482 119.439 51.0632 119.653 50.9119 119.811C50.7606 119.969 50.5553 120.057 50.3413 120.057Z" fill="white"/>
<path d="M167.34 108.136H144.485C144.378 108.137 144.273 108.116 144.174 108.074C144.076 108.032 143.986 107.97 143.911 107.892C143.835 107.814 143.776 107.72 143.735 107.618C143.694 107.516 143.673 107.406 143.673 107.295C143.673 107.184 143.694 107.074 143.735 106.971C143.776 106.869 143.835 106.776 143.911 106.698C143.986 106.62 144.076 106.558 144.174 106.516C144.273 106.474 144.378 106.452 144.485 106.453H167.34C167.553 106.455 167.757 106.544 167.907 106.701C168.058 106.859 168.142 107.072 168.142 107.295C168.142 107.517 168.058 107.73 167.907 107.888C167.757 108.046 167.553 108.135 167.34 108.136H167.34Z" fill="white"/>
<path d="M167.34 114.097H144.485C144.378 114.098 144.273 114.077 144.174 114.035C144.076 113.993 143.986 113.931 143.911 113.853C143.835 113.774 143.776 113.681 143.735 113.579C143.694 113.477 143.673 113.367 143.673 113.256C143.673 113.145 143.694 113.035 143.735 112.932C143.776 112.83 143.835 112.737 143.911 112.659C143.986 112.581 144.076 112.519 144.174 112.477C144.273 112.435 144.378 112.413 144.485 112.414H167.34C167.553 112.415 167.757 112.505 167.907 112.662C168.058 112.82 168.142 113.033 168.142 113.256C168.142 113.478 168.058 113.691 167.907 113.849C167.757 114.007 167.553 114.096 167.34 114.097H167.34Z" fill="white"/>
<path d="M167.34 120.057H144.485C144.271 120.057 144.066 119.969 143.915 119.811C143.763 119.653 143.678 119.439 143.678 119.216C143.678 118.992 143.763 118.778 143.915 118.621C144.066 118.463 144.271 118.374 144.485 118.374H167.34C167.554 118.374 167.76 118.463 167.911 118.621C168.062 118.778 168.147 118.992 168.147 119.216C168.147 119.439 168.062 119.653 167.911 119.811C167.76 119.969 167.554 120.057 167.34 120.057H167.34Z" fill="white"/>
<path d="M108.484 106.177H85.6286C85.4155 106.176 85.2115 106.087 85.0612 105.929C84.911 105.771 84.8267 105.558 84.8267 105.336C84.8267 105.113 84.911 104.9 85.0612 104.742C85.2115 104.585 85.4155 104.496 85.6286 104.494H108.484C108.59 104.493 108.696 104.515 108.794 104.557C108.893 104.599 108.982 104.661 109.058 104.739C109.133 104.817 109.193 104.91 109.234 105.013C109.275 105.115 109.296 105.225 109.296 105.336C109.296 105.447 109.275 105.557 109.234 105.659C109.193 105.762 109.133 105.855 109.058 105.933C108.982 106.011 108.893 106.073 108.794 106.115C108.696 106.157 108.59 106.178 108.484 106.177Z" fill="white"/>
<path d="M108.484 112.138H85.6286C85.4155 112.137 85.2115 112.048 85.0612 111.89C84.911 111.732 84.8267 111.519 84.8267 111.297C84.8267 111.074 84.911 110.861 85.0612 110.703C85.2115 110.546 85.4155 110.456 85.6286 110.455H108.484C108.59 110.454 108.696 110.476 108.794 110.518C108.893 110.56 108.982 110.622 109.058 110.7C109.133 110.778 109.193 110.871 109.234 110.973C109.275 111.076 109.296 111.186 109.296 111.297C109.296 111.408 109.275 111.518 109.234 111.62C109.193 111.722 109.133 111.815 109.058 111.894C108.982 111.972 108.893 112.034 108.794 112.076C108.696 112.118 108.59 112.139 108.484 112.138Z" fill="white"/>
<path d="M108.484 118.098H85.6286C85.4155 118.097 85.2115 118.008 85.0612 117.85C84.911 117.692 84.8267 117.479 84.8267 117.257C84.8267 117.034 84.911 116.821 85.0612 116.663C85.2115 116.506 85.4155 116.416 85.6286 116.415H108.484C108.59 116.414 108.696 116.436 108.794 116.478C108.893 116.52 108.982 116.582 109.058 116.66C109.133 116.738 109.193 116.831 109.234 116.933C109.275 117.036 109.296 117.146 109.296 117.257C109.296 117.368 109.275 117.478 109.234 117.58C109.193 117.682 109.133 117.775 109.058 117.854C108.982 117.932 108.893 117.994 108.794 118.036C108.696 118.078 108.59 118.099 108.484 118.098Z" fill="white"/>
<path d="M231.239 119.8L209.288 113.16C209.083 113.098 208.91 112.953 208.807 112.757C208.704 112.562 208.679 112.332 208.739 112.118C208.798 111.904 208.937 111.723 209.124 111.615C209.311 111.508 209.532 111.482 209.737 111.544L231.688 118.184C231.893 118.246 232.067 118.391 232.17 118.586C232.273 118.782 232.298 119.012 232.238 119.226C232.179 119.441 232.04 119.622 231.852 119.729C231.665 119.837 231.444 119.862 231.238 119.8H231.239Z" fill="white"/>
<path d="M38.2207 150.627C42.0325 150.627 45.1226 147.404 45.1226 143.428C45.1226 139.452 42.0325 136.229 38.2207 136.229C34.4089 136.229 31.3188 139.452 31.3188 143.428C31.3188 147.404 34.4089 150.627 38.2207 150.627Z" fill="#E6E6E6"/>
<path d="M58.9263 150.627C62.7381 150.627 65.8282 147.404 65.8282 143.428C65.8282 139.452 62.7381 136.229 58.9263 136.229C55.1145 136.229 52.0244 139.452 52.0244 143.428C52.0244 147.404 55.1145 150.627 58.9263 150.627Z" fill="#E6E6E6"/>
<path d="M79.6314 150.627C83.4432 150.627 86.5333 147.404 86.5333 143.428C86.5333 139.452 83.4432 136.229 79.6314 136.229C75.8196 136.229 72.7295 139.452 72.7295 143.428C72.7295 147.404 75.8196 150.627 79.6314 150.627Z" fill="#E6E6E6"/>
<path d="M100.337 150.627C104.149 150.627 107.239 147.404 107.239 143.428C107.239 139.452 104.149 136.229 100.337 136.229C96.5256 136.229 93.4355 139.452 93.4355 143.428C93.4355 147.404 96.5256 150.627 100.337 150.627Z" fill="#E6E6E6"/>
<path d="M121.043 150.627C124.854 150.627 127.944 147.404 127.944 143.428C127.944 139.452 124.854 136.229 121.043 136.229C117.231 136.229 114.141 139.452 114.141 143.428C114.141 147.404 117.231 150.627 121.043 150.627Z" fill="#E6E6E6"/>
<path d="M141.749 150.627C145.561 150.627 148.651 147.404 148.651 143.428C148.651 139.452 145.561 136.229 141.749 136.229C137.937 136.229 134.847 139.452 134.847 143.428C134.847 147.404 137.937 150.627 141.749 150.627Z" fill="#E6E6E6"/>
<path d="M162.455 150.627C166.266 150.627 169.357 147.404 169.357 143.428C169.357 139.452 166.266 136.229 162.455 136.229C158.643 136.229 155.553 139.452 155.553 143.428C155.553 147.404 158.643 150.627 162.455 150.627Z" fill="#E6E6E6"/>
<path d="M178.403 152.194H22.2716C21.5269 152.193 20.813 151.884 20.2865 151.335C19.76 150.786 19.4638 150.041 19.4629 149.264V137.59C19.4638 136.813 19.76 136.068 20.2865 135.519C20.813 134.97 21.5269 134.661 22.2716 134.66H178.403C179.148 134.661 179.862 134.97 180.388 135.519C180.915 136.068 181.211 136.813 181.212 137.59V149.264C181.211 150.041 180.915 150.786 180.388 151.335C179.862 151.884 179.148 152.193 178.403 152.194ZM22.2716 135.832C21.8248 135.833 21.3964 136.018 21.0805 136.347C20.7646 136.677 20.5869 137.124 20.5864 137.59V149.264C20.5869 149.73 20.7646 150.177 21.0805 150.507C21.3964 150.836 21.8248 151.022 22.2716 151.022H178.403C178.85 151.022 179.279 150.836 179.594 150.507C179.91 150.177 180.088 149.73 180.089 149.264V137.59C180.088 137.124 179.91 136.677 179.594 136.347C179.279 136.018 178.85 135.833 178.403 135.832L22.2716 135.832Z" fill="#E6E6E6"/>
<path d="M55.6846 86.6286C56.1124 86.6291 56.5226 86.8066 56.8251 87.1222C57.1276 87.4378 57.2978 87.8656 57.2983 88.3119V124.788C57.2978 125.235 57.1276 125.663 56.8251 125.978C56.5226 126.294 56.1124 126.471 55.6846 126.472H21.4287C21.0009 126.471 20.5907 126.294 20.2882 125.978C19.9856 125.663 19.8155 125.235 19.815 124.788V88.3119C19.8155 87.8656 19.9856 87.4378 20.2882 87.1222C20.5907 86.8066 21.0009 86.6291 21.4287 86.6286H55.6846V86.6286ZM55.6846 84.9453H21.4287C20.5727 84.9453 19.7518 85.3 19.1465 85.9314C18.5412 86.5627 18.2012 87.4191 18.2012 88.3119V124.788C18.2012 125.681 18.5412 126.538 19.1465 127.169C19.7518 127.8 20.5727 128.155 21.4287 128.155H55.6846C56.5406 128.155 57.3615 127.8 57.9668 127.169C58.5721 126.538 58.9121 125.681 58.9121 124.788V88.3119C58.9121 87.419 58.5721 86.5627 57.9668 85.9314C57.3615 85.3 56.5406 84.9453 55.6846 84.9453V84.9453Z" fill="#E6E6E6"/>
<path d="M172.684 86.6286C173.111 86.6291 173.522 86.8066 173.824 87.1222C174.127 87.4378 174.297 87.8656 174.297 88.3119V124.788C174.297 125.235 174.127 125.663 173.824 125.978C173.522 126.294 173.111 126.471 172.684 126.472H138.428C138 126.471 137.59 126.294 137.287 125.978C136.985 125.663 136.814 125.235 136.814 124.788V88.3119C136.814 87.8656 136.985 87.4378 137.287 87.1222C137.59 86.8066 138 86.6291 138.428 86.6286H172.684V86.6286ZM172.684 84.9453H138.428C137.572 84.9453 136.751 85.3 136.146 85.9314C135.54 86.5627 135.2 87.4191 135.2 88.3119V124.788C135.2 125.681 135.54 126.538 136.146 127.169C136.751 127.8 137.572 128.155 138.428 128.155H172.684C173.54 128.155 174.361 127.8 174.966 127.169C175.571 126.538 175.911 125.681 175.911 124.788V88.3119C175.911 87.419 175.571 86.5627 174.966 85.9314C174.361 85.3 173.54 84.9453 172.684 84.9453V84.9453Z" fill="#E6E6E6"/>
<path d="M289.114 156.764C289.542 156.765 289.952 156.942 290.254 157.258C290.557 157.574 290.727 158.001 290.728 158.448V194.924C290.727 195.37 290.557 195.798 290.254 196.114C289.952 196.429 289.542 196.607 289.114 196.607H254.858C254.43 196.607 254.02 196.429 253.717 196.114C253.415 195.798 253.245 195.37 253.244 194.924V158.448C253.245 158.001 253.415 157.574 253.717 157.258C254.02 156.942 254.43 156.765 254.858 156.764H289.114V156.764ZM289.114 155.081H254.858C254.002 155.081 253.181 155.436 252.576 156.067C251.97 156.699 251.63 157.555 251.63 158.448V194.924C251.63 195.817 251.97 196.673 252.576 197.305C253.181 197.936 254.002 198.291 254.858 198.291H289.114C289.97 198.291 290.791 197.936 291.396 197.305C292.001 196.673 292.341 195.817 292.341 194.924V158.448C292.341 157.555 292.001 156.698 291.396 156.067C290.791 155.436 289.97 155.081 289.114 155.081V155.081Z" fill="white"/>
<path d="M283.771 166.353H260.915C260.809 166.354 260.704 166.333 260.605 166.291C260.507 166.249 260.417 166.187 260.342 166.109C260.266 166.03 260.206 165.937 260.165 165.835C260.125 165.732 260.104 165.623 260.104 165.512C260.104 165.401 260.125 165.291 260.165 165.188C260.206 165.086 260.266 164.993 260.342 164.915C260.417 164.836 260.507 164.775 260.605 164.733C260.704 164.691 260.809 164.669 260.915 164.67H283.771C283.984 164.671 284.188 164.761 284.338 164.918C284.488 165.076 284.573 165.289 284.573 165.512C284.573 165.734 284.488 165.947 284.338 166.105C284.188 166.263 283.984 166.352 283.771 166.353Z" fill="white"/>
<path d="M283.77 172.313H260.915C260.701 172.313 260.496 172.224 260.344 172.067C260.193 171.909 260.108 171.695 260.108 171.472C260.108 171.248 260.193 171.034 260.344 170.876C260.496 170.719 260.701 170.63 260.915 170.63H283.77C283.984 170.63 284.189 170.719 284.341 170.876C284.492 171.034 284.577 171.248 284.577 171.472C284.577 171.695 284.492 171.909 284.341 172.067C284.189 172.224 283.984 172.313 283.77 172.313Z" fill="white"/>
<path d="M283.771 178.273H260.915C260.809 178.274 260.704 178.252 260.605 178.21C260.507 178.168 260.418 178.106 260.342 178.028C260.267 177.95 260.207 177.857 260.166 177.755C260.126 177.652 260.104 177.542 260.104 177.431C260.104 177.321 260.126 177.211 260.166 177.108C260.207 177.006 260.267 176.913 260.342 176.835C260.418 176.757 260.507 176.695 260.605 176.653C260.704 176.611 260.809 176.589 260.915 176.59H283.771C283.984 176.591 284.188 176.68 284.338 176.838C284.488 176.996 284.573 177.209 284.573 177.431C284.573 177.654 284.488 177.867 284.338 178.025C284.188 178.182 283.984 178.272 283.771 178.273Z" fill="white"/>
<path d="M283.771 184.233H260.915C260.809 184.234 260.704 184.212 260.605 184.171C260.507 184.129 260.417 184.067 260.342 183.988C260.266 183.91 260.206 183.817 260.165 183.715C260.125 183.612 260.104 183.502 260.104 183.391C260.104 183.28 260.125 183.171 260.165 183.068C260.206 182.966 260.266 182.873 260.342 182.794C260.417 182.716 260.507 182.654 260.605 182.612C260.704 182.57 260.809 182.549 260.915 182.55H283.771C283.984 182.551 284.188 182.64 284.338 182.798C284.488 182.956 284.573 183.169 284.573 183.391C284.573 183.614 284.488 183.827 284.338 183.985C284.188 184.142 283.984 184.232 283.771 184.233Z" fill="white"/>
<path d="M283.771 190.193H260.915C260.809 190.194 260.704 190.172 260.605 190.13C260.507 190.088 260.417 190.027 260.342 189.948C260.266 189.87 260.206 189.777 260.165 189.675C260.125 189.572 260.104 189.462 260.104 189.351C260.104 189.24 260.125 189.131 260.165 189.028C260.206 188.926 260.266 188.833 260.342 188.754C260.417 188.676 260.507 188.614 260.605 188.572C260.704 188.53 260.809 188.509 260.915 188.51H283.771C283.984 188.511 284.188 188.6 284.338 188.758C284.488 188.916 284.573 189.129 284.573 189.351C284.573 189.574 284.488 189.787 284.338 189.945C284.188 190.102 283.984 190.192 283.771 190.193Z" fill="white"/>
<path d="M114.632 128.155H79.4792C78.5286 128.153 77.6172 127.759 76.945 127.058C76.2728 126.357 75.8947 125.406 75.8936 124.414V98.1771C75.8946 97.1854 76.2727 96.2347 76.9449 95.5334C77.6171 94.8322 78.5285 94.4377 79.4792 94.4365H114.632C115.583 94.4376 116.494 94.8321 117.167 95.5333C117.839 96.2346 118.217 97.1854 118.218 98.1771V124.414C118.217 125.406 117.839 126.357 117.166 127.058C116.494 127.759 115.583 128.154 114.632 128.155ZM79.4792 96.1198C78.9564 96.1205 78.4551 96.3375 78.0855 96.7232C77.7158 97.1088 77.5079 97.6317 77.5073 98.1771V124.414C77.5079 124.96 77.7158 125.483 78.0855 125.868C78.4552 126.254 78.9564 126.471 79.4792 126.471H114.632C115.155 126.471 115.656 126.254 116.026 125.868C116.396 125.483 116.604 124.96 116.604 124.414V98.1771C116.604 97.6317 116.396 97.1088 116.026 96.7231C115.656 96.3374 115.155 96.1205 114.632 96.1198H79.4792Z" fill="#E6E6E6"/>
<path d="M231.275 142.694L197.513 132.481C196.601 132.204 195.831 131.56 195.372 130.691C194.914 129.823 194.804 128.8 195.068 127.847L202.074 102.648C202.34 101.696 202.957 100.893 203.79 100.414C204.623 99.9362 205.603 99.8221 206.517 100.097L240.278 110.31C241.191 110.587 241.961 111.231 242.42 112.1C242.878 112.968 242.988 113.991 242.724 114.944L235.718 140.143C235.452 141.095 234.835 141.899 234.002 142.377C233.169 142.855 232.188 142.969 231.275 142.694ZM206.067 101.714C205.565 101.563 205.026 101.625 204.567 101.888C204.109 102.151 203.77 102.593 203.624 103.117L196.618 128.316C196.473 128.84 196.533 129.402 196.785 129.88C197.037 130.358 197.461 130.712 197.963 130.864L231.724 141.077C232.227 141.228 232.766 141.166 233.224 140.903C233.682 140.64 234.022 140.198 234.168 139.675L241.174 114.475C241.319 113.951 241.259 113.389 241.007 112.911C240.755 112.433 240.331 112.079 239.829 111.927L206.067 101.714Z" fill="#E6E6E6"/>
<path d="M229.646 125.524L207.695 118.884C207.594 118.854 207.499 118.802 207.416 118.733C207.333 118.664 207.264 118.579 207.213 118.482C207.162 118.385 207.13 118.279 207.118 118.169C207.107 118.059 207.116 117.948 207.145 117.842C207.175 117.735 207.224 117.636 207.29 117.55C207.356 117.464 207.438 117.392 207.531 117.339C207.624 117.285 207.726 117.252 207.831 117.24C207.937 117.227 208.043 117.237 208.145 117.268L230.096 123.908C230.301 123.97 230.474 124.115 230.577 124.31C230.68 124.506 230.704 124.736 230.644 124.95C230.585 125.164 230.446 125.345 230.259 125.452C230.072 125.56 229.852 125.586 229.646 125.524Z" fill="white"/>
<path d="M228.055 131.249L206.105 124.609C205.899 124.546 205.726 124.401 205.624 124.206C205.521 124.01 205.496 123.78 205.556 123.566C205.615 123.352 205.754 123.171 205.941 123.064C206.128 122.956 206.349 122.93 206.554 122.992L228.505 129.632C228.71 129.694 228.884 129.839 228.987 130.034C229.09 130.23 229.115 130.46 229.055 130.675C228.995 130.889 228.857 131.07 228.669 131.178C228.482 131.285 228.261 131.311 228.055 131.249Z" fill="white"/>
<path d="M451.345 405.952H97.2461V407.537H451.345V405.952Z" fill="#E6E6E6"/>
<path d="M302.843 403.475H245.261L247.213 377.008H300.891L302.843 403.475Z" fill="#AADAF1"/>
<path d="M306.746 400.422H242.333V406.53H306.746V400.422Z" fill="#E6E6E6"/>
<path d="M384.336 206.491H164.257C162.704 206.491 161.214 207.135 160.116 208.28C159.018 209.426 158.401 210.979 158.401 212.599V352.575H390.192V212.599C390.192 211.797 390.04 211.003 389.746 210.262C389.452 209.521 389.02 208.847 388.477 208.28C387.933 207.713 387.287 207.263 386.577 206.956C385.866 206.649 385.105 206.491 384.336 206.491H384.336Z" fill="#3F3D56"/>
<path d="M158.401 352.575V375.48C158.401 376.282 158.552 377.077 158.847 377.818C159.141 378.559 159.572 379.232 160.116 379.799C160.66 380.367 161.305 380.816 162.016 381.123C162.726 381.43 163.488 381.588 164.257 381.588H384.336C385.889 381.588 387.378 380.945 388.477 379.799C389.575 378.654 390.192 377.1 390.192 375.48V352.575H158.401Z" fill="#AADAF1"/>
<path d="M378.968 219.217H170.112V341.377H378.968V219.217Z" fill="#E6E6E6"/>
<path d="M274.54 372.936C277.774 372.936 280.396 370.201 280.396 366.828C280.396 363.454 277.774 360.72 274.54 360.72C271.306 360.72 268.684 363.454 268.684 366.828C268.684 370.201 271.306 372.936 274.54 372.936Z" fill="#3F3D56"/>
<path d="M176.623 224.376C177.237 224.376 177.735 223.857 177.735 223.217C177.735 222.577 177.237 222.058 176.623 222.058C176.01 222.058 175.512 222.577 175.512 223.217C175.512 223.857 176.01 224.376 176.623 224.376Z" fill="white"/>
<path d="M180.842 224.376C181.455 224.376 181.953 223.857 181.953 223.217C181.953 222.577 181.455 222.058 180.842 222.058C180.228 222.058 179.73 222.577 179.73 223.217C179.73 223.857 180.228 224.376 180.842 224.376Z" fill="white"/>
<path d="M185.06 224.376C185.674 224.376 186.171 223.857 186.171 223.217C186.171 222.577 185.674 222.058 185.06 222.058C184.446 222.058 183.949 222.577 183.949 223.217C183.949 223.857 184.446 224.376 185.06 224.376Z" fill="white"/>
<path d="M372.948 227.156H175.512V329.751H372.948V227.156Z" fill="white"/>
<path d="M188.637 242.761C188.452 242.761 188.274 242.838 188.144 242.974C188.013 243.111 187.939 243.296 187.939 243.489V280.289C187.939 280.482 188.013 280.667 188.144 280.804C188.274 280.94 188.452 281.017 188.637 281.017H229.38C229.565 281.017 229.743 280.94 229.874 280.804C230.005 280.667 230.078 280.482 230.078 280.289V243.489C230.078 243.296 230.005 243.111 229.874 242.974C229.743 242.838 229.565 242.761 229.38 242.761H188.637Z" fill="#E6E6E6"/>
<path d="M254.056 242.879C253.871 242.879 253.693 242.956 253.562 243.092C253.431 243.229 253.358 243.414 253.357 243.607V280.289C253.358 280.482 253.431 280.667 253.562 280.804C253.693 280.94 253.871 281.017 254.056 281.017H294.669C294.854 281.017 295.032 280.94 295.162 280.804C295.293 280.667 295.367 280.482 295.367 280.289V243.607C295.367 243.414 295.293 243.229 295.162 243.092C295.032 242.956 294.854 242.879 294.669 242.879H254.056Z" fill="#E6E6E6"/>
<path d="M318.789 242.495C318.604 242.495 318.426 242.572 318.295 242.709C318.165 242.845 318.091 243.03 318.091 243.223V280.29C318.091 280.483 318.165 280.668 318.295 280.804C318.426 280.941 318.604 281.018 318.789 281.018H359.824C360.009 281.018 360.187 280.941 360.318 280.804C360.448 280.668 360.522 280.483 360.522 280.29V243.223C360.522 243.03 360.448 242.845 360.318 242.709C360.187 242.572 360.009 242.495 359.824 242.495H318.789Z" fill="#E6E6E6"/>
<path d="M189.382 299.233C188.999 299.234 188.633 299.393 188.363 299.675C188.093 299.957 187.941 300.34 187.941 300.739C187.941 301.137 188.093 301.52 188.363 301.802C188.633 302.084 188.999 302.243 189.382 302.244H227.689C228.071 302.243 228.437 302.084 228.707 301.802C228.977 301.52 229.129 301.137 229.129 300.739C229.129 300.34 228.977 299.957 228.707 299.675C228.437 299.393 228.071 299.234 227.689 299.233H189.382Z" fill="#E6E6E6"/>
<path d="M189.382 306.394C189 306.394 188.633 306.553 188.363 306.835C188.093 307.118 187.941 307.5 187.941 307.899C187.941 308.298 188.093 308.68 188.363 308.962C188.633 309.245 189 309.403 189.382 309.404H206.629C207.012 309.403 207.378 309.245 207.648 308.962C207.918 308.68 208.07 308.298 208.07 307.899C208.07 307.5 207.918 307.118 207.648 306.835C207.378 306.553 207.012 306.394 206.629 306.394H189.382Z" fill="white"/>
<path d="M255.503 299.233C255.121 299.234 254.755 299.393 254.485 299.675C254.215 299.957 254.063 300.34 254.063 300.739C254.063 301.137 254.215 301.52 254.485 301.802C254.755 302.084 255.121 302.243 255.503 302.244H293.81C294.192 302.243 294.559 302.084 294.829 301.802C295.099 301.52 295.25 301.137 295.25 300.739C295.25 300.34 295.099 299.957 294.829 299.675C294.559 299.393 294.192 299.234 293.81 299.233H255.503Z" fill="#E6E6E6"/>
<path d="M255.503 306.394C255.121 306.394 254.755 306.553 254.485 306.835C254.215 307.118 254.063 307.5 254.063 307.899C254.063 308.298 254.215 308.68 254.485 308.962C254.755 309.245 255.121 309.403 255.503 309.404H272.751C273.133 309.403 273.5 309.245 273.77 308.962C274.04 308.68 274.192 308.298 274.192 307.899C274.192 307.5 274.04 307.118 273.77 306.835C273.5 306.553 273.133 306.394 272.751 306.394H255.503Z" fill="white"/>
<path d="M319.973 299.233C319.59 299.234 319.224 299.393 318.954 299.675C318.684 299.957 318.532 300.34 318.532 300.739C318.532 301.137 318.684 301.52 318.954 301.802C319.224 302.084 319.59 302.243 319.973 302.244H358.279C358.662 302.243 359.028 302.084 359.298 301.802C359.568 301.52 359.72 301.137 359.72 300.739C359.72 300.34 359.568 299.957 359.298 299.675C359.028 299.393 358.662 299.234 358.279 299.233H319.973Z" fill="#E6E6E6"/>
<path d="M189.382 291.84C188.999 291.841 188.633 292 188.363 292.282C188.093 292.564 187.941 292.946 187.941 293.345C187.941 293.744 188.093 294.126 188.363 294.408C188.633 294.691 188.999 294.849 189.382 294.85H227.689C228.071 294.849 228.437 294.691 228.707 294.408C228.977 294.126 229.129 293.744 229.129 293.345C229.129 292.946 228.977 292.564 228.707 292.282C228.437 292 228.071 291.841 227.689 291.84H189.382Z" fill="#E6E6E6"/>
<path d="M255.503 291.84C255.121 291.841 254.755 292 254.485 292.282C254.215 292.564 254.063 292.946 254.063 293.345C254.063 293.744 254.215 294.126 254.485 294.408C254.755 294.691 255.121 294.849 255.503 294.85H293.81C294.192 294.849 294.559 294.691 294.829 294.408C295.099 294.126 295.25 293.744 295.25 293.345C295.25 292.946 295.099 292.564 294.829 292.282C294.559 292 294.192 291.841 293.81 291.84H255.503Z" fill="#E6E6E6"/>
<path d="M319.973 291.84C319.59 291.841 319.224 292 318.954 292.282C318.684 292.564 318.532 292.946 318.532 293.345C318.532 293.744 318.684 294.126 318.954 294.408C319.224 294.691 319.59 294.849 319.973 294.85H358.279C358.662 294.849 359.028 294.691 359.298 294.408C359.568 294.126 359.72 293.744 359.72 293.345C359.72 292.946 359.568 292.564 359.298 292.282C359.028 292 358.662 291.841 358.279 291.84H319.973Z" fill="#E6E6E6"/>
<path d="M319.973 306.394C319.59 306.394 319.224 306.553 318.954 306.835C318.684 307.118 318.532 307.5 318.532 307.899C318.532 308.298 318.684 308.68 318.954 308.962C319.224 309.245 319.59 309.403 319.973 309.404H337.22C337.602 309.403 337.969 309.245 338.239 308.962C338.509 308.68 338.66 308.298 338.66 307.899C338.66 307.5 338.509 307.118 338.239 306.835C337.969 306.553 337.602 306.394 337.22 306.394H319.973Z" fill="white"/>
<g opacity="0.4">
<path d="M67.5089 356.626C65.6918 339.433 56.6367 322.493 42.702 316.898C48.1975 334.594 48.1963 354.007 42.6987 371.702C40.5575 378.517 37.5728 385.835 39.5869 392.704C40.8401 396.978 43.9057 400.248 47.3325 402.292C50.7595 404.337 54.5628 405.311 58.3184 406.266L59.0575 406.985C65.0196 391.144 69.3259 373.818 67.5089 356.626Z" fill="#E2F0FE"/>
<path d="M42.5637 317.223C50.6785 327.922 55.7222 341.357 56.9782 355.621C57.2949 358.686 57.199 361.791 56.6941 364.821C56.1213 367.753 54.8914 370.452 53.1323 372.637C51.5269 374.712 49.6805 376.616 48.5318 379.115C47.96 380.404 47.6262 381.821 47.5524 383.273C47.4785 384.724 47.6663 386.178 48.1034 387.538C49.1176 390.961 51.1164 393.751 53.1517 396.399C55.4115 399.339 57.7983 402.351 58.7589 406.249C58.8753 406.722 59.4913 406.482 59.3751 406.01C57.7039 399.228 52.1087 395.375 49.4404 389.267C48.1953 386.416 47.6727 383.107 48.84 380.098C49.8607 377.467 51.7633 375.502 53.4042 373.417C55.1468 371.316 56.4256 368.744 57.1289 365.927C57.7633 362.937 57.9606 359.842 57.7125 356.774C57.2475 349.857 55.861 343.069 53.604 336.659C51.0626 329.326 47.4739 322.559 42.9931 316.65C42.7156 316.285 42.288 316.86 42.5637 317.223Z" fill="#C4C4C4"/>
<path d="M56.8038 351C58.809 350.427 60.5759 349.034 61.7889 347.07C63.0019 345.105 63.582 342.698 63.4257 340.277C63.3926 339.787 62.7443 339.824 62.7774 340.315C62.9265 342.569 62.3859 344.812 61.2532 346.638C60.1205 348.464 58.4702 349.754 56.6003 350.275C56.1941 350.388 56.3999 351.113 56.8038 351Z" fill="#C4C4C4"/>
<path d="M54.064 371.71C50.4424 369.166 47.7688 365.109 46.5765 360.348C46.4587 359.876 45.8426 360.116 45.9603 360.587C47.2089 365.539 49.9984 369.754 53.7722 372.392C54.132 372.644 54.4219 371.96 54.064 371.71Z" fill="#C4C4C4"/>
<path d="M50.4602 330.05C49.7236 330.462 48.9116 330.652 48.0971 330.604C47.2826 330.555 46.4911 330.269 45.7938 329.771C45.4368 329.515 45.1473 330.199 45.5019 330.453C46.2746 330.999 47.149 331.313 48.0488 331.37C48.9486 331.426 49.8464 331.222 50.6637 330.775C50.7437 330.741 50.8096 330.672 50.848 330.582C50.8863 330.493 50.8942 330.389 50.8701 330.293C50.8427 330.197 50.7843 330.118 50.7076 330.072C50.6309 330.027 50.542 330.019 50.4602 330.05Z" fill="#C4C4C4"/>
<path d="M0.227264 347.606C0.446285 347.774 0.665306 347.942 0.88459 348.116C3.81924 350.386 6.59227 352.934 9.17631 355.733C9.37901 355.945 9.58173 356.165 9.77881 356.384C15.9432 363.205 20.9778 371.315 24.6264 380.299C26.0755 383.876 27.2912 387.577 28.2631 391.37C29.605 396.61 30.7058 402.416 33.362 406.702C33.6349 407.153 33.9313 407.583 34.2494 407.991H58.2543C58.3089 407.958 58.3637 407.933 58.4185 407.9L59.377 407.952C59.3384 407.752 59.2949 407.546 59.2564 407.346C59.2344 407.23 59.2071 407.114 59.1852 406.998C59.1689 406.921 59.1524 406.844 59.1414 406.773C59.136 406.747 59.1304 406.721 59.125 406.702C59.1141 406.631 59.0975 406.566 59.0865 406.502C58.8456 405.348 58.5973 404.195 58.3418 403.041C58.3418 403.035 58.3418 403.035 58.3364 403.028C56.3701 394.245 53.7632 385.577 50.1212 377.65C50.0115 377.412 49.9022 377.167 49.7815 376.929C48.123 373.366 46.2199 369.97 44.0911 366.772C42.9206 365.026 41.6758 363.35 40.3613 361.752C36.9582 357.63 33.0253 354.163 28.7067 351.479C20.0971 346.131 10.1294 344.081 0.928181 347.349C0.692848 347.432 0.462601 347.516 0.227264 347.606Z" fill="#E2F0FE"/>
<path d="M0.281448 347.964C12.235 350.758 23.1366 357.912 31.4378 368.411C33.259 370.634 34.771 373.181 35.9182 375.957C36.9614 378.705 37.3603 381.731 37.0734 384.721C36.8536 387.516 36.3537 390.344 36.7149 393.153C36.918 394.588 37.3765 395.955 38.0603 397.167C38.7441 398.378 39.6378 399.406 40.6828 400.182C43.2439 402.196 46.2673 403.008 49.2474 403.68C52.5562 404.427 56.0031 405.141 58.7646 407.573C59.0993 407.868 59.4683 407.24 59.1342 406.946C54.3295 402.714 47.891 403.602 42.6349 400.615C40.1823 399.221 38.0718 396.95 37.4643 393.72C36.933 390.896 37.4464 387.979 37.6898 385.152C38.006 382.24 37.7113 379.28 36.8315 376.533C35.8082 373.696 34.3821 371.085 32.6143 368.812C28.7037 363.618 24.1236 359.181 19.0415 355.661C13.2603 351.607 6.93232 348.746 0.331291 347.203C-0.077282 347.107 -0.124454 347.869 0.281448 347.964Z" fill="#C4C4C4"/>
</g>
<g opacity="0.7">
<path d="M39.3457 310.28C43.2211 277.685 62.5343 245.569 92.2543 234.962C80.5336 268.511 80.5361 305.316 92.2615 338.864C96.8284 351.785 103.194 365.658 98.8983 378.68C96.2256 386.783 89.6871 392.983 82.3783 396.859C75.0692 400.735 66.9575 402.583 58.9474 404.393L57.3709 405.757C44.6549 375.724 35.4702 342.875 39.3457 310.28Z" fill="#E2F0FE"/>
<path d="M92.5489 235.577C75.2414 255.861 64.4842 281.333 61.8054 308.376C61.1299 314.187 61.3343 320.073 62.4112 325.817C63.633 331.377 66.2561 336.494 70.0079 340.635C73.432 344.57 77.37 348.18 79.82 352.917C81.0396 355.362 81.7515 358.048 81.909 360.8C82.0664 363.552 81.6659 366.308 80.7337 368.887C78.5707 375.376 74.3074 380.665 69.9665 385.686C65.1468 391.26 60.0561 396.971 58.0073 404.361C57.7591 405.257 56.4452 404.802 56.6931 403.908C60.2576 391.049 72.191 383.746 77.8821 372.164C80.5376 366.76 81.6523 360.487 79.1627 354.782C76.9857 349.794 72.9278 346.067 69.428 342.115C65.7114 338.131 62.9839 333.256 61.4838 327.915C60.1309 322.247 59.71 316.379 60.2392 310.562C61.231 297.449 64.188 284.579 69.0018 272.426C74.4223 258.524 82.0764 245.694 91.6331 234.491C92.2249 233.798 93.1369 234.889 92.5489 235.577Z" fill="#8DC5E0"/>
<path d="M62.1781 299.615C57.9014 298.529 54.1329 295.888 51.5458 292.164C48.9587 288.44 47.7214 283.876 48.0548 279.286C48.1253 278.357 49.5081 278.428 49.4375 279.358C49.1194 283.632 50.2724 287.883 52.6883 291.346C55.1042 294.809 58.6239 297.254 62.6121 298.24C63.4785 298.456 63.0396 299.829 62.1781 299.615Z" fill="#8DC5E0"/>
<path d="M68.0211 338.879C75.7455 334.055 81.4477 326.363 83.9907 317.337C84.242 316.442 85.556 316.897 85.305 317.791C82.6419 327.178 76.6923 335.171 68.6436 340.172C67.8761 340.648 67.2578 339.353 68.0211 338.879Z" fill="#8DC5E0"/>
<path d="M75.7075 259.895C77.2786 260.676 79.0105 261.037 80.7477 260.945C82.4849 260.852 84.173 260.31 85.6604 259.367C86.4217 258.881 87.0392 260.177 86.2828 260.66C84.6349 261.694 82.7699 262.29 80.8507 262.397C78.9316 262.503 77.0168 262.116 75.2736 261.27C75.1029 261.205 74.9624 261.074 74.8806 260.904C74.7989 260.734 74.782 260.538 74.8334 260.356C74.8918 260.174 75.0163 260.024 75.18 259.938C75.3436 259.851 75.5332 259.836 75.7075 259.895Z" fill="#8DC5E0"/>
<path d="M182.845 293.18C182.378 293.497 181.911 293.815 181.443 294.145C175.184 298.45 169.27 303.28 163.759 308.586C163.326 308.99 162.894 309.405 162.474 309.82C149.326 322.754 138.588 338.128 130.806 355.161C127.716 361.942 125.123 368.959 123.05 376.152C120.188 386.085 117.84 397.093 112.175 405.218C111.593 406.073 110.961 406.889 110.282 407.662H59.0838C58.9675 407.6 58.8506 407.552 58.7336 407.491L56.6895 407.588C56.7716 407.21 56.8645 406.819 56.9467 406.44C56.9934 406.22 57.0516 406 57.0984 405.78C57.1332 405.633 57.1685 405.487 57.1919 405.352C57.2033 405.304 57.2153 405.255 57.2267 405.218C57.2501 405.084 57.2855 404.961 57.3089 404.839C57.8228 402.652 58.3523 400.465 58.8973 398.278C58.8973 398.266 58.8973 398.266 58.9087 398.254C63.1027 381.601 68.6626 365.168 76.4304 350.14C76.6643 349.688 76.8975 349.223 77.1548 348.771C80.6921 342.018 84.7512 335.578 89.2916 329.516C91.788 326.205 94.443 323.028 97.2465 319.998C104.505 312.183 112.893 305.611 122.104 300.523C140.467 290.382 161.726 286.496 181.35 292.691C181.852 292.85 182.343 293.009 182.845 293.18Z" fill="#E2F0FE"/>
<path d="M182.73 293.86C157.235 299.156 133.984 312.72 116.279 332.625C112.394 336.839 109.17 341.667 106.723 346.932C104.498 352.141 103.647 357.878 104.259 363.548C104.728 368.846 105.794 374.208 105.023 379.533C104.59 382.253 103.613 384.846 102.154 387.143C100.696 389.439 98.7894 391.387 96.5606 392.859C91.0984 396.678 84.65 398.217 78.2939 399.492C71.2368 400.908 63.8852 402.261 57.9953 406.872C57.2816 407.431 56.4946 406.24 57.2071 405.682C67.4546 397.66 81.1869 399.344 92.3972 393.681C97.6281 391.038 102.129 386.731 103.425 380.608C104.558 375.255 103.463 369.724 102.944 364.364C102.27 358.842 102.898 353.232 104.775 348.023C106.957 342.645 109.999 337.695 113.769 333.384C122.11 323.538 131.879 315.125 142.718 308.453C155.048 300.766 168.545 295.342 182.623 292.416C183.495 292.235 183.595 293.68 182.73 293.86Z" fill="#8DC5E0"/>
</g>
</svg>
