<svg width="928" height="290" viewBox="0 0 928 290" fill="none" xmlns="http://www.w3.org/2000/svg">
<path d="M0 3.99023H246.38C329.223 3.99023 396.38 71.1475 396.38 153.99V289.153H150C67.1574 289.153 0 221.996 0 139.153V3.99023Z" fill="#0047AB" fill-opacity="0.12"/>
<path d="M603.524 86.7385C605.016 86.7385 606.225 85.5289 606.225 84.0367C606.225 82.5446 605.016 81.335 603.524 81.335C602.031 81.335 600.822 82.5446 600.822 84.0367C600.822 85.5289 602.031 86.7385 603.524 86.7385Z" fill="#E5E5E5"/>
<path d="M668.138 105.098C657.628 100.736 647.53 95.439 637.967 89.2699C615.004 74.4987 599.347 57.4141 599.006 46.7565C598.906 43.6416 600.063 41.1714 602.445 39.4148C606.298 36.573 613.166 35.8912 622.308 37.4415L622.082 38.7734C613.31 37.2854 606.797 37.8832 603.247 40.5018C601.244 41.9792 600.272 44.0688 600.356 46.7134C600.683 56.9467 616.092 73.5922 638.698 88.1336C648.191 94.2584 658.216 99.5178 668.651 103.848L668.138 105.098Z" fill="#3F3D56"/>
<path d="M700.651 113.101C696.644 113.101 691.9 112.456 686.505 111.163L686.82 109.85C698.147 112.565 706.719 112.339 710.957 109.213C712.96 107.736 713.932 105.646 713.848 103.002C713.521 92.7681 698.112 76.1228 675.506 61.5816C664.048 54.2116 651.879 48.0737 640.314 43.8317L640.779 42.5635C652.436 46.8391 664.697 53.0225 676.236 60.4454C699.2 75.2163 714.857 92.3009 715.198 102.958C715.297 106.073 714.14 108.544 711.759 110.3C709.229 112.166 705.475 113.101 700.651 113.101Z" fill="#3F3D56"/>
<path d="M613.592 113.088C608.754 113.088 604.965 112.16 602.445 110.301C600.063 108.545 598.906 106.074 599.006 102.959C599.347 92.3019 615.004 75.2173 637.967 60.4464C663.632 43.938 692.439 34.1544 706.465 37.1847L706.18 38.5052C692.471 35.542 664.091 45.2491 638.698 61.5827C616.092 76.1238 600.683 92.7691 600.356 103.003C600.272 105.647 601.244 107.737 603.247 109.214C613.39 116.695 645.805 107.239 675.506 88.1343C695.909 75.0109 710.406 60.3274 713.34 49.8143L714.641 50.1775C711.622 60.9958 696.906 75.9754 676.237 89.2706C661.691 98.6269 646.05 105.98 632.196 109.974C625 112.049 618.71 113.088 613.592 113.088Z" fill="#3F3D56"/>
<path d="M631.538 44.1864C633.776 44.1864 635.591 42.3719 635.591 40.1337C635.591 37.8955 633.776 36.0811 631.538 36.0811C629.3 36.0811 627.485 37.8955 627.485 40.1337C627.485 42.3719 629.3 44.1864 631.538 44.1864Z" fill="#1B3C87"/>
<path d="M622.757 17.3938C624.249 17.3938 625.459 16.1842 625.459 14.692C625.459 13.1999 624.249 11.9902 622.757 11.9902C621.265 11.9902 620.055 13.1999 620.055 14.692C620.055 16.1842 621.265 17.3938 622.757 17.3938Z" fill="#E5E5E5"/>
<path opacity="0.3" d="M734.921 31.7601C736.199 31.7601 737.235 30.5168 737.235 28.9831C737.235 27.4494 736.199 26.2061 734.921 26.2061C733.643 26.2061 732.606 27.4494 732.606 28.9831C732.606 30.5168 733.643 31.7601 734.921 31.7601Z" fill="#1B3C87"/>
<path d="M70.9478 145.093H146.953V281.378H70.9478V145.093Z" fill="#1B3C87"/>
<path d="M63.8711 137.23H146.952V152.956H63.8711V137.23Z" fill="#1B3C87"/>
<path d="M139.09 107.442H325.171V281.378H139.09V107.442Z" fill="#F0F7FF"/>
<path d="M232.13 107.442H325.17V281.378H232.13V107.442Z" fill="#D7E9FC"/>
<path d="M132.014 99.5791H332.247V115.304H132.014V99.5791Z" fill="#1B3C87"/>
<path d="M232.13 99.5791H332.247V115.304H232.13V99.5791Z" fill="#4B5055"/>
<path d="M105.019 171.302H120.744V187.027H105.019V171.302Z" fill="#F0F7FF"/>
<path d="M105.018 205.373H120.743V221.098H105.018V205.373Z" fill="#F0F7FF"/>
<path d="M105.018 239.444H120.743V255.17H105.018V239.444Z" fill="#F0F7FF"/>
<path d="M241.304 205.373H257.029V221.098H241.304V205.373Z" fill="white"/>
<path d="M275.375 205.373H291.1V221.098H275.375V205.373Z" fill="white"/>
<path d="M207.232 205.373H222.957V221.098H207.232V205.373Z" fill="#1B3C87"/>
<path d="M173.161 205.373H188.886V221.098H173.161V205.373Z" fill="#1B3C87"/>
<path d="M275.375 171.302H291.1V187.027H275.375V171.302Z" fill="white"/>
<path d="M241.304 171.302H257.029V187.027H241.304V171.302Z" fill="white"/>
<path d="M183.015 61.9229V152.956H281.245V61.9229H183.015Z" fill="#3834EA"/>
<path d="M232.13 61.9229H281.245V152.956H232.13V61.9229Z" fill="#3834EA"/>
<path d="M255.23 99.5795V115.305H239.993V130.542H224.267V115.305H209.03V99.5795H224.267V84.3418H239.993V99.5795H255.23Z" fill="#F0F7FF"/>
<path d="M255.23 99.5795V115.305H239.992V130.542H232.13V84.3418H239.992V99.5795H255.23Z" fill="#D7E9FC"/>
<path d="M207.232 171.302H222.957V187.027H207.232V171.302Z" fill="#1B3C87"/>
<path d="M173.161 171.302H188.886V187.027H173.161V171.302Z" fill="#1B3C87"/>
<path d="M198.714 239.443H265.546V281.377H198.714V239.443Z" fill="#486EC5"/>
<path d="M232.13 239.443H265.546V281.377H232.13V239.443Z" fill="#1B3C87"/>
<path d="M63.8711 273.515H332.247V289.24H63.8711V273.515Z" fill="#1B3C87"/>
<path d="M198.059 273.515H332.247V289.24H198.059V273.515Z" fill="#1B3C87"/>
<path d="M582.951 149.011C582.951 147.944 582.529 146.919 581.778 146.161L524.081 87.9582C523.705 87.5785 523.257 87.277 522.763 87.0713C522.27 86.8656 521.74 86.7597 521.205 86.7598H427.575C427.043 86.7597 426.517 86.8645 426.026 87.0679C425.534 87.2714 425.088 87.5696 424.712 87.9456L368.028 144.63C367.652 145.006 367.353 145.452 367.15 145.944C366.946 146.435 366.842 146.961 366.842 147.493V199.875C366.842 200.925 367.249 201.933 367.979 202.688L396.574 232.296C396.949 232.684 397.399 232.994 397.896 233.206C398.392 233.419 398.927 233.529 399.467 233.532L474.697 233.876L501.601 272.565C501.974 273.102 502.471 273.54 503.049 273.842C503.628 274.145 504.272 274.303 504.925 274.303H565.743C566.597 274.303 567.428 274.032 568.119 273.531C568.81 273.03 569.324 272.323 569.59 271.512L582.748 231.247C582.879 230.84 582.945 230.416 582.943 229.989H582.951V149.011ZM510.273 141.227L569.843 151.552L537.788 179.566L510.273 141.227ZM529.208 181.497H486.602L502.171 143.828L529.208 181.497ZM479.779 176.808L456.048 139.598H495.158L479.779 176.808ZM473.164 181.497H427.716L448.9 143.448L473.164 181.497ZM419.563 179.492L380.924 150.048L441.101 140.805L419.563 179.492ZM476.146 189.595L473.42 221.986L432.476 189.597L476.146 189.595ZM484.273 189.595H524.748L481.6 221.3L484.273 189.595ZM574.853 157.926V219.773L542.924 185.828L574.853 157.926ZM507.034 132.447L522.492 97.8562L567.101 142.857L507.034 132.447ZM498.587 131.5H451.232L433.96 94.8575H514.962L498.587 131.5ZM442.69 132.37L382.495 141.615L426.367 97.7424L442.69 132.37ZM411.958 183.88L374.94 194.502V155.669L411.958 183.88ZM413.219 191.943L398.372 222.504L378.482 201.909L413.219 191.943ZM422.267 191.849L465.107 225.736L405.939 225.465L422.267 191.849ZM536.605 190.933L569.522 225.927L489.142 225.808L536.605 190.933ZM484.577 233.902L563.039 234.018L506.177 264.961L484.577 233.902ZM562.808 266.205H520.833L571.888 238.416L562.808 266.205Z" fill="#1B3C87"/>
<path d="M574.853 161.664C581.562 161.664 587 156.226 587 149.518C587 142.809 581.562 137.371 574.853 137.371C568.145 137.371 562.707 142.809 562.707 149.518C562.707 156.226 568.145 161.664 574.853 161.664Z" fill="#486EC5"/>
<path d="M473.631 242.643C480.339 242.643 485.778 237.205 485.778 230.496C485.778 223.788 480.339 218.35 473.631 218.35C466.923 218.35 461.484 223.788 461.484 230.496C461.484 237.205 466.923 242.643 473.631 242.643Z" fill="#3834EA"/>
<path d="M501.973 283.131C508.682 283.131 514.12 277.693 514.12 270.985C514.12 264.276 508.682 258.838 501.973 258.838C495.265 258.838 489.827 264.276 489.827 270.985C489.827 277.693 495.265 283.131 501.973 283.131Z" fill="#3834EA"/>
<path d="M562.706 283.131C569.415 283.131 574.853 277.693 574.853 270.985C574.853 264.276 569.415 258.838 562.706 258.838C555.998 258.838 550.56 264.276 550.56 270.985C550.56 277.693 555.998 283.131 562.706 283.131Z" fill="#3834EA"/>
<path d="M574.853 242.643C581.562 242.643 587 237.205 587 230.496C587 223.788 581.562 218.35 574.853 218.35C568.145 218.35 562.707 223.788 562.707 230.496C562.707 237.205 568.145 242.643 574.853 242.643Z" fill="#3834EA"/>
<path d="M477.68 198.104C484.388 198.104 489.826 192.666 489.826 185.957C489.826 179.249 484.388 173.811 477.68 173.811C470.971 173.811 465.533 179.249 465.533 185.957C465.533 192.666 470.971 198.104 477.68 198.104Z" fill="#3834EA"/>
<path d="M425.044 104.98C431.753 104.98 437.191 99.5416 437.191 92.8332C437.191 86.1248 431.753 80.6865 425.044 80.6865C418.336 80.6865 412.897 86.1248 412.897 92.8332C412.897 99.5416 418.336 104.98 425.044 104.98Z" fill="#8DC5E0"/>
<path d="M518.169 104.98C524.878 104.98 530.316 99.5416 530.316 92.8332C530.316 86.1248 524.878 80.6865 518.169 80.6865C511.461 80.6865 506.022 86.1248 506.022 92.8332C506.022 99.5416 511.461 104.98 518.169 104.98Z" fill="#8DC5E0"/>
<path d="M368.36 161.664C375.068 161.664 380.507 156.226 380.507 149.518C380.507 142.809 375.068 137.371 368.36 137.371C361.652 137.371 356.213 142.809 356.213 149.518C356.213 156.226 361.652 161.664 368.36 161.664Z" fill="#486EC5"/>
<path d="M368.36 214.3C375.068 214.3 380.507 208.862 380.507 202.153C380.507 195.445 375.068 190.007 368.36 190.007C361.652 190.007 356.213 195.445 356.213 202.153C356.213 208.862 361.652 214.3 368.36 214.3Z" fill="#486EC5"/>
<path d="M396.702 242.643C403.411 242.643 408.849 237.205 408.849 230.496C408.849 223.788 403.411 218.35 396.702 218.35C389.994 218.35 384.556 223.788 384.556 230.496C384.556 237.205 389.994 242.643 396.702 242.643Z" fill="#3834EA"/>
<path d="M445.288 149.518C451.997 149.518 457.435 144.08 457.435 137.371C457.435 130.663 451.997 125.225 445.288 125.225C438.58 125.225 433.142 130.663 433.142 137.371C433.142 144.08 438.58 149.518 445.288 149.518Z" fill="#486EC5"/>
<path d="M497.924 149.518C504.632 149.518 510.071 144.08 510.071 137.371C510.071 130.663 504.632 125.225 497.924 125.225C491.216 125.225 485.777 130.663 485.777 137.371C485.777 144.08 491.216 149.518 497.924 149.518Z" fill="#486EC5"/>
<path d="M416.947 198.104C423.655 198.104 429.094 192.666 429.094 185.957C429.094 179.249 423.655 173.811 416.947 173.811C410.239 173.811 404.8 179.249 404.8 185.957C404.8 192.666 410.239 198.104 416.947 198.104Z" fill="#486EC5"/>
<path d="M534.364 198.104C541.073 198.104 546.511 192.666 546.511 185.957C546.511 179.249 541.073 173.811 534.364 173.811C527.656 173.811 522.218 179.249 522.218 185.957C522.218 192.666 527.656 198.104 534.364 198.104Z" fill="#3834EA"/>
<path opacity="0.1" d="M503.964 45.9141C513.74 37.2158 529.087 35.4327 543.053 36.1252C586.923 38.3031 626.524 59.4766 660.779 83.4269C673.182 92.095 685.39 101.439 693.439 113.379C709.837 137.681 704.965 171.349 682.181 191.372C674.427 198.183 665.03 203.416 655.381 208.036C638.227 216.269 619.717 222.876 600.249 224.763C586.364 226.101 572.309 225.014 558.507 223.141C519.941 217.908 482.088 206.346 450.362 186.575C436.447 177.876 423.328 167.104 417.592 153.07C411.856 139.035 415.527 121.251 429.737 112.944C435.613 109.508 442.641 107.956 449.519 106.501C459.645 104.356 469.933 102.242 479.072 97.8794C488.51 93.3764 499.684 84.6681 497.813 74.7019C495.812 64.0064 494.202 54.6123 503.964 45.9141Z" fill="#1B3C87"/>
<g clip-path="url(#clip0)">
<path d="M662.252 123.402C635.374 123.402 621.059 145.331 621.059 161.162C621.059 170.135 626.407 185.191 662.252 185.191C698.096 185.191 703.444 170.135 703.444 161.162C703.445 143.003 687.695 123.402 662.252 123.402ZM662.252 178.326C649.434 178.326 627.924 176.095 627.924 161.162C627.924 148.207 639.85 130.268 662.252 130.268C685.67 130.268 696.579 148.702 696.579 161.162C696.579 176.094 675.07 178.326 662.252 178.326Z" fill="#1B3C87"/>
<path d="M707.523 188.171C706.623 187.444 705.429 187.21 704.351 187.547C695.089 190.368 679.347 192.057 662.252 192.057C645.13 192.057 629.38 190.368 620.133 187.54C618.293 186.963 616.398 188.007 615.842 189.812C615.67 190.403 615.65 191.007 615.773 191.563C621.32 249.37 639.981 288.173 662.252 288.173C684.585 288.173 703.28 249.184 708.772 191.151C708.875 190.011 708.409 188.892 707.523 188.171ZM662.252 281.308C644.807 281.308 628.598 245.464 623.071 195.394C633.04 197.632 647.189 198.923 662.252 198.923C677.308 198.923 691.458 197.632 701.433 195.394C695.907 245.47 679.704 281.308 662.252 281.308Z" fill="#1B3C87"/>
<path d="M620.689 187.766L620.661 187.752C618.972 186.908 616.92 187.602 616.068 189.29C615.224 190.986 615.924 193.06 617.62 193.904C618.121 194.151 618.643 194.268 619.158 194.268C620.407 194.268 621.623 193.574 622.227 192.373C623.071 190.677 622.384 188.617 620.689 187.766Z" fill="#1B3C87"/>
<path d="M638.223 212.653C640.119 212.653 641.656 211.116 641.656 209.22C641.656 207.324 640.119 205.787 638.223 205.787C636.327 205.787 634.79 207.324 634.79 209.22C634.79 211.116 636.327 212.653 638.223 212.653Z" fill="#1B3C87"/>
<path d="M651.954 212.653C653.85 212.653 655.387 211.116 655.387 209.22C655.387 207.324 653.85 205.787 651.954 205.787C650.058 205.787 648.521 207.324 648.521 209.22C648.521 211.116 650.058 212.653 651.954 212.653Z" fill="#1B3C87"/>
<path d="M665.685 212.653C667.581 212.653 669.118 211.116 669.118 209.22C669.118 207.324 667.581 205.787 665.685 205.787C663.789 205.787 662.252 207.324 662.252 209.22C662.252 211.116 663.789 212.653 665.685 212.653Z" fill="#1B3C87"/>
<path d="M654.418 158.766C651.397 155.67 648.102 154.207 644.608 154.324C639.321 154.557 635.93 158.539 635.559 158.992C634.365 160.462 634.584 162.624 636.06 163.826C636.692 164.341 637.461 164.595 638.223 164.595C639.218 164.595 640.207 164.162 640.886 163.331C640.9 163.311 642.685 161.279 644.91 161.183C646.406 161.142 647.896 161.917 649.496 163.551C650.814 164.917 652.99 164.938 654.35 163.62C655.709 162.302 655.736 160.125 654.418 158.766Z" fill="#1B3C87"/>
<path d="M688.752 158.774C685.759 155.684 682.464 154.174 679.003 154.332C673.71 154.544 670.284 158.526 669.907 158.98C668.705 160.435 668.911 162.563 670.353 163.778C671.815 164.994 673.951 164.801 675.179 163.373C675.2 163.353 677.012 161.266 679.312 161.197C680.857 161.3 682.258 161.945 683.816 163.552C684.489 164.245 685.381 164.595 686.281 164.595C687.139 164.595 688.004 164.272 688.67 163.627C690.036 162.309 690.07 160.133 688.752 158.774Z" fill="#1B3C87"/>
<path d="M633.04 275.973C622.268 259.805 614.125 233.503 610.116 201.923C609.869 200.042 608.132 198.71 606.271 198.95C604.39 199.19 603.058 200.907 603.299 202.788C607.438 235.398 615.972 262.743 627.321 279.777C627.986 280.772 629.071 281.307 630.177 281.307C630.836 281.307 631.502 281.122 632.085 280.731C633.665 279.687 634.09 277.552 633.04 275.973Z" fill="#1B3C87"/>
<path d="M718.24 198.95C716.386 198.71 714.635 200.042 714.395 201.923C710.385 233.503 702.243 259.805 691.471 275.973C690.421 277.552 690.853 279.68 692.425 280.731C693.009 281.122 693.668 281.307 694.327 281.307C695.433 281.307 696.517 280.772 697.19 279.777C708.539 262.743 717.065 235.398 721.212 202.788C721.453 200.907 720.114 199.19 718.24 198.95Z" fill="#1B3C87"/>
</g>
<path d="M796.6 128.43H740.988V191.75H796.6V128.43Z" fill="#CCCCCC"/>
<path d="M769.528 269.088L768.573 282.387C768.529 282.989 768.613 283.594 768.818 284.16C769.023 284.727 769.344 285.242 769.761 285.671C770.178 286.101 770.679 286.435 771.233 286.65C771.787 286.866 772.379 286.959 772.971 286.922L779.68 286.509C779.991 286.489 780.293 286.401 780.567 286.249C780.84 286.097 781.077 285.886 781.261 285.63C781.446 285.374 781.572 285.08 781.632 284.769C781.692 284.458 781.684 284.137 781.609 283.829L777.885 268.662L769.528 269.088Z" fill="#E6E6E6"/>
<path d="M825.645 276.953C833.54 278.834 839.181 281.507 842.886 285.125C844.205 286.404 845.932 287.158 847.751 287.249C850.075 287.374 851.975 287.108 853.403 286.459H853.403C853.769 286.295 854.085 286.034 854.318 285.703C854.552 285.373 854.694 284.985 854.73 284.58C854.773 284.168 854.708 283.752 854.54 283.375C854.372 282.997 854.108 282.673 853.775 282.434L835.05 268.867L827.096 272.107L825.24 273.997C825.039 274.201 824.888 274.451 824.797 274.725C824.707 274.999 824.681 275.291 824.72 275.578C824.759 275.864 824.863 276.137 825.023 276.376C825.184 276.615 825.397 276.813 825.645 276.953H825.645Z" fill="#E6E6E6"/>
<path d="M801.348 59.8042L747.822 59.2995C747.957 51.361 749.771 43.5656 753.736 36.5899C756.34 32.0085 756.283 27.0226 755.656 22.822C754.687 16.3397 756.939 9.70732 761.944 5.58087C765.768 2.4219 770.594 0.79579 775.514 1.0088L776.554 1.05289C779.939 1.19615 783.235 2.20316 786.138 3.98144C789.042 5.75973 791.461 8.25231 793.172 11.2303C794.911 14.4095 795.612 18.0694 795.174 21.6811C794.835 25.0794 795.647 28.5123 797.546 31.9779C800.822 39.5879 801.531 49.3259 801.348 59.8042Z" fill="#2F2E41"/>
<path d="M837.157 269.575L826.652 272.365L775.497 158.886L778.695 269.575H768.19C756.964 217.499 736.698 157.397 745.809 138.423L800.161 135.167L837.157 269.575Z" fill="#0047AB"/>
<path d="M775.039 40.7549C782.858 40.7549 789.198 34.2999 789.198 26.3374C789.198 18.3748 782.858 11.9199 775.039 11.9199C767.219 11.9199 760.88 18.3748 760.88 26.3374C760.88 34.2999 767.219 40.7549 775.039 40.7549Z" fill="#FFB9B9"/>
<path d="M787.371 52.8473L764.077 51.4521C766.36 46.1169 767.272 40.9793 766.361 36.1045H783.717C783.678 39.8474 785.507 46.3219 787.371 52.8473Z" fill="#FFB9B9"/>
<path d="M801.988 139.352L750.833 143.073L756.086 50.755L764.992 48.197L775.04 50.5223L785.088 45.4062L791.483 47.7321L801.988 139.352Z" fill="#0047AB"/>
<path d="M759.51 205.859L724.57 197.72C734.959 162.637 753.677 82.3791 747.635 53.7777L765.905 45.4062L759.51 205.859Z" fill="#E6E6E6"/>
<path d="M742.614 104.471L729.369 96.0995L740.665 62.4116C741.924 58.9354 744.338 56.0168 747.487 54.1603L751.292 51.917L749.008 85.8678L742.614 104.471Z" fill="#E6E6E6"/>
<path d="M832.362 198.185C821.334 204.682 793.768 208.304 781.664 203.766C780.774 172.069 779.027 82.4088 784.633 44.4766L804.73 52.848L802.903 77.9623C793.295 99.4462 821.194 174.275 832.362 198.185Z" fill="#E6E6E6"/>
<path d="M830.763 100.285L818.431 96.0993L801.989 77.0308L804.729 52.8467L832.133 91.9135L830.763 100.285Z" fill="#E6E6E6"/>
<path d="M792.113 118.388C792.315 119.289 792.86 120.073 793.628 120.566C794.396 121.06 795.325 121.223 796.211 121.02L806.679 118.606L805.166 111.802L794.698 114.215C793.812 114.42 793.042 114.974 792.557 115.757C792.072 116.539 791.913 117.486 792.113 118.388Z" fill="#FFB9B9"/>
<path d="M787.371 22.6175C779.506 19.3246 771.739 19.0863 764.077 22.1524L760.88 10.5254H790.111L787.371 22.6175Z" fill="#2F2E41"/>
<path d="M801.53 110.517L807.467 121.679C817.454 118.843 826.109 109.901 834.415 99.3553L832.131 91.9141L817.972 95.6347L801.53 110.517Z" fill="#E6E6E6"/>
<path d="M797.193 87.4953H795.366C795.366 61.1837 790.046 42.8476 784.862 42.8476L784.405 40.9873C789.054 40.9873 792.019 48.6186 793.687 55.0208C795.948 63.6999 797.193 75.2329 797.193 87.4953Z" fill="white"/>
<path d="M755.174 80.9846H753.347C753.347 56.8875 758.704 41.918 766.593 41.918L766.136 43.7783C760.68 43.7783 755.174 55.2829 755.174 80.9846Z" fill="white"/>
<path d="M796.28 92.6112C798.802 92.6112 800.847 90.5289 800.847 87.9604C800.847 85.3918 798.802 83.3096 796.28 83.3096C793.757 83.3096 791.712 85.3918 791.712 87.9604C791.712 90.5289 793.757 92.6112 796.28 92.6112Z" fill="white"/>
<path d="M747.867 92.1458H746.04C746.04 85.4782 749.728 80.0537 754.261 80.0537V81.914C750.735 81.914 747.867 86.504 747.867 92.1458Z" fill="white"/>
<path d="M762.481 92.1458H760.654C760.654 86.504 757.786 81.914 754.26 81.914V80.0537C758.793 80.0537 762.481 85.4782 762.481 92.1458Z" fill="white"/>
<path d="M761.57 94.4716C762.579 94.4716 763.397 93.6387 763.397 92.6113C763.397 91.5839 762.579 90.751 761.57 90.751C760.561 90.751 759.743 91.5839 759.743 92.6113C759.743 93.6387 760.561 94.4716 761.57 94.4716Z" fill="white"/>
<path d="M746.954 94.4716C747.963 94.4716 748.781 93.6387 748.781 92.6113C748.781 91.5839 747.963 90.751 746.954 90.751C745.945 90.751 745.127 91.5839 745.127 92.6113C745.127 93.6387 745.945 94.4716 746.954 94.4716Z" fill="white"/>
<path d="M724.115 75.5049L735.514 77.5775L761.568 115.3L747.726 111.983L724.115 75.5049Z" fill="#0047AB"/>
<path d="M722.095 75.043C721.921 75.0456 721.752 75.0958 721.603 75.1881C721.455 75.2805 721.334 75.4117 721.253 75.568C721.172 75.7243 721.133 75.9 721.141 76.0767C721.149 76.2534 721.204 76.4246 721.3 76.5724L745.653 114.198C745.789 114.408 745.999 114.557 746.24 114.615L757.571 117.33C757.762 117.375 757.962 117.361 758.145 117.288C758.327 117.215 758.484 117.088 758.594 116.922C758.704 116.757 758.762 116.561 758.76 116.361C758.758 116.161 758.697 115.967 758.584 115.803L731.845 77.0897C731.773 76.9843 731.681 76.8944 731.574 76.8252C731.467 76.756 731.348 76.709 731.224 76.6866L722.278 75.0598C722.217 75.0488 722.156 75.0431 722.095 75.043Z" fill="white"/>
<path d="M737.288 101.945L737.964 108.887L748.645 107.808C749.549 107.716 750.381 107.263 750.956 106.548C751.532 105.832 751.805 104.913 751.716 103.992C751.626 103.072 751.181 102.225 750.478 101.639C749.775 101.052 748.873 100.774 747.969 100.866L737.288 101.945Z" fill="#FFB9B9"/>
<path d="M727.997 101.14C728.012 103.507 728.946 105.772 730.594 107.442C732.242 109.111 734.472 110.049 736.797 110.052H738.553L739.831 99.202L729.245 95.3213L727.997 101.14Z" fill="#E6E6E6"/>
<path d="M927.037 286.81H664.369V287.963H927.037V286.81Z" fill="white"/>
<defs>
<clipPath id="clip0">
<rect width="164.77" height="164.77" fill="white" transform="translate(579.87 123.402)"/>
</clipPath>
</defs>
</svg>
