<svg width="316" height="269" viewBox="0 0 316 269" fill="none" xmlns="http://www.w3.org/2000/svg">
<path d="M0.889923 89.4525C0.889832 87.9297 1.50327 86.4686 2.59671 85.387L86.537 2.37246C87.0847 1.8308 87.7364 1.40087 88.4545 1.10748C89.1725 0.814085 89.9428 0.663048 90.7207 0.663086H226.94C227.713 0.663058 228.479 0.81241 229.194 1.10261C229.909 1.39281 230.558 1.81817 231.105 2.35442L313.573 83.2034C314.12 83.7396 314.554 84.3763 314.85 85.0769C315.146 85.7776 315.298 86.5286 315.298 87.2869V162C315.298 163.497 314.705 164.935 313.644 166.012L272.042 208.241C271.496 208.796 270.842 209.237 270.119 209.54C269.396 209.843 268.619 210.001 267.833 210.004L158.384 210.496L119.243 265.678C118.7 266.443 117.977 267.068 117.135 267.499C116.293 267.931 115.357 268.156 114.407 268.156H25.9247C24.683 268.155 23.4733 267.77 22.4683 267.055C21.4633 266.34 20.7144 265.332 20.3287 264.175L1.18445 206.745C0.993927 206.165 0.898468 205.56 0.901703 204.951H0.889923V89.4525ZM106.625 78.3502L19.9606 93.0763L66.596 133.032L106.625 78.3502ZM79.0788 135.787H141.064L118.413 82.0592L79.0788 135.787ZM150.991 129.099L185.515 76.0258H128.616L150.991 129.099ZM160.614 135.787H226.735L195.914 81.5171L160.614 135.787ZM238.596 132.928L294.81 90.9316L207.262 77.7482L238.596 132.928ZM156.275 147.337L160.242 193.536L219.81 147.34L156.275 147.337ZM144.453 147.337H85.5665L148.341 192.557L144.453 147.337ZM12.671 102.168V190.38L59.1239 141.965L12.671 102.168ZM111.338 65.8266L88.849 16.49L23.9492 80.6739L111.338 65.8266ZM123.628 64.476H192.523L217.651 12.2129H99.8047L123.628 64.476ZM204.95 65.7176L292.524 78.9025L228.697 16.3276L204.95 65.7176ZM249.659 139.185L303.517 154.335V98.948L249.659 139.185ZM247.825 150.685L269.425 194.275L298.363 164.9L247.825 150.685ZM234.662 150.552L172.336 198.885L258.417 198.498L234.662 150.552ZM68.3168 149.245L20.4274 199.158L137.368 198.988L68.3168 149.245ZM144.01 210.532L29.8582 210.698L112.585 254.832L144.01 210.532ZM30.1954 256.606H91.2627L16.9844 216.971L30.1954 256.606Z" fill="#E3EBF8"/>
</svg>
