<svg width="623" height="391" viewBox="0 0 623 391" fill="none" xmlns="http://www.w3.org/2000/svg">
<path d="M547.467 350.674L454.176 351.319L335.193 350.872L69.1832 349.878C69.1832 349.878 31.0233 318.022 31.9502 262.51C32.5417 227.041 40.4283 152.165 123.082 134.662C200.604 118.246 179.993 13.8236 294.295 24.0856C339.396 28.1332 359.408 68.3193 394.266 57.614C541.566 12.3752 573.904 106.45 584.992 197.776C589.083 231.472 578.035 336.317 547.467 350.674Z" fill="#0047AB"/>
<path d="M323.733 95.9004H294.008C292.644 95.9004 291.528 94.7817 291.528 93.4156V64.6687C291.528 63.3026 292.644 62.184 294.008 62.184H323.733C325.098 62.184 326.213 63.3026 326.213 64.6687V93.4156C326.213 94.7817 325.098 95.9004 323.733 95.9004Z" fill="#C0D8FB"/>
<path d="M322.449 94.4404H295.299C294.053 94.4404 293.032 93.4169 293.032 92.169V65.9136C293.032 64.6658 294.053 63.6442 295.299 63.6442H322.449C323.694 63.6442 324.714 64.6658 324.714 65.9136V92.169C324.714 93.4169 323.694 94.4404 322.449 94.4404Z" fill="#DFEBFD"/>
<path d="M308.154 66.7196C308.154 66.3219 308.475 65.9997 308.872 65.9997C309.271 65.9997 309.591 66.3219 309.591 66.7196C309.591 67.1173 309.271 67.4395 308.872 67.4395C308.475 67.4395 308.154 67.1173 308.154 66.7196Z" fill="#AADAF1"/>
<path d="M313.951 67.7389C314.145 67.3903 314.584 67.2655 314.93 67.4576C315.276 67.6518 315.4 68.0895 315.209 68.4381C315.015 68.7848 314.58 68.9095 314.23 68.7174C313.884 68.5233 313.76 68.0856 313.951 67.7389Z" fill="#AADAF1"/>
<path d="M318.917 71.6932C319.253 71.4768 319.697 71.5732 319.913 71.9077C320.127 72.2422 320.031 72.687 319.699 72.9034C319.363 73.1179 318.919 73.0215 318.703 72.687C318.489 72.3544 318.585 71.9077 318.917 71.6932Z" fill="#AADAF1"/>
<path d="M321.378 77.8106C321.776 77.8106 322.098 78.1333 322.098 78.5313C322.098 78.9292 321.776 79.252 321.378 79.252C320.981 79.252 320.661 78.9292 320.661 78.5313C320.661 78.1333 320.981 77.8106 321.378 77.8106Z" fill="#AADAF1"/>
<path d="M320.122 84.9151C320.403 85.1948 320.403 85.6517 320.122 85.9313C319.843 86.213 319.387 86.213 319.106 85.9313C318.827 85.6517 318.827 85.1948 319.106 84.9151C319.387 84.6335 319.843 84.6335 320.122 84.9151Z" fill="#AADAF1"/>
<path d="M315.61 89.4474C315.892 89.7283 315.892 90.1828 315.61 90.4636C315.329 90.7465 314.876 90.7465 314.594 90.4636C314.313 90.1828 314.313 89.7283 314.594 89.4474C314.876 89.1645 315.329 89.1645 315.61 89.4474Z" fill="#AADAF1"/>
<path d="M308.153 91.7831C308.153 91.3852 308.475 91.0633 308.872 91.0633C309.269 91.0633 309.59 91.3852 309.59 91.7831C309.59 92.1811 309.269 92.5029 308.872 92.5029C308.475 92.5029 308.153 92.1811 308.153 91.7831Z" fill="#AADAF1"/>
<path d="M303.772 67.7389C303.578 67.3903 303.141 67.2655 302.795 67.4576C302.447 67.6518 302.321 68.0895 302.515 68.4381C302.706 68.7848 303.145 68.9095 303.491 68.7174C303.837 68.5233 303.964 68.0856 303.772 67.7389Z" fill="#AADAF1"/>
<path d="M298.801 71.6937C298.467 71.4786 298.024 71.5744 297.808 71.9087C297.593 72.243 297.689 72.6887 298.023 72.9038C298.356 73.1188 298.801 73.023 299.016 72.6887C299.232 72.3545 299.137 71.9107 298.801 71.6937Z" fill="#AADAF1"/>
<path d="M296.343 77.8124C295.946 77.8124 295.623 78.1342 295.623 78.5322C295.623 78.9301 295.946 79.252 296.343 79.252C296.739 79.252 297.062 78.9301 297.062 78.5322C297.062 78.1342 296.739 77.8124 296.343 77.8124Z" fill="#AADAF1"/>
<path d="M297.599 84.9146C297.319 85.1955 297.319 85.652 297.599 85.9329C297.88 86.2138 298.335 86.2138 298.616 85.9329C298.896 85.652 298.896 85.1955 298.616 84.9146C298.335 84.6337 297.88 84.6337 297.599 84.9146Z" fill="#AADAF1"/>
<path d="M302.11 89.4474C301.83 89.7283 301.83 90.1828 302.11 90.4636C302.391 90.7465 302.846 90.7465 303.126 90.4636C303.407 90.1828 303.407 89.7283 303.126 89.4474C302.846 89.1645 302.391 89.1645 302.11 89.4474Z" fill="#AADAF1"/>
<path d="M308.679 78.5322C308.679 78.1342 309 77.8124 309.397 77.8124C309.794 77.8124 310.116 78.1342 310.116 78.5322C310.116 78.9301 309.794 79.252 309.397 79.252C309 79.252 308.679 78.9301 308.679 78.5322Z" fill="#AADAF1"/>
<path d="M309.495 78.5332H309.299V69.5388H309.495V78.5332Z" fill="#AADAF1"/>
<path d="M309.489 78.752L309.125 78.2877L313.883 74.5444L314.247 75.0086L309.489 78.752Z" fill="#AADAF1"/>
<path d="M147.943 216.002C147.943 216.002 141.874 208.907 147.569 204.401C147.569 204.401 151.73 201.877 155.122 202.082C155.122 202.082 150.315 210.158 151.87 210.961C153.425 211.765 156.578 201.575 156.578 201.575C156.578 201.575 166.046 200.656 169.091 202.123C169.091 202.123 160.998 208.759 162.702 209.153C164.407 209.549 173.149 203.036 173.149 203.036C173.149 203.036 181.96 204.538 181.49 209.923C181.021 215.309 177.985 216.971 176.65 216.829C175.316 216.685 167.51 213.7 167.34 214.796C167.17 215.891 171.868 219.472 175.159 219.638C175.159 219.638 168.947 226.502 164.818 224.522C160.689 222.54 160.337 219.4 157.763 218.224C155.189 217.045 152.992 217.047 154.055 218.249C155.118 219.451 159.775 220.617 161.247 223.227C162.719 225.835 164.04 227.595 159.768 226.949C155.497 226.305 148.553 223.174 148.248 219.589C147.943 216.002 147.943 216.002 147.943 216.002Z" fill="#E2F0FE"/>
<path d="M177.161 210.068C177.161 210.068 153.229 209.145 147.943 216.002C147.943 216.002 146.775 219.509 143.178 222.704L142.617 224.233C142.617 224.233 146.764 219.852 148.248 219.589C148.248 219.589 145.928 211.092 177.161 210.068Z" fill="#E2F0FE"/>
<path d="M143.178 222.704C143.178 222.704 138.041 226.51 137.685 233.312L138.617 233.394C138.617 233.394 140.258 226.361 143.223 223.611C146.188 220.862 143.178 222.704 143.178 222.704Z" fill="#E2F0FE"/>
<path d="M126.722 207.079C126.722 207.079 136.377 201.662 131.871 194.308C131.871 194.308 128.267 189.794 124.404 188.634C124.404 188.634 126.464 199.598 124.404 199.856C122.345 200.113 122.988 187.473 122.988 187.473C122.988 187.473 112.818 182.571 108.827 182.957C108.827 182.957 115.135 193.664 113.075 193.405C111.015 193.147 103.935 182.313 103.935 182.313C103.935 182.313 93.5067 180.378 91.8332 186.57C90.1596 192.761 92.8631 195.857 94.4079 196.243C95.9528 196.631 105.866 196.503 105.608 197.792C105.351 199.081 98.6564 201.145 94.9229 199.984C94.9229 199.984 99.0426 210.175 104.45 209.66C109.857 209.143 111.53 205.79 114.878 205.53C118.225 205.273 120.671 206.176 118.997 207.079C117.324 207.982 111.659 207.376 108.956 209.677C106.252 211.981 104.063 213.399 109.084 214.431C114.105 215.463 123.117 214.819 124.919 210.949C126.722 207.079 126.722 207.079 126.722 207.079Z" fill="#E2F0FE"/>
<path d="M96.5967 188.504C96.5967 188.504 123.632 197.275 126.722 207.079C126.722 207.079 126.593 211.464 129.297 216.495V218.43C129.297 218.43 126.464 211.852 124.919 210.949C124.919 210.949 130.97 202.434 96.5967 188.504Z" fill="#E2F0FE"/>
<path d="M129.296 216.495C129.296 216.495 133.465 222.839 131.088 230.562L130.016 230.273C130.016 230.273 131.057 221.768 128.876 217.49C126.694 213.212 129.296 216.495 129.296 216.495Z" fill="#E2F0FE"/>
<path d="M142.083 199.608C142.083 199.608 129.355 192.467 135.295 182.774C135.295 182.774 140.046 176.822 145.137 175.293C145.137 175.293 142.422 189.745 145.137 190.085C147.853 190.426 147.004 173.762 147.004 173.762C147.004 173.762 160.411 167.301 165.671 167.81C165.671 167.81 157.356 181.923 160.071 181.584C162.786 181.244 172.12 166.962 172.12 166.962C172.12 166.962 185.866 164.41 188.072 172.572C190.278 180.733 186.715 184.814 184.678 185.325C182.642 185.834 169.575 185.665 169.914 187.366C170.254 189.065 179.078 191.786 183.999 190.256C183.999 190.256 178.569 203.689 171.441 203.008C164.314 202.327 162.108 197.907 157.695 197.568C153.283 197.226 150.059 198.418 152.265 199.608C154.471 200.798 161.938 199.998 165.502 203.033C169.066 206.069 171.95 207.939 165.332 209.299C158.714 210.66 146.834 209.81 144.459 204.709C142.083 199.608 142.083 199.608 142.083 199.608Z" fill="#AADAF1"/>
<path d="M181.793 175.123C181.793 175.123 146.156 186.685 142.082 199.608C142.082 199.608 142.252 205.388 138.688 212.02V214.569C138.688 214.569 142.422 205.899 144.458 204.709C144.458 204.709 136.482 193.487 181.793 175.123Z" fill="#AADAF1"/>
<path d="M138.688 212.02C138.688 212.02 133.193 220.383 136.326 230.562L137.74 230.181C137.74 230.181 136.367 218.969 139.243 213.331C142.118 207.692 138.688 212.02 138.688 212.02Z" fill="#AADAF1"/>
<path d="M141.654 252.635C155.423 252.635 166.585 241.45 166.585 227.654H116.722C116.722 241.45 127.885 252.635 141.654 252.635Z" fill="#AADAF1"/>
<path d="M166.93 253.904H116.378C116.378 252.203 117.755 250.822 119.454 250.822H163.854C165.553 250.822 166.93 252.203 166.93 253.904Z" fill="#AADAF1"/>
<path d="M167.152 228.419H115.902V227.654H167.152V228.419Z" fill="#9FC1F4"/>
<path d="M172.145 255.431V257.828C172.145 258.667 171.874 259.354 171.543 259.354H84.2309C83.9001 259.354 83.6289 258.667 83.6289 257.828V255.431C83.6289 254.592 83.9001 253.905 84.2309 253.905H171.543C171.874 253.905 172.145 254.592 172.145 255.431Z" fill="#9ABFE2"/>
<path d="M172.145 255.431V257.828C172.145 258.667 171.896 259.354 171.593 259.354H102.277C101.973 259.354 101.724 258.667 101.724 257.828V255.431C101.724 254.592 101.973 253.905 102.277 253.905H171.593C171.896 253.905 172.145 254.592 172.145 255.431Z" fill="#8DC5E0"/>
<path d="M150.047 349.876H88.0605V259.353H150.047V349.876Z" fill="#E2F0FE"/>
<path d="M167.418 349.876H105.432V259.353H167.418V349.876Z" fill="#DFEBFD"/>
<path d="M109.36 344.279H163.49V262.509H109.36V344.279ZM164.087 344.878H108.763V261.91H164.087V344.878Z" fill="#AADAF1"/>
<path d="M163.789 289.955H109.062V289.356H163.789V289.955Z" fill="#AADAF1"/>
<path d="M163.789 317.938H109.062V317.339H163.789V317.938Z" fill="#AADAF1"/>
<path d="M142.033 267.261H131.878C131.385 267.261 130.982 266.857 130.982 266.363C130.982 265.87 131.385 265.464 131.878 265.464H142.033C142.526 265.464 142.929 265.87 142.929 266.363C142.929 266.857 142.526 267.261 142.033 267.261Z" fill="#AADAF1"/>
<path d="M142.033 294.623H131.878C131.385 294.623 130.982 294.219 130.982 293.726C130.982 293.232 131.385 292.828 131.878 292.828H142.033C142.526 292.828 142.929 293.232 142.929 293.726C142.929 294.219 142.526 294.623 142.033 294.623Z" fill="#AADAF1"/>
<path d="M142.033 323.147H131.878C131.385 323.147 130.982 322.744 130.982 322.25C130.982 321.757 131.385 321.353 131.878 321.353H142.033C142.526 321.353 142.929 321.757 142.929 322.25C142.929 322.744 142.526 323.147 142.033 323.147Z" fill="#AADAF1"/>
<path d="M101.79 241.49V254.068H89.1328V241.451C89.1328 241.329 89.1383 241.21 89.1515 241.091C89.2843 239.645 90.2108 238.432 91.488 237.89C92.3987 237.503 93.0384 236.668 93.0889 235.679L93.1819 233.861H97.8282L97.8575 235.674C97.876 236.661 98.5 237.509 99.408 237.891C100.69 238.434 101.622 239.647 101.768 241.091C101.782 241.223 101.79 241.356 101.79 241.49Z" fill="#E2F0FE"/>
<path d="M98.16 234.659H92.7393L92.8829 233.241H98.0163L98.16 234.659Z" fill="#AADAF1"/>
<path d="M101.79 241.491V249.604H89.1328V241.452C89.1328 241.329 89.1383 241.21 89.1515 241.091H101.768C101.782 241.223 101.79 241.356 101.79 241.491Z" fill="#1B3C87"/>
<path d="M112.187 247.034V254.068H105.107V247.011C105.107 246.943 105.111 246.876 105.118 246.808C105.192 246 105.711 245.322 106.425 245.019C106.934 244.803 107.292 244.336 107.32 243.783L107.372 242.766H109.971L109.988 243.779C109.998 244.331 110.347 244.807 110.855 245.019C111.572 245.324 112.094 246.002 112.175 246.808C112.183 246.884 112.187 246.958 112.187 247.034Z" fill="#E2F0FE"/>
<path d="M110.157 243.213H107.125L107.205 242.419H110.077L110.157 243.213Z" fill="#AADAF1"/>
<path d="M112.187 247.035V251.572H105.107V247.012C105.107 246.943 105.111 246.877 105.118 246.809H112.175C112.183 246.885 112.187 246.959 112.187 247.035Z" fill="#1B3C87"/>
<path d="M512.448 350.674H367.444V85.0959H512.448V350.674Z" fill="#D3E3F7"/>
<path d="M506.26 350.674H373.812V89.76H506.26V350.674Z" fill="#E5EFFB"/>
<path d="M483.792 218.434C483.792 215.194 486.413 212.567 489.647 212.567C492.882 212.567 495.502 215.194 495.502 218.434C495.502 221.674 492.882 224.3 489.647 224.3C486.413 224.3 483.792 221.674 483.792 218.434Z" fill="#D3E3F7"/>
<path d="M467.566 146.593H412.893V129.3H467.566V146.593Z" fill="#F5F9FD"/>
<path d="M457.418 136.44H423.039V134.661H457.418V136.44Z" fill="#D3E3F7"/>
<path d="M452.607 141.232H427.85V139.453H452.607V141.232Z" fill="#D3E3F7"/>
<path d="M413.548 145.936H466.908V129.958H413.548V145.936ZM468.22 147.251H412.235V128.643H468.22V147.251Z" fill="#8DC5E0"/>
<path d="M377.377 110.956C372.838 108.598 369.201 110.08 369.201 110.08C355.314 108.446 351.263 124.674 351.452 130.257C351.636 135.838 352.274 141.837 346.071 149.09C328.159 170.043 365.677 170.967 365.677 170.967C365.995 154.226 386.022 160.335 385.145 162.031C410.82 168.204 387.698 116.323 377.377 110.956Z" fill="#163560"/>
<path d="M323.808 180.747C323.808 180.747 321.365 177.021 319.396 176.948C317.427 176.876 313.784 175.853 314.076 176.583C314.368 177.314 316.629 177.387 316.845 177.825C317.064 178.263 313.494 178.92 312.471 178.994C311.452 179.067 309.044 178.994 309.119 179.505C309.191 180.017 313.454 182.135 316.462 181.842C319.469 181.549 323.188 182.718 323.188 182.718L323.808 180.747Z" fill="#FFB27D"/>
<path d="M359.125 181.953C359.125 181.953 357.796 184.587 355.39 187.613C352.489 191.255 348.014 195.462 342.396 196.291C339.712 196.689 337.088 196.11 334.676 195.036C334.669 195.034 334.667 195.034 334.667 195.034C327.844 191.999 322.712 185.02 322.712 185.02C321.509 181.734 323.477 179.505 323.477 179.505C323.477 179.505 337.256 182.61 338.569 181.953C339.88 181.295 347.536 159.202 349.356 156.425C351.18 153.65 357.391 152.208 357.391 152.208L359.125 181.953Z" fill="#F9DDBF"/>
<path d="M355.392 187.612C352.49 191.254 348.016 195.461 342.396 196.29C339.716 196.688 337.089 196.109 334.677 195.035C334.944 195.071 341.758 195.914 344.474 191.045C347.245 186.078 350.242 178.189 354.356 180.819C356.133 181.954 356.054 184.774 355.392 187.612Z" fill="#F2CCAA"/>
<path d="M410.529 330.964C410.529 330.964 414.733 334.809 413.913 337.54C413.091 340.273 409.298 342.093 408.784 345.43C408.272 348.77 406.222 350.59 404.377 350.59C402.532 350.59 395.579 350.59 395.579 350.59C395.579 350.59 394.217 348.241 397.5 347.533C400.782 346.825 402.018 342.902 401.812 339.26C401.606 335.618 402.12 330.763 402.12 330.763L409.092 329.144L410.529 330.964Z" fill="#233862"/>
<path d="M374.945 332.597C374.945 332.597 376.458 348.881 374.613 349.792L350.993 349.743C350.993 349.743 350.993 347.012 354.785 346.406C358.58 345.799 365.245 343.573 366.372 338.617C367.501 333.66 374.945 332.597 374.945 332.597Z" fill="#233862"/>
<path d="M391.778 215.764C386.918 204.842 383.944 201.707 384.51 198.317C384.934 195.792 383.225 151.274 383.225 151.274C382.647 151.095 381.493 150.934 380.858 150.794C378.864 150.35 377.214 148.947 376.527 147.02C375.699 144.699 375.043 141.27 375.058 136.974L374.436 137.097L363.967 139.175C363.967 139.175 364.206 142.476 364.211 145.586C364.211 145.611 364.211 145.637 364.211 145.664C364.226 148.364 362.457 150.748 359.865 151.497C358.543 151.88 357.394 152.207 357.394 152.207C357.394 152.207 353.548 163.203 352.815 174.501C352.08 185.798 359.807 190.706 352.757 213.282C345.56 236.339 394.464 221.799 391.778 215.764Z" fill="#FFB27D"/>
<path d="M363.966 139.175C363.966 139.175 364.202 142.475 364.212 145.585C370.069 145.419 373.166 140.066 374.436 137.097L363.966 139.175Z" fill="#D79C43"/>
<path d="M362.011 142.119C362.011 142.119 375.872 142.348 375.881 133.698C375.891 125.045 377.686 119.251 368.835 118.738C359.988 118.225 358.264 121.524 357.56 124.412C356.856 127.297 358.403 141.838 362.011 142.119Z" fill="#FFB27D"/>
<path d="M362.525 118.525C362.525 118.525 366.318 128.673 372.145 130.175C377.966 131.676 380.495 130.112 380.495 130.112C380.495 130.112 376.027 126.557 375.1 120.349C375.1 120.349 365.387 113.695 362.525 118.525Z" fill="#163560"/>
<path d="M363.463 119.351C363.463 119.351 360.646 120.405 359.489 122.461C358.359 124.472 357.393 127.135 357.616 130.403C357.616 130.403 354.755 123.504 357.971 119.601C361.378 115.463 363.463 119.351 363.463 119.351Z" fill="#163560"/>
<path d="M365.024 136.753C365.024 136.753 364.068 138.014 362.155 137.924C360.612 137.85 360.019 136.511 360.019 136.511C360.019 136.511 362.85 135.828 365.024 136.753Z" fill="#1B3C87"/>
<path d="M389.891 170.967C389.891 170.967 389.839 177.553 389.487 183.52C389.253 187.475 388.889 191.158 388.322 192.469C386.901 195.755 385.299 196.29 385.299 196.29L372.896 199.336L368.536 200.405L354.784 196.29C354.784 196.29 348.52 178.774 351.036 168.913C353.55 159.053 357.392 152.205 357.392 152.205C357.392 152.205 368.615 163.214 383.225 151.272L389.891 170.967Z" fill="#F9DDBF"/>
<path d="M389.485 183.521C389.251 187.476 388.887 191.159 388.321 192.47C386.899 195.756 385.296 196.29 385.296 196.29L372.895 199.337L367.509 197.751C367.509 197.751 385.49 195.02 383.497 179.519L389.485 183.521Z" fill="#F2CCAA"/>
<path d="M355.66 198.948C355.66 198.948 348.85 220.187 348.411 227.418C347.974 234.649 361.429 330.141 361.971 333.473C362.482 336.613 366.373 338.617 366.373 338.617C366.373 338.617 368.162 339.674 370.719 338.952C374.265 337.947 375.383 336.748 375.383 336.748C375.383 336.748 380.685 268.644 377.404 244.315C374.125 219.988 374.085 198.948 374.085 198.948H355.66Z" fill="#AADAF1"/>
<path d="M384.513 198.316C384.513 198.316 394.898 212.281 395.869 221.722C396.836 231.161 397.388 264.321 399.451 273.524C401.514 282.727 409.093 300.439 409.093 329.144C409.093 329.144 408.308 330.788 405.873 331.666C405.095 331.945 404.054 332.218 403.04 332.45C401.035 332.91 398.977 331.927 398.061 330.08C392.936 319.741 376.61 286.397 375.774 279.476C375.181 274.577 370.026 242.157 358.783 223.134C356.085 218.568 360.439 200.405 360.439 200.405L384.513 198.316Z" fill="#AADAF1"/>
<path d="M354.57 195.672C354.57 195.672 357.303 197.837 362.735 197.948C369.222 198.079 385.294 196.29 385.294 196.29C385.294 196.29 386.01 198.289 385.981 200.402C385.981 200.402 366.349 205.363 354.973 201.126C354.973 201.126 353.507 198.36 354.57 195.672Z" fill="#233862"/>
<path d="M361.179 197.818C360.086 197.818 359.199 198.883 359.199 200.192C359.199 201.501 360.086 202.566 361.179 202.566C362.269 202.566 363.158 201.501 363.158 200.192C363.158 198.883 362.269 197.818 361.179 197.818ZM361.179 203.549C359.546 203.549 358.219 202.043 358.219 200.192C358.219 198.341 359.546 196.835 361.179 196.835C362.812 196.835 364.139 198.341 364.139 200.192C364.139 202.043 362.812 203.549 361.179 203.549Z" fill="#1B3C87"/>
<path d="M410.394 231.879L379.496 238.555L375.765 221.204L406.661 214.53L410.394 231.879Z" fill="#163560"/>
<path d="M375.763 221.203C375.763 221.203 384.4 228.454 394 225.932C403.598 223.41 406.659 214.53 406.659 214.53L375.763 221.203Z" fill="#17467F"/>
<path d="M380.088 218.922C379.455 218.922 378.94 219.437 378.94 220.069C378.94 220.703 379.455 221.218 380.088 221.218C380.718 221.218 381.231 220.703 381.231 220.069C381.231 219.437 380.718 218.922 380.088 218.922ZM380.088 221.789C379.139 221.789 378.371 221.017 378.371 220.069C378.371 219.121 379.139 218.35 380.088 218.35C381.031 218.35 381.802 219.121 381.802 220.069C381.802 221.017 381.031 221.789 380.088 221.789Z" fill="#17467F"/>
<path d="M405.236 222.247C405.236 222.247 405.248 224.762 405.723 225.973C406.201 227.186 407.628 228.803 408.105 228.803C408.58 228.803 407.668 226.277 407.906 226.328C408.143 226.379 409.292 230.534 410.126 230.635C410.959 230.735 411.715 225.973 411.278 224.104C410.843 222.233 408.959 219.992 408.959 219.992L405.236 222.247Z" fill="#FFB27D"/>
<path d="M383.227 151.272C383.227 151.272 390.893 152.314 395.022 160.461C398.21 166.757 400.399 186.561 402.648 192.797C404.801 198.764 407.773 210.3 409.432 219.543C409.56 220.261 409.165 220.967 408.489 221.236L405.67 222.356C405.06 222.598 404.369 222.362 404.035 221.8C401.529 217.584 391.65 200.703 388.217 190.936C384.207 179.519 376.705 172.427 376.705 172.427L383.227 151.272Z" fill="#F9DDBF"/>
<path d="M379.52 218.736C379.501 218.454 377.72 190.214 378.059 174.335C378.238 165.998 379.522 160.125 380.571 156.666C381.713 152.89 383.419 151.346 383.466 151.273L384.046 151.446C384.004 151.514 379.272 158.648 378.936 174.354C378.594 190.195 380.375 218.399 380.394 218.682L379.52 218.736Z" fill="#0C2442"/>
<path d="M232.367 349.708H246.936C246.827 348.943 246.455 346.614 245.773 344.469C245.538 343.721 245.261 342.996 244.948 342.366C243.531 339.533 234.532 341.336 234.532 341.336C234.532 341.336 233.697 342.054 233.045 344.794C232.755 346 232.5 347.603 232.367 349.708Z" fill="#233862"/>
<path d="M259.109 126.758C259.109 126.758 270.719 128.801 273.343 135.665C275.967 142.53 290.793 253.423 290.793 253.423C290.793 253.423 283.451 259.252 267.691 257.159C251.933 255.066 259.109 126.758 259.109 126.758Z" fill="white"/>
<path d="M276.388 345.102C276.429 347.088 276.678 348.967 277.396 349.708H306.212C305.846 348.664 304.808 347.092 301.849 346.612C298.489 346.066 293.248 344.445 290.189 341.205C289.099 340.054 288.287 338.697 287.933 337.109C286.576 331.062 276.723 338.962 276.723 338.962C276.723 338.962 276.326 342.145 276.388 345.102Z" fill="#233862"/>
<path d="M288.798 342.161C285.577 343.19 279.423 346.333 275.514 344.854C272.987 343.901 258.864 302.968 257.947 285.062C257.881 283.761 257.624 281.945 257.225 279.729C256.388 275.11 254.926 268.761 253.24 261.754C248.721 242.981 242.608 219.495 242.74 211.988C242.945 200.337 277.395 209.546 277.395 209.546C277.395 209.546 279.764 219.103 280.235 232.941C281.172 260.406 283.744 306.801 290.739 339.02C291.035 340.385 290.133 341.735 288.798 342.161Z" fill="#F7D167"/>
<path d="M264.888 212.03L246.677 344.274C246.677 344.274 238.679 346.207 232.461 344.662C232.461 344.662 227.128 274.327 227.572 257.323C228.016 240.319 223.746 211.823 228.547 208.681C233.348 205.538 264.888 212.03 264.888 212.03Z" fill="#F7D167"/>
<path d="M226.246 132.815C226.246 132.815 245.384 120.416 259.109 126.758C261.298 127.768 263.794 130.587 265.579 132.559C270.541 138.039 280.237 225.06 280.237 225.06C280.237 225.06 252.714 234.4 226.246 221.89V132.815Z" fill="#1B3C87"/>
<path d="M260.2 126.444C260.2 126.444 279.573 134.399 282.197 140.512C284.822 146.624 293.351 184.163 293.351 188.565C293.351 192.966 278.5 189.548 276.11 182.448C274.126 176.553 267.428 158.443 263.899 146.989L260.2 126.444Z" fill="white"/>
<path d="M256.176 132.505C251.945 133.336 245.732 132.45 241.185 129.446C243.239 124.532 244.08 120.65 244.379 118.14C244.397 118.005 244.411 117.876 244.422 117.752C244.559 116.451 244.539 115.567 244.475 115.161H255.41C255.41 115.161 258.399 116.531 258.399 117.479C258.399 117.984 258.405 118.468 258.412 118.93C258.434 120.19 258.485 121.29 258.551 122.234C258.759 125.309 259.109 126.758 259.109 126.758C259.109 126.758 260.447 131.666 256.176 132.505Z" fill="#FFB27D"/>
<path d="M258.551 122.234C250.267 123.84 245.458 119.302 244.38 118.14C244.226 117.972 244.148 117.874 244.148 117.874C244.236 117.832 244.327 117.791 244.422 117.752C247.506 116.501 254.505 117.496 258.413 118.93C258.434 120.19 258.485 121.29 258.551 122.234Z" fill="#FFB27D"/>
<path d="M241.673 113.361C243.153 121.343 253.435 121.081 257.877 120.58C259.127 120.44 259.914 120.28 259.914 120.28C261.323 119.903 262.11 117.678 262.476 114.763C263.2 108.997 262.285 100.531 261.312 98.366C259.85 95.1064 257.093 91.5835 246.739 94.1252C236.384 96.6708 239.773 103.133 241.673 113.361Z" fill="#FFB27D"/>
<path d="M261.697 93.9126C260.284 91.9502 257.282 89.5509 254.558 88.0742C248.704 84.9005 241.212 88.1737 241.181 88.1874C232.724 91.9132 230.516 98.3952 235 108.494C239.74 119.172 244.253 117.97 244.253 117.97C244.253 117.97 243.295 117.371 243.383 114.043C243.387 113.854 243.395 113.696 243.402 113.562C243.447 112.879 243.208 112.194 242.698 111.74C241.648 110.801 241.136 107.961 242.016 107.169C243.077 106.215 244.567 107.374 245.044 108.266C245.46 108.896 246.206 109.116 246.899 108.675C249.531 107.009 247.822 103.674 250.337 101.635C252.853 99.5949 257.955 101.308 261.728 99.6807C266.666 97.8373 262.764 95.3912 261.697 93.9126Z" fill="#233862"/>
<path d="M262.875 261.569C261.208 261.998 259.561 262.351 257.92 262.624C256.47 262.872 255.027 263.055 253.58 263.178C245.392 263.892 237.164 262.737 227.549 259.973C225.382 259.353 223.145 258.647 220.822 257.865C220.575 257.781 221.455 232.303 222.469 206.026C222.573 203.312 222.68 200.589 222.785 197.884C222.832 196.739 222.874 195.599 222.921 194.462C223.842 171.22 224.753 150.231 224.946 149.099C225.386 146.542 225.797 144.361 226.244 142.473C227.555 136.966 229.182 133.947 232.729 131.35C233.074 131.087 235.911 129.655 238.412 128.409C240.486 127.377 242.328 126.475 242.328 126.475C242.329 126.475 242.329 126.475 242.329 126.475C243.153 126.881 244.144 128.773 245.182 131.432C247.086 136.332 249.142 143.834 250.573 149.437C250.576 149.452 250.578 149.46 250.578 149.466C250.578 149.468 250.578 149.468 250.578 149.468C251.499 153.085 252.159 155.903 252.348 156.711C252.667 158.076 253.09 160.719 253.586 164.303C254.26 169.178 255.064 175.794 255.915 183.304C256.002 184.075 256.09 184.857 256.178 185.647C256.277 186.546 256.38 187.459 256.481 188.378C256.514 188.674 256.548 188.971 256.577 189.266C256.906 192.24 257.235 195.311 257.564 198.43C257.836 201.009 261.742 202.873 262.01 205.497C262.164 207.036 262.489 221.249 262.908 225.784C263.206 229.022 262.994 260.048 262.875 261.569Z" fill="white"/>
<path d="M234.629 158.468C234.618 158.523 233.967 181.972 251.571 184.82C269.177 187.67 257.48 188.423 257.48 188.423C257.48 188.423 224.356 187.013 223.809 186.135C223.262 185.259 234.629 158.468 234.629 158.468Z" fill="white"/>
<path d="M249.506 194.887C249.506 194.887 249.175 195.121 248.54 195.531C248.53 195.535 248.519 195.544 248.507 195.55C245.822 197.269 237.85 201.95 226.244 205.091C225.026 205.423 223.766 205.735 222.469 206.025C222.573 203.312 222.68 200.589 222.785 197.883C221.253 197.764 219.785 197.569 218.422 197.279C218.469 196.922 218.515 196.565 218.562 196.208C220.038 195.601 221.506 195.016 222.921 194.462C224.074 194.009 225.189 193.58 226.244 193.182C231.012 191.368 234.546 190.137 234.546 190.137L248.659 194.618L249.506 194.887Z" fill="white"/>
<path d="M253.24 194.496C253.24 194.496 251.427 194.948 248.54 195.531C248.53 195.531 248.52 195.533 248.509 195.537C243.186 196.61 234.238 198.112 226.244 198.032C225.066 198.018 223.906 197.972 222.785 197.884C221.252 197.765 219.784 197.57 218.422 197.279C215.499 196.663 213.052 195.617 211.452 193.983C199.562 181.847 217.941 138.295 221.805 134.058C226.316 129.109 234.55 127.373 239.097 126.778C239.286 126.755 239.469 126.729 239.646 126.708C241.245 126.517 242.271 126.478 242.327 126.476C242.329 126.476 242.329 126.476 242.329 126.476C242.329 126.476 241.973 127.625 241.375 129.571C241.144 130.326 240.875 131.2 240.579 132.176C237.787 141.338 232.398 159.348 230.023 169.504C229.153 173.22 228.688 175.884 228.9 176.68C229.826 180.148 239.434 181.933 245.52 182.721C248.059 183.051 249.986 183.205 250.417 183.238C250.448 183.238 250.475 183.24 250.506 183.246L250.859 184.691L251.7 188.16L252.529 191.568L253.24 194.496Z" fill="white"/>
<path d="M286.403 215.371L245.567 213.647L253.851 162.656L294.689 164.381L286.403 215.371Z" fill="#233862"/>
<path d="M250.507 183.246C250.507 183.246 258.456 182.69 258.855 184.547C259.783 188.873 252.021 192.427 249.506 192.186C246.991 191.942 248.676 182.957 250.507 183.246Z" fill="#FFB27D"/>
<path d="M292.455 174.735C292.455 174.735 284.851 172.351 284.033 174.066C282.129 178.061 288.863 183.316 291.365 183.663C293.869 184.01 294.303 174.877 292.455 174.735Z" fill="#FFB27D"/>
<path d="M243.155 123.915C243.155 123.915 239.81 125.512 238.134 127.923C238.134 127.923 250.635 149.669 250.578 149.464C250.522 149.262 246.352 126.7 243.155 123.915Z" fill="white"/>
<path d="M258.724 124.22C259.824 124.638 261.936 126.805 262.411 128.002L263.899 146.988C263.899 146.988 260.726 133.055 259.11 126.758C258.701 125.156 258.775 124.671 258.724 124.22Z" fill="white"/>
<path d="M267.39 163.228C267.39 163.228 267.711 161.812 269.57 161.978C271.429 162.142 281.872 162.657 281.872 162.657C281.872 162.657 283.886 162.624 283.699 163.917L267.39 163.228Z" fill="#F7D167"/>
<path d="M255.41 115.162C255.41 115.162 256.765 116.4 258.952 116.016C260.25 115.79 260.974 114.098 260.974 114.098C260.974 114.098 258.482 113.65 255.41 115.162Z" fill="#1B3C87"/>
<path d="M580.702 351.472H38.8643C38.4901 351.472 38.1841 351.165 38.1841 350.791V350.391C38.1841 350.015 38.4901 349.708 38.8643 349.708H580.702C581.077 349.708 581.384 350.015 581.384 350.391V350.791C581.384 351.165 581.077 351.472 580.702 351.472Z" fill="#2E3552"/>
</svg>
