<svg width="848" height="543" viewBox="0 0 848 543" fill="none" xmlns="http://www.w3.org/2000/svg">
<path d="M0 5.48828V398.817H13.4114V484.04H329.434V5.48828H0Z" fill="#AADAF1" fill-opacity="0.45"/>
<path d="M329.434 5.48828H0V36.3106H329.434V5.48828Z" fill="#E3EDF6"/>
<path d="M352.745 75.1318H76.0781V153.961H352.745V75.1318Z" fill="#E3EDF6"/>
<path d="M339.581 90.3887H92.2339V97.53H339.581V90.3887Z" fill="#737999"/>
<path d="M339.581 107.401H92.2339V114.543H339.581V107.401Z" fill="#737999"/>
<path d="M339.581 124.422H92.2339V131.563H339.581V124.422Z" fill="#737999"/>
<path d="M352.745 185.641H76.0781V264.47H352.745V185.641Z" fill="#E3EDF6"/>
<path d="M112.93 248.526C125.895 248.526 136.405 238.016 136.405 225.051C136.405 212.086 125.895 201.576 112.93 201.576C99.9652 201.576 89.4551 212.086 89.4551 225.051C89.4551 238.016 99.9652 248.526 112.93 248.526Z" fill="#737999"/>
<path d="M333.838 201.576H153.727V224.283H333.838V201.576Z" fill="#737999"/>
<path d="M333.838 231.98H153.727V240.322H333.838V231.98Z" fill="#737999"/>
<path d="M292.054 298.66H32.2012V426.504H292.054V298.66Z" fill="#E3EDF6"/>
<path d="M465.455 44.9397L460.533 42.5077L466.999 29.4218C467.457 28.4964 467.077 27.3754 466.152 26.9181L423.085 5.63846C422.16 5.1812 421.039 5.56075 420.582 6.48617L413.748 20.3164L411.242 19.0781C410.316 18.6208 409.195 19.0004 408.738 19.9258L389.794 58.2654C389.336 59.1909 389.716 60.3118 390.641 60.7691L437.93 84.1351C442.47 86.3782 447.988 84.5099 450.231 79.9702L466.303 47.4434C466.76 46.5179 466.381 45.397 465.455 44.9397ZM393.973 58.2457L411.261 23.2574L423.323 29.2172L423.572 34.1976C423.606 34.8743 424.003 35.4797 424.611 35.7799L446.288 46.4908L433.772 71.8207C432.867 73.6522 432.629 75.6417 432.964 77.512L393.973 58.2458L393.973 58.2457ZM437.123 73.4766L450.467 46.471C450.925 45.5456 450.545 44.4246 449.62 43.9674L427.251 32.9146L427.001 27.9342C426.968 27.2575 426.57 26.6521 425.963 26.3519L417.099 21.9724L423.105 9.8178L462.82 29.4415L438.025 79.6227C436.522 78.0118 436.089 75.5703 437.123 73.4766ZM446.88 78.3144C445.833 80.4325 443.584 81.569 441.361 81.3092L458.877 45.8591L462.124 47.4631L446.88 78.3144Z" fill="#1B3C87" fill-opacity="0.7"/>
<path d="M430.087 51.8494L426.897 50.2731L428.57 46.8876C429.027 45.9622 428.648 44.8412 427.722 44.384L421.239 41.1805C420.313 40.7233 419.193 41.1028 418.735 42.0282L417.062 45.4137L413.872 43.8373C412.947 43.3801 411.826 43.7596 411.369 44.685L408.037 51.4283C407.579 52.3537 407.959 53.4747 408.884 53.932L412.075 55.5083L410.402 58.8937C409.945 59.8192 410.324 60.9401 411.249 61.3974L417.733 64.6008C418.658 65.0581 419.779 64.6785 420.236 63.7531L421.909 60.3677L425.099 61.944C426.025 62.4013 427.146 62.0218 427.603 61.0963L430.935 54.3531C431.392 53.4276 431.013 52.3067 430.087 51.8494ZM425.08 57.7647L421.889 56.1884C420.964 55.7311 419.843 56.1106 419.386 57.0361L417.713 60.4215L414.581 58.874L416.254 55.4886C416.711 54.5632 416.332 53.4422 415.406 52.9849L412.216 51.4086L413.892 48.0167L417.082 49.593C418.008 50.0503 419.129 49.6707 419.586 48.7453L421.259 45.3599L424.39 46.9074L422.718 50.2928C422.26 51.2182 422.64 52.3392 423.565 52.7964L426.756 54.3728L425.08 57.7647Z" fill="#1B3C87" fill-opacity="0.7"/>
<path d="M832.118 241.987L824.243 237.631L826.192 234.109C826.822 232.969 825.866 231.763 824.726 231.133L818.613 227.751C819.455 222.804 816.975 218.726 812.83 216.433C808.816 214.012 803.698 214.463 800.17 217.549L794.16 214.225C793.02 213.595 791.594 213.482 790.963 214.622L789.015 218.145L781.14 213.789C776.446 211.257 770.592 212.827 767.794 217.367L734.953 276.738C732.432 281.297 734.742 286.905 739.301 289.427L790.279 317.625C794.838 320.147 800.817 319.124 803.338 314.565L836.179 255.194C838.538 250.411 836.757 244.618 832.118 241.987ZM793.732 219.401L799.431 222.553C800.493 222.982 801.711 222.668 802.431 221.777C804.523 219.445 807.929 218.823 810.709 220.267C813.379 221.851 814.624 225.053 813.725 228.025C813.346 229.148 813.774 230.386 814.766 231.036L820.672 234.303L816.087 242.592L789.147 227.69L793.732 219.401ZM799.194 312.272C797.933 314.552 794.851 314.741 792.571 313.481L741.594 285.282C739.314 284.021 737.837 281.31 739.098 279.03L771.939 219.66C773.462 217.404 776.442 216.659 778.847 217.934L786.722 222.289L783.799 227.574C783.266 228.795 783.791 230.22 784.989 230.803L815.555 247.711C816.706 248.432 818.216 248.149 819.027 247.06L821.951 241.776L829.825 246.132C832.183 247.493 833.135 250.412 832.034 252.902L799.194 312.272L799.194 312.272Z" fill="#1B3C87" fill-opacity="0.7"/>
<path d="M776.492 256.684L766.365 259.336L765.172 254.888C764.848 253.638 763.583 252.879 762.328 253.179C761.061 253.576 760.329 254.899 760.666 256.184L762.507 262.886C762.647 263.501 763.052 264.022 763.614 264.31C764.165 264.604 764.81 264.669 765.408 264.49L777.731 261.293C777.794 261.278 777.856 261.26 777.917 261.24C779.095 260.845 779.73 259.57 779.336 258.392C779.012 257.143 777.748 256.384 776.492 256.684Z" fill="#1B3C87" fill-opacity="0.7"/>
<path d="M806.609 279.297L782.778 266.115C781.634 265.482 780.193 265.897 779.56 267.041C778.927 268.186 779.341 269.626 780.486 270.26L804.317 283.442C805.461 284.075 806.902 283.66 807.535 282.516C808.168 281.371 807.754 279.93 806.609 279.297Z" fill="#1B3C87" fill-opacity="0.7"/>
<path d="M815.779 262.72L791.948 249.538C790.804 248.905 789.363 249.319 788.73 250.464C788.097 251.608 788.511 253.049 789.656 253.682L813.487 266.865C814.631 267.498 816.072 267.083 816.705 265.939C817.338 264.794 816.924 263.353 815.779 262.72Z" fill="#1B3C87" fill-opacity="0.7"/>
<path d="M767.322 273.262L757.195 275.914L756.002 271.466C755.678 270.217 754.413 269.457 753.158 269.757C751.891 270.154 751.159 271.477 751.496 272.762L753.337 279.464C753.477 280.079 753.882 280.6 754.444 280.888C754.995 281.182 755.64 281.247 756.238 281.068L768.561 277.872C768.624 277.857 768.686 277.839 768.747 277.818C769.925 277.423 770.56 276.149 770.166 274.971C769.842 273.721 768.578 272.962 767.322 273.262Z" fill="#1B3C87" fill-opacity="0.7"/>
<path d="M797.438 295.876L773.607 282.694C772.463 282.061 771.022 282.476 770.389 283.62C769.756 284.765 770.17 286.206 771.315 286.839L795.146 300.021C796.29 300.654 797.731 300.239 798.364 299.095C798.998 297.95 798.583 296.509 797.438 295.876Z" fill="#1B3C87" fill-opacity="0.7"/>
<path d="M766.574 247.95L778.904 254.771C778.973 254.814 779.044 254.853 779.117 254.888C780.235 255.43 781.581 254.963 782.123 253.845L788.312 242.654C788.946 241.51 788.531 240.069 787.386 239.436L775.057 232.616C773.912 231.983 772.471 232.397 771.838 233.542L765.648 244.732C765.605 244.801 765.566 244.872 765.53 244.945C764.989 246.063 765.456 247.409 766.574 247.95ZM774.836 237.906L783.022 242.434L779.124 249.48L770.939 244.952L774.836 237.906Z" fill="#1B3C87" fill-opacity="0.7"/>
<path d="M124.237 510.612L117.399 515.18C116.7 515.647 116.512 516.592 116.979 517.292C117.446 517.991 118.392 518.179 119.091 517.712L125.928 513.144C126.627 512.677 126.816 511.731 126.349 511.032C125.881 510.333 124.936 510.145 124.237 510.612Z" fill="#1B3C87" fill-opacity="0.7"/>
<path d="M119.5 503.521L101.521 515.532C100.821 515.999 100.633 516.945 101.1 517.644C101.567 518.343 102.513 518.531 103.212 518.064L121.191 506.053C121.891 505.586 122.079 504.64 121.612 503.941C121.145 503.242 120.199 503.054 119.5 503.521Z" fill="#1B3C87" fill-opacity="0.7"/>
<path d="M114.763 496.43L96.7837 508.441C96.0846 508.908 95.8963 509.854 96.3634 510.553C96.8306 511.253 97.7763 511.441 98.4754 510.974L116.455 498.962C117.154 498.495 117.342 497.55 116.875 496.85C116.408 496.151 115.462 495.963 114.763 496.43Z" fill="#1B3C87" fill-opacity="0.7"/>
<path d="M87.7823 504.737C87.3896 504.659 86.9725 504.741 86.6382 504.965C86.3051 505.187 86.0689 505.541 85.9909 505.934C85.9127 506.327 85.9955 506.744 86.2179 507.077C86.4404 507.41 86.794 507.646 87.1869 507.724C87.581 507.801 87.9968 507.72 88.3299 507.497C88.6642 507.274 88.8991 506.921 88.9784 506.527C89.0566 506.134 88.9739 505.717 88.7515 505.384C88.529 505.051 88.1753 504.815 87.7823 504.737Z" fill="#1B3C87" fill-opacity="0.7"/>
<path d="M92.5187 511.828C92.1247 511.75 91.7088 511.832 91.3745 512.056C91.0414 512.278 90.8067 512.631 90.7272 513.025C90.649 513.417 90.7318 513.835 90.9543 514.168C91.1767 514.501 91.5303 514.737 91.9233 514.815C92.3174 514.892 92.7331 514.81 93.0663 514.588C93.4005 514.364 93.6354 514.012 93.7147 513.618C93.7929 513.225 93.7103 512.808 93.4878 512.475C93.2653 512.142 92.9116 511.906 92.5187 511.828Z" fill="#1B3C87" fill-opacity="0.7"/>
<path d="M97.255 518.918C96.861 518.84 96.4451 518.922 96.1109 519.145C95.7777 519.368 95.543 519.721 95.4635 520.114C95.3854 520.507 95.4681 520.924 95.6906 521.257C95.913 521.59 96.2666 521.827 96.6596 521.905C97.0523 521.983 97.4695 521.9 97.8026 521.678C98.1368 521.454 98.373 521.101 98.451 520.708C98.5292 520.315 98.4466 519.898 98.2241 519.565C98.0017 519.232 97.648 518.996 97.255 518.918Z" fill="#1B3C87" fill-opacity="0.7"/>
<path d="M110.026 489.34L92.0464 501.351C91.3473 501.818 91.159 502.764 91.6261 503.463C92.0933 504.163 93.039 504.351 93.7381 503.884L111.717 491.872C112.417 491.405 112.605 490.46 112.138 489.76C111.67 489.061 110.725 488.873 110.026 489.34Z" fill="#1B3C87" fill-opacity="0.7"/>
<path d="M126.699 452.623C124.994 452.735 123.435 453.504 122.308 454.788C121.182 456.072 120.623 457.718 120.735 459.423L123.238 497.664C123.252 497.874 123.309 498.079 123.405 498.265L128.995 509.06C129.273 509.598 129.843 509.919 130.447 509.88C130.719 509.862 130.975 509.772 131.193 509.627C131.458 509.45 131.666 509.19 131.779 508.878L135.914 497.446C135.985 497.249 136.015 497.039 136.001 496.829L133.498 458.587C133.268 455.068 130.218 452.393 126.699 452.623ZM130.099 504.569L127.18 498.932L132.258 498.6L130.099 504.569ZM132.863 495.508L126.178 495.946L124.169 465.258L130.854 464.82L132.863 495.508ZM130.459 458.786L130.655 461.782L123.97 462.219L123.774 459.224C123.715 458.331 124.008 457.469 124.598 456.796C125.188 456.123 126.005 455.721 126.898 455.662C127.79 455.604 128.653 455.897 129.325 456.487C129.998 457.077 130.401 457.893 130.459 458.786Z" fill="#1B3C87" fill-opacity="0.7"/>
<path d="M118.509 461.469C119.208 461.002 119.397 460.056 118.929 459.357L109.731 445.587C108.332 443.493 105.489 442.927 103.395 444.326L57.3072 475.116C55.2128 476.515 54.6471 479.357 56.0464 481.452L94.2792 538.681C95.6784 540.776 98.5208 541.341 100.615 539.942L146.703 509.153C148.797 507.754 149.363 504.911 147.964 502.817L141.732 493.489C141.265 492.79 140.319 492.602 139.62 493.069C138.921 493.536 138.733 494.481 139.2 495.181L145.431 504.509C145.898 505.207 145.709 506.154 145.011 506.621L98.9235 537.41C98.2253 537.876 97.2779 537.688 96.8115 536.99L58.5787 479.76C58.1122 479.062 58.3008 478.114 58.9989 477.648L105.086 446.859C105.785 446.392 106.732 446.581 107.198 447.279L116.397 461.048C116.864 461.748 117.81 461.936 118.509 461.469Z" fill="#1B3C87" fill-opacity="0.7"/>
<path d="M84.918 466.56C78.495 470.851 76.7605 479.567 81.0514 485.99C83.2775 489.322 86.6946 491.392 90.3645 492.014C90.4368 492.031 90.5101 492.043 90.5851 492.05C93.9249 492.561 97.4575 491.877 100.482 489.857C103.506 487.837 105.49 484.835 106.296 481.554C106.319 481.482 106.335 481.409 106.347 481.336C107.178 477.708 106.574 473.759 104.348 470.426C100.057 464.003 91.341 462.269 84.918 466.56ZM98.7901 487.325C96.7226 488.706 94.3517 489.288 92.0428 489.146C91.8374 486.429 93.0895 483.808 95.4067 482.26C97.7239 480.712 100.625 480.559 103.056 481.789C102.303 483.976 100.858 485.943 98.7901 487.325ZM90.3358 479.055L89.786 478.232C89.0397 477.115 89.3414 475.599 90.4584 474.853C91.5754 474.107 93.0914 474.409 93.8376 475.526L94.3874 476.349C95.1336 477.466 94.832 478.982 93.715 479.728C92.598 480.474 91.082 480.172 90.3358 479.055ZM103.646 478.712C101.787 477.951 99.7737 477.738 97.8269 478.077C97.9084 476.908 97.6196 475.704 96.9197 474.657L96.3699 473.834C94.6908 471.32 91.2801 470.642 88.7667 472.321C86.2533 474 85.5746 477.411 87.2537 479.924L87.8035 480.747C88.5034 481.795 89.5045 482.522 90.6157 482.894C89.5574 484.563 88.9829 486.505 88.9743 488.514C86.8454 487.747 84.9343 486.32 83.5837 484.299C80.2256 479.272 81.583 472.45 86.6098 469.092C91.6365 465.734 98.458 467.092 101.816 472.118C103.167 474.14 103.753 476.452 103.646 478.712Z" fill="#1B3C87" fill-opacity="0.7"/>
<g opacity="0.7">
<path d="M684.352 394.86C687.905 364.974 705.613 335.527 732.863 325.802C722.116 356.563 722.119 390.308 732.87 421.068C737.057 432.915 742.893 445.635 738.955 457.575C736.504 465.005 730.509 470.689 723.808 474.243C717.106 477.797 709.669 479.491 702.324 481.151L700.879 482.401C689.22 454.865 680.798 424.746 684.352 394.86Z" fill="#73A9C3"/>
<path d="M733.134 326.366C717.265 344.964 707.401 368.319 704.945 393.114C704.326 398.442 704.513 403.839 705.501 409.106C706.621 414.204 709.026 418.895 712.466 422.692C715.606 426.3 719.216 429.61 721.463 433.953C722.581 436.195 723.234 438.658 723.378 441.181C723.522 443.704 723.155 446.231 722.3 448.596C720.317 454.546 716.408 459.395 712.428 463.999C708.009 469.11 703.341 474.346 701.463 481.122C701.235 481.943 700.031 481.526 700.258 480.706C703.526 468.916 714.468 462.22 719.686 451.601C722.121 446.646 723.143 440.894 720.86 435.663C718.864 431.09 715.143 427.673 711.934 424.049C708.527 420.396 706.026 415.926 704.65 411.029C703.41 405.832 703.024 400.452 703.509 395.119C704.419 383.095 707.13 371.295 711.544 360.152C716.514 347.405 723.532 335.642 732.294 325.37C732.837 324.735 733.673 325.735 733.134 326.366Z" fill="#8DC5E0"/>
<path d="M705.287 385.081C701.366 384.086 697.91 381.664 695.538 378.25C693.166 374.835 692.032 370.65 692.337 366.442C692.402 365.59 693.67 365.655 693.605 366.508C693.314 370.426 694.371 374.325 696.586 377.5C698.801 380.674 702.028 382.916 705.685 383.821C706.479 384.018 706.077 385.278 705.287 385.081Z" fill="#8DC5E0"/>
<path d="M710.644 421.083C717.726 416.659 722.955 409.607 725.286 401.331C725.517 400.51 726.721 400.928 726.491 401.747C724.05 410.354 718.594 417.682 711.215 422.268C710.511 422.705 709.944 421.517 710.644 421.083Z" fill="#8DC5E0"/>
<path d="M717.692 348.664C719.132 349.38 720.72 349.71 722.313 349.626C723.906 349.541 725.453 349.044 726.817 348.179C727.515 347.734 728.081 348.922 727.388 349.365C725.877 350.313 724.167 350.86 722.407 350.957C720.648 351.055 718.892 350.7 717.294 349.924C717.137 349.864 717.008 349.744 716.933 349.589C716.858 349.433 716.843 349.253 716.89 349.086C716.944 348.919 717.058 348.782 717.208 348.703C717.358 348.624 717.532 348.61 717.692 348.664Z" fill="#8DC5E0"/>
<path d="M815.925 379.182C815.497 379.473 815.068 379.764 814.64 380.067C808.901 384.014 803.478 388.442 798.425 393.308C798.028 393.678 797.632 394.059 797.246 394.439C785.192 406.298 775.346 420.394 768.211 436.012C765.377 442.229 763 448.663 761.099 455.257C758.475 464.365 756.323 474.458 751.128 481.908C750.594 482.692 750.015 483.44 749.393 484.149H702.45C702.343 484.093 702.236 484.048 702.129 483.992L700.254 484.081C700.33 483.734 700.415 483.376 700.49 483.028C700.533 482.827 700.586 482.625 700.629 482.423C700.661 482.289 700.694 482.155 700.715 482.031C700.726 481.987 700.737 481.942 700.747 481.908C700.768 481.785 700.801 481.673 700.822 481.561C701.294 479.556 701.779 477.55 702.279 475.545C702.279 475.534 702.279 475.534 702.289 475.523C706.135 460.254 711.232 445.186 718.355 431.407C718.569 430.993 718.783 430.567 719.019 430.153C722.262 423.96 725.984 418.056 730.147 412.498C732.436 409.462 734.87 406.549 737.441 403.771C744.096 396.606 751.787 390.58 760.232 385.914C777.069 376.616 796.561 373.054 814.554 378.734C815.015 378.879 815.465 379.025 815.925 379.182Z" fill="#73A9C3"/>
<path d="M815.819 379.805C792.443 384.661 771.125 397.097 754.891 415.348C751.33 419.212 748.373 423.639 746.13 428.466C744.089 433.242 743.309 438.503 743.87 443.701C744.3 448.558 745.278 453.475 744.571 458.358C744.174 460.851 743.278 463.229 741.94 465.335C740.603 467.44 738.855 469.227 736.812 470.576C731.804 474.078 725.891 475.488 720.063 476.658C713.593 477.956 706.852 479.197 701.452 483.424C700.798 483.937 700.076 482.845 700.729 482.333C710.125 474.978 722.716 476.522 732.995 471.329C737.791 468.906 741.918 464.957 743.106 459.343C744.145 454.435 743.141 449.363 742.665 444.449C742.047 439.386 742.623 434.243 744.343 429.467C746.345 424.536 749.133 419.997 752.59 416.045C760.238 407.017 769.195 399.303 779.133 393.185C790.438 386.137 802.813 381.164 815.722 378.481C816.521 378.315 816.613 379.64 815.819 379.805Z" fill="#8DC5E0"/>
</g>
<g opacity="0.4">
<path d="M710.175 437.353C708.509 421.589 700.206 406.058 687.43 400.928C692.468 417.153 692.467 434.952 687.427 451.177C685.463 457.425 682.727 464.135 684.573 470.433C685.722 474.351 688.533 477.349 691.675 479.224C694.817 481.099 698.305 481.992 701.748 482.868L702.426 483.527C707.892 469.003 711.841 453.117 710.175 437.353Z" fill="#73A9C3"/>
<path d="M687.303 401.225C694.743 411.035 699.368 423.354 700.519 436.432C700.81 439.242 700.722 442.089 700.259 444.867C699.734 447.556 698.606 450.03 696.993 452.033C695.521 453.936 693.828 455.682 692.775 457.973C692.251 459.155 691.945 460.454 691.877 461.785C691.809 463.116 691.982 464.449 692.382 465.696C693.312 468.834 695.145 471.392 697.011 473.82C699.083 476.516 701.271 479.278 702.152 482.852C702.259 483.285 702.824 483.065 702.717 482.633C701.185 476.414 696.055 472.882 693.608 467.281C692.467 464.668 691.987 461.634 693.058 458.875C693.993 456.462 695.738 454.66 697.243 452.749C698.84 450.822 700.013 448.464 700.658 445.881C701.239 443.14 701.42 440.302 701.193 437.489C700.766 431.147 699.495 424.923 697.426 419.046C695.096 412.323 691.805 406.118 687.697 400.7C687.442 400.365 687.05 400.892 687.303 401.225Z" fill="#C4C4C4"/>
<path d="M700.359 432.195C702.198 431.669 703.818 430.392 704.93 428.591C706.042 426.79 706.574 424.583 706.431 422.363C706.4 421.914 705.806 421.948 705.836 422.398C705.973 424.465 705.477 426.521 704.439 428.196C703.4 429.87 701.887 431.053 700.173 431.53C699.8 431.634 699.989 432.298 700.359 432.195Z" fill="#C4C4C4"/>
<path d="M697.847 451.183C694.526 448.85 692.075 445.13 690.982 440.765C690.874 440.332 690.309 440.552 690.417 440.984C691.562 445.524 694.119 449.39 697.58 451.809C697.909 452.039 698.175 451.412 697.847 451.183Z" fill="#C4C4C4"/>
<path d="M694.543 412.986C693.867 413.364 693.123 413.538 692.376 413.494C691.629 413.449 690.904 413.187 690.264 412.731C689.937 412.495 689.671 413.122 689.997 413.356C690.705 413.856 691.507 414.144 692.332 414.196C693.157 414.247 693.98 414.06 694.729 413.651C694.803 413.619 694.863 413.556 694.898 413.474C694.933 413.392 694.941 413.297 694.919 413.209C694.894 413.121 694.84 413.048 694.77 413.007C694.699 412.965 694.618 412.958 694.543 412.986Z" fill="#C4C4C4"/>
<path d="M648.485 429.082C648.686 429.236 648.887 429.39 649.088 429.549C651.779 431.631 654.321 433.967 656.69 436.533C656.876 436.728 657.062 436.929 657.243 437.13C662.895 443.385 667.511 450.82 670.856 459.058C672.185 462.337 673.3 465.731 674.191 469.209C675.421 474.013 676.431 479.337 678.866 483.266C679.116 483.679 679.388 484.074 679.68 484.448H701.689C701.739 484.418 701.79 484.395 701.84 484.365L702.719 484.412C702.683 484.229 702.643 484.04 702.608 483.857C702.588 483.751 702.563 483.644 702.543 483.538C702.528 483.467 702.513 483.396 702.503 483.331C702.498 483.308 702.493 483.284 702.488 483.266C702.478 483.201 702.463 483.142 702.452 483.083C702.232 482.025 702.004 480.968 701.77 479.91C701.77 479.904 701.77 479.904 701.765 479.898C699.962 471.844 697.572 463.897 694.232 456.629C694.132 456.411 694.031 456.186 693.921 455.967C692.4 452.701 690.655 449.587 688.703 446.655C687.63 445.054 686.489 443.518 685.284 442.052C682.163 438.273 678.557 435.094 674.598 432.634C666.704 427.729 657.564 425.85 649.128 428.846C648.912 428.923 648.701 429 648.485 429.082Z" fill="#73A9C3"/>
<path d="M648.535 429.412C659.495 431.973 669.491 438.533 677.102 448.159C678.772 450.197 680.158 452.533 681.21 455.079C682.167 457.598 682.532 460.372 682.269 463.114C682.068 465.676 681.61 468.27 681.941 470.845C682.127 472.16 682.547 473.414 683.174 474.525C683.801 475.636 684.621 476.578 685.579 477.29C687.927 479.137 690.699 479.881 693.432 480.497C696.465 481.182 699.626 481.837 702.158 484.067C702.465 484.337 702.803 483.761 702.497 483.491C698.091 479.612 692.188 480.426 687.369 477.687C685.12 476.409 683.185 474.326 682.628 471.365C682.141 468.776 682.611 466.101 682.835 463.509C683.124 460.839 682.854 458.125 682.048 455.606C681.109 453.005 679.802 450.611 678.181 448.527C674.595 443.765 670.396 439.696 665.736 436.469C660.436 432.752 654.634 430.129 648.581 428.714C648.207 428.626 648.163 429.325 648.535 429.412Z" fill="#C4C4C4"/>
</g>
<g filter="url(#filter0_f)">
<path d="M602 506C693.127 506 767 496.374 767 484.5C767 472.626 693.127 463 602 463C510.873 463 437 472.626 437 484.5C437 496.374 510.873 506 602 506Z" fill="#0047AB" fill-opacity="0.05"/>
</g>
<path fill-rule="evenodd" clip-rule="evenodd" d="M267.13 272.854C267.13 268.429 274.52 264.851 283.63 264.851C292.74 264.851 300.13 268.429 300.13 272.854C300.13 277.278 292.74 280.851 283.63 280.851C274.52 280.851 267.13 277.285 267.13 272.854Z" fill="#8DC5E0"/>
<path fill-rule="evenodd" clip-rule="evenodd" d="M186.163 274.851H500.097C500.901 274.851 501.673 275.155 502.242 275.696C502.81 276.238 503.13 276.972 503.13 277.738V282.963C503.13 283.729 502.81 284.464 502.242 285.005C501.673 285.546 500.901 285.851 500.097 285.851H186.163C185.359 285.851 184.587 285.546 184.018 285.005C183.449 284.464 183.13 283.729 183.13 282.963V277.738C183.13 276.972 183.449 276.238 184.018 275.696C184.587 275.155 185.359 274.851 186.163 274.851Z" fill="#73A9C3"/>
<path d="M281.13 286.851L217.13 480.851" stroke="#73A9C3" stroke-width="2" stroke-linecap="round" stroke-linejoin="round"/>
<path d="M281.13 286.851L344.13 480.851" stroke="#73A9C3" stroke-width="2" stroke-linecap="round" stroke-linejoin="round"/>
<path d="M229.13 286.851L293.13 480.851" stroke="#73A9C3" stroke-width="2" stroke-linecap="round" stroke-linejoin="round"/>
<path d="M405.13 286.851L341.13 480.851" stroke="#73A9C3" stroke-width="2" stroke-linecap="round" stroke-linejoin="round"/>
<path d="M456.13 286.851L393.13 480.851" stroke="#73A9C3" stroke-width="2" stroke-linecap="round" stroke-linejoin="round"/>
<path d="M456.13 286.851L520.13 480.851" stroke="#73A9C3" stroke-width="2" stroke-linecap="round" stroke-linejoin="round"/>
<path d="M405.13 286.851L468.13 480.851" stroke="#73A9C3" stroke-width="2" stroke-linecap="round" stroke-linejoin="round"/>
<path fill-rule="evenodd" clip-rule="evenodd" d="M441.13 244.851H468.13V274.851H441.13V244.851Z" fill="#8DC5E0"/>
<path d="M461.13 259.851C461.13 258.466 461.54 257.113 462.31 255.962C463.079 254.81 464.172 253.913 465.451 253.383C466.73 252.854 468.138 252.715 469.496 252.985C470.853 253.255 472.101 253.922 473.08 254.901C474.059 255.88 474.725 257.127 474.995 258.485C475.265 259.843 475.127 261.25 474.597 262.529C474.067 263.808 473.17 264.902 472.019 265.671C470.868 266.44 469.514 266.851 468.13 266.851C466.273 266.851 464.493 266.113 463.18 264.8C461.867 263.488 461.13 261.707 461.13 259.851V259.851Z" stroke="#8DC5E0" stroke-width="2" stroke-linecap="round" stroke-linejoin="round"/>
<path d="M441.13 249.851H468.13" stroke="#AADAF1" stroke-width="2" stroke-linecap="round" stroke-linejoin="round"/>
<path d="M380.639 274.313L376.861 272.728L374.27 253.851H339.762L336.953 272.651L333.573 274.335C333.412 274.416 333.282 274.548 333.206 274.712C333.129 274.875 333.11 275.059 333.151 275.234C333.193 275.41 333.293 275.566 333.434 275.678C333.576 275.79 333.752 275.851 333.932 275.851H380.327C380.513 275.851 380.692 275.787 380.836 275.67C380.979 275.553 381.077 275.39 381.114 275.209C381.151 275.028 381.123 274.84 381.037 274.677C380.95 274.513 380.809 274.385 380.639 274.313Z" fill="#AADAF1"/>
<path d="M441.783 254.851H272.477C271.588 254.849 270.737 254.497 270.11 253.874C269.482 253.25 269.13 252.405 269.13 251.524V227.851H445.13V251.524C445.13 252.405 444.778 253.25 444.15 253.874C443.523 254.497 442.671 254.849 441.783 254.851Z" fill="#CCCCCC"/>
<path d="M445.13 238.851H269.13V136.887C269.131 135.817 269.557 134.791 270.313 134.034C271.07 133.277 272.096 132.852 273.166 132.851H441.094C442.164 132.852 443.19 133.277 443.946 134.034C444.703 134.791 445.129 135.817 445.13 136.887L445.13 238.851Z" fill="#3F3D56"/>
<path d="M435.003 230.851H279.257C278.428 230.85 277.633 230.522 277.047 229.94C276.461 229.358 276.131 228.569 276.13 227.746V142.955C276.131 142.132 276.46 141.343 277.047 140.761C277.633 140.179 278.428 139.852 279.257 139.851H435.003C435.832 139.852 436.627 140.179 437.213 140.761C437.799 141.343 438.129 142.132 438.13 142.955V227.746C438.129 228.569 437.799 229.358 437.213 229.94C436.627 230.522 435.832 230.85 435.003 230.851Z" fill="#0047AB"/>
<path fill-rule="evenodd" clip-rule="evenodd" d="M523.397 436.986L519.729 457.086L540.677 467.623L549.483 446.81L523.397 436.986Z" fill="black"/>
<path fill-rule="evenodd" clip-rule="evenodd" d="M531.948 489.672L542.772 462.739C542.772 462.739 530.535 456.696 520.634 452.312C505.13 454.802 481.667 453.368 473.899 451.626C471.779 457.292 470.601 461.155 470.601 461.155L531.948 489.672Z" fill="black"/>
<path fill-rule="evenodd" clip-rule="evenodd" d="M675.52 439.174L684.536 448.161L704.019 432.726L697.143 422.93L675.52 439.174Z" fill="black"/>
<path fill-rule="evenodd" clip-rule="evenodd" d="M702.301 430.257L718.683 453.403L683.53 483.127H648.792L648.868 473.304C648.868 473.304 673.496 468.502 673.419 468.577C678.513 462.04 682.652 446.268 682.652 446.268L702.301 430.257Z" fill="black"/>
<path fill-rule="evenodd" clip-rule="evenodd" d="M641.526 225.106C641.526 225.106 652.949 315.989 656.998 325.778C661.048 335.567 700.244 423.555 700.244 423.555L671.916 445.445C671.916 445.445 608.85 343.004 605.991 337.516C604.145 334.003 599.223 313.087 599.223 313.087L550.655 455.577L518.469 439.731L552.259 228.77L641.526 225.106Z" fill="#1B3C87"/>
<path fill-rule="evenodd" clip-rule="evenodd" d="M607.316 226.52L582.025 227.555L582.21 234.127L607.316 226.52ZM582.662 251.415L585.559 353.163L599.217 313.203L582.662 251.415Z" fill="#73A9C3"/>
<path d="M599.248 313.203L580.281 241.968" stroke="#0097F7" stroke-width="1.7" stroke-linecap="round" stroke-linejoin="round"/>
<path d="M671.878 396.944L645.48 344.327C650.637 338.709 652.796 332.706 640.972 339.827C632.204 345.102 630.74 343.312 638.425 334.181C648.772 321.915 646.97 320.235 636.795 322.005" stroke="#0097F7" stroke-width="1.7" stroke-linecap="round" stroke-linejoin="round"/>
<path d="M638.922 317.621C638.922 317.621 630.415 253.356 627.958 245.446" stroke="#0097F7" stroke-width="1.7" stroke-linecap="round" stroke-linejoin="round"/>
<path d="M550.992 392.698C551.928 388.383 556.996 349.96 560.148 349.013C575.123 344.527 577.829 338.25 563.522 333.852C549.515 329.538 549.565 328.241 562.198 324.097C575.123 319.851 572.576 317.601 564.267 309.609C561.453 306.899 574.365 273.038 575.091 269.738" stroke="#0097F7" stroke-width="1.7" stroke-linecap="round" stroke-linejoin="round"/>
<path fill-rule="evenodd" clip-rule="evenodd" d="M626.672 28.8123C626.863 16.6768 615.357 0 598.79 0C585.808 0 572.545 6.65427 572.208 17.4795C571.533 13.0067 570.89 10.2421 571.361 7.77246C568.559 7.62154 562.924 15.4077 562.924 25.8076C562.924 29.8276 565.834 45.0158 574.111 44.8306C582.389 44.6453 613.976 56.8288 613.976 56.8288C613.976 56.8288 616.051 60.1011 618.853 59.8541C621.654 59.6072 626.958 53.9476 627.003 50.8263C627.047 47.7049 624.424 42.0934 624.456 40.3578C624.488 38.6222 626.474 40.9272 626.672 28.8123Z" fill="#6A3416"/>
<path fill-rule="evenodd" clip-rule="evenodd" d="M570.551 44.3913C570.55 39.1399 571.994 34.0061 574.701 29.6392C577.408 25.2722 581.257 21.8684 585.759 19.8581C590.262 17.8479 595.217 17.3216 599.998 18.3457C604.778 19.3699 609.169 21.8985 612.616 25.6118C616.062 29.3251 618.409 34.0562 619.359 39.2068C620.31 44.3573 619.822 49.6959 617.956 54.5472C616.09 59.3986 612.931 63.5449 608.878 66.4615C604.825 69.3782 600.06 70.9343 595.186 70.9329C588.652 70.9329 582.386 68.1366 577.767 63.159C573.147 58.1815 570.551 51.4306 570.551 44.3913Z" fill="#F77F89"/>
<path fill-rule="evenodd" clip-rule="evenodd" d="M569.367 34.3007C569.367 34.3007 572.678 33.6147 577.549 25.8491C583.623 27.084 593.619 27.0291 602.139 24.2576C602.247 29.7937 606.016 38.8558 611.205 37.8543C616.395 36.8527 618.521 23.3795 618.521 23.3795L606.29 9.60449L587.794 9.73483L574.773 19.6202L569.367 34.3007Z" fill="#6A3416"/>
<path fill-rule="evenodd" clip-rule="evenodd" d="M576.722 41.2358C576.492 39.116 577.11 37.3049 578.097 37.1815C579.084 37.058 580.077 38.6701 580.306 40.783C580.536 42.8959 579.918 44.7138 578.925 44.8373C577.931 44.9608 576.97 43.3487 576.722 41.2358Z" fill="#90415B"/>
<path fill-rule="evenodd" clip-rule="evenodd" d="M620.062 49.9141C619.426 54.1331 618.152 74.1988 620.171 78.4658C615.669 83.3501 602.47 85.4562 595.555 83.3364C596.097 77.5465 593.868 71.8869 592.678 69.5751C591.487 67.2633 620.68 45.6883 620.062 49.9141Z" fill="#F77F89"/>
<path fill-rule="evenodd" clip-rule="evenodd" d="M593.174 37.9777C592.945 35.8648 593.563 34.0537 594.55 33.9234C595.536 33.793 596.53 35.412 596.753 37.5318C596.975 39.6515 596.371 41.4626 595.377 41.5861C594.384 41.7095 593.403 40.0974 593.174 37.9777Z" fill="#90415B"/>
<path d="M584.973 41.9424C585.17 44.4394 583.311 53.8789 582.916 55.3401C582.521 56.8013 584.642 57.3432 584.642 57.3432" stroke="#90415B" stroke-width="1.7" stroke-linecap="round" stroke-linejoin="round"/>
<path fill-rule="evenodd" clip-rule="evenodd" d="M571.787 52.7129C571.914 55.3677 577.733 69.0604 581.165 71.1665C584.597 73.2725 610.454 72.9981 616.395 59.2094C611.517 58.393 608.213 53.934 604.354 44.3916C595.733 45.7636 585.96 44.3916 584.387 44.4808C582.662 44.5905 578.51 50.7646 571.787 52.7129Z" fill="white"/>
<path fill-rule="evenodd" clip-rule="evenodd" d="M592.333 77.1343C592.021 80.5232 588.29 102.434 600.846 102.434C608.926 102.434 621.469 82.1833 619.482 76.1465" fill="#F77F89"/>
<path d="M592.333 77.1343C592.021 80.5232 588.29 102.434 600.846 102.434C608.926 102.434 621.469 82.1833 619.482 76.1465" stroke="#AADAF1" stroke-width="1.7" stroke-linecap="round" stroke-linejoin="round"/>
<path fill-rule="evenodd" clip-rule="evenodd" d="M608.098 41.3999C608.097 39.3997 608.646 37.444 609.677 35.7802C610.707 34.1164 612.173 32.8193 613.887 32.0529C615.602 31.2865 617.489 31.0853 619.31 31.4747C621.131 31.8641 622.804 32.8266 624.117 34.2405C625.43 35.6544 626.325 37.4561 626.688 39.4178C627.05 41.3794 626.865 43.4129 626.155 45.261C625.444 47.1091 624.242 48.6887 622.698 49.8001C621.154 50.9115 619.34 51.5047 617.483 51.5047C614.995 51.5047 612.609 50.4403 610.849 48.5455C609.089 46.6507 608.1 44.0805 608.098 41.3999Z" fill="#F77F89"/>
<path d="M604.451 44.5906C604.451 44.5906 610.378 32.9285 616.656 31.3301" stroke="white" stroke-width="1.7" stroke-linecap="round" stroke-linejoin="round"/>
<path d="M616.356 59.2917L620.953 50.7646" stroke="white" stroke-width="1.7" stroke-linecap="round" stroke-linejoin="round"/>
<path d="M572.512 55.5186C574.193 60.4647 578.44 69.4925 581.171 71.1664C582.26 71.8524 585.628 72.264 589.92 72.0925" stroke="#C9C9C9" stroke-width="3.41" stroke-linecap="round" stroke-linejoin="round"/>
<path d="M533.966 484.63L472.288 456.064" stroke="#7C7C7C" stroke-width="1.7" stroke-linecap="round" stroke-linejoin="round"/>
<path d="M648.823 478.894L681.773 477.666L715.563 448.991" stroke="#7C7C7C" stroke-width="1.7" stroke-linecap="round" stroke-linejoin="round"/>
<path fill-rule="evenodd" clip-rule="evenodd" d="M611.921 229.126H564.28L557.83 157.985L566.437 103.469L582.715 87.6257L599.034 80.2627L628.505 84.8148L611.921 229.126Z" fill="#F7D167"/>
<path fill-rule="evenodd" clip-rule="evenodd" d="M595.396 78.8906C576.213 81.2939 549.133 96.2818 545.647 103.108C542.711 108.846 544.2 183.128 544.2 183.128C544.2 183.128 555.072 198.157 550.173 219.773C545.674 239.711 544.342 266.626 549.058 271.659C556.832 267.694 566.828 251.803 568.629 247.886C570.43 243.97 570.899 221.813 572.285 217.075C573.671 212.337 579.875 128.455 579.875 128.455C579.875 128.455 582.77 94.5701 595.396 78.8906Z" fill="white"/>
<path d="M585.846 80.9492C577.663 92.5765 575.555 112.335 581.965 132.4" stroke="#C9C9C9" stroke-width="2" stroke-linecap="round" stroke-linejoin="round"/>
<path d="M596.033 74.7744C588.133 78.0749 580.607 93.296 578.842 106.331" stroke="#353823" stroke-width="3.41" stroke-linecap="round" stroke-linejoin="round"/>
<path d="M587.003 129.888C589.441 118.043 585.763 107.293 578.788 105.814C571.813 104.335 564.177 112.784 561.759 124.63C559.341 136.475 562.999 147.225 569.974 148.697C576.949 150.17 584.564 141.713 587.003 129.888Z" stroke="#353823" stroke-width="3.41" stroke-linecap="round" stroke-linejoin="round"/>
<path d="M636.782 111.133L639.329 168.757" stroke="#C9C9C9" stroke-width="2" stroke-linecap="round" stroke-linejoin="round"/>
<path d="M627.232 200.315C631.257 195.822 632.795 173.422 630.852 166.7" stroke="#C9C9C9" stroke-width="2" stroke-linecap="round" stroke-linejoin="round"/>
<path fill-rule="evenodd" clip-rule="evenodd" d="M627.232 171.165C627.233 170.825 627.123 170.493 626.914 170.21C626.705 169.927 626.407 169.707 626.058 169.576C625.709 169.445 625.325 169.41 624.954 169.476C624.583 169.541 624.242 169.704 623.974 169.943C623.706 170.183 623.523 170.489 623.449 170.821C623.375 171.154 623.412 171.499 623.556 171.813C623.701 172.127 623.946 172.395 624.26 172.584C624.574 172.773 624.944 172.873 625.322 172.873C625.572 172.874 625.821 172.831 626.052 172.745C626.284 172.66 626.495 172.534 626.672 172.375C626.849 172.217 626.99 172.028 627.086 171.82C627.182 171.612 627.232 171.39 627.232 171.165Z" fill="#C9C9C9"/>
<path d="M544.472 113.877C543.929 98.5287 560.544 91.5052 567.381 88.4951" stroke="#C9C9C9" stroke-width="2" stroke-linecap="round" stroke-linejoin="round"/>
<path fill-rule="evenodd" clip-rule="evenodd" d="M620.245 79.5885C631.418 79.8971 664.782 92.1041 669.654 104.489C673.356 113.885 675.894 198.894 667.198 203.043C666.639 203.315 666.056 203.531 665.456 203.688C665.98 206.294 670.988 266.636 669.715 271.656C668.443 276.676 665.102 284.274 660.264 284C641.544 282.868 607.153 258.105 603.737 254.066C603.213 246.412 601.764 217.664 601.764 217.664L604.744 132.366L621.803 85.3628C621.803 85.3628 609.072 79.2799 620.245 79.5885Z" fill="white"/>
<path d="M644.423 85.751C634.569 103.603 614.602 123.949 604.311 131.713" stroke="#C9C9C9" stroke-width="2" stroke-linecap="round" stroke-linejoin="round"/>
<path d="M645.059 112.505L637.419 123.481" stroke="#C9C9C9" stroke-width="2" stroke-linecap="round" stroke-linejoin="round"/>
<path fill-rule="evenodd" clip-rule="evenodd" d="M619.591 163.956L648.88 170.816L619.591 163.956Z" fill="#606060"/>
<path d="M619.591 163.956L648.88 170.816" stroke="#C9C9C9" stroke-width="2" stroke-linecap="round" stroke-linejoin="round"/>
<path d="M647.606 163.27L639.966 168.758" stroke="#C9C9C9" stroke-width="2" stroke-linecap="round" stroke-linejoin="round"/>
<path d="M652.064 282.074C662.212 286.396 669.83 278.695 669.891 271.063C669.952 263.43 666.982 217.891 666.576 213.349" stroke="#C9C9C9" stroke-width="2" stroke-linecap="round" stroke-linejoin="round"/>
<path d="M618.318 197.227C630.795 202.232 660.435 208.216 666.034 203.259C673.523 196.624 675.653 128.148 671.895 109.983C669.703 99.4118 658.634 92.6059 652.863 89.8672" stroke="#C9C9C9" stroke-width="2" stroke-linecap="round" stroke-linejoin="round"/>
<path fill-rule="evenodd" clip-rule="evenodd" d="M650.004 205.7C642.555 207.004 598.59 174 593.14 174.645C587.69 175.29 573.701 174.713 573.701 174.713C573.701 174.713 565.742 141.847 582.723 140.633C583.774 140.557 589.994 146.518 589.994 146.518C589.994 146.518 591.72 145.929 592.923 146.992C595.12 148.926 602.264 157.673 605.836 159.059C611.846 161.398 660.625 171.338 662.961 175.523C665.298 179.708 667.877 202.579 650.004 205.7Z" fill="#F77F89"/>
<path fill-rule="evenodd" clip-rule="evenodd" d="M527.987 122.795H562.083C566.018 122.795 570.488 125.937 572.073 129.82L596.071 188.549C597.656 192.425 595.752 195.567 591.818 195.567H557.728C553.793 195.567 549.317 192.425 547.732 188.549L523.74 129.813C522.155 125.93 524.059 122.795 527.987 122.795Z" fill="#F7D167"/>
<path fill-rule="evenodd" clip-rule="evenodd" d="M527.154 170.514C525.53 166 524.371 159.764 526.651 155.772C528.93 151.779 537.704 139.486 541.34 139.259C544.975 139.033 554.309 149.934 555.309 153.467C556.309 156.999 555.946 164.676 554.379 167.982C552.813 171.289 546.529 177.71 543.364 177.84C540.2 177.971 528.115 173.272 527.154 170.514Z" fill="#F77F89"/>
<path fill-rule="evenodd" clip-rule="evenodd" d="M526.256 161.493C525.816 154.207 522.868 146.318 520.869 140.967C519.532 137.407 520.519 134.354 522.779 133.661C525.039 132.968 532.05 142.929 532.253 150.633C532.457 158.337 526.701 168.757 526.256 161.493Z" fill="#F77F89"/>
<path d="M525.835 157.781C527.456 153.924 529.619 150.358 532.247 147.21" stroke="#81666F" stroke-width="1.7" stroke-linecap="round" stroke-linejoin="round"/>
<path d="M534.877 158.962C534.877 155.045 542.288 143.623 545.064 142.224" stroke="#905F6F" stroke-width="1.7" stroke-linecap="round" stroke-linejoin="round"/>
<path d="M627.008 128.97C632.317 109.758 632.659 83.0234 618.954 78.2051" stroke="#353823" stroke-width="3.41" stroke-linecap="round" stroke-linejoin="round"/>
<path d="M634.235 135.487C634.235 133.926 633.787 132.401 632.947 131.103C632.107 129.806 630.914 128.794 629.517 128.198C628.121 127.601 626.584 127.445 625.102 127.75C623.619 128.055 622.258 128.807 621.19 129.911C620.121 131.015 619.394 132.421 619.1 133.952C618.806 135.483 618.959 137.069 619.538 138.511C620.117 139.952 621.098 141.184 622.355 142.05C623.612 142.916 625.09 143.377 626.602 143.376C628.627 143.374 630.568 142.542 632 141.063C633.431 139.583 634.235 137.578 634.235 135.487V135.487Z" stroke="#353823" stroke-width="3.41" stroke-linecap="round" stroke-linejoin="round"/>
<path fill-rule="evenodd" clip-rule="evenodd" d="M630.415 135.486C630.415 134.74 630.191 134.01 629.771 133.39C629.351 132.769 628.755 132.286 628.057 132C627.359 131.715 626.591 131.64 625.849 131.785C625.108 131.931 624.428 132.29 623.893 132.818C623.359 133.346 622.995 134.018 622.848 134.75C622.701 135.482 622.776 136.24 623.065 136.93C623.354 137.619 623.844 138.209 624.472 138.623C625.101 139.038 625.839 139.259 626.595 139.259C627.608 139.259 628.58 138.861 629.296 138.154C630.013 137.446 630.415 136.487 630.415 135.486Z" fill="#353823"/>
<defs>
<filter id="filter0_f" x="417" y="443" width="370" height="83" filterUnits="userSpaceOnUse" color-interpolation-filters="sRGB">
<feFlood flood-opacity="0" result="BackgroundImageFix"/>
<feBlend mode="normal" in="SourceGraphic" in2="BackgroundImageFix" result="shape"/>
<feGaussianBlur stdDeviation="10" result="effect1_foregroundBlur"/>
</filter>
</defs>
</svg>
