<svg width="477" height="345" viewBox="0 0 477 345" fill="none" xmlns="http://www.w3.org/2000/svg">
<g opacity="0.7">
<path d="M18.6281 276.392C21.3435 253.554 34.8756 231.051 55.6995 223.619C47.4872 247.126 47.4889 272.914 55.7045 296.42C58.9044 305.473 63.3646 315.194 60.3548 324.318C58.482 329.995 53.9007 334.339 48.7797 337.055C43.6584 339.771 37.9748 341.066 32.3624 342.334L31.2578 343.29C22.3482 322.247 15.9127 299.231 18.6281 276.392Z" fill="#E2F0FE"/>
<path d="M55.906 224.05C43.7791 238.262 36.2419 256.11 34.365 275.058C33.8917 279.129 34.0349 283.253 34.7894 287.278C35.6455 291.174 37.4835 294.759 40.1122 297.661C42.5113 300.418 45.2706 302.947 46.9872 306.266C47.8418 307.979 48.3406 309.861 48.4509 311.79C48.5612 313.718 48.2806 315.649 47.6274 317.456C46.1118 322.003 43.1247 325.708 40.0832 329.226C36.7061 333.132 33.1393 337.133 31.7038 342.312C31.5299 342.939 30.6093 342.62 30.7829 341.994C33.2805 332.984 41.6418 327.867 45.6294 319.752C47.49 315.966 48.271 311.57 46.5267 307.573C45.0013 304.078 42.1581 301.467 39.7059 298.697C37.1018 295.906 35.1907 292.49 34.1397 288.748C33.1917 284.776 32.8968 280.665 33.2676 276.59C33.9625 267.401 36.0344 258.384 39.4073 249.869C43.2052 240.128 48.5682 231.139 55.2643 223.289C55.6789 222.804 56.3179 223.568 55.906 224.05Z" fill="#8DC5E0"/>
<path d="M34.626 268.92C31.6294 268.159 28.989 266.308 27.1763 263.699C25.3636 261.09 24.4966 257.892 24.7303 254.676C24.7797 254.025 25.7485 254.075 25.6991 254.726C25.4762 257.721 26.284 260.7 27.9768 263.126C29.6695 265.552 32.1356 267.265 34.9301 267.956C35.5371 268.107 35.2296 269.07 34.626 268.92Z" fill="#8DC5E0"/>
<path d="M38.7199 296.43C44.1322 293.05 48.1275 287.66 49.9094 281.336C50.0854 280.709 51.0061 281.028 50.8302 281.654C48.9643 288.232 44.7956 293.832 39.1561 297.336C38.6184 297.67 38.1851 296.762 38.7199 296.43Z" fill="#8DC5E0"/>
<path d="M44.1056 241.089C45.2064 241.636 46.4199 241.889 47.6371 241.824C48.8543 241.759 50.037 241.38 51.0792 240.719C51.6126 240.378 52.0453 241.286 51.5154 241.625C50.3607 242.349 49.0539 242.767 47.7093 242.842C46.3646 242.916 45.023 242.645 43.8016 242.052C43.6819 242.006 43.5835 241.915 43.5262 241.796C43.4689 241.677 43.4571 241.539 43.4931 241.412C43.534 241.284 43.6213 241.179 43.7359 241.119C43.8506 241.058 43.9835 241.047 44.1056 241.089Z" fill="#8DC5E0"/>
<path d="M119.174 264.411C118.846 264.633 118.519 264.856 118.191 265.087C113.806 268.103 109.662 271.488 105.8 275.206C105.497 275.488 105.194 275.779 104.9 276.07C95.6877 285.132 88.1641 295.905 82.7116 307.839C80.5461 312.59 78.7292 317.507 77.2769 322.547C75.2715 329.506 73.6266 337.22 69.657 342.912C69.2492 343.511 68.8064 344.083 68.331 344.625H32.4579C32.3764 344.582 32.2945 344.548 32.2126 344.505L30.7803 344.573C30.8378 344.308 30.903 344.034 30.9605 343.769C30.9932 343.614 31.034 343.46 31.0668 343.306C31.0912 343.204 31.1159 343.101 31.1323 343.007C31.1403 342.972 31.1487 342.938 31.1567 342.912C31.1731 342.818 31.1979 342.733 31.2143 342.647C31.5744 341.115 31.9453 339.582 32.3273 338.05C32.3273 338.041 32.3273 338.041 32.3353 338.033C35.2738 326.365 39.1695 314.85 44.6121 304.321C44.776 304.004 44.9394 303.679 45.1197 303.362C47.5981 298.63 50.4422 294.118 53.6236 289.87C55.3727 287.55 57.233 285.325 59.1973 283.202C64.2829 277.726 70.1602 273.121 76.6139 269.556C89.4802 262.45 104.376 259.728 118.126 264.068C118.478 264.18 118.822 264.291 119.174 264.411Z" fill="#E2F0FE"/>
<path d="M119.093 264.887C101.229 268.598 84.9381 278.101 72.5327 292.048C69.8112 295.001 67.5516 298.384 65.8373 302.073C64.2783 305.723 63.6822 309.743 64.1109 313.715C64.4394 317.427 65.1865 321.184 64.6466 324.915C64.3431 326.821 63.658 328.638 62.6361 330.247C61.6142 331.856 60.2786 333.221 58.717 334.253C54.8897 336.928 50.3715 338.006 45.9181 338.9C40.9734 339.892 35.8223 340.84 31.6954 344.071C31.1954 344.462 30.644 343.628 31.1432 343.237C38.3233 337.617 47.9451 338.796 55.7998 334.828C59.4649 332.977 62.6188 329.959 63.5268 325.669C64.3207 321.917 63.5535 318.042 63.1898 314.287C62.7173 310.418 63.1576 306.487 64.4724 302.837C66.0016 299.069 68.1328 295.601 70.7746 292.58C76.6185 285.682 83.4632 279.787 91.0578 275.112C99.6972 269.726 109.154 265.926 119.018 263.875C119.629 263.749 119.699 264.761 119.093 264.887Z" fill="#8DC5E0"/>
</g>
<path opacity="0.1" d="M0.823405 130.134H41V185.646H3.7647C3.66573 186.216 3.57073 186.79 3.4678 187.364H41V232.134C40.9327 232.114 40.8733 232.09 40.81 232.066C39.7491 231.64 38.696 231.191 37.643 230.709L36.9701 230.4C35.9144 229.894 34.8588 229.359 33.8031 228.795C33.435 228.598 33.0668 228.394 32.7026 228.185C26.8421 224.857 21.5182 220.64 16.9154 215.68C16.7808 215.548 16.6541 215.407 16.5196 215.279C15.8782 214.573 15.2488 213.858 14.6392 213.128L13.9662 212.325C13.2457 211.43 12.549 210.511 11.8721 209.58C11.7731 209.444 11.6781 209.307 11.5752 209.179C8.82209 205.309 6.53617 201.119 4.76624 196.698C4.71082 196.566 4.66332 196.422 4.61186 196.297C4.0682 194.879 3.58656 193.448 3.16694 192.003C2.98484 191.397 2.81066 190.799 2.66023 190.169C2.60481 189.985 2.5573 189.804 2.51376 189.623C0.265231 180.726 0 171.484 0 162.307C0 161.235 0 160.16 0 159.096C0 155.384 0.0435456 151.648 0.106884 147.916C0.106884 146.949 0.14647 145.985 0.166264 145.014C0.221685 142.55 0.300859 140.086 0.403785 137.622C0.427537 136.936 0.459206 136.254 0.494834 135.571C0.494834 135.178 0.514628 134.785 0.554215 134.392C0.649223 132.963 0.728397 131.546 0.823405 130.134Z" fill="#0047AB"/>
<path opacity="0.1" d="M41 68.1338H19C22.5762 62.4971 26.4837 57.0806 30.7015 51.9132C33.9696 47.87 37.4196 43.9303 41 40.1338V68.1338Z" fill="#0047AB"/>
<path opacity="0.1" d="M41 70.1338V128.134H1C1 127.966 1.02768 127.795 1.03954 127.627C1.07512 127.169 1.1107 126.71 1.15024 126.256C1.19373 125.721 1.24118 125.183 1.29258 124.661C1.34397 124.138 1.39933 123.5 1.45863 122.922C1.51794 122.344 1.57329 121.758 1.64051 121.18C1.70772 120.602 1.76703 120.024 1.83819 119.449C1.90936 118.875 1.97262 118.293 2.04774 117.719C2.10705 117.24 2.17031 116.766 2.23357 116.287C2.3245 115.614 2.41939 114.936 2.52219 114.266C2.52219 114.166 2.54987 114.062 2.56568 113.967C3.28731 109.063 4.27058 104.202 5.51122 99.4049C6.80986 94.3728 8.46818 89.4422 10.4732 84.6517C12.6041 79.6403 15.0991 74.7945 17.9378 70.1537L41 70.1338Z" fill="#0047AB"/>
<path opacity="0.1" d="M89 147.001V202.578H176.117V147.001H89ZM89 204.294V252.021C89.4983 252.125 89.9927 252.226 90.483 252.31C91.1501 252.439 91.8132 252.555 92.4924 252.656C92.621 252.676 92.7536 252.696 92.8943 252.708C93.1595 252.752 93.4328 252.788 93.698 252.824C94.3692 252.917 95.0363 252.993 95.7075 253.053C96.025 253.085 96.3465 253.114 96.668 253.138L97.4436 253.198C97.8656 253.23 98.2835 253.254 98.6975 253.266C98.9547 253.266 99.2119 253.29 99.4771 253.298C99.6781 253.298 99.879 253.298 100.088 253.298C100.297 253.298 100.594 253.298 100.848 253.298C101.193 253.298 101.539 253.298 101.88 253.298H102.343C102.688 253.298 103.034 253.298 103.375 253.266H103.4C103.637 253.266 103.878 253.266 104.119 253.234C104.186 253.238 104.253 253.238 104.32 253.234C104.521 253.234 104.722 253.234 104.915 253.206H105.055L106.402 253.101C106.844 253.061 107.29 253.009 107.74 252.961L108.656 252.852C112.384 252.33 116.07 251.546 119.688 250.506C127.814 248.24 135.763 245.071 143.885 242.749C154.387 239.756 165.989 238.285 176.137 241.945V204.294H89ZM176.117 85.1292V11.1404C166.579 11.0371 157.067 12.1522 147.812 14.4587C125.752 19.9988 105.96 32.0149 89 47.3614V85.1252H93.3725V86.8406H89V145.286H176.117V86.8446H111.325V85.1292H176.117ZM288.014 60.1368C282.556 59.944 277.13 58.2165 272.223 55.5489C262.839 50.4468 255.344 42.5686 246.969 35.9198C229.567 22.0718 207.986 13.7155 185.846 11.6425V85.1292H310.21L310.519 84.8038L288.014 60.1368ZM299.343 58.1281L311.355 71.3052V54.6731C307.332 55.1713 303.808 56.3564 299.359 58.112L299.343 58.1281ZM311.355 263.872V204.294H285.759C285.691 204.041 285.622 203.784 285.542 203.527C285.618 203.784 285.683 204.041 285.755 204.294H185.862V247.381C186.811 248.084 187.747 248.823 188.676 249.574C189.676 250.378 190.665 251.225 191.658 252.057L192.658 252.885C193.136 253.286 193.619 253.688 194.105 254.066C195.07 254.848 196.043 255.619 197.027 256.38C197.513 256.781 198.011 257.143 198.506 257.521C206.353 263.519 214.632 268.931 223.274 273.715C225.211 274.786 227.165 275.832 229.137 276.852C230.452 277.523 231.774 278.19 233.1 278.837C235.093 279.809 237.103 280.747 239.128 281.649C257.802 290.029 277.549 295.779 297.803 298.735C302.302 299.4 306.818 299.922 311.351 300.302V263.868H311.753L311.355 263.872ZM185.862 86.8446V145.286H311.371V86.8446H185.862ZM185.862 147.001V202.578H311.371V147.001H185.862ZM321.113 54.6008V73.1532L336.445 56.3363C331.365 55.5168 326.254 54.9316 321.113 54.5807V54.6008ZM321.113 147.022V202.578H443.185V147.001L321.113 147.022ZM442.739 268.283L443.169 204.294H321.113V300.941C328.976 301.271 336.851 301.177 344.703 300.66H344.84C348.591 300.424 352.325 300.081 356.041 299.631H356.125C375.95 297.325 395.336 292.154 413.675 284.281L442.739 268.283ZM466.724 156.153C466.266 155.072 465.787 154 465.301 152.939C464.393 150.93 463.432 148.978 462.444 147.026H452.919V202.578H477C476.988 186.846 473.005 170.777 466.736 156.133L466.724 156.153ZM452.919 204.314V259.353C459.703 252.852 465.434 245.416 469.561 236.915C474.524 226.679 476.795 215.595 476.98 204.306L452.919 204.314ZM452.919 130.827V145.29H461.552C458.94 140.311 456.062 135.477 452.931 130.807L452.919 130.827ZM370.131 65.5041C369.496 65.263 368.861 65.018 368.222 64.7809C361.483 62.2931 354.596 60.2242 347.601 58.5861L324.139 84.3257L323.689 84.8038L323.99 85.1332H407.494C395.864 77.1307 383.326 70.5349 370.143 65.484L370.131 65.5041ZM409.941 86.8647H322.825L321.113 88.4315V145.286H336.119H336.143H443.201V117.747C433.517 106.038 422.339 95.649 409.953 86.8446L409.941 86.8647Z" fill="#0047AB"/>
<path opacity="0.1" d="M82 78.0806V128.134H51V78.0806H55.4199V61.1338H73.5624V78.0806H82Z" fill="#0047AB"/>
<path opacity="0.1" d="M82 130.134H51V186.134H82V130.134Z" fill="#0047AB"/>
<path opacity="0.1" d="M51 187.134H82V233.345C78.3433 234.384 74.6169 235.167 70.8488 235.688L69.9226 235.8C69.4676 235.852 69.0166 235.897 68.5698 235.941C68.1229 235.985 67.6598 236.017 67.2089 236.045H67.0667C66.8717 236.045 66.6605 236.069 66.4695 236.074H66.2624C66.0186 236.074 65.7749 236.098 65.5311 236.106C65.1858 236.126 64.8405 236.13 64.4871 236.134C64.3368 236.134 64.1946 236.134 64.0443 236.134C63.6949 236.134 63.3496 236.134 63.0003 236.134H62.2325C62.0253 236.134 61.8262 236.134 61.6109 236.134L60.8269 236.106C60.4207 236.106 59.9819 236.061 59.5594 236.033L58.7795 235.977L57.8085 235.889C57.1261 235.828 56.4476 235.752 55.7774 235.66L54.9649 235.547L54.5586 235.491C53.8802 235.386 53.2099 235.274 52.5275 235.145C52.0278 235.061 51.5322 234.956 51.0284 234.856L51 187.134Z" fill="#0047AB"/>
<path opacity="0.1" d="M33 228.134C33.3473 228.345 33.7023 228.54 34.0611 228.751V228.548H37.1145V230.375L37.7634 230.696V228.548H40.8168V232.061C40.8753 232.092 40.9367 232.116 41 232.134V228.134H33Z" fill="#0047AB"/>
<path opacity="0.1" d="M297.976 128.391H298H297.976ZM273.196 247.134H273.598H273.196ZM247.341 186.716C247.418 186.974 247.482 187.231 247.554 187.485C247.49 187.231 247.422 186.974 247.341 186.716ZM297.976 128.378H298H297.976ZM55 68.1338V69.8517H72.9698V68.1338H55ZM273.196 247.134H273.598H273.196ZM247.341 186.716C247.418 186.974 247.482 187.231 247.554 187.485C247.49 187.231 247.422 186.974 247.341 186.716ZM297.976 128.378H298H297.976ZM273.196 247.122H273.598H273.196ZM247.341 186.716C247.418 186.974 247.482 187.231 247.554 187.485C247.49 187.231 247.422 186.974 247.341 186.716Z" fill="#0047AB"/>
<path d="M355.251 339.766H340.212V317.281H342.94H342.971C350.99 317.298 357.486 323.803 357.486 331.827V337.532C357.486 338.766 356.485 339.766 355.251 339.766Z" fill="#0047AB"/>
<path d="M219.234 339.766H234.273V317.281H231.545C231.536 317.281 231.526 317.281 231.517 317.281C223.497 317.297 217 323.803 217 331.827V337.532C217 338.766 218 339.766 219.234 339.766Z" fill="#0047AB"/>
<path d="M339.006 286.028H330.882C329.627 286.028 328.609 285.01 328.609 283.755C328.609 282.499 329.627 281.482 330.882 281.482H339.006C341.122 281.482 342.843 279.76 342.843 277.645V262.81C342.843 261.554 343.861 260.537 345.116 260.537C346.371 260.537 347.389 261.555 347.389 262.81V277.645C347.389 282.267 343.628 286.028 339.006 286.028Z" fill="#99B7BF"/>
<path d="M233.466 256.05C232.211 256.05 231.193 255.033 231.193 253.777V196.208C231.193 194.952 232.211 193.935 233.466 193.935C234.722 193.935 235.739 194.952 235.739 196.208V253.777C235.74 255.033 234.722 256.05 233.466 256.05Z" fill="#1B3C87"/>
<path d="M341.02 253.198C339.764 253.198 338.747 252.18 338.747 250.925V232.612C338.747 216.85 325.923 204.027 310.162 204.027H264.325C248.563 204.027 235.74 216.85 235.74 232.612V250.925C235.74 252.181 234.722 253.198 233.467 253.198C232.211 253.198 231.194 252.18 231.194 250.925V232.612C231.194 214.343 246.056 199.48 264.325 199.48H310.162C328.431 199.48 343.293 214.343 343.293 232.612V250.925C343.293 252.18 342.275 253.198 341.02 253.198Z" fill="#7FB2F9"/>
<path d="M245.705 267.504H231.802C229.21 267.504 227.11 265.403 227.11 262.812V245.607C227.11 243.016 229.21 240.915 231.802 240.915H245.706V267.504H245.705Z" fill="#0047AB"/>
<path d="M328.781 267.504H342.685C345.276 267.504 347.376 265.403 347.376 262.812V245.607C347.376 243.016 345.276 240.915 342.685 240.915H328.781V267.504Z" fill="#0047AB"/>
<path d="M270.097 284.522H304.39V325.31H270.097V284.522Z" fill="#1B3C87"/>
<path d="M313.483 275.312V232.382C313.483 225.563 310.321 219.484 305.382 215.529C305.215 215.536 305.045 215.54 304.872 215.54H269.616C266.05 215.54 263.659 214.02 262.162 211.593C262.084 211.468 261.943 211.395 261.798 211.413C251.199 212.663 242.978 221.677 242.978 232.612V275.081C242.978 286.787 252.467 296.275 264.172 296.275H296.5C306.201 294.23 313.483 285.622 313.483 275.312Z" fill="#BCD6F9"/>
<path d="M310.162 211.265H290.361C302.15 211.265 311.708 220.822 311.708 232.612V275.081C311.708 286.787 302.219 296.276 290.514 296.276H310.315C322.02 296.276 331.509 286.786 331.509 275.081V232.612C331.509 220.822 321.952 211.265 310.162 211.265Z" fill="#BCD6F9"/>
<path d="M330.067 289.041H319.395C316.476 289.041 314.109 286.675 314.109 283.755C314.109 280.836 316.475 278.469 319.395 278.469H330.067C332.987 278.469 335.354 280.835 335.354 283.755C335.354 286.675 332.987 289.041 330.067 289.041Z" fill="#F7D167"/>
<path d="M313.483 232.384C313.483 232.349 313.483 232.315 313.483 232.28H258.699C254.886 232.28 251.796 235.371 251.796 239.183V262.669C251.796 266.482 254.886 269.572 258.699 269.572H313.483V232.384Z" fill="#EAF2FF"/>
<path d="M311.707 232.613V269.572H315.788C319.6 269.572 322.691 266.482 322.691 262.669V239.183C322.691 235.371 319.601 232.28 315.788 232.28H311.699C311.7 232.391 311.707 232.502 311.707 232.613Z" fill="#DBE8F9"/>
<path d="M269.791 257.564C273.458 257.564 276.43 254.591 276.43 250.924C276.43 247.258 273.458 244.285 269.791 244.285C266.124 244.285 263.152 247.258 263.152 250.924C263.152 254.591 266.124 257.564 269.791 257.564Z" fill="#0047AB"/>
<path d="M304.695 257.564C308.362 257.564 311.335 254.591 311.335 250.924C311.335 247.258 308.362 244.285 304.695 244.285C301.029 244.285 298.056 247.258 298.056 250.924C298.056 254.591 301.029 257.564 304.695 257.564Z" fill="#0047AB"/>
<path d="M292.647 287.977H281.839C277.417 287.977 273.82 284.38 273.82 279.959C273.82 278.703 274.838 277.686 276.093 277.686C277.349 277.686 278.366 278.703 278.366 279.959C278.366 281.873 279.924 283.431 281.838 283.431H292.647C294.561 283.431 296.119 281.873 296.119 279.959C296.119 278.703 297.137 277.686 298.392 277.686C299.648 277.686 300.665 278.703 300.665 279.959C300.666 284.38 297.069 287.977 292.647 287.977Z" fill="#EAF2FF"/>
<path d="M309.011 219.23C305.931 215.23 301.48 212.341 296.361 211.266H264.325C263.465 211.266 262.618 211.322 261.785 211.421C262.127 217.478 267.146 222.284 273.288 222.284H301.199C304.214 222.284 306.958 221.126 309.011 219.23Z" fill="#1B3C87"/>
<path d="M310.162 211.266H290.362C297.537 211.266 303.879 214.81 307.75 220.238C310.583 218.276 312.495 215.077 312.702 211.421C311.868 211.322 311.022 211.266 310.162 211.266Z" fill="#6C63FF"/>
<path d="M233.467 200.955C236.731 200.955 239.377 198.309 239.377 195.045C239.377 191.78 236.731 189.134 233.467 189.134C230.202 189.134 227.556 191.78 227.556 195.045C227.556 198.309 230.202 200.955 233.467 200.955Z" fill="#1B3C87"/>
<path d="M315.152 309.385H240.793C235.686 309.385 231.546 313.525 231.546 318.632V339.767H251.305V339.603C251.305 338.471 252.223 337.553 253.355 337.553H321.132C322.264 337.553 323.181 338.471 323.181 339.603V339.767L324.394 337.835V318.632C324.394 313.527 320.257 309.388 315.152 309.385Z" fill="#BCD6F9"/>
<path d="M333.694 309.385H313.935C319.042 309.385 323.182 313.525 323.182 318.632V339.767H342.941V318.632C342.941 313.525 338.801 309.385 333.694 309.385Z" fill="#BCD6F9"/>
<path d="M323.181 339.767V330.139C323.181 328.232 321.635 326.687 319.728 326.687H254.757C252.85 326.687 251.305 328.232 251.305 330.139V339.767H323.181Z" fill="#EAF2FF"/>
<path d="M344.231 191.582C344.995 191.137 349.648 188.256 352.138 183.045C346.485 177.732 343.016 170.23 343.016 162.186C343.016 146.167 356.917 133.134 374.005 133.134C391.092 133.134 404.994 146.167 404.994 162.186C404.994 178.172 391.138 191.48 374.005 191.48C371.713 191.48 369.441 191.244 367.226 190.776C367.137 190.758 366.455 190.674 365.992 190.559C357.091 195.283 345.391 195.093 345.199 195.095C344.363 195.275 343.432 194.816 343.111 193.932C342.752 192.945 343.302 191.907 344.231 191.582ZM364.545 187.214C364.991 186.807 365.63 186.632 366.254 186.804C368.759 187.497 371.366 187.848 374.005 187.848C389.09 187.848 401.362 176.336 401.362 162.186C401.362 148.169 389.09 136.765 374.005 136.765C358.92 136.765 346.647 148.169 346.647 162.186C346.647 169.453 349.875 176.378 355.502 181.185C356.089 181.686 356.294 182.504 356.015 183.223C354.62 186.81 352.316 189.556 350.435 191.359C354.096 191.066 359.175 190.12 364.545 187.214Z" fill="#0047AB"/>
<path d="M374.227 158.4C372.905 158.4 371.833 159.472 371.833 160.795V176.216C371.833 177.539 372.905 178.611 374.227 178.611C375.55 178.611 376.622 177.538 376.622 176.216V160.795C376.622 159.472 375.55 158.4 374.227 158.4Z" fill="#0047AB"/>
<path d="M374.226 155.468C376.012 155.468 377.459 154.02 377.459 152.235C377.459 150.449 376.012 149.002 374.226 149.002C372.441 149.002 370.994 150.449 370.994 152.235C370.994 154.02 372.441 155.468 374.226 155.468Z" fill="#0047AB"/>
<g clip-path="url(#clip0)">
<path fill-rule="evenodd" clip-rule="evenodd" d="M140.976 311.116L136.879 324.531L120.501 325.12L119.406 304.949L140.976 311.116Z" fill="#F77F89"/>
<path fill-rule="evenodd" clip-rule="evenodd" d="M119.782 322.799V340.424L164.067 341.421C164.067 341.421 162.808 328.825 140.163 328.619C140.247 323.084 140.257 322.799 140.257 322.799H119.782Z" fill="#6367FD"/>
<path fill-rule="evenodd" clip-rule="evenodd" d="M99.585 313.651L99.8903 326.86L116.992 327.454L121.436 312.753L99.585 313.651Z" fill="#F77F89"/>
<path fill-rule="evenodd" clip-rule="evenodd" d="M125.448 0.133789C144.058 0.133789 147.91 17.7407 147.92 24.207C147.92 30.3692 146.712 31.3097 146.754 37.5561C146.783 42.3005 148.164 45.6226 148.037 48.3176C147.304 62.3545 128.248 66.4018 122.808 66.4813C117.367 66.5609 93.6792 61.9942 93.6792 51.0829C93.6792 43.4702 98.5418 31.2956 98.4103 22.8407C98.119 5.28064 112.862 0.133789 125.448 0.133789Z" fill="black"/>
<path fill-rule="evenodd" clip-rule="evenodd" d="M99.4907 324.517L99.7444 342.156L143.217 343.134C143.217 343.134 143.217 330.272 119.406 330.033V324.517H99.4907Z" fill="#6367FD"/>
<path fill-rule="evenodd" clip-rule="evenodd" d="M95.2251 192.205L95.3379 315.603L126.402 314.929L126.872 309.216L146.905 311.906L159.618 183.235L152.754 150.286L107.384 149.051L95.2251 192.205Z" fill="#1B3C87"/>
<path fill-rule="evenodd" clip-rule="evenodd" d="M131.824 244.637L150.452 275.813L146.914 311.578L126.848 309.239L131.824 244.637Z" fill="#1B3C87"/>
<path fill-rule="evenodd" clip-rule="evenodd" d="M118.754 160.154H151.754L156.221 111.601L150.26 74.3939L138.984 63.5809L127.68 58.5557L107.267 61.6625L118.754 160.154Z" fill="#F7D167"/>
<path d="M105.777 315.378L105.993 184.119" stroke="#737999" stroke-width="1.7" stroke-linecap="round" stroke-linejoin="round"/>
<path fill-rule="evenodd" clip-rule="evenodd" d="M113.082 57.956C105.368 58.1665 82.3329 66.4951 78.969 74.9453C76.4132 81.3554 74.6608 139.356 80.665 142.187C81.0505 142.372 81.4533 142.519 81.8677 142.626C81.506 144.404 78.0481 185.574 78.9267 188.999C79.8052 192.424 82.112 197.609 85.4524 197.422C98.3771 196.65 122.122 179.754 124.48 176.998C124.842 171.776 125.843 152.162 125.843 152.162L123.785 93.9652L112.006 61.8957C112.006 61.8957 120.797 57.7454 113.082 57.956Z" fill="white"/>
<path fill-rule="evenodd" clip-rule="evenodd" d="M129.893 57.5918C143.155 59.2341 161.878 69.4763 164.288 74.1413C166.317 78.0622 165.289 128.824 165.289 128.824C165.289 128.824 157.771 139.094 161.159 153.866C164.269 167.491 165.19 185.884 161.929 189.323C156.555 186.614 149.644 175.754 148.399 173.078C147.154 170.401 146.829 155.26 145.871 152.022C144.913 148.785 140.623 91.4627 140.623 91.4627C140.623 91.4627 138.622 68.3066 129.893 57.5918Z" fill="white"/>
<path d="M96.5029 62.4668C103.179 74.59 116.705 88.4069 123.677 93.6801" stroke="#C9C9C9" stroke-width="2" stroke-linecap="round" stroke-linejoin="round"/>
<path d="M136.606 58.9814C142.55 66.9637 144.081 80.528 139.425 94.3029" stroke="#C9C9C9" stroke-width="2" stroke-linecap="round" stroke-linejoin="round"/>
<path d="M103.25 96.333C103.25 95.2907 103.56 94.272 104.141 93.4054C104.723 92.5389 105.549 91.8637 106.516 91.465C107.483 91.0664 108.547 90.9624 109.573 91.166C110.6 91.3697 111.542 91.8719 112.282 92.6092C113.022 93.3465 113.525 94.2857 113.729 95.308C113.932 96.3303 113.827 97.3898 113.426 98.3524C113.025 99.315 112.346 100.137 111.475 100.716C110.605 101.294 109.581 101.602 108.535 101.601C107.133 101.6 105.788 101.045 104.797 100.057C103.806 99.0688 103.25 97.7294 103.25 96.333V96.333Z" stroke="#353823" stroke-width="3.41" stroke-linecap="round" stroke-linejoin="round"/>
<path fill-rule="evenodd" clip-rule="evenodd" d="M105.824 96.333C105.824 95.8009 105.982 95.2807 106.279 94.8383C106.576 94.3958 106.998 94.051 107.491 93.8474C107.985 93.6437 108.528 93.5905 109.052 93.6943C109.576 93.7981 110.058 94.0543 110.435 94.4306C110.813 94.8068 111.07 95.2862 111.175 95.8081C111.279 96.33 111.225 96.8709 111.021 97.3625C110.817 97.8542 110.47 98.2743 110.026 98.57C109.582 98.8656 109.059 99.0234 108.525 99.0234C107.809 99.0234 107.122 98.7399 106.615 98.2354C106.108 97.7308 105.824 97.0465 105.824 96.333Z" fill="#353823"/>
<path d="M107.107 91.2563C103.536 78.1974 103.306 60.0243 112.524 56.749" stroke="#353823" stroke-width="3.41" stroke-linecap="round" stroke-linejoin="round"/>
<path d="M128.62 54.5264C133.877 56.7442 138.885 66.9724 140.06 75.7314" stroke="#353823" stroke-width="3.41" stroke-linecap="round" stroke-linejoin="round"/>
<path d="M134.384 92.1832C132.702 84.0886 135.239 76.7427 140.05 75.732C144.861 74.7214 150.128 80.4952 151.796 88.5898C153.463 96.6844 150.941 104.03 146.13 105.036C141.319 106.042 136.066 100.264 134.384 92.1832Z" stroke="#353823" stroke-width="3.41" stroke-linecap="round" stroke-linejoin="round"/>
<path d="M101.666 79.4512L99.6362 118.806" stroke="#C9C9C9" stroke-width="2" stroke-linecap="round" stroke-linejoin="round"/>
<path d="M95.9531 80.6113L101.229 87.9386" stroke="#C9C9C9" stroke-width="2" stroke-linecap="round" stroke-linejoin="round"/>
<path fill-rule="evenodd" clip-rule="evenodd" d="M113.586 115.676L93.2988 120.509L113.586 115.676Z" fill="#606060"/>
<path d="M113.586 115.676L93.2988 120.509" stroke="#C9C9C9" stroke-width="2" stroke-linecap="round" stroke-linejoin="round"/>
<path d="M94.3228 115.105L99.4907 119.036" stroke="#C9C9C9" stroke-width="2" stroke-linecap="round" stroke-linejoin="round"/>
<path d="M114.356 138.467C105.824 141.887 85.5558 145.976 81.7268 142.589C76.6058 138.055 75.1494 91.2606 77.7193 78.8473C79.218 71.623 86.7868 66.9722 90.7332 65.1006" stroke="#C9C9C9" stroke-width="2" stroke-linecap="round" stroke-linejoin="round"/>
<path d="M108.258 140.47C105.824 137.395 104.894 122.067 106.068 117.468" stroke="#C9C9C9" stroke-width="2" stroke-linecap="round" stroke-linejoin="round"/>
<path fill-rule="evenodd" clip-rule="evenodd" d="M108.525 120.463C108.524 120.218 108.596 119.979 108.732 119.775C108.868 119.571 109.061 119.412 109.288 119.318C109.514 119.224 109.764 119.199 110.005 119.246C110.246 119.293 110.467 119.41 110.641 119.583C110.815 119.755 110.934 119.975 110.982 120.215C111.03 120.455 111.006 120.704 110.912 120.93C110.818 121.155 110.659 121.349 110.455 121.485C110.251 121.621 110.011 121.693 109.766 121.693C109.603 121.694 109.442 121.662 109.291 121.601C109.141 121.539 109.004 121.449 108.889 121.334C108.774 121.22 108.682 121.084 108.62 120.935C108.558 120.785 108.525 120.625 108.525 120.463Z" fill="#C9C9C9"/>
<path d="M106.266 158.034C103.568 159.072 100.701 159.603 97.809 159.602C95.6633 159.581 93.5306 159.266 91.4712 158.666C91.3165 159.259 91.2329 159.868 91.2222 160.481V170.256C91.2222 172.303 92.0389 174.267 93.4927 175.715C94.9464 177.162 96.9182 177.976 98.9741 177.976C101.03 177.976 103.002 177.162 104.456 175.715C105.909 174.267 106.726 172.303 106.726 170.256V160.472C106.706 159.64 106.551 158.817 106.266 158.034Z" stroke="#C9C9C9" stroke-width="2" stroke-linecap="round" stroke-linejoin="round"/>
<path fill-rule="evenodd" clip-rule="evenodd" d="M136.334 89.2773H176.846C179.303 89.2773 180.769 91.191 180.135 93.5492L164.494 150.848C164.113 152.052 163.366 153.11 162.356 153.875C161.347 154.64 160.124 155.075 158.857 155.12H118.368C115.915 155.12 114.445 153.206 115.079 150.848L130.715 93.5492C131.094 92.347 131.838 91.2912 132.844 90.5264C133.85 89.7617 135.069 89.3254 136.334 89.2773Z" fill="#0047AB"/>
<path fill-rule="evenodd" clip-rule="evenodd" d="M113.468 118.483C115.259 117.452 117.161 116.625 119.139 116.017C121.99 113.678 124.086 104.437 124.842 103.852C125.599 103.267 128.131 103.646 128.206 104.521C128.535 107.726 128.361 111.47 125.509 114.815C133.806 109.561 134.436 107.23 136.719 108.99C139.003 110.749 139.825 119.33 137.866 122.877C132.472 132.665 118.284 133.989 113.942 134.055C112.862 129.399 112.862 123.771 113.468 118.483Z" fill="#F77F89"/>
<path d="M95.333 305.974L127.412 304.949" stroke="#737999" stroke-width="1.7" stroke-linecap="round" stroke-linejoin="round"/>
<path d="M136.686 181.046L126.886 309.221" stroke="#737999" stroke-width="1.7" stroke-linecap="round" stroke-linejoin="round"/>
<path d="M127.68 298.922L147.938 301.289" stroke="#737999" stroke-width="1.7" stroke-linecap="round" stroke-linejoin="round"/>
<path d="M153.327 246.911C152.087 247.035 150.835 246.883 149.661 246.467C148.487 246.051 147.421 245.38 146.538 244.504C145.656 243.628 144.98 242.567 144.558 241.399C144.137 240.231 143.981 238.985 144.102 237.75C144.223 236.515 144.618 235.321 145.257 234.256C145.897 233.191 146.766 232.281 147.802 231.591C148.837 230.901 150.014 230.448 151.246 230.265C152.479 230.083 153.737 230.174 154.929 230.534" stroke="#737999" stroke-width="1.7" stroke-linecap="round" stroke-linejoin="round"/>
<path d="M131.274 252.652C128.856 252.519 126.585 251.452 124.945 249.678C123.305 247.903 122.425 245.562 122.491 243.151C122.558 240.74 123.567 238.451 125.302 236.769C127.038 235.087 129.364 234.146 131.786 234.146C132.099 234.146 132.395 234.161 132.674 234.189" stroke="#737999" stroke-width="1.7" stroke-linecap="round" stroke-linejoin="round"/>
<path d="M138.18 111.535L130.921 117.323" stroke="#A7464F" stroke-width="3.41" stroke-linecap="round" stroke-linejoin="round"/>
<path d="M138.956 117.524L129.738 124.824" stroke="#A7464F" stroke-width="3.41" stroke-linecap="round" stroke-linejoin="round"/>
<path fill-rule="evenodd" clip-rule="evenodd" d="M179.435 117.248C179.322 115.321 179.905 111.039 181.624 106.955C182.254 105.476 182.291 103.043 180.079 103.043C177.56 103.043 174.192 108.078 175.85 114.071C177.509 120.065 179.599 119.971 179.435 117.248Z" fill="#F77F89"/>
<path fill-rule="evenodd" clip-rule="evenodd" d="M171.636 105.92C173.637 105.92 179.721 117.907 179.679 119.363C179.637 120.818 179.002 123.031 178.058 122.919C177.114 122.806 169.211 112.789 169.211 109.387C169.211 107.417 170.175 105.92 171.636 105.92Z" fill="#F77F89"/>
<path fill-rule="evenodd" clip-rule="evenodd" d="M169.024 112.808C171.518 112.808 178.096 122.362 178.143 123.457C178.19 124.552 176.86 125.558 175.761 125.605C174.661 125.651 166.801 119.232 166.801 116.247C166.787 114.422 167.614 112.808 169.024 112.808Z" fill="#F77F89"/>
<path fill-rule="evenodd" clip-rule="evenodd" d="M171.326 130.677C172.406 130.626 175.413 127.949 175.413 125.844C175.413 125.015 173.313 122.872 172.261 122.938C171.208 123.003 169.061 127.032 169.104 128.057C169.146 129.081 169.912 130.728 171.326 130.677Z" fill="#F77F89"/>
<path d="M175.413 110.352C177.57 113.926 179.703 118.502 179.679 119.363" stroke="#A7464F" stroke-width="3.41" stroke-linecap="round" stroke-linejoin="round"/>
<path d="M170.532 113.51C173.501 115.737 178.091 122.545 178.129 123.457" stroke="#A94B53" stroke-width="3.41" stroke-linecap="round" stroke-linejoin="round"/>
<path fill-rule="evenodd" clip-rule="evenodd" d="M105.626 27.5009C105.626 16.7907 114.229 8.08789 124.861 8.08789C135.493 8.08789 144.076 16.772 144.076 27.4822C144.076 38.1923 135.455 46.8951 124.861 46.8951C114.266 46.8951 105.626 38.2157 105.626 27.5009Z" fill="#F77F89"/>
<path fill-rule="evenodd" clip-rule="evenodd" d="M122.014 28.9002C122.221 27.6649 122.954 26.7525 123.686 26.8742C124.419 26.9958 124.823 28.0907 124.626 29.3259C124.429 30.5612 123.686 31.4736 122.954 31.3566C122.221 31.2396 121.812 30.1401 122.014 28.9002Z" fill="#B5545C"/>
<path fill-rule="evenodd" clip-rule="evenodd" d="M136.489 29.8268C136.682 28.6711 137.377 27.8195 138.049 27.9318C138.721 28.0441 139.111 29.0688 138.923 30.2245C138.735 31.3802 138.03 32.2271 137.358 32.0961C136.686 31.9651 136.297 30.9825 136.489 29.8268Z" fill="#B5545C"/>
<path fill-rule="evenodd" clip-rule="evenodd" d="M108.563 36.0398C109.705 39.2028 112.575 55.6399 111.852 61.6103C114.859 66.1489 128.258 64.8855 132.251 61.0441C130.264 55.5183 130.189 51.5552 130.917 46.895C131.608 42.5342 107.421 32.8862 108.563 36.0398Z" fill="#F77F89"/>
<path fill-rule="evenodd" clip-rule="evenodd" d="M132.467 7.62059C132.632 12.2294 128.408 16.6322 116.926 18.8173C118.185 22.0505 118.288 26.9119 112.016 27.7869C104.701 28.7975 104.104 19.4911 104.104 19.4911L115.061 6.60057C115.061 6.60057 132.308 3.00246 132.467 7.62059Z" fill="black"/>
<path fill-rule="evenodd" clip-rule="evenodd" d="M129.019 4.3776C128.549 8.47168 133.28 18.4145 144.236 18.6858C152.026 18.6858 129.475 0.278835 129.019 4.3776Z" fill="black"/>
<path fill-rule="evenodd" clip-rule="evenodd" d="M116.31 46.2073C115.258 44.8832 116.78 38.8473 118.438 36.082C120.44 34.9076 127.539 35.8855 131.199 32.7506C132.274 31.8148 132.852 32.5073 133.689 33.532C135.159 35.3287 139.58 36.2598 141.234 37.2752C141.478 39.8954 139.063 45.8938 138.02 47.2367C136.385 49.3656 121.441 49.5574 116.31 46.2073Z" fill="white"/>
<path d="M119.406 36.6294C118.439 35.0198 114.21 27.8189 112.862 25.9941" stroke="white" stroke-width="3.41" stroke-linecap="round" stroke-linejoin="round"/>
<path d="M117.142 45.8242C114.281 45.8242 107.478 36.9107 106.703 33.9209" stroke="white" stroke-width="3.41" stroke-linecap="round" stroke-linejoin="round"/>
<path fill-rule="evenodd" clip-rule="evenodd" d="M102.338 29.0915C102.338 27.858 102.705 26.6521 103.393 25.6264C104.081 24.6007 105.06 23.8013 106.204 23.3293C107.348 22.8572 108.607 22.7337 109.822 22.9743C111.037 23.215 112.153 23.809 113.029 24.6813C113.905 25.5536 114.501 26.6649 114.743 27.8748C114.985 29.0846 114.86 30.3387 114.386 31.4784C113.912 32.618 113.11 33.5921 112.08 34.2775C111.05 34.9628 109.839 35.3286 108.601 35.3286C106.94 35.3286 105.347 34.6715 104.172 33.5018C102.998 32.3321 102.338 30.7457 102.338 29.0915Z" fill="#F77F89"/>
<path d="M141.911 338.965L99.6929 338.675" stroke="#1B3C87" stroke-width="1.7" stroke-linecap="round" stroke-linejoin="round"/>
<path d="M142.813 341.028C141.652 337.374 137.114 330.215 119.406 330.042V328.269" stroke="#1B3C87" stroke-width="1.7" stroke-linecap="round" stroke-linejoin="round"/>
<path d="M99.6929 333.827C100.742 333.827 101.78 334.033 102.749 334.433C103.718 334.832 104.599 335.418 105.34 336.157C106.082 336.896 106.67 337.772 107.072 338.737C107.473 339.702 107.68 340.737 107.68 341.781C107.68 341.992 107.68 342.198 107.68 342.404" stroke="#1B3C87" stroke-width="1.7" stroke-linecap="round" stroke-linejoin="round"/>
<path d="M124.085 334.08L126.157 330.505" stroke="#1B3C87" stroke-width="1.7" stroke-linecap="round" stroke-linejoin="round"/>
<path d="M128.962 334.922L130.729 331.413" stroke="#1B3C87" stroke-width="1.7" stroke-linecap="round" stroke-linejoin="round"/>
<path d="M133.576 335.844L135.112 333.004" stroke="#1B3C87" stroke-width="1.7" stroke-linecap="round" stroke-linejoin="round"/>
<path d="M125.185 164.665L147.125 163.981" stroke="#737999" stroke-width="1.7" stroke-linecap="round" stroke-linejoin="round"/>
<path d="M99.5239 326.786L119.407 326.463" stroke="#1B3C87" stroke-width="1.7" stroke-linecap="round" stroke-linejoin="round"/>
<path d="M119.782 324.854L140.229 324.689" stroke="#1B3C87" stroke-width="1.7" stroke-linecap="round" stroke-linejoin="round"/>
<path d="M163.005 338.338L141.196 337.87" stroke="#1B3C87" stroke-width="1.7" stroke-linecap="round" stroke-linejoin="round"/>
<path d="M146.787 329.092L144.908 332.419" stroke="#1B3C87" stroke-width="1.7" stroke-linecap="round" stroke-linejoin="round"/>
<path d="M149.921 329.836L148.042 333.167" stroke="#1B3C87" stroke-width="1.7" stroke-linecap="round" stroke-linejoin="round"/>
<path d="M153.266 330.754L151.387 334.085" stroke="#1B3C87" stroke-width="1.7" stroke-linecap="round" stroke-linejoin="round"/>
<path d="M91.2641 196.276C84.2168 199.214 78.9267 193.978 78.8844 188.789C78.8421 183.601 80.9046 152.64 81.1865 149.552" stroke="#C9C9C9" stroke-width="2" stroke-linecap="round" stroke-linejoin="round"/>
<path d="M165.181 81.5473C165.547 70.9541 154.347 66.1068 149.738 64.0293" stroke="#C9C9C9" stroke-width="2" stroke-linecap="round" stroke-linejoin="round"/>
<path d="M162.991 187.292C163.87 181.645 163.931 166.363 162.446 160.533" stroke="#C9C9C9" stroke-width="2" stroke-linecap="round" stroke-linejoin="round"/>
</g>
<defs>
<clipPath id="clip0">
<rect width="106" height="343" fill="white" transform="translate(76 0.133789)"/>
</clipPath>
</defs>
</svg>
